<svg width="473" height="283" viewBox="0 0 473 283" fill="none" xmlns="http://www.w3.org/2000/svg">
<g clip-path="url(#clip0_114_2491)">
<path d="M322.244 90.7508L320.771 88.6012L319.367 86.4516L318.174 84.1151L317.145 81.7786L316.279 79.3019L315.578 76.7784L315.063 74.1849L314.689 71.381C314.299 67.8949 314.299 64.3762 314.689 60.89C314.923 59.1377 315.227 57.432 315.624 55.703C316.022 53.9739 316.56 52.3384 317.121 50.6561L318.174 51.3337C316.794 52.6888 315.414 54.044 313.917 55.2824C312.426 56.5254 310.864 57.6801 309.238 58.7404C307.628 59.8357 305.939 60.8118 304.186 61.6611C302.442 62.5493 300.645 63.3296 298.805 63.9976L295.998 64.8855L293.144 65.5631C291.206 65.9477 289.245 66.2052 287.273 66.3342C285.295 66.4858 283.309 66.4858 281.331 66.3342C280.342 66.2671 279.358 66.1423 278.384 65.9603C277.397 65.8355 276.419 65.6403 275.46 65.3762C271.613 64.393 267.938 62.8332 264.559 60.7499C262.837 59.7313 261.195 58.5831 259.647 57.3152C258.099 56.0261 256.638 54.6367 255.273 53.1561C253.926 51.6861 252.683 50.1247 251.553 48.4831C250.423 46.8249 249.407 45.0919 248.512 43.296C247.617 41.4928 246.836 39.6355 246.173 37.7351C245.512 35.8278 244.958 33.8856 244.512 31.9171L249.191 32.7115C248.372 34.1368 247.53 35.5621 246.571 36.9407C245.64 38.3201 244.633 39.6462 243.553 40.9128C242.478 42.193 241.322 43.4027 240.091 44.5344C237.646 46.866 234.92 48.8833 231.974 50.5392L229.635 51.7309L227.295 52.7589C225.701 53.39 224.068 53.9207 222.406 54.3478C220.738 54.7624 219.042 55.0513 217.33 55.2123C216.476 55.3126 215.617 55.3672 214.757 55.3759H212.278C211.553 55.3759 210.547 55.2357 209.681 55.1656C208.816 55.0955 207.974 54.9319 207.108 54.7917C205.419 54.4819 203.754 54.0525 202.125 53.5066C200.529 52.9538 198.966 52.3062 197.447 51.5673C195.883 50.8296 194.368 49.9946 192.909 49.0672C191.481 48.134 190.114 47.1117 188.815 46.0064C187.529 44.9082 186.312 43.6699 185.143 42.5016C183.973 41.3333 182.804 39.9781 181.868 38.6463L187.646 37.4781C185.159 47.1756 179.685 55.8475 171.996 62.2686C170.7 63.3419 169.349 64.348 167.949 65.2827L165.985 66.5444L163.645 67.8062C162.177 68.5752 160.67 69.2693 159.131 69.8857C157.599 70.4947 156.038 71.025 154.452 71.4745C152.862 71.9418 151.247 72.2689 149.633 72.5727C148.019 72.8764 146.358 73.04 144.721 73.1568C143.084 73.2736 141.446 73.297 139.809 73.1568C138.173 73.1067 136.542 72.9741 134.92 72.7596C133.292 72.5549 131.676 72.2664 130.078 71.8951C128.487 71.5446 126.92 71.0773 125.399 70.5866L128.58 67.7594C129.324 71.3547 129.638 75.0253 129.516 78.6944C129.471 80.5111 129.299 82.3224 129.001 84.1151C128.729 85.9204 128.346 87.7073 127.855 89.4658C125.878 96.4829 122.272 102.935 117.329 108.298C112.419 113.595 106.418 117.764 99.7378 120.518C93.1186 123.276 85.9954 124.621 78.8252 124.467L79.527 122.317C84.2351 125.59 88.2168 129.798 91.2231 134.678C92.7212 137.145 93.9226 139.78 94.8021 142.528C95.652 145.269 96.178 148.1 96.3694 150.963C96.4745 152.386 96.4745 153.816 96.3694 155.239C96.2939 156.675 96.1141 158.104 95.8313 159.515C95.2967 162.327 94.4249 165.065 93.2348 167.669C90.8235 172.893 87.3779 177.574 83.106 181.431L82.0066 179.095C90.6402 177.555 99.517 178.091 107.902 180.66C112.093 181.93 116.115 183.703 119.879 185.941L121.329 186.829L122.662 187.717C123.528 188.348 124.417 188.838 125.282 189.563L127.902 191.665C128.744 192.39 129.539 193.137 130.241 194.002C131.061 194.739 131.842 195.519 132.58 196.338C133.329 197.156 134.078 197.951 134.756 198.839C136.142 200.554 137.438 202.34 138.639 204.189C139.809 206.067 140.871 208.009 141.82 210.007C142.314 210.994 142.752 212.008 143.13 213.045C143.568 214.067 143.95 215.112 144.277 216.176C144.604 217.227 144.955 218.278 145.236 219.377L145.961 222.624C146.367 224.817 146.632 227.034 146.756 229.26C146.827 230.373 146.827 231.489 146.756 232.601C146.807 233.73 146.8 234.861 146.733 235.989C146.549 238.225 146.237 240.448 145.797 242.648L141.119 240.312C142.589 238.668 144.151 237.108 145.797 235.639C147.45 234.175 149.201 232.824 151.037 231.597C152.862 230.347 154.76 229.208 156.721 228.185C158.683 227.181 160.697 226.284 162.756 225.498C166.899 223.935 171.208 222.853 175.599 222.274C177.794 221.982 180.004 221.818 182.219 221.783H183.856H185.54C186.593 221.783 187.599 221.783 188.769 221.97C190.999 222.174 193.217 222.502 195.412 222.951C197.587 223.442 199.739 224.003 201.845 224.704C203.951 225.414 206.013 226.249 208.02 227.204C209.041 227.649 210.033 228.156 210.991 228.723C211.984 229.224 212.945 229.786 213.868 230.405C215.769 231.567 217.59 232.855 219.319 234.26C221.065 235.666 222.722 237.18 224.278 238.793C225.829 240.409 227.29 242.109 228.652 243.887L230.57 246.667L232.325 249.541L225.798 250.242C228.63 240.499 234.447 231.887 242.43 225.615C244.412 224.05 246.525 222.659 248.746 221.456L250.29 220.615L252.068 219.774C253.261 219.19 254.407 218.746 255.623 218.302C258.017 217.44 260.472 216.76 262.969 216.269C265.471 215.819 268.006 215.576 270.548 215.545C273.091 215.516 275.633 215.688 278.15 216.059C280.644 216.442 283.106 217.004 285.519 217.741C287.917 218.492 290.262 219.405 292.536 220.475C293.682 221.012 294.876 221.573 295.881 222.204L297.589 223.162C298.104 223.512 298.525 223.746 299.109 224.166C301.236 225.634 303.217 227.301 305.028 229.143C306.806 230.872 308.443 232.671 310.01 234.471C313.121 238.069 316.022 241.69 318.993 245.219L312.349 248.256C310.717 239.002 310.363 229.568 311.297 220.218C311.635 217.855 312.112 215.515 312.724 213.208C313.352 210.885 314.133 208.606 315.063 206.386C316 204.17 317.062 202.009 318.244 199.913L319.952 196.993L321.964 193.955C323.335 192.03 324.81 190.181 326.385 188.418C327.944 186.623 329.607 184.922 331.367 183.324L334.057 180.987L336.888 178.838C338.776 177.472 340.736 176.208 342.759 175.053C343.791 174.46 344.853 173.922 345.941 173.441C346.996 172.896 348.082 172.413 349.192 171.992C351.386 171.052 353.646 170.271 355.953 169.655C358.261 169.074 360.605 168.645 362.97 168.37C364.14 168.37 365.309 168.16 366.526 168.09H370.081L368.912 172.763C367.391 171.922 365.894 171.034 364.467 170.053C363.035 169.074 361.66 168.013 360.35 166.875C357.709 164.622 355.353 162.056 353.333 159.234C352.332 157.811 351.418 156.328 350.596 154.795L349.473 152.458L348.514 150.122C347.926 148.493 347.464 146.821 347.134 145.122C346.803 143.402 346.592 141.661 346.502 139.911C346.502 139.094 346.502 138.299 346.502 137.435C346.502 136.57 346.502 135.659 346.666 134.794C346.864 133.087 347.168 131.393 347.578 129.724C348.457 126.448 349.77 123.305 351.485 120.378C353.202 117.459 355.259 114.753 357.613 112.317C358.783 111.125 359.953 109.98 361.309 108.906C362.666 107.831 363.953 106.803 365.309 105.845L365.894 107.247L362.853 107.667L359.765 107.878C355.661 108.089 351.546 107.752 347.531 106.873C345.535 106.438 343.567 105.884 341.637 105.214C340.654 104.863 339.718 104.466 338.759 104.092L336.046 102.807L333.402 101.172L330.876 99.4427L328.537 97.5268L326.315 95.4473L324.233 93.1107L322.338 90.7742L322.244 90.7508ZM322.853 90.3303L324.724 92.6668L326.782 94.8631L328.981 96.8959L331.321 98.7418L333.824 100.401L336.443 101.873L339.157 103.158C340.093 103.508 341.028 103.905 341.964 104.233C343.863 104.864 345.8 105.372 347.765 105.751C349.736 106.121 351.728 106.363 353.73 106.476C355.725 106.581 357.724 106.581 359.719 106.476L362.689 106.172L365.637 105.705L368.771 105.191L366.222 107.083C364.935 108.065 363.649 109.069 362.456 110.144C361.292 111.233 360.183 112.379 359.134 113.579C356.962 115.982 355.092 118.642 353.566 121.5C352.088 124.324 350.995 127.334 350.315 130.448C350.011 131.992 349.8 133.553 349.683 135.121C349.683 135.893 349.683 136.664 349.683 137.458C349.683 138.252 349.683 139.094 349.8 139.795C349.968 141.366 350.225 142.926 350.572 144.468C350.956 145.983 351.432 147.473 351.999 148.93L352.982 151.057L354.081 153.113C354.915 154.438 355.821 155.717 356.795 156.945C358.702 159.405 360.902 161.625 363.344 163.557C364.561 164.515 365.871 165.403 367.181 166.244C368.491 167.085 369.894 167.809 371.298 168.581L379.766 172.81L370.128 173.324L366.947 173.511L363.766 173.908C361.671 174.263 359.601 174.747 357.567 175.356C355.53 176.006 353.537 176.786 351.602 177.693C350.616 178.096 349.655 178.556 348.724 179.072C347.789 179.562 346.83 180.053 345.941 180.637C344.113 181.718 342.355 182.911 340.677 184.212L338.198 186.221L335.859 188.394C334.319 189.866 332.866 191.426 331.508 193.067C330.142 194.69 328.862 196.382 327.671 198.138L326.01 200.731L324.373 203.675C323.387 205.457 322.497 207.29 321.706 209.166C320.923 211.113 320.274 213.112 319.765 215.147C319.222 217.164 318.831 219.218 318.595 221.293C317.843 229.925 318.276 238.619 319.882 247.135L321.87 260.359L313.145 250.172C310.08 246.597 307.11 242.999 304.115 239.588C302.618 237.859 301.121 236.2 299.577 234.681C298.129 233.217 296.565 231.873 294.899 230.662C294.548 230.382 293.963 230.031 293.495 229.727L292.162 229.003C291.25 228.442 290.267 227.975 289.308 227.508C287.364 226.603 285.364 225.822 283.32 225.171C281.277 224.544 279.189 224.075 277.074 223.769C274.978 223.434 272.857 223.285 270.735 223.325C268.619 223.353 266.509 223.533 264.419 223.863C262.34 224.252 260.291 224.79 258.29 225.475C257.304 225.814 256.335 226.204 255.389 226.643L253.986 227.251L252.465 228.068C250.575 229.064 248.775 230.221 247.085 231.527C240.216 236.786 235.176 244.068 232.676 252.345L230.336 260.056L226.196 253.046L224.722 250.546L223.085 248.209C221.928 246.648 220.678 245.158 219.342 243.747C216.661 240.899 213.636 238.395 210.336 236.293C209.532 235.745 208.697 235.246 207.833 234.798C206.985 234.292 206.11 233.832 205.213 233.419C203.447 232.544 201.636 231.764 199.786 231.083C197.938 230.428 196.043 229.938 194.125 229.447C192.207 228.956 190.266 228.699 188.371 228.489C187.459 228.349 186.359 228.325 185.33 228.255H183.856H182.382C180.405 228.26 178.43 228.369 176.464 228.583C172.558 228.954 168.705 229.761 164.979 230.989C163.114 231.671 161.287 232.451 159.505 233.326C157.731 234.202 156.013 235.185 154.359 236.27C152.723 237.341 151.16 238.519 149.68 239.798C148.165 241.074 146.72 242.431 145.353 243.863L138.803 250.593L140.744 241.457C141.129 239.495 141.411 237.514 141.586 235.522C141.789 233.519 141.867 231.506 141.82 229.494C141.777 227.475 141.605 225.462 141.306 223.465L140.721 220.498C140.51 219.493 140.206 218.535 139.949 217.554C139.679 216.573 139.359 215.606 138.99 214.657C138.681 213.69 138.306 212.745 137.867 211.83C137.073 209.958 136.158 208.14 135.13 206.386C134.076 204.635 132.928 202.942 131.692 201.315C131.083 200.497 130.405 199.726 129.727 198.979C129.078 198.161 128.383 197.38 127.645 196.642L125.446 194.516L123.107 192.553C122.381 191.899 121.422 191.292 120.604 190.661L119.294 189.749L118.054 188.955C111.036 184.545 103.063 181.878 94.8021 181.174C92.7378 181.046 90.6675 181.046 88.6032 181.174C86.5331 181.265 84.4707 181.484 82.4276 181.829L78.1235 182.483L81.3282 179.586C85.3576 176.002 88.6268 171.648 90.9424 166.781C92.0691 164.348 92.9091 161.792 93.4453 159.164C93.7064 157.853 93.8861 156.526 93.9834 155.192C94.0773 153.862 94.0773 152.527 93.9834 151.197C93.9368 149.857 93.7961 148.522 93.5623 147.201C93.323 145.882 93.0027 144.579 92.6032 143.299C91.7745 140.744 90.6437 138.297 89.2348 136.009C86.3908 131.389 82.6147 127.41 78.1469 124.327L75.0591 122.177H78.8486C85.6624 122.198 92.4045 120.789 98.6384 118.041C104.826 115.308 110.324 111.229 114.732 106.102C119.101 101.023 122.211 94.9875 123.808 88.4844C124.194 86.8741 124.491 85.2439 124.697 83.6011C124.896 81.9653 124.989 80.3186 124.978 78.671C124.968 75.3721 124.567 72.086 123.785 68.881L122.873 64.8855L126.943 66.007C128.37 66.4043 129.797 66.7781 131.224 67.0585C132.651 67.3389 134.124 67.5725 135.598 67.6893C137.072 67.8062 138.522 67.8763 139.972 67.8996C141.423 67.923 142.896 67.8996 144.347 67.666C145.797 67.4323 147.247 67.2921 148.674 66.9884C150.101 66.6846 151.505 66.3342 152.885 65.8902C154.27 65.4638 155.629 64.9567 156.955 64.3715C158.265 63.8107 159.575 63.1331 160.838 62.4555L162.639 61.4041L164.558 60.119C168.136 57.6736 171.295 54.6676 173.914 51.2168C177.403 46.6175 179.933 41.3657 181.353 35.7724L183.014 29.3937L187.108 34.6041C188.002 35.7649 188.955 36.88 189.962 37.9454C190.939 38.9939 191.97 39.9921 193.049 40.9361C194.156 41.8617 195.312 42.7274 196.511 43.5297C197.702 44.3421 198.944 45.0758 200.231 45.726C201.5 46.3702 202.813 46.9245 204.161 47.3849C205.507 47.8484 206.882 48.223 208.278 48.5065C209.66 48.7788 211.059 48.9584 212.465 49.0439H213.658H214.664C215.365 49.0439 216.091 49.0439 216.792 49.0439C218.248 48.8881 219.693 48.6462 221.12 48.3195C222.515 48.0044 223.89 47.6064 225.237 47.1279L227.249 46.3101L229.19 45.3522C230.471 44.6411 231.713 43.8611 232.91 43.0156C234.113 42.1781 235.261 41.2651 236.348 40.2819C237.426 39.3777 238.45 38.4102 239.413 37.3846C240.398 36.2609 241.319 35.083 242.173 33.8564C243.062 32.6648 243.881 31.5199 244.676 30.1647L248.161 24.6973L249.354 30.9358C249.705 32.7115 250.103 34.4873 250.617 36.2163C251.138 37.9565 251.779 39.6584 252.536 41.31C253.247 42.9797 254.092 44.5894 255.062 46.1232C256.013 47.6729 257.068 49.1561 258.22 50.5626C259.398 51.95 260.664 53.2611 262.009 54.488C263.358 55.7182 264.805 56.8357 266.337 57.8292C267.866 58.8426 269.478 59.7258 271.156 60.4695C272.818 61.2353 274.539 61.8681 276.302 62.3621C277.176 62.6379 278.067 62.8564 278.969 63.0163C279.881 63.2032 280.793 63.3901 281.706 63.4836C283.543 63.7258 285.397 63.8273 287.25 63.7873C289.106 63.7396 290.958 63.5758 292.794 63.2967L295.53 62.7593L298.244 62.0349C300.025 61.4667 301.774 60.8038 303.484 60.0489C305.209 59.2885 306.881 58.4142 308.49 57.432C310.117 56.4501 311.68 55.3653 313.168 54.1842C314.644 53.013 316.057 51.7652 317.402 50.4458L319.414 48.5532L318.455 51.1C317.847 52.7122 317.332 54.3478 316.864 55.9833C316.396 57.6189 316.092 59.3246 315.835 61.0302C315.583 62.7253 315.434 64.4341 315.39 66.1472C315.39 67.8763 315.39 69.5819 315.578 71.2876L315.928 73.8344L316.42 76.3578L317.098 78.8579L317.917 81.1945L318.899 83.531L320.046 85.8675L321.355 88.204L322.806 90.377L322.853 90.3303Z" fill="black"/>
<path d="M184.464 36.59C181.807 46.9932 175.519 56.1074 166.733 62.2918C160.897 66.3489 154.199 68.9985 147.165 70.0324C140.131 71.0662 132.952 70.4561 126.194 68.2499C127.258 73.0176 127.527 77.928 126.99 82.7831C124.323 106.405 103.293 123.649 78.8485 123.369C83.3719 126.368 87.1738 130.331 89.9808 134.973C92.7878 139.615 94.5302 144.82 95.0827 150.215C95.4238 155.913 94.435 161.612 92.1942 166.863C89.9534 172.114 86.5218 176.773 82.1702 180.473C95.3761 178.186 108.959 180.983 120.183 188.301C129.076 193.816 136.054 201.932 140.168 211.547C144.282 221.162 145.333 231.809 143.177 242.041C148.353 236.438 154.669 232.006 161.702 229.044C168.734 226.082 176.32 224.658 183.95 224.867C193.152 224.922 202.18 227.386 210.131 232.015C218.081 236.644 224.677 243.275 229.26 251.247C232.479 240.465 239.645 231.288 249.331 225.545C264.185 216.759 281.097 217.904 295.437 226.456C302.314 230.568 307.998 238.139 316.116 247.789C313.613 230.779 312.958 217.624 320.794 202.694C331.367 182.459 351.017 170.613 370.151 170.8C357.754 164.398 349.099 153.37 348.186 140.262C347.274 127.154 354.221 114.56 365.801 106.522C349.169 109.536 332.303 103.999 322.548 90.6338C318.507 84.931 315.962 78.3074 315.144 71.3685C314.327 64.4296 315.264 57.3968 317.87 50.9129C305.308 63.6937 287.226 68.7873 271.273 62.3151C264.961 59.6043 259.429 55.3571 255.184 49.9612C250.938 44.5654 248.113 38.1931 246.968 31.4263L240.582 37.0807C233.526 43.3435 224.543 47.0178 215.116 47.4978C205.689 47.9777 196.379 45.2347 188.722 39.7209L184.464 36.59Z" fill="white"/>
<path d="M184.675 37.2209C184.324 38.5528 184.02 39.8846 183.552 41.193C183.066 42.6883 182.496 44.1548 181.844 45.5857L180.838 47.7353C180.488 48.4363 180.067 49.0905 179.692 49.7914C178.906 51.1636 178.031 52.4826 177.072 53.7402C176.14 55.0227 175.141 56.255 174.078 57.4319C173.002 58.6001 171.739 59.7684 170.71 60.7965C169.68 61.8246 168.37 62.8059 166.897 63.7872L163.014 66.334C161.61 67.0817 160.113 67.7827 158.663 68.507C157.189 69.1544 155.682 69.7238 154.148 70.2127C152.626 70.7547 151.061 71.1689 149.47 71.451L147.13 71.9417L144.791 72.1754C143.187 72.3926 141.567 72.4707 139.949 72.409C138.34 72.4439 136.73 72.3737 135.13 72.1987C133.539 71.9651 131.902 71.8482 130.335 71.5211L125.656 70.3762L128.37 67.8762C128.786 69.6558 129.098 71.4579 129.305 73.2735C129.54 75.0866 129.657 76.9129 129.656 78.741C129.656 79.6522 129.656 80.5635 129.656 81.4981V82.8533C129.656 83.5542 129.539 83.7879 129.493 84.2786C129.277 86.0577 128.949 87.8215 128.51 89.5591C128.276 90.4704 128.066 91.405 127.808 92.3162L126.873 94.9098C126.195 96.6375 125.414 98.3229 124.533 99.9566C123.668 101.592 122.709 103.158 121.703 104.63C120.622 106.178 119.451 107.66 118.194 109.069L116.346 111.125L114.334 113.018C112.977 114.268 111.548 115.439 110.054 116.523C108.58 117.621 106.989 118.579 105.375 119.56C103.761 120.541 102.147 121.359 100.416 122.037C98.7392 122.8 97.0119 123.448 95.2465 123.976C93.4929 124.558 91.7036 125.026 89.8896 125.378C88.0831 125.77 86.2555 126.059 84.4159 126.243C82.5679 126.429 80.7199 126.406 78.8719 126.5L80.7667 120.822L84.2989 123.532L87.5504 126.593L90.4978 129.981C91.34 131.219 92.2523 132.318 93.0476 133.696C93.8429 135.075 94.5681 136.336 95.1763 137.692C95.7845 139.047 96.3927 140.472 96.8371 141.944C97.2816 143.416 97.726 144.841 97.9366 146.36L98.264 148.697L98.4278 149.818V151.103C98.5097 152.519 98.5097 153.939 98.4278 155.356C98.3094 156.923 98.1063 158.483 97.8196 160.029C97.4453 161.477 97.188 162.996 96.6734 164.421C96.1587 165.847 95.6909 167.295 95.0125 168.627C94.3342 169.959 93.7026 171.361 92.9072 172.623C92.1119 173.884 91.3166 175.146 90.4043 176.338C89.492 177.529 88.5329 178.674 87.5504 179.796L84.3925 182.927L81.6556 177.389L85.0241 176.969L86.7083 176.758H88.3925H91.7844L95.1529 176.969C97.3841 177.057 99.6092 177.26 101.82 177.576C103.972 178.137 106.194 178.581 108.299 179.352C110.425 180.069 112.503 180.92 114.522 181.899C116.547 182.844 118.509 183.921 120.393 185.123C120.908 185.45 121.259 185.637 121.89 186.058L123.177 186.992C124.042 187.646 124.884 188.16 125.773 188.932L128.393 191.268C129.212 192.016 129.984 192.81 130.732 193.605C131.481 194.399 132.253 195.24 133.072 196.081C133.824 196.896 134.527 197.754 135.177 198.651C136.523 200.413 137.772 202.246 138.92 204.142C140.029 206.063 141.029 208.044 141.914 210.077C142.385 211.081 142.799 212.111 143.154 213.161C143.505 214.213 143.926 215.241 144.183 216.316C144.44 217.39 144.791 218.442 145.025 219.54L145.657 222.788C145.985 224.947 146.188 227.124 146.265 229.307C146.323 230.412 146.323 231.519 146.265 232.625C146.249 233.727 146.163 234.827 146.008 235.919C145.774 238.106 145.399 240.276 144.885 242.415L142.031 240.919C143.621 239.447 145.095 237.858 146.709 236.503L149.259 234.54L150.546 233.559L151.926 232.718C153.704 231.515 155.573 230.453 157.516 229.54L160.417 228.138C161.423 227.741 162.429 227.414 163.435 227.04C164.441 226.666 165.446 226.269 166.476 225.989L169.657 225.241C171.731 224.719 173.843 224.359 175.973 224.166C178.089 223.882 180.224 223.749 182.359 223.769H183.973H185.61L188.722 224.05C189.774 224.05 190.804 224.05 191.856 224.377L195.038 225.078L198.195 225.779C199.225 226.036 200.207 226.479 201.213 226.807C203.25 227.434 205.236 228.215 207.155 229.143L210.009 230.592L211.459 231.316L212.792 232.204C214.572 233.377 216.289 234.64 217.938 235.989C219.529 237.414 221.213 238.746 222.617 240.288C224.02 241.83 225.471 243.513 226.804 245.172L230.313 250.569L227.974 250.826C228.678 248.543 229.538 246.31 230.547 244.144C231.04 243.046 231.594 241.977 232.208 240.943C232.764 239.883 233.389 238.86 234.079 237.882C235.426 235.894 236.903 233.997 238.5 232.204L241.05 229.657C241.915 228.816 242.875 228.092 243.787 227.321C244.757 226.555 245.781 225.86 246.851 225.241L248.348 224.236C249.05 223.793 249.424 223.652 249.986 223.349C252.036 222.161 254.189 221.16 256.419 220.358L259.927 219.143C261.097 218.769 262.267 218.629 263.483 218.372C264.699 218.115 265.822 217.834 267.085 217.741L270.735 217.554H272.559C273.167 217.554 273.752 217.554 274.36 217.554L278.01 217.881C280.349 218.185 282.688 218.839 285.027 219.376C287.367 219.914 289.706 220.872 291.834 221.947L295.109 223.582C295.694 223.886 296.092 224.049 296.817 224.47L298.291 225.428C299.333 226.148 300.333 226.929 301.285 227.765C302.338 228.559 303.109 229.4 304.045 230.101C305.8 231.783 307.437 233.512 309.004 235.265C312.162 238.793 315.18 242.274 318.197 245.849L313.332 248.046L312.349 241.293C312.139 238.957 311.788 236.62 311.671 234.424C311.483 232.092 311.413 229.753 311.46 227.414C311.46 226.222 311.46 225.078 311.46 223.886L311.835 220.358C312.107 217.997 312.529 215.656 313.098 213.348C313.706 211.012 314.501 208.675 315.273 206.549C316.045 204.423 317.121 202.226 318.291 200.053L319.952 197.109L321.917 194.049C323.301 192.098 324.792 190.226 326.385 188.441C327.91 186.617 329.543 184.885 331.274 183.254L333.917 180.917L336.724 178.581C338.662 177.177 340.677 175.882 342.759 174.702C343.765 174.071 344.841 173.534 345.917 172.996C346.971 172.429 348.057 171.922 349.169 171.478C351.373 170.543 353.64 169.763 355.952 169.141C358.257 168.485 360.601 167.978 362.97 167.622C364.186 167.622 365.309 167.342 366.596 167.249L370.222 167.108L368.514 174.118L363.836 171.478C362.362 170.473 360.958 169.375 359.508 168.323C358.058 167.272 356.865 165.987 355.531 164.702C354.198 163.417 353.192 161.968 351.999 160.613C350.806 159.258 350.011 157.575 349.005 155.94C347.999 154.304 347.414 152.622 346.666 150.963C345.917 149.304 345.543 147.458 345.075 145.706L344.631 142.972L344.443 141.617V140.916V140.589V139.981C344.443 138.322 344.443 136.734 344.443 135.005C344.443 133.275 344.911 131.126 345.309 129.28C345.707 127.434 346.291 125.729 346.946 124.046C347.601 122.364 348.397 120.682 349.286 119.093C350.175 117.504 351.157 115.962 352.21 114.42C353.262 112.878 354.549 111.569 355.648 110.261C356.748 108.952 358.175 107.714 359.485 106.522L363.695 103.204L366.643 110.214C364.645 110.562 362.631 110.803 360.607 110.938C358.582 111.055 356.551 111.055 354.525 110.938C353.496 110.938 352.49 110.798 351.484 110.681C350.479 110.564 349.473 110.424 348.467 110.237C346.447 109.893 344.454 109.409 342.502 108.789C338.582 107.587 334.844 105.857 331.391 103.648C330.525 103.064 329.683 102.503 328.841 101.896L326.502 99.98L324.162 97.8771C323.437 97.1294 322.759 96.3584 322.057 95.5406C321.355 94.7228 320.771 93.9284 320.116 93.2041L319.882 92.9003V92.7368L319.671 92.4564L319.297 91.8723L318.548 90.6573L317.075 88.3207C316.583 87.4796 316.139 86.4282 315.694 85.4702C315.25 84.5122 314.806 83.5075 314.408 82.5262L313.542 79.5821C312.94 77.6296 312.509 75.6281 312.256 73.6006C311.964 71.5812 311.823 69.5427 311.835 67.5023C311.823 65.4797 311.94 63.4584 312.186 61.4507C312.42 59.4413 312.934 57.4786 313.308 55.5159C313.683 53.5533 314.501 51.684 315.11 49.7681L320.537 53.2028C319.063 54.6047 317.566 56.0066 315.975 57.2683C314.375 58.5312 312.704 59.7014 310.969 60.7731C309.242 61.8576 307.445 62.8255 305.589 63.6704C303.737 64.5662 301.83 65.3466 299.881 66.0069L296.934 66.8481L293.916 67.4556C291.889 67.7938 289.842 68.0045 287.788 68.0864C285.733 68.1446 283.676 68.0509 281.635 67.8061C279.597 67.5728 277.579 67.1822 275.6 66.6378C274.603 66.3835 273.619 66.0793 272.653 65.7265L271.203 65.1891L270.852 65.049H270.665L270.407 64.9321L269.752 64.605L266.852 63.0863L265.565 62.432L264.255 61.5675C262.489 60.4612 260.829 59.194 259.296 57.7824L256.957 55.7262C256.255 54.9785 255.623 54.1841 254.968 53.3897C254.286 52.647 253.646 51.8669 253.05 51.0532L251.53 48.5297C250.451 46.8334 249.497 45.0607 248.676 43.2258C247.764 41.4267 247.249 39.4874 246.524 37.6181C245.799 35.7489 245.565 33.7395 245.073 31.8236L248.372 32.9217L241.658 38.6462C240.489 39.5341 239.459 40.4687 238.126 41.3099C236.867 42.1713 235.554 42.9517 234.196 43.6464C232.875 44.3745 231.508 45.0145 230.102 45.5623C228.722 46.1932 227.225 46.567 225.822 47.0577C224.418 47.5484 222.898 47.8288 221.401 48.0391C219.924 48.3038 218.431 48.4755 216.933 48.5531C215.437 48.6349 213.937 48.6349 212.441 48.5531C210.944 48.5531 209.447 48.3194 207.973 48.1559C206.5 47.9923 205.026 47.7119 203.599 47.268C202.155 46.909 200.733 46.4643 199.342 45.9362C197.928 45.4954 196.538 44.9807 195.178 44.3941C193.845 43.7632 192.581 42.9454 191.318 42.2211C190.055 41.4968 188.862 40.5388 187.716 39.6509L184.675 37.2209ZM184.301 36.0293L188.371 38.7397C189.564 39.5808 190.71 40.2818 192.02 41.0762C193.33 41.8706 194.57 42.408 195.88 42.9454C197.168 43.5045 198.488 43.9882 199.833 44.3941C201.179 44.8451 202.555 45.2042 203.95 45.4689C205.342 45.757 206.747 45.9754 208.161 46.1231C209.587 46.1231 210.991 46.3334 212.395 46.2867C213.811 46.2871 215.225 46.1935 216.629 46.0063C218.029 45.8621 219.419 45.6359 220.792 45.3287C222.172 45.0717 223.506 44.581 224.863 44.2072C226.219 43.8333 227.506 43.2959 228.769 42.6417C230.043 42.0793 231.278 41.4314 232.465 40.7024C233.67 40.0014 234.826 39.2208 235.927 38.3658C237.027 37.6415 238.266 36.5433 239.272 35.6555L245.635 29.8142L247.974 27.6646L248.933 30.9123C249.448 32.6881 249.869 34.4638 250.454 36.1929C251.077 37.9027 251.787 39.5794 252.582 41.2164C253.378 42.8439 254.301 44.4064 255.343 45.8894L256.91 48.1091C257.465 48.8188 258.058 49.4974 258.688 50.1419C259.296 50.7962 259.881 51.4971 260.512 52.128L262.547 53.857C263.876 54.983 265.301 55.9915 266.805 56.8711C267.179 57.1048 267.507 57.3618 267.881 57.5721L269.191 58.1796L271.787 59.3946L272.442 59.6983H272.279H272.442H272.746L274.01 60.1423C274.845 60.4329 275.696 60.6747 276.559 60.8666C277.409 61.1202 278.277 61.3077 279.156 61.4273C280.03 61.59 280.913 61.707 281.799 61.7778C283.564 61.9454 285.339 61.9844 287.109 61.8946C288.883 61.7817 290.648 61.5633 292.396 61.2404L294.992 60.6329L297.542 59.8619C299.226 59.2733 300.874 58.5867 302.478 57.8057C304.096 57.0245 305.659 56.1345 307.156 55.1421C308.672 54.1859 310.118 53.1241 311.484 51.9644C312.855 50.817 314.167 49.6004 315.414 48.3194L324.467 39.721L320.981 51.9644C320.513 53.6467 319.952 55.3056 319.531 56.9879C319.11 58.6702 318.829 60.4226 318.689 62.1517C318.521 63.8753 318.459 65.6075 318.502 67.3388C318.516 69.0544 318.672 70.7659 318.969 72.4557C319.204 74.155 319.595 75.8288 320.139 77.4559L320.911 79.7924L321.94 81.9888C322.314 82.7365 322.548 83.4608 322.993 84.3253L324.513 86.6618L325.262 87.8534L325.66 88.4609C325.66 88.4609 325.8 88.6946 325.66 88.274V88.4142L325.87 88.6479C326.408 89.3021 326.899 90.0031 327.484 90.6339L329.239 92.4798L331.11 94.2088L333.122 95.7743L335.25 97.1995C338.162 99.0226 341.31 100.438 344.607 101.405C346.254 101.905 347.935 102.288 349.637 102.55C350.479 102.714 351.33 102.831 352.186 102.901C353.04 103.009 353.899 103.072 354.759 103.088C356.489 103.193 358.223 103.193 359.952 103.088C361.684 102.971 363.391 102.737 365.122 102.457L380.07 100.12L368.07 109.466L364.491 112.27C363.368 113.298 362.338 114.373 361.239 115.424C360.14 116.476 359.344 117.761 358.385 118.883C357.426 120.004 356.795 121.383 356.046 122.621C355.297 123.859 354.806 125.308 354.175 126.616C353.543 127.925 353.309 129.42 352.865 130.822C352.42 132.224 352.444 133.509 352.186 134.864C351.929 136.22 352.186 138.112 352.186 139.748L352.771 143.813L353.964 148.019L355.812 152.014C356.607 153.253 357.356 154.515 358.151 155.753C358.947 156.991 360.023 158.089 361.029 159.164C362.034 160.239 363.181 161.267 364.327 162.248L367.953 164.959L371.906 167.295L383.041 173.884L370.175 174.188H367.064L363.976 174.468C361.909 174.753 359.862 175.166 357.847 175.707C355.813 176.252 353.82 176.939 351.882 177.763C350.898 178.134 349.937 178.563 349.005 179.048C348.069 179.515 347.11 179.959 346.221 180.52C344.378 181.561 342.597 182.708 340.888 183.955L338.362 185.894L336.022 187.997C334.458 189.466 332.981 191.027 331.601 192.67C330.186 194.26 328.873 195.937 327.671 197.694L325.94 200.287L324.045 203.278C323.04 205.03 322.197 207.086 321.262 208.956C320.326 210.825 319.788 212.928 319.203 214.96C318.652 217.004 318.23 219.079 317.94 221.176L317.636 224.307C317.636 225.358 317.636 226.433 317.496 227.508C317.332 229.657 317.496 231.83 317.496 234.003C317.496 236.176 317.847 238.396 318.01 240.569L318.829 247.181L319.975 256.527L313.94 249.307C310.946 245.686 308.069 242.017 305.121 238.513C303.647 236.76 302.15 235.078 300.583 233.489C299.788 232.741 299.016 231.854 298.244 231.153C297.45 230.417 296.606 229.738 295.718 229.12L294.267 228.115C294.01 227.951 293.355 227.624 292.91 227.391L289.986 225.779C288.021 224.727 285.869 224.096 283.811 223.208C281.752 222.32 279.6 222.274 277.261 221.97L273.963 221.573C273.401 221.573 272.863 221.433 272.302 221.409H270.711H267.366C266.259 221.514 265.158 221.678 264.068 221.9C262.966 222.042 261.873 222.244 260.793 222.507L257.658 223.489C255.482 224.197 253.376 225.105 251.366 226.199C250.898 226.433 250.196 226.737 249.916 226.923L248.512 227.811C247.539 228.382 246.609 229.022 245.728 229.727C244.863 230.428 243.927 231.082 243.085 231.83L240.746 234.167C239.187 235.793 237.764 237.544 236.489 239.4C235.817 240.312 235.215 241.273 234.687 242.274C234.097 243.238 233.566 244.237 233.097 245.265C232.09 247.318 231.215 249.433 230.477 251.597L229.588 254.144L228.114 251.807L224.839 246.667C223.576 245.055 222.219 243.536 220.909 241.994C219.599 240.452 217.938 239.26 216.441 237.858C214.944 236.456 213.12 235.522 211.482 234.26L210.219 233.396L208.839 232.695L206.125 231.316C204.307 230.364 202.404 229.582 200.441 228.98C199.459 228.652 198.523 228.232 197.517 227.998L194.546 227.367L191.576 226.643C190.57 226.643 189.494 226.643 188.371 226.409L185.236 226.152L183.763 226.036H182.219C180.168 226.036 178.121 226.177 176.09 226.456C174.06 226.686 172.05 227.069 170.078 227.601L167.318 228.466C166.335 228.746 165.4 229.167 164.441 229.517C163.481 229.867 162.546 230.218 161.587 230.615L158.873 232.017C157.051 232.921 155.3 233.959 153.633 235.125L152.347 235.966L151.177 236.924L148.838 238.863C147.294 240.195 145.961 241.737 144.534 243.162L140.744 246.877L141.657 241.667C142.052 239.659 142.333 237.631 142.499 235.592C142.499 234.564 142.499 233.536 142.499 232.531C142.557 231.512 142.557 230.49 142.499 229.47C142.366 227.433 142.116 225.404 141.75 223.395L141.072 220.428C140.814 219.447 140.487 218.489 140.183 217.507C139.52 215.576 138.739 213.688 137.844 211.853C136.966 210.026 135.99 208.247 134.92 206.526C133.82 204.818 132.617 203.18 131.317 201.619C130.7 200.802 130.037 200.022 129.329 199.282C128.627 198.558 127.972 197.787 127.2 197.109L124.861 195.077L122.522 193.254C121.699 192.606 120.84 192.006 119.949 191.455L118.639 190.567L117.399 189.866C115.667 188.839 113.869 187.926 112.019 187.132C110.225 186.334 108.381 185.655 106.498 185.1C104.603 184.469 102.615 184.118 100.673 183.651C98.7006 183.301 96.7088 183.067 94.7084 182.95H91.7142L88.72 183.09H87.2229L85.7492 183.324L82.8018 183.721L73.2578 185.053L80.0415 178.184L82.755 175.426C83.5971 174.468 84.3691 173.44 85.0942 172.459C85.8194 171.478 86.4978 170.333 87.2229 169.281C87.9481 168.23 88.3925 166.945 88.9773 165.917C89.5622 164.889 89.8663 163.58 90.3341 162.412C90.8019 161.244 90.9423 160.075 91.2698 158.767C91.5973 157.459 91.5739 156.43 91.761 155.215C91.8334 154.563 91.8334 153.905 91.761 153.253V150.262C91.761 150.262 91.761 150.659 91.761 150.472L91.6207 149.538L91.3634 147.692C91.1441 146.461 90.8552 145.245 90.4978 144.047C90.147 142.832 89.5855 141.71 89.1645 140.519C88.7434 139.327 87.9949 138.182 87.4101 137.177C86.8253 136.173 85.9831 135.098 85.2814 134.047L82.8018 131.126L80.0415 128.486L77.0005 126.149L70.287 120.869L78.8251 120.471C80.4626 120.471 82.1 120.471 83.7375 120.261C85.362 120.117 86.9781 119.891 88.5797 119.583C90.165 119.306 91.7285 118.915 93.2581 118.415C94.8522 117.974 96.4151 117.428 97.9366 116.78C99.4804 116.242 100.884 115.354 102.358 114.677C103.831 113.999 105.188 113.018 106.521 112.06C107.862 111.127 109.143 110.113 110.358 109.022L112.182 107.387L113.867 105.588C114.966 104.385 115.997 103.121 116.954 101.803C117.89 100.447 118.779 99.0688 119.598 97.6668C120.396 96.2393 121.107 94.7646 121.726 93.2508L122.639 90.9143L123.317 88.5778C123.803 86.9567 124.162 85.3006 124.393 83.6243C124.485 83.2481 124.547 82.8653 124.58 82.4794L124.697 81.2411C124.697 80.4233 124.884 79.6055 124.861 78.9046C124.919 77.2599 124.873 75.6132 124.721 73.9745C124.721 72.3156 124.276 70.68 124.042 69.0444L123.598 65.4228L126.826 66.3107L131.107 67.5023C132.557 67.8528 134.031 67.993 135.504 68.2734C136.977 68.477 138.462 68.5863 139.949 68.6005C141.428 68.7285 142.915 68.7285 144.393 68.6005L146.733 68.4603L148.932 68.0631C150.404 67.8308 151.858 67.495 153.282 67.0584C154.721 66.687 156.135 66.2266 157.516 65.6798C158.873 65.0957 160.23 64.5583 161.61 63.9274L165.61 61.5909C166.803 60.8666 167.949 59.8385 169.259 58.9974C170.569 58.1562 171.599 57.0347 172.628 55.9599C173.702 54.8945 174.717 53.7713 175.669 52.5953C176.638 51.4274 177.537 50.2024 178.359 48.9269L179.599 47.011L180.698 45.0016C181.421 43.6597 182.069 42.2791 182.64 40.8659C183.248 39.464 183.669 37.9453 184.184 36.4966L184.301 36.0293Z" fill="black"/>
<path d="M140.089 60.2358C137.937 59.9047 135.805 59.4522 133.703 58.8807C129.711 57.7969 125.845 56.2931 122.171 54.3945C118.614 52.5542 115.312 50.2609 112.346 47.5719C110.972 46.4342 109.788 45.0855 108.837 43.5764C110.343 44.4951 111.761 45.551 113.071 46.7307C116.168 49.057 119.519 51.0245 123.06 52.5954C126.692 54.2189 130.477 55.479 134.358 56.3572C137.633 57.1049 140.019 57.3386 140.464 57.432C142.288 57.6657 143.715 58.39 143.692 59.161C143.668 59.9321 142.031 60.4929 140.089 60.2358Z" fill="black"/>
<path d="M298.454 44.6978C298.876 44.4875 301.098 43.5763 304.022 41.9407C307.494 39.9716 310.762 37.6627 313.776 35.048C316.725 32.5566 319.385 29.743 321.706 26.6598C322.648 25.1723 323.712 23.7655 324.888 22.4541C324.383 24.185 323.592 25.8196 322.548 27.2907C320.486 30.7218 317.976 33.8645 315.086 36.6368C312.113 39.4986 308.843 42.0364 305.332 44.2072C303.489 45.3557 301.575 46.3858 299.601 47.2914C297.823 48.1092 296.092 48.0391 295.835 47.2914C295.577 46.5437 296.794 45.4455 298.454 44.6978Z" fill="black"/>
<path d="M114.007 83.087C114.246 80.9363 114.246 78.7656 114.007 76.6149C113.568 72.4326 112.512 68.3383 110.872 64.4649C109.232 60.6543 107.26 56.9953 104.978 53.53C103.817 52.0729 102.798 50.5081 101.937 48.8569C103.427 50.0515 104.755 51.4337 105.89 52.9692C108.529 56.3091 110.818 59.9106 112.72 63.7172C114.674 67.7182 115.992 71.9986 116.627 76.4046C116.965 78.7259 117.02 81.0796 116.791 83.4142C116.604 85.5638 115.434 87.1292 114.685 86.8488C113.937 86.5685 113.82 84.9796 114.007 83.087Z" fill="black"/>
<path d="M200.394 35.5621C198.646 34.2746 196.974 32.8859 195.388 31.4031C192.353 28.5964 189.638 25.4618 187.295 22.0569C185.002 18.787 183.154 15.2278 181.798 11.4725C181.083 9.82699 180.648 8.07388 180.511 6.2854C181.438 7.76534 182.221 9.33009 182.85 10.9585C184.5 14.456 186.54 17.7559 188.932 20.7952C191.376 23.9201 194.126 26.7927 197.143 29.3703C199.693 31.5666 201.821 32.8751 202.055 33.1788C203.552 34.2303 204.394 35.5153 204.114 36.1929C203.833 36.8705 201.985 36.6836 200.394 35.5621Z" fill="black"/>
<path d="M166.593 43.6465C167.813 41.8595 168.84 39.9484 169.657 37.9453C171.251 34.0358 172.245 29.9081 172.604 25.7019C172.961 21.574 172.961 17.423 172.604 13.295C172.205 11.4602 172.001 9.58834 171.996 7.71069C172.752 9.45666 173.271 11.2953 173.54 13.1782C174.324 17.3676 174.662 21.6284 174.546 25.8889C174.414 30.3328 173.569 34.7268 172.043 38.9033C171.262 41.1387 170.201 43.2663 168.885 45.2353C167.715 47.0344 165.961 47.8989 165.423 47.2914C164.885 46.6839 165.54 45.2353 166.593 43.6465Z" fill="black"/>
<path d="M262.43 37.735C261.468 35.7972 260.632 33.7992 259.928 31.7535C258.555 27.8633 257.606 23.8369 257.097 19.7437C256.564 15.7816 256.564 11.7662 257.097 7.8041C257.28 6.01243 257.771 4.26564 258.547 2.64038C258.62 4.40275 258.557 6.1681 258.36 7.92093C258.214 11.7789 258.488 15.6414 259.179 19.44C259.901 23.3321 261.006 27.1435 262.477 30.8189C263.717 33.9498 264.816 36.0293 265.074 36.4499C265.892 38.0855 266.126 39.6509 265.471 40.0949C264.816 40.5388 263.226 39.4874 262.43 37.735Z" fill="black"/>
<path d="M228.722 29.3235C230.631 28.3088 232.427 27.0948 234.079 25.7019C237.287 23.0054 240.084 19.8571 242.383 16.3558C244.587 12.8466 246.488 9.15726 248.068 5.3274C248.655 3.51048 249.439 1.76325 250.407 0.116943C250.242 1.98466 249.833 3.82279 249.191 5.58441C247.934 9.64601 246.248 13.5623 244.161 17.267C241.965 21.1457 239.17 24.6546 235.88 27.6646C234.139 29.2692 232.215 30.665 230.149 31.8236C228.255 32.8517 226.313 32.8049 226.126 32.0339C225.939 31.2628 227.061 30.375 228.722 29.3235Z" fill="black"/>
<path d="M329.355 68.7174C328.463 66.5271 327.842 64.2358 327.508 61.8947C326.807 57.4985 326.807 53.0194 327.508 48.6232C328.251 44.4269 329.443 40.3223 331.063 36.3798C331.686 34.5763 332.56 32.8694 333.66 31.3096C333.332 33.1721 332.815 34.9963 332.116 36.7537C330.923 40.7151 330.078 44.7726 329.589 48.8802C329.126 53.0628 329.284 57.2908 330.057 61.4274C330.47 63.5518 331.105 65.6271 331.952 67.6192C332.677 69.3716 332.958 70.937 332.326 71.4044C331.695 71.8717 330.151 70.7034 329.355 68.7174Z" fill="black"/>
<path d="M91.7377 106.289C89.337 107.825 86.7711 109.086 84.0885 110.05C79.0286 111.883 73.703 112.877 68.3221 112.994C63.162 113.075 58.0106 112.542 52.9768 111.406C50.7079 110.958 48.4956 110.26 46.3802 109.326C48.6744 109.447 50.9528 109.775 53.1874 110.307C58.1658 111.035 63.2048 111.262 68.2286 110.985C73.3341 110.637 78.3538 109.493 83.106 107.597C85.5625 106.603 87.9134 105.366 90.1236 103.905C92.0886 102.644 93.8664 101.873 94.4278 102.387C94.9892 102.901 93.8898 104.91 91.7377 106.289Z" fill="black"/>
<path d="M346.713 83.5075C348.921 84.9709 351.273 86.2077 353.73 87.1992C358.499 89.0924 363.534 90.2277 368.654 90.5638C373.678 90.8627 378.719 90.6356 383.696 89.8862C385.928 89.3851 388.196 89.057 390.479 88.9048C388.376 89.8499 386.17 90.5477 383.906 90.9843C378.864 92.1206 373.705 92.6539 368.538 92.5732C363.155 92.475 357.826 91.48 352.771 89.6292C350.094 88.6626 347.529 87.4091 345.122 85.8907C342.97 84.4888 341.824 82.5495 342.408 81.9887C342.993 81.428 344.748 82.2458 346.713 83.5075Z" fill="black"/>
<path d="M87.9949 197.063C87.5504 197.063 85.258 196.245 81.9363 195.637C78.0239 194.932 74.0516 194.611 70.0765 194.68C66.1986 194.74 62.3391 195.226 58.5675 196.128C56.8828 196.682 55.1531 197.089 53.3978 197.343C54.8743 196.293 56.5199 195.502 58.2634 195.007C62.0377 193.701 65.9726 192.914 69.9595 192.67C74.0857 192.347 78.2348 192.472 82.334 193.044C85.8194 193.535 88.2522 194.212 88.7434 194.306C90.6148 194.843 91.9248 195.988 91.6207 196.642C91.3166 197.296 89.7727 197.553 87.9949 197.063Z" fill="black"/>
<path d="M289.589 240.242C291.856 241.338 294.058 242.563 296.185 243.91C300.22 246.479 303.968 249.471 307.367 252.836C310.694 256.065 313.58 259.718 315.952 263.7C317.111 265.42 318.01 267.302 318.618 269.285C317.3 267.714 316.096 266.051 315.016 264.308C312.393 260.645 309.364 257.291 305.987 254.308C302.54 251.225 298.794 248.494 294.805 246.153C291.437 244.19 288.864 243.069 288.396 242.835C286.454 241.924 285.074 240.732 285.331 240.008C285.589 239.284 287.554 239.284 289.589 240.242Z" fill="black"/>
<path d="M76.5796 163.907C75.8411 166.164 74.8442 168.328 73.6087 170.356C71.2796 174.152 68.3757 177.565 65.0004 180.473C61.7491 183.232 58.2125 185.637 54.4505 187.646C52.8145 188.652 51.0527 189.438 49.2107 189.983C50.6481 188.748 52.217 187.675 53.8891 186.782C57.3479 184.46 60.6033 181.849 63.6203 178.978C66.6995 176.076 69.3253 172.728 71.4099 169.048C72.4038 167.144 73.1881 165.139 73.7491 163.066C74.3339 161.267 75.1292 159.889 75.9012 159.912C76.6731 159.935 77.2345 161.875 76.5796 163.907Z" fill="black"/>
<path d="M160.44 250.172C160.019 250.336 157.704 250.966 154.616 252.275C150.953 253.813 147.451 255.707 144.16 257.929C140.942 260.102 137.976 262.625 135.317 265.453C133.142 267.789 131.879 269.425 131.668 269.285C132.34 267.583 133.288 266.004 134.475 264.612C136.913 261.439 139.77 258.609 142.967 256.2C146.251 253.681 149.796 251.519 153.54 249.751C155.509 248.867 157.523 248.087 159.575 247.415C161.446 246.807 163.177 247.064 163.318 247.859C163.458 248.653 162.195 249.611 160.44 250.172Z" fill="black"/>
<path d="M132.651 228.676C133.278 230.963 133.631 233.316 133.703 235.686C133.854 240.137 133.301 244.584 132.066 248.864C130.872 252.918 129.248 256.835 127.224 260.546C126.382 262.236 125.32 263.807 124.066 265.219C124.599 263.412 125.321 261.666 126.218 260.009C127.843 256.23 129.15 252.322 130.124 248.326C131.06 244.222 131.383 240.001 131.083 235.802C130.915 233.649 130.523 231.519 129.914 229.447C129.399 227.601 129.306 226.036 129.914 225.638C130.522 225.241 132.066 226.643 132.651 228.676Z" fill="black"/>
<path d="M248.021 249.564C247.787 249.962 246.407 251.901 244.816 254.868C242.94 258.363 241.412 262.033 240.255 265.827C239.139 269.524 238.433 273.331 238.149 277.182C238.147 278.951 238.007 280.716 237.728 282.463C237.205 280.745 236.967 278.953 237.027 277.159C236.93 273.163 237.363 269.172 238.313 265.289C239.27 261.255 240.667 257.338 242.477 253.607C243.427 251.659 244.481 249.764 245.635 247.929C246.711 246.293 248.208 245.429 248.816 245.943C249.424 246.457 249.027 248.046 248.021 249.564Z" fill="black"/>
<path d="M210.898 248.49C212.76 249.95 214.447 251.62 215.927 253.466C218.726 256.934 220.96 260.822 222.547 264.985C224.066 268.971 225.156 273.106 225.798 277.322C226.136 279.195 226.246 281.101 226.126 283C225.456 281.234 224.978 279.401 224.699 277.533C223.713 273.534 222.391 269.626 220.746 265.85C219.04 261.994 216.761 258.418 213.985 255.242C212.597 253.606 211.027 252.133 209.307 250.849C207.81 249.681 206.78 248.513 206.968 247.765C207.155 247.018 209.19 247.181 210.898 248.49Z" fill="black"/>
<path d="M333.519 226.386C332.386 228.234 331.461 230.2 330.759 232.251C329.361 236.222 328.572 240.381 328.42 244.588C328.317 248.729 328.568 252.872 329.168 256.971C329.624 258.807 329.875 260.688 329.917 262.579C329.079 260.865 328.466 259.051 328.092 257.182C327.084 253.048 326.519 248.818 326.408 244.564C326.313 240.078 326.937 235.605 328.256 231.316C328.935 229.049 329.877 226.869 331.063 224.821C332.139 222.975 333.847 222.017 334.432 222.484C335.016 222.951 334.478 224.751 333.519 226.386Z" fill="black"/>
<path d="M373.169 153.299C374.315 155.142 375.665 156.851 377.193 158.393C380.143 161.371 383.517 163.898 387.204 165.893C390.881 167.834 394.715 169.46 398.667 170.753C400.512 171.168 402.308 171.779 404.023 172.576C402.111 172.57 400.207 172.311 398.362 171.805C394.204 170.866 390.158 169.488 386.292 167.692C382.252 165.799 378.534 163.284 375.274 160.239C373.498 158.63 371.927 156.81 370.596 154.818C369.403 153.019 369.309 151.08 370.081 150.823C370.853 150.566 372.023 151.711 373.169 153.299Z" fill="black"/>
<path d="M365.263 120.214C369.482 114.94 374.597 110.448 380.374 106.943C384.071 104.733 388.136 103.206 392.374 102.433C394.252 101.935 396.227 101.935 398.105 102.433C398.105 102.62 395.766 102.62 392.608 103.532C388.627 104.629 384.85 106.365 381.427 108.672C376.06 112.326 371.32 116.824 367.391 121.99C366.175 123.556 364.678 124.327 364.023 124C363.368 123.672 363.999 121.85 365.263 120.214Z" fill="black"/>
<path d="M78.9421 147.388C77.5054 145.167 75.8436 143.1 73.983 141.22C70.3787 137.583 66.2271 134.532 61.6787 132.177C57.1954 129.914 52.4926 128.113 47.6434 126.803C45.3827 126.389 43.1605 125.787 41 125.004C43.3045 124.99 45.6034 125.233 47.8539 125.729C52.9282 126.692 57.8682 128.261 62.5676 130.402C67.454 132.654 71.9414 135.684 75.8544 139.374C77.9173 141.333 79.7605 143.511 81.3515 145.869C82.7785 147.996 83.0358 150.262 82.2872 150.542C81.5387 150.823 80.2521 149.351 78.9421 147.388Z" fill="black"/>
<path d="M356.35 188.535C358.752 187.006 361.317 185.752 363.999 184.796C369.054 182.945 374.383 181.95 379.766 181.852C384.934 181.76 390.095 182.293 395.134 183.441C397.399 183.877 399.604 184.575 401.708 185.52C399.424 185.37 397.156 185.042 394.924 184.539C389.947 183.79 384.906 183.563 379.883 183.861C374.762 184.198 369.727 185.333 364.958 187.226C362.496 188.207 360.144 189.445 357.941 190.918C355.952 192.179 354.198 192.974 353.637 192.437C353.075 191.899 354.198 189.936 356.35 188.535Z" fill="black"/>
</g>
<path d="M30.0885 141.33C30.4312 160.28 31.8427 176.809 34.323 190.917L23.7985 197.109L19.8582 160.446L11.3778 164.306L9.56838 150.934L30.0885 141.33Z" fill="#16BBD9"/>
<path fill-rule="evenodd" clip-rule="evenodd" d="M33.9764 135.094L34.0878 141.258C34.4279 160.062 35.8277 176.375 38.2626 190.224L38.7431 192.957L20.4838 203.7L16.4731 166.382L8.13573 170.177L5.21035 148.558L33.9764 135.094ZM19.8582 160.446L23.7985 197.109L34.323 190.917C32.0353 177.905 30.6568 162.833 30.1876 145.7C30.1481 144.258 30.1151 142.802 30.0885 141.33L9.56841 150.934L11.3778 164.306L19.8582 160.446Z" fill="black"/>
<path d="M57.6344 131.567C62.4728 130.436 66.5256 132.329 69.7928 137.246C71.4934 139.785 72.7331 142.72 73.5119 146.053C74.2587 149.248 74.5902 152.829 74.5065 156.796C74.3112 163.581 72.7662 170.152 69.8714 176.509C66.3411 184.266 61.7459 188.806 56.086 190.128C51.202 191.27 47.1035 189.388 43.7906 184.482C42.1677 182.069 40.9721 179.219 40.204 175.933C39.4466 172.692 39.1272 169.06 39.2459 165.037C39.4305 158.206 40.9474 151.618 43.7965 145.272C47.3162 137.469 51.9288 132.901 57.6344 131.567ZM59.1383 149.123C56.6278 149.71 54.5518 152.361 52.9102 157.078C51.568 160.809 50.8488 164.323 50.7526 167.619C50.7259 169.358 50.8672 170.889 51.1766 172.213C51.614 174.085 52.4278 175.507 53.6181 176.48C54.9773 177.559 56.5927 177.879 58.4641 177.442C61.0202 176.844 63.0106 174.959 64.4351 171.786C65.5769 169.257 66.1716 166.446 66.2191 163.354C66.2863 159.728 65.6794 156.307 64.3985 153.093C63.0826 149.934 61.3292 148.611 59.1383 149.123Z" fill="#16BBD9"/>
<path fill-rule="evenodd" clip-rule="evenodd" d="M66.2191 163.354C66.2862 159.728 65.6793 156.307 64.3985 153.093C63.0826 149.934 61.3292 148.611 59.1382 149.123C56.6278 149.71 54.5517 152.361 52.9101 157.078C51.5679 160.809 50.8488 164.323 50.7526 167.619C50.7259 169.358 50.8672 170.889 51.1766 172.213C51.614 174.085 52.4278 175.507 53.6181 176.48C54.9773 177.559 56.5926 177.879 58.4641 177.442C61.0202 176.844 63.0105 174.959 64.4351 171.786C65.5769 169.257 66.1716 166.446 66.2191 163.354ZM56.1284 173.366C56.4138 173.586 56.7482 173.735 57.5537 173.547C58.5228 173.32 59.6924 172.583 60.786 170.148L60.7894 170.14C61.6818 168.163 62.1795 165.9 62.2196 163.292L62.2198 163.28C62.2773 160.171 61.761 157.292 60.6944 154.603C60.4496 154.02 60.2209 153.608 60.0293 153.328C59.9623 153.23 59.9035 153.154 59.8544 153.095C59.328 153.368 58.0583 154.455 56.6878 158.393L56.681 158.412L56.6741 158.431C55.4508 161.832 54.8366 164.917 54.7517 167.708C54.7306 169.193 54.8553 170.377 55.0716 171.303C55.3534 172.508 55.7803 173.073 56.1284 173.366ZM40.4756 186.72L40.4716 186.714C38.5384 183.84 37.17 180.527 36.309 176.843C35.4587 173.206 35.121 169.222 35.2475 164.924C35.4472 157.557 37.0865 150.451 40.1474 143.633L40.1503 143.627C43.9357 135.235 49.3224 129.402 56.724 127.672C59.9142 126.927 63.0658 127.146 65.9955 128.515C68.8658 129.855 71.2075 132.149 73.1201 135.026C75.1171 138.009 76.532 141.399 77.4069 145.142C78.2438 148.723 76.5894 167.552 76.5 171.786M69.7928 137.246C66.5256 132.329 62.4728 130.436 57.6344 131.567C51.9288 132.901 47.3162 137.469 43.7965 145.272C40.9474 151.618 39.4305 158.206 39.2459 165.037C39.1272 169.06 39.4465 172.692 40.204 175.933C40.9721 179.219 42.1677 182.069 43.7906 184.482C47.1035 189.388 51.2019 191.27 56.0859 190.128C61.7459 188.806 66.341 184.266 69.8714 176.509C72.7662 170.152 74.3112 163.581 74.5065 156.796C74.5902 152.829 74.2587 149.248 73.5119 146.053C72.7331 142.72 71.4934 139.785 69.7928 137.246ZM76.5 171.786C72.7053 180.124 64.3492 192.305 56.9963 194.023C53.7918 194.772 50.6268 194.561 47.6797 193.208C44.7868 191.879 42.4171 189.595 40.4756 186.72" fill="black"/>
<path fill-rule="evenodd" clip-rule="evenodd" d="M105.812 154.33C105.879 150.704 105.272 147.284 103.992 144.069C102.676 140.911 100.922 139.588 98.7313 140.1C96.2208 140.687 94.1448 143.338 92.5032 148.054C91.161 151.786 90.4418 155.299 90.3457 158.595C90.3189 160.334 90.4603 161.866 90.7696 163.19C91.2071 165.061 92.0209 166.484 93.2112 167.457C94.5704 168.535 96.1857 168.856 98.0572 168.418C100.613 167.821 102.604 165.936 104.028 162.762C105.17 160.233 105.765 157.422 105.812 154.33ZM95.7214 164.342C96.0069 164.563 96.3412 164.712 97.1468 164.523C98.1159 164.297 99.2855 163.56 100.379 161.124L100.382 161.117C101.275 159.14 101.773 156.877 101.813 154.269L101.813 154.256C101.87 151.148 101.354 148.268 100.288 145.58C100.043 144.996 99.814 144.585 99.6224 144.305C99.5554 144.207 99.4966 144.131 99.4474 144.072C98.921 144.345 97.6513 145.432 96.2809 149.369L96.2741 149.389L96.2671 149.408C95.0439 152.809 94.4296 155.893 94.3448 158.684C94.3237 160.17 94.4484 161.354 94.6647 162.279C94.9464 163.485 95.3734 164.049 95.7214 164.342ZM80.0687 177.697L80.0647 177.691C78.1315 174.817 76.763 171.504 75.902 167.82C75.0518 164.182 74.7141 160.198 74.8405 155.901C75.0403 148.534 76.6796 141.428 79.7405 134.61L79.7434 134.603C83.5287 126.212 88.9154 120.379 96.3171 118.649C99.5073 117.903 102.659 118.123 105.589 119.491C108.459 120.832 110.801 123.126 112.713 126.002C114.71 128.985 118.125 132.505 119 136.248C119.837 139.829 117.5 158.684 115 162.762M109.386 128.223C106.119 123.306 102.066 121.413 97.2275 122.544C91.5219 123.877 86.9092 128.445 83.3896 136.248C80.5404 142.594 79.0235 149.183 78.8389 156.014C78.7202 160.037 79.0396 163.669 79.7971 166.91C80.5652 170.196 81.7607 173.046 83.3837 175.458C86.6966 180.364 90.795 182.246 95.679 181.105C101.339 179.782 105.934 175.242 109.464 167.485C112.359 161.128 113.904 154.557 114.1 147.772C114.183 143.805 113.852 140.224 113.105 137.029C112.326 133.697 111.086 130.762 109.386 128.223ZM115 162.762C111.205 171.1 103.942 183.281 96.5894 185C93.3849 185.749 90.2199 185.538 87.2728 184.184C84.3798 182.856 82.0101 180.572 80.0687 177.697" fill="black"/>
<path d="M99.1988 123.4C104.09 122.525 108.038 124.629 111.042 129.711C112.606 132.336 113.69 135.332 114.292 138.701C114.87 141.931 115.013 145.524 114.72 149.481C114.168 156.247 112.28 162.727 109.055 168.923C105.121 176.484 100.293 180.776 94.5717 181.799C89.6344 182.682 85.6407 180.587 82.5905 175.513C81.0967 173.018 80.0527 170.11 79.4585 166.788C78.8726 163.511 78.7447 159.868 79.0749 155.856C79.6186 149.045 81.48 142.545 84.6591 136.358C88.5844 128.751 93.4309 124.432 99.1988 123.4ZM99.777 141.011C97.2391 141.465 95.0265 144.003 93.139 148.627C91.6024 152.282 90.6993 155.753 90.4299 159.04C90.3117 160.775 90.3723 162.312 90.6116 163.65C90.95 165.542 91.6879 167.005 92.8253 168.04C94.1259 169.188 95.7221 169.593 97.614 169.255C100.198 168.793 102.285 167.015 103.874 163.921C105.148 161.455 105.889 158.68 106.099 155.594C106.357 151.977 105.931 148.529 104.821 145.252C103.673 142.028 101.992 140.615 99.777 141.011Z" fill="#16BBD9"/>
<path fill-rule="evenodd" clip-rule="evenodd" d="M106.099 155.594C106.357 151.977 105.931 148.529 104.821 145.252C103.673 142.028 101.992 140.615 99.777 141.011C97.2391 141.465 95.0265 144.003 93.139 148.627C91.6024 152.282 90.6994 155.753 90.4299 159.04C90.3117 160.775 90.3723 162.312 90.6116 163.65C90.95 165.542 91.6879 167.005 92.8253 168.04C94.1259 169.188 95.7221 169.593 97.614 169.255C100.198 168.793 102.285 167.015 103.874 163.921C105.148 161.455 105.889 158.68 106.099 155.594ZM95.4959 165.062C95.7693 165.297 96.0954 165.463 96.9098 165.317C97.8895 165.142 99.0962 164.468 100.316 162.093L100.32 162.086C101.315 160.158 101.931 157.925 102.109 155.323L102.109 155.31C102.331 152.209 101.966 149.306 101.043 146.565C100.829 145.97 100.622 145.546 100.446 145.257C100.384 145.156 100.329 145.076 100.283 145.015C99.7431 145.26 98.418 146.279 96.8423 150.138L96.8345 150.158L96.8265 150.177C95.426 153.508 94.6504 156.556 94.4188 159.339C94.3196 160.821 94.3818 162.01 94.5491 162.946C94.7671 164.164 95.1638 164.75 95.4959 165.062ZM118.708 149.791L118.707 149.806C118.111 157.118 122.171 143.152 118.707 149.806M118.708 149.791L118.709 149.776ZM79.1623 177.574L79.1586 177.568C77.3793 174.596 76.187 171.216 75.521 167.492C74.8633 163.814 74.7357 159.818 75.088 155.533C75.675 148.187 77.6859 141.177 81.1012 134.53L81.1045 134.523C85.326 126.342 91.0121 120.801 98.4946 119.463C101.72 118.886 104.855 119.271 107.709 120.792C110.505 122.281 112.722 124.696 114.481 127.669C116.318 130.753 117.553 134.212 118.23 137.996C118.877 141.616 119.021 145.552 118.709 149.776M111.042 129.711C108.038 124.629 104.09 122.525 99.1988 123.4C93.4309 124.432 88.5844 128.751 84.6591 136.358C81.48 142.545 79.6186 149.045 79.0749 155.856C78.7448 159.868 78.8726 163.511 79.4585 166.788C80.0527 170.11 81.0967 173.018 82.5905 175.513C85.6407 180.587 89.6344 182.682 94.5717 181.799C100.293 180.775 105.121 176.484 109.055 168.923C112.28 162.727 114.168 156.247 114.72 149.481C115.013 145.524 114.87 141.931 114.292 138.701C113.69 135.332 112.606 132.336 111.042 129.711ZM118.707 149.806C114.479 157.933 102.709 184.407 95.2759 185.736C92.0365 186.316 88.8869 185.938 86.0151 184.432C83.1961 182.953 80.9498 180.547 79.1623 177.574" fill="black"/>
<path d="M159.049 117.936L170.053 120.174C164.844 128.019 160.099 135.365 155.816 142.21C157.353 141.614 158.816 141.191 160.203 140.942C164.551 140.174 168.159 140.809 171.028 142.847C173.234 144.44 174.482 146.541 174.774 149.15C174.857 149.895 174.852 150.697 174.759 151.557C174.358 155.563 172.356 159.183 168.755 162.415C165.413 165.429 161.661 167.31 157.499 168.058C154.585 168.572 151.93 168.444 149.533 167.674C146.737 166.713 144.8 164.995 143.722 162.521C141.545 166.255 139.189 170.503 136.655 175.267L125.955 174.481L140.803 149.051C138.8 150.124 136.759 150.847 134.678 151.221C130.19 152.005 126.559 151.372 123.783 149.324C121.577 147.731 120.331 145.653 120.045 143.091C119.956 142.299 119.958 141.473 120.051 140.614C120.453 136.607 122.454 132.988 126.055 129.756C129.398 126.741 133.15 124.86 137.311 124.113C140.406 123.531 143.238 123.757 145.806 124.791C148.763 125.923 150.682 127.902 151.563 130.728L159.049 117.936ZM158.556 154.073C157.22 154.364 155.999 155.043 154.892 156.109C153.785 157.176 153.304 158.362 153.45 159.666C153.564 160.691 154.092 161.411 155.035 161.824C155.827 162.16 156.73 162.225 157.745 162.017C159.127 161.721 160.351 161.066 161.416 160.05C162.477 158.989 162.934 157.806 162.789 156.501C162.68 155.523 162.177 154.824 161.281 154.406C160.432 153.982 159.524 153.871 158.556 154.073ZM135.664 137.244C134.324 137.488 133.102 138.166 132 139.28C130.893 140.347 130.412 141.532 130.558 142.837C130.787 144.887 132.242 145.667 134.923 145.179C136.264 144.935 137.464 144.283 138.525 143.221C139.585 142.159 140.043 140.976 139.897 139.672C139.793 138.74 139.293 138.065 138.398 137.646C137.543 137.175 136.632 137.041 135.664 137.244Z" fill="#16BBD9"/>
<path fill-rule="evenodd" clip-rule="evenodd" d="M157.042 113.446L176.671 117.438L173.385 122.386C170.098 127.338 166.998 132.087 164.084 136.633C167.46 136.712 170.599 137.635 173.344 139.586L173.357 139.595L173.37 139.604C176.453 141.83 178.327 144.929 178.749 148.706C178.869 149.776 178.856 150.869 178.738 151.97C178.214 157.154 175.61 161.636 171.431 165.388C167.573 168.867 163.149 171.107 158.207 171.995L158.194 171.997C154.752 172.604 151.426 172.483 148.309 171.482L148.27 171.47L148.232 171.456C146.805 170.966 145.507 170.307 144.359 169.48C143.029 171.86 141.639 174.415 140.186 177.145L138.962 179.447L119.268 178L132.4 155.509C128.336 155.739 124.578 154.875 121.424 152.554C118.37 150.343 116.488 147.28 116.069 143.535C115.947 142.434 115.953 141.32 116.073 140.2C116.597 135.016 119.201 130.534 123.38 126.782C127.235 123.307 131.652 121.068 136.588 120.178C140.31 119.482 143.913 119.724 147.269 121.068C148.763 121.644 150.098 122.405 151.249 123.345L157.042 113.446ZM151.563 130.728C151.082 129.186 150.292 127.896 149.193 126.858C148.278 125.995 147.149 125.306 145.806 124.791C143.238 123.757 140.407 123.531 137.311 124.112C133.15 124.86 129.398 126.741 126.055 129.756C122.454 132.988 120.453 136.607 120.051 140.614C119.959 141.473 119.956 142.299 120.045 143.091C120.331 145.653 121.577 147.731 123.783 149.324C126.559 151.372 130.19 152.004 134.678 151.22C134.763 151.205 134.847 151.189 134.932 151.173C136.925 150.787 138.882 150.08 140.803 149.051L125.955 174.48L136.655 175.267C138.321 172.135 139.91 169.226 141.421 166.539C142.209 165.139 142.976 163.8 143.722 162.521C144.327 163.909 145.202 165.058 146.347 165.97C147.243 166.684 148.305 167.252 149.533 167.674C151.93 168.444 154.585 168.572 157.499 168.058C161.661 167.31 165.413 165.429 168.755 162.415C172.356 159.183 174.358 155.563 174.759 151.556C174.852 150.697 174.857 149.895 174.774 149.149C174.482 146.541 173.234 144.44 171.028 142.846C168.439 141.008 165.249 140.311 161.457 140.757C161.046 140.805 160.628 140.867 160.203 140.942C158.816 141.191 157.353 141.614 155.816 142.21C156.865 140.533 157.942 138.827 159.046 137.09C161.755 132.831 164.631 128.392 167.674 123.772C168.456 122.585 169.249 121.385 170.053 120.174L159.049 117.936L151.563 130.728ZM138.398 137.646C139.293 138.065 139.793 138.74 139.897 139.672C140.043 140.976 139.586 142.159 138.525 143.221C137.464 144.282 136.264 144.935 134.923 145.179C132.242 145.667 130.787 144.886 130.558 142.837C130.412 141.532 130.893 140.347 132 139.28C133.102 138.166 134.324 137.487 135.664 137.243C136.632 137.041 137.543 137.175 138.398 137.646ZM161.281 154.405C162.177 154.824 162.68 155.523 162.789 156.501C162.934 157.806 162.477 158.989 161.416 160.05C160.351 161.065 159.127 161.721 157.745 162.017C156.73 162.224 155.827 162.16 155.035 161.824C154.092 161.41 153.564 160.691 153.45 159.666C153.304 158.362 153.785 157.176 154.892 156.109C155.999 155.042 157.22 154.364 158.556 154.073C159.524 153.871 160.432 153.981 161.281 154.405ZM133.398 141.315C133.396 141.315 133.395 141.315 133.395 141.315Z" fill="black"/>
<path d="M222.36 114.075C227.234 113.957 230.883 116.517 233.308 121.756L225.577 130.666C224.472 129.568 223.217 129.035 221.811 129.07C219.327 129.13 216.802 131.325 214.234 135.655C212.118 139.223 210.768 142.538 210.186 145.6C209.894 147.06 209.762 148.377 209.79 149.548C209.866 152.688 211.067 154.815 213.392 155.931C214.151 156.288 214.952 156.456 215.795 156.435C218.232 156.376 220.742 154.51 223.325 150.836L225.778 159.146C221.265 164.414 216.618 167.106 211.838 167.222C206.964 167.341 203.34 164.85 200.965 159.75C199.533 156.784 198.772 153.45 198.682 149.748C198.616 147.03 198.897 144.14 199.526 141.077C200.78 134.81 203.313 129.051 207.123 123.801C211.705 117.453 216.784 114.211 222.36 114.075Z" fill="#16BBD9"/>
<path fill-rule="evenodd" clip-rule="evenodd" d="M238.025 122.424L225.793 136.52L222.758 133.503C222.334 133.081 222.1 133.064 221.908 133.068C221.876 133.069 221.482 133.081 220.678 133.78C219.857 134.494 218.839 135.732 217.675 137.695C215.721 140.987 214.588 143.864 214.116 146.346L214.112 146.366L214.108 146.385C213.859 147.63 213.769 148.642 213.789 149.451C213.838 151.464 214.464 152.005 215.106 152.317C215.295 152.403 215.476 152.442 215.698 152.436C216.115 152.426 217.617 151.999 220.053 148.535L224.817 141.761L230.23 160.098L228.816 161.749C223.903 167.482 218.282 171.066 211.935 171.221C208.753 171.298 205.78 170.514 203.199 168.74C200.662 166.996 198.756 164.473 197.351 161.464C195.65 157.932 194.785 154.036 194.683 149.845C194.609 146.787 194.926 143.595 195.606 140.282C196.975 133.447 199.743 127.161 203.883 121.455C208.882 114.53 214.985 110.254 222.263 110.076C225.47 109.998 228.459 110.814 231.05 112.632C233.597 114.42 235.515 117.001 236.938 120.076L238.025 122.424ZM207.123 123.8C203.313 129.051 200.78 134.81 199.526 141.076C198.897 144.14 198.616 147.03 198.682 149.748C198.772 153.45 199.533 156.784 200.965 159.75C203.34 164.85 206.964 167.341 211.838 167.222C216.618 167.106 221.265 164.414 225.778 159.146L223.325 150.836C222.276 152.329 221.238 153.523 220.212 154.419C218.714 155.728 217.242 156.4 215.795 156.435C214.952 156.456 214.151 156.287 213.392 155.931C211.067 154.815 209.866 152.688 209.79 149.548C209.761 148.376 209.894 147.06 210.186 145.6C210.768 142.538 212.118 139.223 214.234 135.654C216.802 131.325 219.327 129.13 221.811 129.07C222.935 129.042 223.963 129.377 224.896 130.074C225.129 130.249 225.356 130.446 225.577 130.666L233.308 121.756C230.883 116.517 227.234 113.957 222.36 114.075C216.784 114.211 211.705 117.453 207.123 123.8Z" fill="black"/>
<path d="M225.967 167.73C233.215 150.296 239.137 133.468 243.735 117.246L265.178 114.097C262.452 128.247 261.008 145.026 260.846 164.433L245.873 167.573L247.107 158.808L242.378 159.625L240.776 165.781L225.967 167.73ZM248.424 149.411L252.199 122.904L252.129 122.903L244.966 149.973L248.424 149.411Z" fill="#16BBD9"/>
<path fill-rule="evenodd" clip-rule="evenodd" d="M219.61 172.601L222.274 166.194C229.468 148.889 235.337 132.21 239.886 116.155L240.592 113.665L270.172 109.32L269.106 114.853C266.438 128.7 265.006 145.224 264.846 164.466L264.819 167.686L241.118 172.658L241.532 169.717L219.61 172.601ZM245.873 167.573L247.107 158.808L242.378 159.625L240.776 165.782L225.967 167.73C226.56 166.304 227.144 164.883 227.719 163.465C234.175 147.548 239.513 132.141 243.735 117.246L265.178 114.097C264.916 115.457 264.666 116.841 264.428 118.25C262.186 131.497 260.992 146.891 260.846 164.433L245.873 167.573ZM252.199 122.904L252.129 122.903L244.966 149.973L248.424 149.411L252.199 122.904Z" fill="black"/>
<path d="M276.462 118.515C283.949 116.796 290.031 116.089 294.709 116.394C301.024 116.805 304.014 119.208 303.681 123.602C303.222 129.914 298.833 135.993 290.513 141.839C291.052 143.659 293.4 149.425 297.558 159.138C294.979 161.225 291.092 164.283 285.897 168.313L279.653 148.458L279.582 148.454C278.06 154.508 276.849 160.113 275.949 165.268L264.662 167.633C264.822 166.61 265.54 163.533 266.814 158.402L276.462 118.515ZM284.579 130.178C284.055 131.741 283.577 133.306 283.146 134.876L281.852 139.583C283.544 138.847 285.23 137.853 286.908 136.601C288.836 135.129 290.152 133.688 290.854 132.278C291.116 131.872 291.259 131.482 291.283 131.108C291.35 130.079 290.705 129.52 289.349 129.432C288.273 129.362 286.683 129.61 284.579 130.178Z" fill="#16BBD9"/>
<path fill-rule="evenodd" clip-rule="evenodd" d="M273.155 115.17L275.566 114.616C283.224 112.858 289.736 112.061 294.969 112.402C298.463 112.63 301.762 113.433 304.193 115.386C306.88 117.545 307.917 120.616 307.669 123.899C307.138 131.183 302.565 137.603 295.286 143.281C296.371 146.058 298.329 150.775 301.235 157.564L302.425 160.345L300.074 162.248C297.462 164.361 293.549 167.44 288.348 171.473L283.806 174.997L280.281 163.79C280.144 164.521 280.014 165.243 279.889 165.956L279.423 168.627L259.811 172.735L260.71 167.012C260.905 165.771 261.679 162.483 262.929 157.449L273.155 115.17ZM266.814 158.401C266.331 160.345 265.929 161.994 265.606 163.348C265.076 165.569 264.762 166.997 264.662 167.632L275.949 165.268C276.466 162.304 277.087 159.192 277.81 155.931C278.342 153.529 278.931 151.046 279.575 148.482C279.577 148.473 279.58 148.463 279.582 148.453L279.652 148.458L285.897 168.313C287.089 167.388 288.212 166.515 289.266 165.693C292.807 162.931 295.571 160.746 297.558 159.138C293.4 149.425 291.051 143.658 290.513 141.838C298.833 135.992 303.222 129.914 303.681 123.602C304.014 119.208 301.024 116.805 294.709 116.393C290.031 116.088 283.949 116.795 276.462 118.515L266.814 158.401ZM284.579 130.177C286.683 129.61 288.273 129.361 289.349 129.432C290.705 129.52 291.35 130.079 291.283 131.108C291.258 131.482 291.116 131.872 290.854 132.278C290.152 133.688 288.836 135.129 286.908 136.6C286.871 136.628 286.834 136.656 286.797 136.683C285.155 137.897 283.507 138.863 281.852 139.582L283.145 134.875C283.204 134.661 283.264 134.447 283.325 134.233C283.708 132.879 284.126 131.527 284.579 130.177ZM289.17 133.432C289.169 133.433 289.156 133.431 289.132 133.427C289.158 133.429 289.17 133.432 289.17 133.432Z" fill="black"/>
<path d="M313.323 121.624L325.686 120.544C325.43 121.977 325.152 124.021 324.852 126.676C324.136 133.011 323.717 138.601 323.594 143.446C323.516 146.22 323.616 148.472 323.892 150.202L331.722 123.49L343.992 122.612C337.037 140.743 332.041 156.571 329.003 170.097L317.617 171.924C317.581 171.825 317.37 170.976 316.985 169.376L314.52 158.625C314.104 156.879 313.876 155.769 313.835 155.292C312.236 160.678 310.865 165.925 309.722 171.032L298.164 173.122L313.323 121.624Z" fill="#16BBD9"/>
<path fill-rule="evenodd" clip-rule="evenodd" d="M310.256 117.876L330.543 116.104L329.917 119.609L349.978 118.173L347.726 124.044C340.816 142.06 335.888 157.695 332.906 170.973L332.313 173.617L314.995 176.396L313.861 173.3C313.756 173.013 313.637 172.529 313.568 172.25C313.564 172.236 313.561 172.222 313.558 172.208L313.046 174.495L292.496 178.213L310.256 117.876ZM311.54 163.526C311.925 162.044 312.329 160.551 312.751 159.046C312.753 159.041 312.754 159.035 312.756 159.029C313.103 157.791 313.463 156.546 313.835 155.292C313.876 155.769 314.104 156.879 314.52 158.625L316.985 169.376C317.37 170.976 317.581 171.825 317.617 171.924L329.003 170.097C331.809 157.606 336.284 143.152 342.429 126.734C342.939 125.373 343.459 123.999 343.991 122.612L331.722 123.49L323.892 150.202C323.616 148.472 323.516 146.22 323.594 143.446C323.655 141.02 323.791 138.407 324.001 135.608C324.211 132.816 324.494 129.839 324.852 126.676C324.935 125.941 325.016 125.252 325.096 124.611C325.304 122.936 325.501 121.58 325.686 120.544L313.323 121.624L298.164 173.122L309.722 171.032C310.275 168.562 310.881 166.06 311.54 163.526Z" fill="black"/>
<path d="M353.259 126.497L365.553 126.096C357.901 143.943 352.294 159.565 348.734 172.963L337.216 174.336L353.259 126.497Z" fill="#16BBD9"/>
<path fill-rule="evenodd" clip-rule="evenodd" d="M350.35 122.59L371.708 121.893L369.23 127.672C361.626 145.406 356.095 160.838 352.6 173.991L351.903 176.614L331.414 179.056L350.35 122.59ZM353.259 126.497L365.553 126.096C364.968 127.462 364.394 128.814 363.832 130.154C357.055 146.321 352.022 160.591 348.734 172.963L337.216 174.336L353.259 126.497Z" fill="black"/>
<path d="M396.331 146.804C394.751 147.074 392.874 147.406 390.698 147.8L385.135 148.81C385.55 146.646 385.159 145.449 383.962 145.22C382.259 144.893 380.37 145.533 378.296 147.14C376.825 148.338 376.054 149.622 375.982 150.992C375.953 151.893 376.744 152.498 378.355 152.807C379.229 152.975 380.407 153.058 381.887 153.055C383.946 153.021 385.735 153.149 387.254 153.44C391.121 154.182 393.121 155.949 393.253 158.743C393.279 159.607 393.203 160.499 393.026 161.42C392.461 164.366 390.747 167.331 387.884 170.314C384.174 174.232 379.449 177.216 373.71 179.266C370.685 180.356 367.861 180.65 365.237 180.146C362.843 179.687 360.623 178.569 358.577 176.793C360.258 174.252 362.88 170.53 366.445 165.63C367.724 166.925 369.192 167.732 370.85 168.05C371.586 168.191 372.368 168.221 373.195 168.141C374.692 168.047 376.152 167.778 377.574 167.334C379.609 166.675 380.729 165.815 380.932 164.757C381.152 163.606 380.319 162.849 378.431 162.487C377.142 162.24 375.202 162.154 372.61 162.23C370.073 162.269 368.16 162.164 366.871 161.917C365.168 161.59 363.917 161.016 363.12 160.195C361.554 158.654 361.175 156.648 361.983 154.178C363.562 149.183 367.988 143.899 375.261 138.325C382.709 132.594 388.673 129.991 393.154 130.516C397.488 131.061 399.011 134.694 397.722 141.415C397.413 143.027 396.949 144.823 396.331 146.804Z" fill="#16BBD9"/>
<path fill-rule="evenodd" clip-rule="evenodd" d="M399.419 150.335L397.004 150.747C395.868 150.941 394.573 151.169 393.118 151.429C393.533 151.698 393.93 151.995 394.303 152.325C396.155 153.962 397.134 156.135 397.249 158.554L397.251 158.59L397.252 158.626C397.286 159.806 397.182 160.99 396.955 162.174C396.2 166.111 393.977 169.74 390.78 173.074C386.586 177.499 381.308 180.799 375.061 183.031C371.5 184.313 367.942 184.738 364.483 184.075C361.322 183.469 358.472 181.999 355.954 179.813L353.305 177.513L355.241 174.587C356.822 172.196 359.182 168.836 362.3 164.531C361.57 164.128 360.886 163.63 360.282 163.014C358.982 161.724 358.081 160.128 357.731 158.278C357.388 156.463 357.622 154.653 358.175 152.954C360.13 146.79 365.341 140.888 372.825 135.153C376.702 132.169 380.34 129.884 383.72 128.408C387.081 126.941 390.431 126.17 393.62 126.543L393.636 126.545L393.653 126.547C397.053 126.975 399.852 128.801 401.236 132.103C402.453 135.007 402.347 138.538 401.65 142.169C401.307 143.961 400.801 145.907 400.149 147.996L399.419 150.335ZM375.261 138.325C367.988 143.899 363.562 149.183 361.983 154.178C361.175 156.648 361.554 158.654 363.12 160.195C363.524 160.612 364.045 160.965 364.682 161.254C365.302 161.535 366.031 161.756 366.871 161.917C367.363 162.011 367.945 162.085 368.618 162.138C369.71 162.223 371.041 162.254 372.61 162.23C375.202 162.154 377.142 162.24 378.431 162.487C380.319 162.849 381.152 163.606 380.932 164.757C380.729 165.815 379.609 166.675 377.573 167.334C376.152 167.778 374.692 168.047 373.195 168.141C372.368 168.221 371.586 168.191 370.85 168.05C370.158 167.917 369.499 167.699 368.874 167.396C368.131 167.037 367.434 166.557 366.784 165.958C366.67 165.852 366.557 165.743 366.445 165.63C366.386 165.711 366.327 165.793 366.268 165.873C365.493 166.94 364.763 167.95 364.078 168.903C361.695 172.222 359.861 174.852 358.577 176.793C360.623 178.569 362.843 179.687 365.237 180.146C367.861 180.65 370.685 180.356 373.71 179.266C379.449 177.216 384.174 174.232 387.884 170.314C390.747 167.331 392.461 164.367 393.026 161.42C393.203 160.5 393.279 159.607 393.253 158.743C393.121 155.95 391.121 154.182 387.254 153.44C386.281 153.254 385.196 153.134 384.001 153.081C383.331 153.051 382.626 153.043 381.887 153.055C381.295 153.056 380.751 153.044 380.255 153.017C379.513 152.978 378.879 152.908 378.355 152.807C376.743 152.498 375.953 151.893 375.982 150.992C376.054 149.622 376.825 148.338 378.296 147.14C380.37 145.533 382.259 144.893 383.962 145.22C384.174 145.261 384.361 145.332 384.523 145.433C385.272 145.904 385.477 147.03 385.135 148.81L390.698 147.801C392.874 147.406 394.751 147.074 396.331 146.804C396.949 144.823 397.413 143.027 397.722 141.415C399.011 134.694 397.488 131.061 393.154 130.516C388.673 129.991 382.708 132.594 375.261 138.325Z" fill="black"/>
<path d="M437.926 140.769L434.481 153.392C431.245 152.813 428.159 152.317 425.221 151.905C419.199 163.817 414.401 174.937 410.828 185.265L398.552 185.517L413.525 150.633C412.251 150.522 410.971 150.433 409.685 150.367L405.897 150.186L408.128 137.201L437.926 140.769Z" fill="#16BBD9"/>
<path fill-rule="evenodd" clip-rule="evenodd" d="M443.006 137.348L437.376 157.974L433.776 157.329C431.614 156.942 429.523 156.594 427.503 156.284C422.148 167.093 417.855 177.188 414.609 186.573L413.697 189.207L392.428 189.643L407.61 154.273L401.189 153.966L404.829 132.778L443.006 137.348ZM398.552 185.517L410.828 185.265C414.401 174.937 419.199 163.817 425.221 151.905C428.159 152.317 431.245 152.813 434.481 153.392L437.926 140.769L408.128 137.201L405.897 150.186L409.685 150.367C409.764 150.371 409.843 150.376 409.923 150.38C411.128 150.444 412.329 150.528 413.525 150.633L398.552 185.517Z" fill="black"/>
<path d="M449.658 158.129C448.928 159.335 448.249 160.532 447.622 161.719L445.828 165.231L457.304 165.985L454.06 175.152C448.663 174.603 444.402 174.253 441.279 174.102C440.844 174.954 440.431 175.811 440.042 176.675L438.823 179.181L451.925 180.905L447.494 193.244C440.845 191.952 432.173 191.186 421.477 190.944L443.22 144.696L466.671 147.806L462.259 160.077C457.723 159.236 453.523 158.586 449.658 158.129Z" fill="#16BBD9"/>
<path fill-rule="evenodd" clip-rule="evenodd" d="M443.22 144.696L466.671 147.806L462.259 160.077C457.723 159.236 453.523 158.586 449.658 158.129C449.003 159.212 448.389 160.286 447.817 161.353C447.752 161.475 447.687 161.597 447.622 161.719L445.828 165.231L457.304 165.985L454.06 175.152C448.663 174.603 444.402 174.253 441.279 174.102C441.061 174.529 440.849 174.957 440.642 175.386C440.437 175.814 440.236 176.244 440.042 176.676L438.823 179.181L451.925 180.905L447.494 193.244C441.773 192.132 434.553 191.41 425.835 191.076C424.422 191.022 422.969 190.978 421.477 190.944L443.22 144.696ZM456.702 179.441L450.099 197.825L446.732 197.17C440.393 195.939 431.97 195.182 421.387 194.943L415.242 194.804L440.845 140.346L472.113 144.493L464.872 164.63L462.202 164.135L456.783 179.449L456.702 179.441Z" fill="black"/>
<defs>
<clipPath id="clip0_114_2491">
<rect width="363" height="283" fill="white" transform="translate(41)"/>
</clipPath>
</defs>
</svg>
