<svg width="390" height="410" viewBox="0 0 390 410" fill="none" xmlns="http://www.w3.org/2000/svg">
<g clip-path="url(#clip0_114_2490)">
<path d="M316.84 150.808C321.229 172.338 303.091 187.063 293.603 191.303C294.051 195.4 293.662 199.546 292.462 203.489C295.76 207.791 298.049 212.781 299.159 218.088C300.596 225.211 299.902 232.601 297.164 239.331C294.425 246.062 289.764 251.835 283.764 255.927C277.763 260.019 270.69 262.249 263.429 262.338C256.168 262.426 249.043 260.369 242.945 256.424L243.274 255.384L266.105 224.917L264.228 225.07L273.36 170.687L208.495 96.7812C210.423 87.9967 218.237 82.6651 227.369 80.2532C225.482 78.5399 223.463 76.9779 221.331 75.5817L217.755 73.8807L215.903 72.9667L214 72.4843L210.119 71.5196C208.812 71.2277 207.476 71.0829 206.136 71.0879C204.766 71.0879 203.371 70.8848 202.052 70.961L198.146 71.5449C195.528 72.0051 192.974 72.772 190.535 73.8299C188.4 74.8635 186.348 76.0603 184.396 77.4097C183.438 76.8134 182.447 76.271 181.428 75.7848C181.555 75.6071 181.784 75.4802 181.936 75.3024C184.352 73.7479 186.898 72.4058 189.546 71.2911C192.217 70.2482 195.015 69.5652 197.866 69.26L202.154 68.7776C203.574 68.7776 204.919 69.0315 206.263 69.1076C207.682 69.1734 209.091 69.3688 210.474 69.6916L214.482 70.8848L216.461 71.5449L218.363 72.5097L222.067 74.5154C223.208 75.2949 224.301 76.1427 225.34 77.0543C226.454 77.8796 227.498 78.7968 228.46 79.7962C228.46 79.7962 228.46 79.7962 228.46 79.9232C237.056 77.7817 246.083 78.1339 254.487 80.9387C271.661 87.6667 280.184 110.796 277.318 127.628C285.308 125.826 312.299 128.669 316.84 150.808Z" fill="white"/>
<path d="M266.054 224.892L243.224 255.358C244.301 251.699 244.822 247.899 244.771 244.086L171.205 249.976C172.236 257.092 175.332 263.748 180.109 269.119C179.67 269.002 179.237 268.857 178.816 268.687C174.828 273.835 169.587 277.874 163.595 280.417C158.992 282.337 154.071 283.379 149.085 283.489C144.081 283.565 139.11 282.668 134.448 280.848C129.785 278.965 125.542 276.176 121.963 272.642C118.384 269.108 115.54 264.899 113.596 260.258C112.931 258.699 112.405 257.085 112.023 255.434C119.158 255.671 126.209 253.828 132.317 250.128L94.9759 196.812L104.793 142.354C96.9849 141.366 89.0679 142.953 82.2414 146.873V146.695V146.365C81.6004 144.566 81.2161 142.686 81.0999 140.78L80.7448 137.936L80.9477 134.966C80.973 133.024 81.2545 131.095 81.7848 129.228C82.2674 127.368 82.8777 125.544 83.6113 123.769L86.3256 118.691L89.7248 114.248C92.4143 111.54 95.524 109.285 98.9333 107.571C100.592 106.626 102.377 105.925 104.235 105.489C105.123 105.21 106.011 104.829 106.949 104.626L109.689 104.372C111.545 103.959 113.458 103.864 115.346 104.093L118.289 104.322H119.811L121.003 104.702C122.956 105.236 124.833 105.87 126.787 106.53C126.376 113.349 127.879 120.147 131.125 126.156L193.63 87.4127C190.393 82.8446 186.148 79.0831 181.225 76.4195L181.555 75.8356C182.574 76.3217 183.565 76.8642 184.523 77.4604C186.475 76.111 188.527 74.9142 190.662 73.8806C193.101 72.8228 195.655 72.0558 198.272 71.5957L202.052 71.0879C203.371 71.0879 204.766 71.0879 206.136 71.2148C207.474 71.1931 208.81 71.3209 210.119 71.5957L214 72.5604L215.903 73.0428L217.755 73.9568L221.331 75.6578C223.463 77.0541 225.482 78.616 227.369 80.3293C218.237 82.8682 210.423 87.9459 208.495 96.8573L273.309 170.738L264.177 225.12L266.054 224.892ZM175.822 125.166L225.771 131.767C226.429 125.234 224.519 118.701 220.447 113.554C216.375 108.406 210.461 105.047 203.957 104.188C197.453 103.33 190.87 105.04 185.604 108.956C180.338 112.872 176.802 118.685 175.746 125.166H175.822ZM132.215 201.737L136.097 139.637C130.796 140.29 125.762 142.338 121.511 145.574C117.259 148.809 113.942 153.116 111.896 158.054C109.851 162.992 109.151 168.385 109.869 173.682C110.586 178.979 112.695 183.99 115.98 188.205C120.343 193.765 125.797 200.214 132.215 201.737Z" fill="white"/>
<path d="M244.822 244.06C244.873 247.874 244.351 251.674 243.274 255.333L242.945 256.374C241.7 260.242 239.813 263.872 237.364 267.113C231.419 274.899 222.637 280.014 212.936 281.341C203.235 282.669 193.404 280.1 185.589 274.197L183.052 272.013C178.592 277.878 172.706 282.501 165.954 285.444C160.693 287.753 155.008 288.938 149.262 288.922C143.542 288.921 137.879 287.79 132.596 285.596C127.336 283.413 122.563 280.203 118.556 276.153C114.549 272.104 111.388 267.296 109.258 262.01C109.231 261.936 109.231 261.855 109.258 261.782L113.773 260.207C115.691 264.841 118.505 269.05 122.053 272.592C125.601 276.134 129.813 278.94 134.448 280.848C139.135 282.716 144.142 283.647 149.186 283.59C154.172 283.481 159.094 282.439 163.696 280.518C169.689 277.976 174.929 273.937 178.917 268.789C179.308 268.921 179.706 269.031 180.109 269.119C175.319 263.71 172.23 257.007 171.231 249.849L244.822 244.06Z" fill="white"/>
<path d="M225.771 131.767L175.822 125.166C177.06 118.86 180.652 113.264 185.867 109.516C191.082 105.768 197.528 104.149 203.894 104.991C210.259 105.832 216.065 109.069 220.129 114.044C224.193 119.018 226.211 125.356 225.771 131.767Z" fill="white"/>
<path d="M193.63 87.4128L131.125 126.359C127.878 120.315 126.392 113.48 126.837 106.632C124.884 105.972 123.007 105.337 121.054 104.804L119.861 104.423H118.339L115.346 104.093C113.464 103.831 111.551 103.891 109.689 104.271L106.949 104.525C106.011 104.728 105.123 105.109 104.235 105.388C102.377 105.824 100.592 106.525 98.9332 107.47C95.5167 109.215 92.4066 111.504 89.7248 114.249L86.2495 118.641L83.5351 123.718C82.8015 125.494 82.1913 127.318 81.7087 129.177C81.1783 131.044 80.8969 132.974 80.8716 134.915L80.6686 137.885L81.0238 140.729C81.14 142.635 81.5243 144.515 82.1653 146.314V146.644C81.6042 146.922 81.0618 147.235 80.5418 147.584C80.4385 147.345 80.3537 147.099 80.2881 146.847C79.5825 144.921 79.1554 142.903 79.0197 140.856L78.6392 137.758V134.788C78.8412 130.692 79.6976 126.655 81.176 122.83L83.9157 117.27L87.6701 112.344C90.4959 109.287 93.8037 106.714 97.4619 104.728C99.2701 103.666 101.194 102.814 103.195 102.189C104.184 101.884 105.098 101.453 106.138 101.224L109.334 100.716C111.382 100.337 113.468 100.2 115.549 100.31L120.039 100.564C120.62 100.652 121.196 100.771 121.764 100.92L127.167 102.265C128.887 92.6623 134.335 84.1314 142.321 78.5367C150.307 72.9421 160.181 70.7387 169.785 72.4082C179.389 74.0923 187.951 79.4797 193.63 87.4128Z" fill="white"/>
<path d="M95.0013 196.761L132.342 250.077C126.234 253.777 119.184 255.621 112.048 255.383C112.43 257.034 112.957 258.649 113.621 260.207L109.106 261.781C108.221 259.627 107.549 257.39 107.102 255.104H107.761C98.2433 253.758 89.6295 248.738 83.7609 241.119C77.8923 233.5 75.2347 223.885 76.3562 214.33C76.6105 212.115 77.0777 209.93 77.7514 207.805C75.3596 206.009 73.2108 203.91 71.3588 201.56C68.3517 197.757 66.1277 193.396 64.8155 188.727C63.5032 184.059 63.1288 179.177 63.7138 174.363C64.2989 169.549 65.8318 164.898 68.2238 160.681C70.6159 156.464 73.8197 152.763 77.6499 149.792C79.0987 148.646 80.6434 147.627 82.2668 146.746C89.0933 142.826 97.0103 141.239 104.819 142.227L95.0013 196.761Z" fill="white"/>
<path d="M136.097 139.637L132.215 201.738C125.797 200.214 120.343 193.766 115.98 188.206C112.695 183.991 110.586 178.979 109.869 173.682C109.151 168.385 109.851 162.992 111.896 158.054C113.942 153.116 117.259 148.81 121.511 145.574C125.762 142.339 130.796 140.29 136.097 139.637Z" fill="white"/>
<path d="M190.662 73.8553C193.101 72.8037 195.655 72.0452 198.272 71.5957L202.052 71.0879C203.371 71.0879 204.766 71.0879 206.136 71.2403C207.465 71.2102 208.792 71.3295 210.094 71.5957L213.975 72.5859L215.928 73.0936L217.729 73.9569L221.357 75.7087C223.63 77.1459 225.762 78.795 227.724 80.6341L228.789 80.304C228.641 80.155 228.505 79.9937 228.384 79.8216C227.428 78.8153 226.384 77.8975 225.263 77.0797C224.209 76.1762 223.109 75.3287 221.966 74.5408L218.262 72.5605L216.41 71.5703L214.406 70.961L210.55 69.6916C209.178 69.3627 207.775 69.1756 206.365 69.133C204.995 69.133 203.65 68.8284 202.28 68.803L197.866 69.26C195.025 69.6048 192.239 70.3042 189.571 71.3418C186.926 72.4625 184.381 73.8044 181.961 75.3532C181.784 75.531 181.606 75.6579 181.428 75.8102C182.459 76.3079 183.459 76.8675 184.422 77.4859C186.402 76.1117 188.489 74.8977 190.662 73.8553Z" fill="black"/>
<path d="M178.917 268.814C174.929 273.95 169.688 277.972 163.696 280.493C154.384 284.466 143.879 284.594 134.473 280.848C129.809 278.975 125.563 276.193 121.983 272.662C118.403 269.132 115.561 264.924 113.621 260.284C112.966 258.681 112.424 257.036 111.997 255.358C110.354 255.417 108.709 255.349 107.076 255.155C107.573 257.523 108.278 259.842 109.182 262.086C111.315 267.37 114.477 272.176 118.484 276.225C122.491 280.274 127.262 283.485 132.52 285.672C137.8 287.844 143.452 288.965 149.161 288.973C154.902 288.97 160.581 287.795 165.853 285.52C173.345 282.281 179.778 277.003 184.422 270.287C182.542 269.98 180.698 269.487 178.917 268.814Z" fill="black"/>
<path d="M78.6392 137.758L79.0451 140.856C79.1893 142.913 79.6249 144.939 80.3388 146.873C80.3996 147.114 80.4759 147.352 80.5672 147.584L82.1907 146.644C82.1907 146.644 82.1907 146.441 82.1907 146.34C81.5691 144.528 81.1937 142.641 81.0745 140.729L80.694 137.885L80.9223 134.915C80.9332 132.981 81.215 131.058 81.7594 129.202C82.2411 127.337 82.8427 125.506 83.5605 123.718L86.2748 118.641L89.7502 114.249C92.4196 111.521 95.5228 109.256 98.9332 107.546C100.593 106.622 102.367 105.922 104.21 105.464C105.123 105.21 106.011 104.855 106.924 104.652L109.664 104.347C111.533 103.964 113.45 103.879 115.346 104.093L118.314 104.347H119.811L121.003 104.702C123.971 105.515 126.914 106.429 129.856 107.495C130.015 106.035 130.261 104.585 130.592 103.154C129.679 102.824 128.765 102.519 127.801 102.265L121.764 100.97C121.205 100.813 120.637 100.686 120.064 100.589L115.574 100.361C113.485 100.199 111.384 100.336 109.334 100.767L106.163 101.224C105.123 101.478 104.159 101.91 103.17 102.24C101.158 102.836 99.2308 103.69 97.4365 104.779C93.7874 106.767 90.4882 109.34 87.6701 112.395L83.9157 117.321L81.176 122.83C79.6736 126.647 78.8163 130.689 78.6392 134.788V137.758Z" fill="black"/>
<path d="M193.655 87.4127C188.222 79.7252 180.058 74.4065 170.835 72.545C161.612 70.6835 152.027 72.42 144.041 77.3991C136.055 82.3782 130.272 90.2235 127.876 99.3296C125.479 108.436 126.651 118.114 131.15 126.384L193.655 87.4127Z" fill="white"/>
<path d="M193.453 87.5653L192.641 86.6259C191.914 85.7263 191.126 84.878 190.282 84.087C189.724 83.5793 189.166 82.9699 188.481 82.386L186.198 80.5326C185.36 79.9233 184.396 79.3394 183.432 78.7047C182.468 78.0699 181.327 77.5622 180.211 76.9528C179.095 76.3435 177.674 75.9627 176.532 75.4549C175.391 74.9471 173.996 74.5917 172.448 74.3378L170.292 73.9316H169.759H169.252L168.085 73.6269C167.299 73.6269 166.487 73.4746 165.701 73.4492H163.417C161.837 73.4831 160.26 73.6273 158.699 73.8808C157.104 74.174 155.528 74.5641 153.981 75.0487C150.839 76.0098 147.855 77.43 145.128 79.2632C142.399 81.0662 139.954 83.2652 137.872 85.7881C135.862 88.1912 134.158 90.8349 132.799 93.6585C131.513 96.2778 130.509 99.0269 129.806 101.859L129.527 102.849C129.527 103.002 129.527 103.535 129.349 103.839C129.349 104.55 129.095 105.261 128.994 105.947C128.994 107.241 128.639 108.485 128.664 109.679C128.557 111.942 128.65 114.211 128.943 116.457C129.034 117.421 129.178 118.379 129.374 119.326C129.483 120.184 129.653 121.032 129.882 121.865C130.159 123.008 130.498 124.135 130.896 125.242C131.125 126.029 131.277 126.435 131.277 126.435L130.82 126.689L130.085 125.648C129.374 124.665 128.738 123.629 128.182 122.551C127.263 120.879 126.515 119.118 125.95 117.295C125.576 116.174 125.279 115.029 125.062 113.868C124.757 112.575 124.562 111.258 124.478 109.933C124.301 108.587 124.478 107.064 124.326 105.515C124.326 104.804 124.453 104.093 124.504 103.382C124.554 102.671 124.504 102.748 124.631 102.164L124.834 100.996L125.29 98.6093C125.468 97.7969 125.772 97.0098 126 96.0704C126.524 94.4293 127.16 92.8261 127.903 91.272C129.56 88.0749 131.68 85.1405 134.194 82.5637C136.735 79.8972 139.649 77.6139 142.844 75.785C146 73.9028 149.42 72.5076 152.991 71.6466C154.717 71.1944 156.471 70.8635 158.243 70.6565C159.928 70.4887 161.623 70.4293 163.316 70.4788H165.853L168.237 70.8088L169.379 70.9865L169.962 71.0881H170.115L170.698 71.2404L172.956 71.8244C174.452 72.2306 175.848 72.8399 177.192 73.3223C178.537 73.8047 179.729 74.5409 180.946 75.201C182.164 75.8611 183.204 76.5466 184.193 77.2575C185.183 77.9684 186.071 78.6793 186.908 79.3901L189.115 81.4466C189.774 82.1067 190.307 82.7922 190.84 83.3508C191.665 84.2895 192.428 85.2818 193.123 86.3212L193.858 87.3368L193.453 87.5653Z" fill="black"/>
<path d="M104.793 142.557H103.55C102.376 142.479 101.198 142.479 100.024 142.557C99.2884 142.557 98.4513 142.557 97.4873 142.735L94.57 143.192C93.5553 143.395 92.4899 143.725 91.3737 144.004C90.2576 144.283 89.116 144.791 87.8984 145.197C86.6808 145.603 85.5392 146.314 84.3216 146.898C83.1039 147.482 81.7848 148.295 80.7448 149.158L78.9944 150.503L78.5378 150.833L78.3095 151.037L77.447 151.824C76.8889 152.357 76.2547 152.89 75.6966 153.449L74.1999 155.15C72.1038 157.563 70.3924 160.287 69.1264 163.223C67.6672 166.197 66.6584 169.371 66.1331 172.642C65.6384 175.865 65.6384 179.144 66.1331 182.366C66.6078 185.463 67.4597 188.49 68.6698 191.379C69.7656 194.052 71.1343 196.604 72.754 198.996L73.3121 199.884L73.9209 200.646L75.2654 202.347C76.1532 203.261 76.8635 204.251 77.8021 205.089C79.4179 206.674 81.1662 208.118 83.0278 209.405C83.8345 209.99 84.6823 210.516 85.5646 210.979C86.2476 211.431 86.9594 211.838 87.6955 212.198C88.7132 212.767 89.7635 213.275 90.841 213.721L91.9826 214.254V214.762L90.7142 214.584C89.5073 214.453 88.3118 214.232 87.1374 213.924C85.2856 213.482 83.4837 212.853 81.7595 212.045C80.585 211.696 79.4399 211.255 78.3348 210.725C77.1808 210.084 76.0783 209.354 75.0371 208.542C73.8955 207.755 72.8301 206.663 71.6632 205.673L70.1919 204.099L69.3801 203.109L68.6445 202.169C67.6338 200.868 66.7343 199.483 65.9555 198.031C63.1983 193.409 61.6294 188.175 61.3894 182.798C61.1308 179.115 61.3956 175.413 62.1757 171.804C62.8995 168.254 64.1478 164.831 65.8794 161.649C66.6456 160.093 67.5187 158.591 68.4923 157.155C69.5255 155.767 70.6438 154.444 71.8408 153.195L73.6672 151.367C74.276 150.833 74.9102 150.351 75.5191 149.843L76.4069 149.107L76.6352 148.904H76.8128H76.9396L77.447 148.574L79.4003 147.279C80.7194 146.441 82.1146 145.857 83.383 145.146C84.6514 144.436 85.9197 144.08 87.2896 143.649C88.6594 143.217 89.8263 142.887 90.9932 142.658C92.1601 142.43 93.3017 142.201 94.3925 142.074L97.3858 141.821C98.3244 141.821 99.1869 141.821 99.9226 141.821C101.111 141.828 102.297 141.912 103.474 142.074L104.717 142.227L104.793 142.557Z" fill="black"/>
<path d="M136.147 139.866L135.209 140.043C134.352 140.207 133.505 140.419 132.672 140.678C129.599 141.529 126.691 142.894 124.072 144.715C123.261 145.223 122.449 145.908 121.662 146.518C120.876 147.127 120.039 147.99 119.303 148.777C117.722 150.467 116.327 152.323 115.143 154.312C112.656 158.649 111.328 163.554 111.287 168.555C111.277 171.053 111.619 173.54 112.302 175.943C112.897 178.24 113.748 180.462 114.839 182.569C115.894 184.572 117.116 186.483 118.492 188.282C119.836 190.084 121.028 191.811 122.347 193.359C124.28 195.799 126.523 197.976 129.019 199.834C129.744 200.341 130.507 200.791 131.302 201.179L132.165 201.585V201.992L131.175 201.865C130.248 201.712 129.339 201.465 128.461 201.128C127.085 200.607 125.767 199.944 124.529 199.148C122.943 198.064 121.458 196.84 120.09 195.492C118.463 193.988 116.922 192.395 115.473 190.719C113.747 188.858 112.263 186.785 111.059 184.55C108.524 179.548 107.418 173.943 107.863 168.352C108.189 162.853 109.937 157.534 112.936 152.915C114.353 150.83 116.023 148.928 117.908 147.254C118.796 146.441 119.709 145.73 120.445 145.096C121.18 144.461 122.246 143.852 123.159 143.369C126.003 141.714 129.095 140.531 132.317 139.866C133.611 139.637 134.448 139.637 135.133 139.637H136.097L136.147 139.866Z" fill="black"/>
<path d="M90.1053 189.805C82.6793 195.623 77.7659 204.07 76.3777 213.406C74.9895 222.742 77.2323 232.255 82.6438 239.986C88.0553 247.716 96.2234 253.074 105.465 254.956C114.706 256.839 124.317 255.101 132.317 250.103L90.1053 189.805Z" fill="white"/>
<path d="M90.2829 190.008L89.3697 190.871C88.4644 191.656 87.6167 192.504 86.833 193.41C86.351 193.969 85.7675 194.578 85.2094 195.289L83.4844 197.65C82.901 198.513 82.3936 199.503 81.7848 200.493C81.176 201.484 80.7448 202.652 80.212 203.819C79.6793 204.987 79.3242 206.358 78.8676 207.552C78.4109 208.745 78.1573 210.243 77.9797 211.69L77.6753 213.873V214.432V214.711V215.904C77.6753 216.666 77.6753 217.478 77.6753 218.265L77.8275 220.55C78.2924 227.091 80.5966 233.367 84.4738 238.653C86.39 241.285 88.7002 243.605 91.323 245.533C93.8405 247.384 96.5752 248.918 99.466 250.103C102.155 251.229 104.951 252.08 107.812 252.642L108.852 252.845L109.816 252.972L111.947 253.226C113.241 253.226 114.484 253.429 115.701 253.226C117.965 253.212 120.223 253 122.449 252.591C123.398 252.44 124.338 252.237 125.265 251.982C126.071 251.816 126.867 251.604 127.649 251.347C129.095 250.941 130.186 250.458 130.947 250.179L132.139 249.722L132.418 250.179L131.404 250.966C130.457 251.716 129.457 252.395 128.41 252.997C126.81 254.014 125.11 254.864 123.337 255.536C122.237 255.966 121.11 256.323 119.963 256.602C118.698 256.955 117.409 257.218 116.107 257.389C114.737 257.643 113.215 257.618 111.693 257.745H109.537H108.319L107.152 257.592C105.516 257.43 103.895 257.132 102.307 256.704C100.646 256.272 99.0181 255.721 97.4366 255.054C94.1424 253.59 91.0822 251.648 88.355 249.29C85.5865 246.891 83.1697 244.113 81.176 241.039C79.1382 238.003 77.557 234.684 76.483 231.188C75.3877 227.857 74.7727 224.386 74.6566 220.881V218.342C74.6566 217.529 74.7834 216.742 74.8595 215.955V214.787V214.153L74.9863 213.569C75.1385 212.782 75.3161 212.02 75.4683 211.258C75.7727 209.735 76.3308 208.339 76.7367 206.942C77.1426 205.546 77.8275 204.403 78.4363 203.109C79.0451 201.814 79.654 200.773 80.3389 199.783C81.0238 198.792 81.658 197.802 82.3175 196.939C82.9771 196.076 83.662 195.365 84.2708 194.629C84.8797 193.892 85.5646 193.359 86.0973 192.826C86.9971 191.958 87.9548 191.152 88.9638 190.414C89.598 189.881 89.9532 189.627 89.9532 189.627L90.2829 190.008Z" fill="black"/>
<path d="M242.767 255.968L243.858 256.577C244.874 257.163 245.925 257.689 247.003 258.151C247.714 258.43 248.449 258.786 249.312 259.09L252.102 259.979C253.092 260.258 254.208 260.436 255.324 260.69C256.44 260.944 257.708 260.969 258.977 261.147C260.245 261.325 261.514 261.147 262.934 261.147C264.355 261.147 265.725 260.969 267.145 260.715L269.301 260.309H269.859H269.986H270.265L271.407 259.979C272.143 259.776 272.929 259.573 273.69 259.319L275.796 258.456C278.81 257.205 281.616 255.502 284.116 253.403C286.695 251.369 288.961 248.965 290.838 246.269C292.728 243.603 294.208 240.667 295.227 237.561C296.204 234.626 296.817 231.582 297.053 228.497C297.293 225.587 297.225 222.659 296.851 219.764V218.723C296.851 218.57 296.851 218.062 296.648 217.758C296.521 217.047 296.369 216.336 296.216 215.651C295.861 214.432 295.633 213.112 295.176 212.071C294.421 209.85 293.47 207.7 292.335 205.647C291.895 204.773 291.404 203.925 290.864 203.109C290.443 202.4 289.985 201.714 289.494 201.052C288.657 199.808 287.87 198.92 287.363 198.285L286.551 197.32L286.906 196.914L287.947 197.625C288.973 198.275 289.941 199.014 290.838 199.834C292.317 201.039 293.661 202.401 294.847 203.896C295.604 204.804 296.299 205.762 296.927 206.765C297.659 207.859 298.312 209.004 298.88 210.192C299.539 211.411 300.021 212.858 300.63 214.28L301.239 216.336C301.239 216.742 301.417 216.92 301.569 217.504L301.797 218.672L302.254 221.058C302.254 221.871 302.254 222.709 302.457 223.597C302.579 225.288 302.579 226.985 302.457 228.675C302.089 232.26 301.183 235.77 299.768 239.084C298.419 242.578 296.564 245.854 294.263 248.808C292.025 251.733 289.356 254.301 286.348 256.425C284.911 257.468 283.402 258.41 281.833 259.243C280.282 260.033 278.68 260.72 277.039 261.299L274.502 262.112L272.168 262.67L271.026 262.924H270.747H270.544H270.392H269.809L267.45 263.178C265.928 263.356 264.405 263.178 262.96 263.33C261.514 263.483 260.118 263.102 258.799 262.924C257.48 262.746 256.263 262.492 255.045 262.162C253.827 261.832 252.762 261.528 251.747 261.172L248.931 260.055C248.069 259.674 247.333 259.243 246.623 258.887C245.568 258.347 244.551 257.737 243.579 257.059L242.513 256.399L242.767 255.968Z" fill="black"/>
<path d="M291.904 191.709C293.815 190.83 295.64 189.776 297.358 188.561C299.085 187.371 300.729 186.065 302.279 184.651C305.342 181.847 308.035 178.665 310.295 175.181C312.476 171.741 314.031 167.942 314.887 163.959C315.686 160.031 315.686 155.981 314.887 152.052V151.316L314.684 150.63L314.253 149.107C313.948 148.244 313.644 147.355 313.238 146.568C312.423 144.779 311.429 143.078 310.27 141.491C307.884 138.307 304.935 135.588 301.569 133.468C299.815 132.37 297.974 131.419 296.064 130.624C294.138 129.824 292.143 129.204 290.103 128.771C288.056 128.349 285.977 128.103 283.888 128.035C281.831 127.951 279.774 128.156 277.774 128.644L276.404 128.999L276.582 127.501C277.066 123.067 276.835 118.584 275.897 114.223C274.992 109.915 273.579 105.731 271.686 101.757C269.875 97.8264 267.461 94.2029 264.532 91.018C261.671 87.9539 258.219 85.5012 254.385 83.8077C252.451 83.0206 250.446 82.4171 248.399 82.0051C246.241 81.5763 244.052 81.3216 241.854 81.2434C237.498 80.9773 233.126 81.2587 228.84 82.0813C224.56 82.8576 220.463 84.4338 216.765 86.7274C214.955 87.9304 213.324 89.3834 211.92 91.0434C210.512 92.7773 209.437 94.7572 208.749 96.8828H208.242C208.863 92.0726 211.317 87.6884 215.091 84.6455C218.806 81.5741 223.129 79.3244 227.775 78.0445C232.394 76.7278 237.178 76.0865 241.981 76.1403C244.403 76.1627 246.821 76.3749 249.21 76.7751C251.673 77.165 254.076 77.8645 256.364 78.8569C260.947 80.8373 265.004 83.8629 268.211 87.6921C271.391 91.3709 273.96 95.5369 275.821 100.031C279.371 108.891 280.295 118.586 278.484 127.958L277.267 126.841C279.457 126.51 281.677 126.416 283.888 126.562C286.054 126.677 288.214 126.906 290.356 127.248C292.487 127.578 294.618 128.035 296.749 128.568C298.893 129.103 300.989 129.816 303.015 130.7C307.272 132.429 311.018 135.217 313.897 138.799C315.304 140.601 316.449 142.592 317.297 144.715C317.733 145.809 318.106 146.928 318.413 148.066C318.59 148.625 318.641 149.107 318.768 149.64L318.946 150.503V151.341C319.701 155.825 319.511 160.417 318.388 164.823C317.233 169.162 315.27 173.245 312.604 176.857C310.014 180.398 306.901 183.522 303.37 186.124C299.942 188.795 296.081 190.857 291.955 192.217L291.904 191.709Z" fill="black"/>
<path d="M171.611 249.9L171.89 251.118C172.104 252.272 172.401 253.409 172.778 254.52C173.032 255.231 173.26 256.018 173.59 256.856C173.92 257.694 174.351 258.583 174.782 259.547C175.213 260.512 175.822 261.426 176.38 262.467C176.938 263.508 177.725 264.422 178.435 265.488C179.145 266.555 180.109 267.469 180.972 268.509C181.834 269.55 182.95 270.49 184.092 271.378L185.842 272.724L186.274 273.079L186.527 273.232L187.517 273.866C188.176 274.273 188.836 274.73 189.521 275.111L191.55 276.151C194.442 277.543 197.517 278.517 200.682 279.046C203.921 279.643 207.23 279.745 210.5 279.35C213.75 279.002 216.926 278.146 219.911 276.812C222.889 275.687 225.711 274.186 228.307 272.343C230.616 270.648 232.741 268.716 234.649 266.58L235.36 265.818L235.968 265.031L237.262 263.305C237.947 262.213 238.708 261.274 239.266 260.157C240.416 258.161 241.376 256.062 242.133 253.886C242.494 253 242.799 252.093 243.046 251.169C243.312 250.389 243.524 249.592 243.68 248.783C243.975 247.647 244.196 246.494 244.34 245.33L244.568 244.086H245.075L245.253 245.355C245.428 246.557 245.513 247.771 245.507 248.986C245.556 250.891 245.412 252.797 245.075 254.673C244.887 255.839 244.624 256.993 244.289 258.126C243.952 259.4 243.52 260.648 242.995 261.858C242.513 263.152 241.752 264.397 241.067 265.869L239.926 267.672C239.697 268.027 239.596 268.205 239.266 268.687L238.531 269.627L237.034 271.556C236.501 272.191 235.892 272.749 235.309 273.359C231.557 277.159 226.932 279.983 221.839 281.585C218.351 282.775 214.713 283.468 211.032 283.641C203.801 284.055 196.6 282.418 190.256 278.919L188.024 277.624C187.339 277.192 186.73 276.71 186.071 276.253L185.132 275.568L184.878 275.39H184.701L184.244 275.009L182.494 273.435C181.352 272.394 180.414 271.201 179.424 270.134C178.435 269.068 177.699 267.875 176.888 266.758C176.076 265.641 175.492 264.523 174.96 263.432C174.427 262.34 173.92 261.299 173.514 260.309C173.108 259.319 172.829 258.329 172.499 257.44C172.169 256.551 172.068 255.714 171.865 254.901C171.595 253.73 171.4 252.543 171.281 251.347C171.281 250.534 171.104 250.103 171.104 250.103L171.611 249.9Z" fill="black"/>
<path d="M274.502 163.655C280.717 165.838 285.486 172.795 289.266 178.888C292.101 183.423 293.682 188.63 293.847 193.977C294.013 199.324 292.757 204.619 290.208 209.321C287.659 214.023 283.908 217.963 279.339 220.739C274.77 223.515 269.547 225.027 264.203 225.121L274.502 163.655Z" fill="white"/>
<path d="M274.578 163.452L275.516 163.655C276.46 163.861 277.378 164.167 278.256 164.569C281.333 166.063 284.09 168.141 286.374 170.687C287.917 172.287 289.357 173.983 290.686 175.765L291.802 177.238C292.132 177.745 292.462 178.177 292.842 178.761C293.591 179.921 294.252 181.134 294.821 182.392C296.019 185.012 296.872 187.777 297.358 190.617C297.764 193.574 297.764 196.572 297.358 199.529C296.567 205.384 294.15 210.899 290.382 215.447C288.641 217.494 286.656 219.319 284.471 220.881C283.431 221.591 282.391 222.226 281.351 222.81C280.343 223.312 279.31 223.761 278.256 224.156C276.38 224.822 274.443 225.298 272.472 225.577C270.991 225.748 269.498 225.799 268.008 225.73C267.06 225.683 266.118 225.555 265.192 225.349L264.203 225.146V224.74H265.141C265.775 224.74 266.663 224.74 267.83 224.46C270.993 224.006 274.061 223.037 276.912 221.591C280.956 219.57 284.493 216.663 287.262 213.086C290.421 208.973 292.458 204.109 293.172 198.97C293.94 193.827 293.337 188.572 291.422 183.737C290.536 181.523 289.413 179.412 288.073 177.441C286.856 175.511 285.537 173.734 284.42 172.16C282.553 169.554 280.254 167.287 277.622 165.457C276.882 164.96 276.101 164.527 275.288 164.163L274.426 163.807L274.578 163.452Z" fill="black"/>
<path d="M175.848 125.191C175.848 125.191 175.848 124.886 175.848 124.302C175.868 123.451 175.952 122.602 176.101 121.763L176.456 119.961C176.634 119.301 176.862 118.615 177.091 117.879C177.688 116.223 178.453 114.632 179.374 113.131C180.499 111.359 181.846 109.738 183.382 108.308C185.111 106.614 187.086 105.193 189.242 104.093C191.511 102.889 193.948 102.033 196.471 101.554C199.098 101.198 201.76 101.198 204.386 101.554C205.687 101.766 206.974 102.055 208.242 102.417C209.527 102.775 210.783 103.233 211.996 103.788C214.314 104.883 216.459 106.312 218.363 108.028C220.126 109.618 221.648 111.457 222.879 113.487C223.972 115.28 224.824 117.209 225.416 119.225C225.901 120.882 226.224 122.582 226.38 124.302C226.38 125.064 226.38 125.8 226.38 126.46C226.38 127.12 226.38 127.755 226.227 128.288C226.16 129.144 226.024 129.993 225.822 130.827C225.822 131.386 225.644 131.69 225.644 131.69C225.644 131.69 225.644 131.386 225.644 130.802C225.644 130.218 225.644 129.355 225.466 128.263C225.466 127.755 225.314 127.171 225.238 126.537C225.162 125.902 224.959 125.216 224.807 124.505C224.392 122.98 223.866 121.486 223.234 120.037C222.417 118.327 221.431 116.702 220.291 115.188C217.687 111.758 214.245 109.056 210.297 107.343C209.277 106.9 208.226 106.535 207.151 106.251C206.041 105.948 204.915 105.711 203.777 105.54C199.31 104.959 194.769 105.599 190.637 107.394C188.732 108.233 186.935 109.298 185.284 110.567C183.798 111.733 182.43 113.042 181.2 114.477C180.174 115.748 179.249 117.098 178.435 118.514L177.573 120.342C177.319 120.926 177.091 121.459 176.888 121.967C176.456 122.931 176.279 123.795 176.076 124.328C175.873 124.861 175.848 125.191 175.848 125.191Z" fill="black"/>
<path d="M357.91 103.382C357.479 103.382 356.134 103.382 354.105 103.382C352.075 103.382 349.412 103.382 346.266 103.712C338.843 104.405 331.498 105.773 324.323 107.8C317.323 109.773 310.466 112.225 303.801 115.137C298.372 117.498 294.897 119.326 294.796 119.123C297.407 117.098 300.252 115.393 303.268 114.046C309.802 110.729 316.588 107.936 323.562 105.693C330.822 103.364 338.289 101.74 345.86 100.843C348.547 100.524 351.248 100.346 353.953 100.31C356.033 100.31 357.428 100.31 357.859 100.31C361.461 100.539 364.303 101.453 364.201 102.316C364.1 103.179 361.335 103.611 357.91 103.382Z" fill="black"/>
<path d="M366.281 78.3745C361.47 78.4298 356.683 79.0692 352.025 80.2786C343.024 82.6367 334.331 86.0453 326.125 90.434C318.07 94.6435 310.284 99.3495 302.812 104.525C299.768 106.632 297.282 108.435 295.531 109.602C294.672 110.34 293.726 110.971 292.716 111.481C293.445 110.571 294.299 109.767 295.252 109.095C296.876 107.673 299.26 105.718 302.203 103.458C309.484 97.8287 317.165 92.7375 325.186 88.2252C333.455 83.5163 342.262 79.8251 351.416 77.232C356.283 75.8644 361.303 75.1138 366.357 74.9978C370.924 74.9978 374.5 76.3434 374.297 77.1558C374.095 77.9683 370.492 78.2983 366.281 78.3745Z" fill="black"/>
<path d="M347.23 56.0071C342.996 57.6967 338.863 59.6294 334.851 61.7957C327.267 66.1823 320.159 71.3471 313.644 77.2066C307.267 82.9011 301.331 89.0712 295.887 95.664C293.654 98.2029 291.878 100.589 290.635 102.189C290.038 103.095 289.359 103.945 288.606 104.728C288.957 103.717 289.461 102.766 290.103 101.91C291.168 100.183 292.817 97.7713 294.897 94.9532C300.065 88.0222 305.819 81.5496 312.096 75.6071C318.572 69.4165 325.71 63.9589 333.38 59.333C337.471 56.9833 341.707 54.8972 346.063 53.0874C350.072 51.7672 353.521 51.4118 353.674 52.275C353.826 53.1382 351.086 54.7631 347.23 56.0071Z" fill="black"/>
<path d="M62.4294 44.8617C62.8353 45.0648 64.0276 45.7757 65.8287 46.842C68.162 48.195 70.4228 49.6696 72.6018 51.2596C78.7718 55.7723 84.4894 60.874 89.6741 66.4927C94.6865 71.8807 99.2589 77.6624 103.347 83.7823C105.303 86.4586 106.938 89.3559 108.218 92.4145C108.015 92.4145 105.909 89.2155 102.333 84.5186C97.9532 78.7144 93.1814 73.2176 88.0506 68.0668C82.823 62.7634 77.1259 57.9453 71.029 53.6715C68.4923 51.9451 66.1585 50.4725 64.3574 49.5332C62.5563 48.5938 61.4401 47.8829 61.0596 47.7052C57.9647 46.2073 55.707 44.3539 55.9861 43.5415C56.2651 42.729 59.1824 43.313 62.4294 44.8617Z" fill="black"/>
<path d="M105.351 4.87458C108.471 8.82947 111.079 13.1629 113.114 17.772C116.937 26.4715 119.697 35.6013 121.333 44.9631C122.993 53.9836 123.985 63.1145 124.301 72.2812C124.301 76.0133 124.301 79.0854 124.301 81.2434C124.372 82.3695 124.269 83.4998 123.996 84.5947C123.785 83.4899 123.675 82.3682 123.667 81.2434C123.667 79.1107 123.337 76.0387 123.032 72.3574C122.315 63.3173 121.045 54.3298 119.227 45.4455C117.352 36.3285 114.406 27.4655 110.45 19.0414C108.419 14.6922 105.863 10.6081 102.84 6.88027C100.303 3.57976 98.0201 0.863183 98.6035 0.126914C99.187 -0.609354 102.51 1.29479 105.351 4.87458Z" fill="black"/>
<path d="M78.1573 17.2135C81.6667 20.3855 84.9711 23.7775 88.0506 27.3689C93.7053 34.3031 98.5957 41.8279 102.637 49.8124C106.556 57.5168 109.806 65.5437 112.353 73.8046C113.367 77.1305 114.103 79.9486 114.534 81.929C114.872 82.9435 115.035 84.008 115.016 85.0771C114.554 84.1262 114.188 83.131 113.925 82.1067C113.291 80.1771 112.353 77.4606 111.16 74.1854C108.251 66.1262 104.731 58.3008 100.633 50.7772C96.4568 43.0824 91.4827 35.849 85.7929 29.1969C82.7498 25.8301 79.5142 22.6427 76.1025 19.6508C72.9062 17.1119 70.7246 14.5731 71.2066 13.8876C71.6886 13.2021 74.8088 14.6239 78.1573 17.2135Z" fill="black"/>
<path d="M3.8051 247.183C4.77716 246.358 5.79336 245.587 6.8492 244.873L9.71573 242.816C10.8319 242.08 12.1003 241.369 13.4701 240.557C19.8814 236.77 26.7534 233.827 33.9163 231.798C40.8408 229.844 47.9633 228.677 55.1489 228.319C58.36 228.009 61.5993 228.171 64.7632 228.802C64.7632 229.005 60.9327 228.954 55.225 229.563C48.2122 230.331 41.2944 231.802 34.5759 233.956C27.7008 236.183 21.1239 239.244 14.9922 243.07C13.6984 243.908 12.4554 244.619 11.4407 245.355L8.7264 247.386C7.15361 248.554 6.18965 249.341 5.80914 249.646C3.27239 251.855 0.735637 253.124 0.126817 252.515C-0.482003 251.905 1.14152 249.494 3.8051 247.183Z" fill="black"/>
<path d="M8.3205 276.329C9.15907 275.103 10.0653 273.925 11.0348 272.8L13.5716 269.601C14.5355 268.382 15.7785 267.215 17.0216 265.869C22.9689 259.576 29.705 254.081 37.0619 249.519C44.1717 245.106 51.7748 241.544 59.7151 238.906C62.3064 238.067 64.9398 237.364 67.6044 236.799C68.5903 236.501 69.6196 236.372 70.6485 236.418C70.6485 236.647 66.3867 237.637 60.1463 240.074C52.4954 243.065 45.1757 246.842 38.3049 251.347C31.2793 256.015 24.8626 261.541 19.2032 267.798C18.0109 269.144 16.844 270.337 15.9308 271.48C15.0175 272.622 14.2058 273.739 13.394 274.628C11.9734 276.431 11.0856 277.649 10.8573 278.081C8.70102 281.356 6.31647 283.641 5.55544 283.159C4.79442 282.676 6.08816 279.706 8.3205 276.329Z" fill="black"/>
<path d="M36.5546 280.823C36.8633 279.803 37.2536 278.81 37.7215 277.852C38.5484 275.804 39.5059 273.811 40.588 271.886C43.4858 266.354 47.2066 261.295 51.6229 256.881C55.8691 252.621 60.7462 249.042 66.0823 246.269C68.4217 244.869 71.0033 243.922 73.6926 243.476C73.6926 243.705 70.8007 244.822 66.7419 247.335C61.7676 250.412 57.2357 254.153 53.2717 258.456C49.1833 262.865 45.7645 267.853 43.1247 273.257C42.1718 275.129 41.3249 277.053 40.588 279.02C40.1725 279.953 39.8167 280.911 39.5226 281.889C38.6601 284.428 37.2649 286.51 36.4277 286.281C35.5906 286.053 35.6413 283.59 36.5546 280.823Z" fill="black"/>
<path d="M230.844 341.121C228.206 332.016 224.556 323.236 219.962 314.945C217.088 309.668 213.946 304.542 210.55 299.585C208.9 297.392 207.368 295.112 205.959 292.756C208.076 294.535 209.952 296.583 211.54 298.849C215.381 303.683 218.89 308.772 222.042 314.082C227.056 322.266 231.036 331.041 233.888 340.207C234.751 343.076 234.751 345.564 233.888 345.742C233.026 345.919 231.656 343.888 230.844 341.121Z" fill="black"/>
<path d="M257.785 352.901C257.682 351.408 257.478 349.924 257.176 348.458C256.711 345.406 256.084 342.38 255.299 339.394C254.791 337.642 254.411 335.662 253.7 333.733C252.99 331.803 252.28 329.721 251.519 327.614L248.602 321.292L245.253 315.123C240.842 307.809 235.447 301.137 229.221 295.294C224.147 290.547 220.215 288.109 220.342 287.906C221.382 288.254 222.359 288.769 223.234 289.43C225.625 290.96 227.905 292.657 230.058 294.507C236.718 300.129 242.499 306.719 247.206 314.056C248.424 316.138 249.743 318.22 250.834 320.302L253.878 326.649C254.715 328.782 255.527 330.889 256.415 332.869C257.303 334.85 257.607 336.881 258.19 338.683C259.086 341.742 259.789 344.854 260.296 348.001C260.65 349.495 260.887 351.015 261.006 352.546C261.412 356.76 261.006 360.162 260.144 360.162C259.281 360.162 258.19 356.862 257.785 352.901Z" fill="black"/>
<path d="M273.969 328.503C273.604 327.456 273.18 326.43 272.701 325.431C271.833 323.314 270.833 321.253 269.707 319.261C266.582 313.541 262.719 308.257 258.216 303.546C253.799 298.958 248.89 294.871 243.579 291.359C239.266 288.49 236.146 287.018 236.222 286.815C239.06 287.546 241.765 288.719 244.238 290.293C249.888 293.523 255.119 297.437 259.814 301.946C264.672 306.64 268.863 311.979 272.269 317.814C273.503 319.857 274.605 321.977 275.567 324.161C276.089 325.198 276.547 326.267 276.937 327.36C278.002 330.356 278.155 332.971 277.318 333.225C276.48 333.479 274.908 331.346 273.969 328.503Z" fill="black"/>
<path d="M325.82 253.683C331.509 261.069 336.518 268.954 340.787 277.243C348.939 292.965 355.794 309.328 361.284 326.167C367.296 344.091 372.014 362.117 375.059 375.675C376.606 382.453 377.722 388.115 378.432 392.101C378.788 394.081 379.041 395.63 379.193 396.696C379.313 397.247 379.364 397.809 379.346 398.372C379.138 397.856 378.985 397.32 378.889 396.773C378.635 395.732 378.255 394.234 377.798 392.228C376.885 388.293 375.566 382.707 373.866 375.979C370.442 362.523 365.419 344.65 359.153 326.903C353.453 310.295 346.447 294.165 338.2 278.665C333.909 270.63 328.926 262.984 323.309 255.815C318.235 249.367 313.999 244.39 314.633 243.705C315.267 243.019 320.696 247.056 325.82 253.683Z" fill="black"/>
<path d="M301.873 272.064C302.66 272.724 304.968 274.984 308.24 278.513C312.368 283.181 316.239 288.071 319.833 293.162C329.717 307.703 338.283 323.099 345.429 339.166C352.447 354.661 358.662 370.507 364.049 386.643C366.231 393.167 367.905 398.651 368.996 402.51C369.554 404.415 369.934 405.938 370.188 406.979C370.377 407.5 370.48 408.049 370.492 408.604C370.239 408.117 370.035 407.607 369.883 407.08C369.528 406.065 369.021 404.541 368.387 402.688C367.093 398.905 365.216 393.523 362.857 387.049C358.164 374.126 351.391 356.963 343.374 340.105C336.059 324.309 327.385 309.179 317.449 294.888C313.864 289.932 310.02 285.169 305.932 280.62C302.71 277.218 300.478 275.034 299.692 274.4C293.882 268.865 288.682 264.904 289.164 264.092C289.646 263.279 295.836 266.301 301.873 272.064Z" fill="black"/>
<path d="M288.276 290.953C294.73 296.502 300.673 302.62 306.034 309.233C316.208 321.782 325.386 335.109 333.481 349.093C342.233 363.945 349.919 379.127 355.272 390.628C357.809 396.366 360.041 401.19 361.462 404.592C362.172 406.293 362.705 407.613 363.034 408.553C363.258 409.01 363.412 409.497 363.491 410C363.196 409.617 362.948 409.199 362.755 408.756L360.878 404.922C359.28 401.622 356.997 396.874 354.156 391.238C348.473 379.94 340.508 364.961 331.528 350.337C323.289 336.603 314.02 323.516 303.801 311.188C298.475 304.758 292.592 298.811 286.221 293.416C280.615 288.617 275.795 285.012 276.252 284.2C276.709 283.387 282.467 285.977 288.276 290.953Z" fill="black"/>
<path d="M342.918 392.101C342.052 392.905 341.316 393.839 340.736 394.868C340.415 395.348 340.194 395.887 340.085 396.454C339.976 397.021 339.982 397.604 340.102 398.169C340.182 398.451 340.311 398.717 340.483 398.956L340.762 399.26C340.762 399.413 341.091 399.641 341.167 399.641C341.774 400.06 342.454 400.361 343.171 400.53C347.217 401.289 351.379 401.167 355.373 400.174C360.118 399.091 364.699 397.383 368.996 395.097C371.203 393.98 373.46 392.736 375.54 391.441C377.59 390.232 379.549 388.874 381.4 387.379C383.073 386.105 384.522 384.56 385.687 382.809C386.165 382.161 386.487 381.411 386.628 380.619C386.768 379.826 386.725 379.012 386.499 378.239C386.381 377.906 386.236 377.584 386.068 377.274C385.834 376.929 385.58 376.599 385.307 376.284C384.854 375.752 384.302 375.313 383.683 374.989C382.543 374.403 381.305 374.033 380.031 373.897C378.86 373.739 377.674 373.739 376.504 373.897L377.392 373.567C378.214 373.27 379.064 373.058 379.929 372.932C381.397 372.733 382.891 372.837 384.318 373.237C385.239 373.537 386.098 374.002 386.854 374.608C387.259 374.909 387.633 375.249 387.971 375.624C388.371 376.069 388.712 376.564 388.985 377.096C389.597 378.272 389.916 379.579 389.916 380.904C389.916 382.23 389.597 383.537 388.985 384.713C387.833 387.046 386.25 389.14 384.318 390.882C382.399 392.672 380.337 394.303 378.153 395.757C375.921 397.229 373.663 398.55 371.279 399.844C368.871 401.083 366.369 402.128 363.795 402.967C361.323 403.809 358.774 404.404 356.185 404.744C353.734 405.117 351.248 405.203 348.778 404.998C346.474 404.885 344.211 404.343 342.106 403.399C341.056 402.939 340.114 402.265 339.341 401.418C339.176 401.234 339.023 401.039 338.884 400.835C338.681 400.454 338.605 400.327 338.478 400.047C338.277 399.563 338.157 399.048 338.123 398.524C338.098 397.721 338.245 396.923 338.556 396.182C338.867 395.442 339.334 394.777 339.924 394.233C340.574 393.587 341.308 393.032 342.106 392.583C342.365 392.404 342.636 392.242 342.918 392.101Z" fill="black"/>
<path d="M332.796 359.858L332.162 360.67C331.601 361.473 331.109 362.323 330.691 363.209C330.079 364.373 329.943 365.729 330.31 366.992C330.594 367.638 331.061 368.185 331.655 368.566C332.368 368.945 333.14 369.202 333.938 369.328C336.048 369.645 338.194 369.645 340.305 369.328C342.736 368.937 345.136 368.368 347.484 367.627C350 366.779 352.464 365.787 354.866 364.656C357.338 363.431 359.742 362.075 362.07 360.594C364.404 359.071 366.763 357.42 368.919 355.745C371.068 354.211 373.095 352.513 374.982 350.667C376.699 349.051 378.139 347.164 379.244 345.081C379.684 344.319 379.951 343.468 380.026 342.591C380.101 341.713 379.981 340.83 379.675 340.004C379.518 339.637 379.323 339.288 379.092 338.963C378.81 338.597 378.505 338.249 378.179 337.922C377.611 337.376 376.949 336.938 376.225 336.627C374.904 336.088 373.492 335.804 372.065 335.789C370.746 335.734 369.425 335.845 368.133 336.119L369.072 335.637C370.004 335.226 370.972 334.903 371.964 334.672C373.585 334.317 375.264 334.317 376.885 334.672C377.97 334.913 379.002 335.352 379.929 335.967C380.401 336.262 380.843 336.602 381.248 336.982C381.735 337.443 382.161 337.963 382.516 338.531C383.295 339.741 383.75 341.131 383.836 342.568C383.913 344.045 383.688 345.522 383.176 346.909C382.15 349.629 380.627 352.135 378.686 354.298C376.762 356.523 374.658 358.587 372.395 360.467C370.086 362.371 367.702 364.098 365.19 365.799C362.662 367.467 359.998 368.92 357.225 370.14C354.543 371.367 351.748 372.328 348.879 373.009C346.176 373.702 343.4 374.068 340.609 374.101C338.026 374.222 335.444 373.851 332.999 373.009C331.764 372.481 330.663 371.683 329.777 370.673C328.925 369.83 328.365 368.736 328.179 367.55C328.078 366.661 328.165 365.76 328.436 364.907C328.708 364.053 329.156 363.267 329.752 362.6C330.397 361.806 331.148 361.106 331.984 360.518C332.242 360.282 332.513 360.062 332.796 359.858Z" fill="black"/>
<path d="M313.517 327.512C313.271 327.869 313.051 328.242 312.857 328.63C312.29 329.684 311.823 330.789 311.462 331.93C310.903 333.456 310.957 335.14 311.614 336.627C312.065 337.386 312.738 337.989 313.542 338.353C314.476 338.708 315.462 338.905 316.46 338.937C319.094 338.943 321.716 338.576 324.247 337.846C327.169 336.987 330.019 335.9 332.771 334.596C335.725 333.146 338.588 331.518 341.345 329.721C344.179 327.825 346.905 325.774 349.513 323.577C352.05 321.343 354.765 318.931 357.124 316.519C359.506 314.227 361.711 311.757 363.719 309.131C365.548 306.835 367.003 304.264 368.032 301.515C368.456 300.478 368.646 299.36 368.589 298.241C368.532 297.122 368.229 296.029 367.702 295.04C367.431 294.604 367.117 294.195 366.763 293.822C366.387 293.443 365.989 293.087 365.571 292.755C364.767 292.169 363.865 291.73 362.907 291.461C361.195 291.013 359.414 290.892 357.656 291.105C356.029 291.261 354.427 291.619 352.887 292.172C352.887 292.172 353.242 291.892 353.978 291.435C355.038 290.754 356.169 290.192 357.352 289.76C359.261 289 361.315 288.679 363.364 288.82C364.821 288.911 366.244 289.292 367.551 289.941C368.858 290.591 370.022 291.496 370.974 292.603C372.134 293.964 372.928 295.598 373.283 297.351C373.638 299.144 373.638 300.99 373.283 302.784C372.464 306.285 371.011 309.607 368.996 312.584C366.981 315.615 364.734 318.484 362.273 321.165C359.748 323.837 357.09 326.379 354.308 328.782C351.477 331.245 348.448 333.47 345.252 335.434C342.152 337.355 338.883 338.987 335.485 340.308C332.285 341.587 328.949 342.49 325.541 342.999C322.399 343.6 319.171 343.6 316.028 342.999C314.458 342.702 312.97 342.07 311.665 341.146C310.477 340.238 309.592 338.989 309.128 337.566C308.857 336.492 308.819 335.372 309.016 334.282C309.213 333.191 309.64 332.156 310.27 331.245C310.93 330.161 311.732 329.17 312.654 328.299C313.162 327.893 313.517 327.512 313.517 327.512Z" fill="black"/>
</g>
<path d="M131.391 153.109C126.562 171.438 123.422 187.727 121.969 201.977L110.156 205.07L116.344 168.719L107.133 170.125L109.031 156.766L131.391 153.109Z" fill="#F15256"/>
<path d="M158.883 168.367C155.93 168.461 152.062 170.523 147.281 174.555C156.094 175.914 160.477 179.359 160.43 184.891C160.43 189.672 157.547 194.453 151.781 199.234C146.062 204.016 140.602 206.195 135.398 205.773C129.398 205.258 126.188 200.852 125.766 192.555L138.773 190.727C138.586 191.289 138.492 191.781 138.492 192.203C138.492 193 138.891 193.398 139.688 193.398C140.016 193.398 140.391 193.328 140.812 193.188C142.828 192.625 144.375 191.641 145.453 190.234C145.875 189.719 146.086 189.203 146.086 188.688C146.086 186.578 143.812 185.523 139.266 185.523C136.781 185.523 133.477 185.805 129.352 186.367L131.742 174.555C136.008 171.742 140.086 169 143.977 166.328C139.992 166.656 136.055 167.078 132.164 167.594L133.008 154.234L161.344 152.617C160.734 156.086 159.914 161.336 158.883 168.367Z" fill="#F15256"/>
<path d="M185.883 150.016C190.852 150.016 194.367 152.781 196.43 158.312C197.508 161.172 198.047 164.312 198.047 167.734C198.047 171.016 197.555 174.578 196.57 178.422C194.836 184.984 191.836 191.031 187.57 196.562C182.367 203.312 176.859 206.688 171.047 206.688C166.031 206.688 162.469 203.922 160.359 198.391C159.328 195.672 158.812 192.625 158.812 189.25C158.812 185.922 159.328 182.312 160.359 178.422C162.094 171.812 165.07 165.742 169.289 160.211C174.492 153.414 180.023 150.016 185.883 150.016ZM183.352 167.453C180.773 167.453 178.148 169.562 175.477 173.781C173.32 177.109 171.82 180.367 170.977 183.555C170.555 185.242 170.344 186.766 170.344 188.125C170.344 190.047 170.812 191.617 171.75 192.836C172.828 194.195 174.328 194.875 176.25 194.875C178.875 194.875 181.242 193.492 183.352 190.727C185.039 188.523 186.258 185.922 187.008 182.922C187.898 179.406 188.086 175.938 187.57 172.516C187.008 169.141 185.602 167.453 183.352 167.453Z" fill="#F15256"/>
<path d="M214.641 155.289C220.031 153.508 224.602 152.617 228.352 152.617C232.57 152.617 235.781 153.719 237.984 155.922C241.031 159.062 242.555 162.883 242.555 167.383C242.555 169.023 242.344 170.758 241.922 172.586C240.094 180.836 235.781 188.055 228.984 194.242C222.188 200.383 214.617 203.992 206.273 205.07C206.367 204.039 206.859 200.969 207.75 195.859L213.375 163.516C214.172 158.688 214.594 155.945 214.641 155.289ZM224.695 166.891C222.539 176.078 220.898 184.773 219.773 192.977C222.586 190.305 225.094 187.211 227.297 183.695C230.016 179.383 231.375 175.68 231.375 172.586C231.375 168.602 229.148 166.703 224.695 166.891Z" fill="#F15256"/>
<path d="M244.734 155.57C246.234 155.336 249.047 154.703 253.172 153.672C256.734 152.828 259.594 152.289 261.75 152.055C262.594 152.008 263.414 151.984 264.211 151.984C270.398 151.984 273.469 154.188 273.422 158.594C273.422 164.828 269.578 171.062 261.891 177.297C266.719 176.969 269.508 178.328 270.258 181.375C270.398 182.031 270.469 182.711 270.469 183.414C270.469 186.93 268.781 190.492 265.406 194.102C262.828 196.867 259.641 199.305 255.844 201.414C251.297 203.945 246.07 205.211 240.164 205.211C239.227 205.211 238.289 205.188 237.352 205.141C239.18 195.531 241.195 182.617 243.398 166.398C244.055 161.805 244.5 158.195 244.734 155.57ZM252.188 184.82C251.812 186.602 251.414 189.016 250.992 192.062C257.602 190.047 260.906 187.75 260.906 185.172C260.906 184.234 260.086 183.766 258.445 183.766C256.992 183.766 254.906 184.117 252.188 184.82ZM256.055 165.977C255.68 167.523 255.328 169.07 255 170.617L254.016 175.258C257.438 173.148 259.875 170.711 261.328 167.945C261.656 167.336 261.82 166.844 261.82 166.469C261.82 165.672 261.211 165.273 259.992 165.273C259.055 165.273 257.742 165.508 256.055 165.977Z" fill="#F15256"/>
<path fill-rule="evenodd" clip-rule="evenodd" d="M133.008 154.234L161.344 152.617C161.141 153.769 160.916 155.118 160.667 156.662C160.166 159.769 159.572 163.671 158.883 168.367C156.861 168.431 154.411 169.418 151.533 171.327C150.207 172.207 148.79 173.283 147.281 174.555C149.143 174.842 150.808 175.222 152.274 175.696C153.905 176.222 155.292 176.864 156.434 177.622C157.952 178.628 159.037 179.838 159.69 181.251C159.882 180.325 160.105 179.382 160.359 178.422C160.554 177.679 160.765 176.944 160.991 176.215C162.778 170.456 165.544 165.121 169.289 160.211C174.492 153.414 180.023 150.016 185.883 150.016C190.852 150.016 194.367 152.781 196.43 158.312C197.508 161.172 198.047 164.312 198.047 167.734C198.047 171.016 197.555 174.578 196.57 178.422C194.836 184.984 191.836 191.031 187.57 196.562C182.367 203.312 176.859 206.688 171.047 206.688C166.031 206.688 162.469 203.922 160.359 198.391C160.163 197.873 159.985 197.344 159.827 196.802C159.297 195 158.975 193.066 158.86 191.001C158.043 192.592 156.907 194.183 155.451 195.774C154.395 196.927 153.172 198.081 151.781 199.234C146.063 204.016 140.602 206.195 135.398 205.773C130.765 205.375 127.795 202.657 126.488 197.619C126.103 196.133 125.862 194.445 125.766 192.555L138.773 190.727C138.586 191.289 138.492 191.781 138.492 192.203C138.492 192.788 138.707 193.159 139.137 193.314C139.292 193.37 139.476 193.398 139.688 193.398C140.016 193.398 140.391 193.328 140.813 193.188C142.828 192.625 144.375 191.641 145.453 190.234C145.875 189.719 146.086 189.203 146.086 188.688C146.086 187.654 145.541 186.874 144.45 186.347C144.189 186.221 143.897 186.11 143.574 186.013C142.49 185.686 141.053 185.523 139.266 185.523C137.687 185.523 135.776 185.637 133.534 185.864C132.249 185.995 130.855 186.162 129.352 186.367L131.742 174.555C133.547 173.365 135.318 172.187 137.056 171.023C139.425 169.434 141.732 167.87 143.977 166.328C141.365 166.543 138.774 166.798 136.204 167.094C136.013 167.116 135.823 167.138 135.633 167.16C134.472 167.297 133.316 167.441 132.164 167.594L133.008 154.234ZM128.28 165.635C128.911 162.92 129.583 160.156 130.297 157.341C130.567 156.273 130.844 155.198 131.127 154.116C131.214 153.781 131.302 153.445 131.391 153.109L109.031 156.766L107.133 170.125L116.344 168.719L110.156 205.07L121.969 201.977C122.107 200.619 122.261 199.244 122.43 197.85C122.635 196.157 122.863 194.437 123.113 192.69C123.297 191.41 123.492 190.115 123.7 188.806C124.853 181.534 126.38 173.81 128.28 165.635ZM125.682 204.99L125.667 205.143L105.173 210.51L111.471 173.509L102.415 174.892L105.485 153.292L136.829 148.167L136.336 150.038L166.157 148.336L165.283 153.309C164.953 155.19 164.557 157.616 164.096 160.592C164.735 159.642 165.406 158.706 166.109 157.785L166.113 157.78C171.709 150.47 178.282 146.016 185.883 146.016C189.159 146.016 192.178 146.947 194.719 148.946C197.21 150.905 198.968 153.674 200.176 156.911C201.441 160.269 202.047 163.892 202.047 167.734C202.047 171.411 201.496 175.311 200.445 179.414L200.441 179.429L200.438 179.444C198.563 186.537 195.32 193.064 190.738 199.005C185.146 206.26 178.598 210.688 171.047 210.688C167.756 210.688 164.722 209.762 162.16 207.773C159.735 205.89 157.985 203.251 156.755 200.157C155.996 200.887 155.189 201.604 154.341 202.308C148.165 207.47 141.699 210.297 135.075 209.76L135.066 209.76L135.056 209.759C131.272 209.434 128.022 207.879 125.682 204.99ZM158.013 172.528C157.582 172.643 157.084 172.823 156.516 173.083C156.893 173.265 157.26 173.457 157.616 173.658C157.744 173.279 157.877 172.903 158.013 172.528ZM187.008 182.922C187.898 179.406 188.086 175.938 187.57 172.516C187.008 169.141 185.602 167.453 183.352 167.453C180.773 167.453 178.148 169.562 175.477 173.781C173.32 177.109 171.82 180.367 170.977 183.555C170.555 185.242 170.344 186.766 170.344 188.125C170.344 190.047 170.813 191.617 171.75 192.836C172.828 194.195 174.328 194.875 176.25 194.875C178.875 194.875 181.242 193.492 183.352 190.727C185.039 188.523 186.258 185.922 187.008 182.922ZM174.903 190.374C175.131 190.654 175.423 190.875 176.25 190.875C177.245 190.875 178.552 190.424 180.171 188.301L180.176 188.294C181.495 186.572 182.495 184.482 183.127 181.952L183.13 181.94C183.894 178.925 184.046 176.004 183.62 173.143C183.514 172.519 183.385 172.066 183.262 171.751C183.219 171.64 183.179 171.552 183.145 171.484C182.57 171.63 181.086 172.4 178.856 175.921L178.845 175.939L178.834 175.956C176.868 178.989 175.568 181.853 174.85 184.552C174.492 185.993 174.344 187.175 174.344 188.125C174.344 189.363 174.631 190.01 174.903 190.374ZM210.842 152.332L213.386 151.491C218.995 149.637 224.016 148.617 228.352 148.617C233.245 148.617 237.625 149.905 240.813 153.093L240.834 153.115L240.855 153.137C240.88 153.162 240.904 153.187 240.929 153.213L241.028 152.101L244.117 151.618C245.412 151.416 248.057 150.828 252.202 149.791L252.226 149.785L252.25 149.78C255.88 148.92 258.923 148.338 261.318 148.078L261.423 148.067L261.528 148.061C262.441 148.01 263.336 147.984 264.211 147.984C267.655 147.984 270.961 148.575 273.486 150.387C276.262 152.379 277.451 155.366 277.422 158.616C277.415 164.454 274.782 169.894 270.221 174.952C272.219 176.194 273.566 178.081 274.142 180.419L274.156 180.478L274.169 180.537C274.371 181.481 274.469 182.443 274.469 183.414C274.469 188.291 272.116 192.781 268.332 196.829C265.43 199.943 261.896 202.628 257.786 204.911C252.569 207.815 246.657 209.211 240.164 209.211C239.16 209.211 238.156 209.186 237.152 209.136L232.563 208.906L233.422 204.393C234.038 201.158 234.676 197.538 235.336 193.532C234.198 194.793 232.978 196.016 231.677 197.2L231.672 197.205L231.666 197.21C224.321 203.846 216.01 207.846 206.786 209.037L201.838 209.677L202.29 204.708C202.402 203.471 202.933 200.198 203.809 195.172L209.428 162.864C209.429 162.859 209.43 162.854 209.431 162.848C209.827 160.447 210.128 158.577 210.336 157.23C210.44 156.554 210.518 156.021 210.573 155.626C210.6 155.428 210.62 155.274 210.634 155.159C210.649 155.033 210.652 154.992 210.651 155.004L210.842 152.332ZM213.375 163.516L207.75 195.859C207.4 197.868 207.111 199.562 206.884 200.94C206.534 203.068 206.33 204.445 206.273 205.07C207.671 204.89 209.047 204.638 210.401 204.315C211.735 203.998 213.048 203.611 214.34 203.155C214.627 203.054 214.912 202.95 215.196 202.842C220.1 200.983 224.696 198.116 228.984 194.242C232.041 191.459 234.596 188.468 236.648 185.268C239.158 181.353 240.916 177.125 241.922 172.586C242.344 170.758 242.555 169.023 242.555 167.383C242.555 167.01 242.544 166.643 242.523 166.28C242.523 166.278 242.523 166.275 242.523 166.273C242.368 163.59 241.643 161.162 240.348 158.987C239.702 157.902 238.914 156.88 237.984 155.922C235.781 153.719 232.57 152.617 228.352 152.617C224.602 152.617 220.031 153.508 214.641 155.289C214.594 155.945 214.172 158.688 213.375 163.516ZM227.297 183.695C226.454 185.041 225.566 186.324 224.634 187.546C223.13 189.517 221.51 191.327 219.773 192.977C220.092 190.653 220.452 188.291 220.853 185.889C221.869 179.809 223.15 173.476 224.695 166.891C229.148 166.703 231.375 168.602 231.375 172.586C231.375 175.68 230.016 179.383 227.297 183.695ZM226.898 175.419C227.039 174.746 227.183 174.07 227.33 173.39C227.264 173.995 227.125 174.67 226.898 175.419ZM242.526 172.72C242.526 172.722 242.525 172.723 242.525 172.725C241.822 177.733 241.139 182.389 240.476 186.692C239.647 192.068 238.85 196.894 238.084 201.17C237.837 202.551 237.592 203.874 237.352 205.141C238.289 205.188 239.227 205.211 240.164 205.211C240.584 205.211 241 205.205 241.413 205.192C246.81 205.025 251.62 203.765 255.844 201.414C259.641 199.305 262.828 196.867 265.406 194.102C268.781 190.492 270.469 186.93 270.469 183.414C270.469 182.711 270.398 182.031 270.258 181.375C269.854 179.736 268.861 178.586 267.278 177.923C265.918 177.354 264.122 177.145 261.891 177.297C263.463 176.022 264.874 174.747 266.124 173.473C270.989 168.513 273.422 163.553 273.422 158.594C273.469 154.188 270.398 151.984 264.211 151.984C263.414 151.984 262.594 152.008 261.75 152.055C259.594 152.289 256.734 152.828 253.172 153.672C249.047 154.703 246.234 155.336 244.734 155.57C244.664 156.355 244.575 157.228 244.468 158.189C244.215 160.442 243.859 163.178 243.398 166.398C243.354 166.728 243.309 167.056 243.264 167.383C243.016 169.204 242.77 170.983 242.526 172.72ZM261.328 167.945C261.656 167.336 261.82 166.844 261.82 166.469C261.82 165.672 261.211 165.273 259.992 165.273C259.055 165.273 257.742 165.508 256.055 165.977C255.785 167.088 255.528 168.199 255.283 169.31C255.187 169.746 255.092 170.182 255 170.617L254.016 175.258C255.922 174.083 257.523 172.806 258.818 171.427C258.861 171.381 258.904 171.335 258.947 171.289C259.918 170.233 260.712 169.119 261.328 167.945ZM260.085 169.278C260.085 169.279 260.069 169.278 260.039 169.274C260.072 169.275 260.086 169.277 260.085 169.278ZM250.992 192.062C252.611 191.569 254.031 191.058 255.254 190.531C259.022 188.905 260.906 187.119 260.906 185.172C260.906 184.234 260.086 183.766 258.445 183.766C256.992 183.766 254.906 184.117 252.188 184.82C252.017 185.629 251.842 186.567 251.663 187.636C251.446 188.923 251.223 190.398 250.992 192.062ZM256.984 184.79C256.986 184.79 256.981 184.802 256.964 184.826C256.975 184.802 256.983 184.79 256.984 184.79Z" fill="black"/>
<defs>
<clipPath id="clip0_114_2490">
<rect width="390" height="410" fill="white"/>
</clipPath>
</defs>
</svg>
