<svg width="400" height="312" viewBox="0 0 400 312" fill="none" xmlns="http://www.w3.org/2000/svg">
<g clip-path="url(#clip0_114_2492)">
<path d="M23.7605 288.175C12.3737 281.64 -10.3999 305.996 12.3737 309.34C19.6417 309.724 26.7658 307.21 32.1867 302.349C37.5764 295.889 33.1356 285.744 23.7605 288.175Z" fill="white"/>
<path d="M14.1955 312C13.475 312.042 12.7526 312.042 12.032 312C0.607295 310.214 0 303.717 0 300.981C0.569338 293.153 10.6656 284.528 19.2816 284.528C20.9243 284.509 22.553 284.832 24.064 285.478C26.4067 284.916 28.871 285.181 31.0418 286.226C33.2126 287.271 34.9574 289.033 35.9822 291.215C36.9185 293.297 37.2444 295.603 36.9219 297.864C36.5993 300.124 35.6416 302.246 34.1603 303.983C28.7056 309.004 21.6047 311.856 14.1955 312ZM19.3196 289.619C12.867 289.619 5.46565 296.497 5.12405 301.361C4.85835 304.894 9.14737 306.262 12.7152 306.794C13.1951 306.835 13.6776 306.835 14.1575 306.794C20.108 306.713 25.8422 304.549 30.3647 300.677C31.23 299.697 31.7998 298.491 32.0081 297.199C32.2164 295.908 32.0545 294.584 31.5413 293.381C30.9248 292.138 29.8681 291.169 28.577 290.663C27.2859 290.158 25.853 290.151 24.5575 290.645L23.5706 290.911L22.6597 290.417C21.6431 289.843 20.4856 289.567 19.3196 289.619Z" fill="black"/>
<path d="M67.2958 261.501C64.1454 253.901 52.5309 248.582 44.5222 252.799C32.7938 259.107 38.5252 271.798 48.0901 272.33C41.9412 280.652 46.7237 286.123 50.1777 287.529C64.1075 293.115 67.2198 280.842 67.2198 280.842C67.2198 280.842 85.0971 285.554 83.427 270.392C81.757 255.231 67.2958 261.501 67.2958 261.501Z" fill="white"/>
<path d="M56.9338 291.519C54.3241 291.45 51.75 290.896 49.3426 289.885C47.8473 289.256 46.51 288.302 45.427 287.093C44.3441 285.885 43.5425 284.45 43.0799 282.894C42.3152 279.926 42.6946 276.779 44.1427 274.078C42.0807 273.355 40.2344 272.123 38.7747 270.496C37.315 268.868 36.2892 266.899 35.7924 264.769C35.2476 261.888 35.7035 258.908 37.0844 256.323C38.4653 253.738 40.6881 251.703 43.3835 250.558C45.7197 249.322 48.3334 248.707 50.9747 248.772C54.472 248.809 57.9066 249.705 60.9773 251.381C64.0479 253.057 66.6607 255.462 68.5862 258.385C70.2206 257.945 71.9042 257.716 73.5964 257.701C80.6942 257.701 85.2868 262.223 86.1219 270.05C86.4478 271.836 86.3824 273.672 85.9302 275.43C85.478 277.188 84.6498 278.827 83.5029 280.234C82.1371 281.568 80.5037 282.597 78.7108 283.252C76.9179 283.907 75.0064 284.174 73.103 284.034C71.7188 284.024 70.3367 283.922 68.9658 283.73C67.9332 286.058 66.2453 288.035 64.1085 289.418C61.9716 290.801 59.4785 291.532 56.9338 291.519ZM50.8988 253.863C49.1412 253.841 47.4059 254.259 45.8507 255.079C44.1526 255.705 42.7208 256.896 41.7949 258.452C40.869 260.009 40.5053 261.836 40.7646 263.629C41.2028 265.334 42.1774 266.854 43.5443 267.962C44.9113 269.071 46.5982 269.71 48.3558 269.784L53.1382 270.012L50.2915 273.812C49.367 274.827 48.6822 276.037 48.288 277.352C47.8938 278.668 47.8002 280.055 48.0142 281.412C48.2432 282.248 48.6548 283.022 49.2194 283.679C49.7839 284.336 50.4871 284.86 51.2784 285.212C53.0809 285.983 55.0122 286.408 56.9717 286.465C58.7934 286.441 60.5565 285.817 61.9898 284.691C63.4231 283.565 64.4472 281.999 64.9045 280.234L65.5498 277.764L68.0169 278.41C69.6979 278.798 71.416 279.001 73.141 279.018C75.5348 279.182 77.8958 278.389 79.7073 276.814C80.3411 275.928 80.7833 274.92 81.0055 273.854C81.2277 272.787 81.2251 271.686 80.9978 270.62C80.4285 265.339 78.0752 263.021 73.4066 263.021C71.5808 263.055 69.7728 263.389 68.0549 264.009L65.7016 264.959L64.7147 262.603C63.4138 260.042 61.4479 257.879 59.0235 256.341C56.5991 254.803 53.8057 253.947 50.9368 253.863H50.8988Z" fill="black"/>
<path d="M93.4095 208.57C90.242 206.646 86.4881 205.929 82.8355 206.55C79.1828 207.171 75.876 209.089 73.5206 211.952C64.1455 224.643 81.6052 235.511 92.8402 233.117C86.957 242.73 97.5467 258.347 108.023 258.537C119.409 258.537 130.113 248.012 126.583 236.574C136.641 242.54 150.913 232.775 151.824 225.593C154.101 207.506 134.668 200.097 119.789 206.024C118.119 186.189 88.8548 193.333 93.4095 208.57Z" fill="white"/>
<path d="M108.364 261.083H108.06C104.512 260.731 101.114 259.474 98.1897 257.432C95.2657 255.389 92.9141 252.63 91.3598 249.418C88.9639 245.385 88.1141 240.618 88.9686 236.004C85.0941 235.932 81.2994 234.89 77.9312 232.971C74.5629 231.053 71.7286 228.32 69.687 225.023C68.5429 222.679 68.1025 220.053 68.4192 217.463C68.7358 214.873 69.7959 212.431 71.4709 210.432C73.7117 207.698 76.7024 205.68 80.0745 204.627C83.4466 203.574 87.0528 203.531 90.4489 204.504C90.6149 202.131 91.4727 199.859 92.916 197.969C94.6299 195.847 96.8 194.141 99.2645 192.976C101.729 191.812 104.424 191.219 107.149 191.243C110.548 191.139 113.878 192.218 116.57 194.297C119.263 196.376 121.152 199.325 121.914 202.642C124.664 201.833 127.513 201.411 130.378 201.388C133.979 201.269 137.564 201.912 140.899 203.274C144.235 204.636 147.246 206.686 149.736 209.292C151.673 211.547 153.097 214.197 153.91 217.057C154.722 219.918 154.904 222.921 154.443 225.859C153.494 233.459 143.056 241.058 133.681 241.058C132.404 241.055 131.132 240.915 129.885 240.64C129.939 244.76 128.602 248.777 126.089 252.04C124.011 254.791 121.336 257.035 118.265 258.601C115.195 260.168 111.81 261.016 108.364 261.083ZM98.116 229.393L94.8897 234.447C93.9424 236.438 93.5316 238.643 93.698 240.843C93.8645 243.042 94.6024 245.16 95.8386 246.986C96.9858 249.387 98.7095 251.466 100.855 253.038C103.001 254.609 105.503 255.624 108.136 255.991L108.364 258.575V255.991C111.025 255.956 113.643 255.307 116.012 254.094C118.382 252.882 120.441 251.138 122.028 249C123.294 247.37 124.15 245.46 124.527 243.43C124.903 241.401 124.788 239.31 124.192 237.334L122.256 231.027L127.949 234.409C129.692 235.413 131.67 235.937 133.681 235.928C141.462 235.928 148.863 229.431 149.356 225.327C149.743 223.111 149.634 220.837 149.037 218.669C148.44 216.5 147.369 214.492 145.902 212.788C143.885 210.735 141.463 209.124 138.79 208.058C136.118 206.992 133.253 206.493 130.378 206.594C127.105 206.607 123.862 207.225 120.814 208.418L117.625 209.672L117.322 206.252C117.345 204.921 117.093 203.599 116.583 202.37C116.073 201.14 115.315 200.029 114.357 199.105C113.399 198.182 112.262 197.466 111.015 197.003C109.768 196.539 108.439 196.337 107.112 196.411C105.183 196.374 103.271 196.771 101.517 197.573C99.763 198.376 98.2115 199.563 96.9773 201.046C96.2389 201.997 95.7482 203.116 95.5494 204.303C95.3506 205.491 95.45 206.709 95.8386 207.848L97.6985 214.08L92.1189 210.812C89.471 209.289 86.3798 208.726 83.3657 209.217C80.3516 209.708 77.5986 211.224 75.5702 213.51C74.4633 214.746 73.7495 216.285 73.5197 217.93C73.2898 219.574 73.5544 221.25 74.2797 222.743C75.9174 225.276 78.168 227.352 80.8224 228.781C83.4768 230.209 86.4487 230.942 89.462 230.913C90.405 230.924 91.3466 230.835 92.2708 230.647L98.116 229.393Z" fill="black"/>
<path d="M355.001 133.258C354.257 128.067 352.454 123.085 349.705 118.62C346.956 114.156 343.32 110.305 339.022 107.306C342.298 103.182 344.682 98.4206 346.021 93.3248C347.361 88.229 347.627 82.91 346.803 77.7057C343.729 57.3008 325.737 43.0897 306.57 45.9395C306.551 45.7881 306.551 45.6349 306.57 45.4835C303.078 22.3049 282.582 6.1178 260.795 9.38561C255.493 10.1946 250.418 12.103 245.895 14.9885C241.372 17.874 237.501 21.6731 234.529 26.1426C230.96 18.316 224.98 11.8393 217.467 7.66143C209.954 3.48356 201.302 1.82405 192.778 2.92599C170.802 6.2318 155.961 27.6626 159.415 50.8792C135.161 49.3973 113.602 64.5964 110.3 86.4072C109.319 94.2126 110.558 102.137 113.875 109.269C117.191 116.4 122.452 122.45 129.05 126.723C115.5 138.882 110.983 156.931 119.257 170.002C126.849 182.124 143.17 186.227 158.921 181.212C154.443 202.604 164.918 223.009 182.302 226.505C186.377 227.272 190.568 227.158 194.594 226.168C198.621 225.178 202.389 223.337 205.645 220.767C209.395 225.424 214.284 229.029 219.838 231.233C225.391 233.437 231.42 234.164 237.338 233.345C242.587 232.531 247.573 230.504 251.902 227.423C256.231 224.343 259.783 220.295 262.275 215.6C269.246 220.301 277.72 222.226 286.036 220.995C305.014 218.146 318.26 199.261 315.186 178.894C315 177.612 314.733 176.343 314.389 175.094C318.222 175.894 322.167 176.01 326.041 175.436C345.019 172.548 358.076 153.663 355.001 133.258Z" fill="white"/>
<path d="M232.252 236.346C227.112 236.309 222.036 235.209 217.34 233.117C212.644 231.025 208.43 227.985 204.962 224.187C201.583 226.567 197.751 228.226 193.705 229.061C189.659 229.896 185.484 229.889 181.441 229.041C177.397 228.193 173.571 226.522 170.2 224.131C166.829 221.74 163.984 218.681 161.844 215.144C156.207 206.08 153.961 195.31 155.505 184.745C152.239 185.466 148.905 185.836 145.561 185.847C139.94 186.098 134.348 184.898 129.323 182.363C124.299 179.828 120.009 176.043 116.866 171.37C108.592 158.299 112.046 140.022 124.875 126.951C118.657 122.254 113.792 115.995 110.772 108.807C107.752 101.62 106.686 93.7606 107.681 86.0271C110.983 64.1784 131.1 48.2953 155.581 48.2953H156.492C155.467 37.5535 158.248 26.7928 164.349 17.8971C167.546 13.2259 171.67 9.26347 176.463 6.25641C181.256 3.24936 186.615 1.26201 192.209 0.418061C200.581 -0.634833 209.078 0.79924 216.643 4.54196C224.208 8.28469 230.507 14.171 234.757 21.4688C241.145 13.5922 250.242 8.38834 260.264 6.87769C262.238 6.60621 264.229 6.46657 266.223 6.45971C276.419 6.75973 286.201 10.571 293.917 17.2507C301.634 23.9304 306.813 33.0698 308.581 43.1276H311.466C320.816 43.3954 329.767 46.9818 336.72 53.2461C343.672 59.5105 348.174 68.045 349.422 77.3256C350.998 87.6516 348.597 98.1916 342.704 106.812C350.782 113.353 356.111 122.693 357.637 132.981C359.162 143.27 356.772 153.757 350.94 162.365C348.138 166.506 344.516 170.025 340.298 172.705C336.08 175.385 331.356 177.169 326.421 177.944C323.517 178.369 320.572 178.432 317.653 178.134C317.653 178.134 317.653 178.438 317.653 178.59C318.502 183.892 318.288 189.311 317.023 194.53C315.759 199.749 313.47 204.664 310.289 208.988C305.078 216.229 297.37 221.279 288.655 223.16C279.941 225.041 270.839 223.62 263.11 219.171C260.323 223.63 256.609 227.435 252.221 230.327C247.832 233.218 242.873 235.129 237.68 235.928C235.884 236.208 234.069 236.347 232.252 236.346ZM205.873 217.348L207.429 219.209C210.916 223.515 215.448 226.851 220.592 228.901C225.736 230.95 231.319 231.643 236.807 230.913C241.661 230.138 246.268 228.245 250.266 225.383C254.264 222.522 257.544 218.769 259.846 214.422L261.174 211.99L263.49 213.548C269.95 217.869 277.774 219.655 285.466 218.563C289.557 217.936 293.481 216.501 297.013 214.341C300.545 212.182 303.612 209.342 306.038 205.986C308.809 202.196 310.802 197.894 311.903 193.329C313.004 188.764 313.191 184.026 312.453 179.388C312.453 178.134 312.035 176.918 311.732 175.588L310.707 171.788L314.73 172.624C316.817 173.046 318.94 173.262 321.069 173.27C322.543 173.271 324.015 173.157 325.472 172.928C329.732 172.295 333.815 170.783 337.461 168.487C341.107 166.191 344.237 163.162 346.651 159.591C352.028 151.715 354.091 142.036 352.393 132.649C350.696 123.262 345.374 114.922 337.58 109.434L335.34 107.876L337.048 105.71C340.085 101.851 342.294 97.4049 343.535 92.6514C344.776 87.8979 345.022 82.9391 344.26 78.0856C343.252 70.0025 339.394 62.5453 333.382 57.0561C327.37 51.5669 319.599 48.4064 311.466 48.1433C309.941 48.1438 308.419 48.2581 306.911 48.4853L304.368 48.8653L303.875 45.9014C303.421 40.801 301.935 35.8466 299.505 31.3404C297.076 26.8342 293.755 22.8708 289.745 19.692C285.735 16.5132 281.12 14.1856 276.182 12.8514C271.244 11.5171 266.086 11.2041 261.023 11.9314C256.07 12.6958 251.331 14.4864 247.109 17.1886C242.887 19.8908 239.275 23.4451 236.503 27.6245L233.998 31.4243L232.1 27.6245C228.757 20.2628 223.167 14.1523 216.136 10.1717C209.104 6.19112 200.993 4.5456 192.968 5.47177C188.068 6.22288 183.377 7.98132 179.19 10.6364C175.003 13.2914 171.41 16.7856 168.638 20.8989C162.693 29.5392 160.301 40.1396 161.958 50.4992L162.413 53.653H159.263C135.806 52.0191 115.879 66.5342 112.805 86.9011C111.88 94.2472 113.038 101.706 116.145 108.425C119.253 115.144 124.185 120.852 130.378 124.899L132.997 126.761L130.606 128.889C117.663 140.098 113.868 156.931 121.459 168.634C124.141 172.577 127.792 175.763 132.059 177.886C136.326 180.008 141.067 180.997 145.826 180.756C150.015 180.731 154.175 180.064 158.162 178.78L162.261 177.488L161.464 181.668C159.005 192.153 160.779 203.186 166.399 212.37C168.18 215.326 170.536 217.895 173.326 219.925C176.116 221.955 179.285 223.404 182.644 224.187C186.364 224.875 190.188 224.76 193.86 223.849C197.532 222.938 200.968 221.253 203.937 218.905L205.873 217.348Z" fill="black"/>
</g>
<path d="M105.178 84.8047C103.678 85.3672 101.897 86.0469 99.8344 86.8438L94.561 88.8828C94.561 86.6797 93.9516 85.5781 92.7329 85.5781C90.9985 85.5781 89.2641 86.5625 87.5297 88.5312C86.311 89.9844 85.7954 91.3906 85.9829 92.75C86.1235 93.6406 87.0141 94.0859 88.6547 94.0859C89.5454 94.0859 90.7172 93.9453 92.1704 93.6641C94.186 93.2422 95.9672 93.0312 97.5141 93.0312C101.452 93.0312 103.748 94.3906 104.405 97.1094C104.592 97.9531 104.686 98.8438 104.686 99.7812C104.686 102.781 103.561 106.016 101.311 109.484C98.4047 114.031 94.3266 117.852 89.0766 120.945C86.311 122.586 83.5922 123.406 80.9204 123.406C78.4829 123.406 76.0922 122.727 73.7485 121.367C74.9204 118.555 76.7954 114.406 79.3735 108.922C80.8735 109.953 82.4672 110.469 84.1547 110.469C84.9047 110.469 85.6782 110.352 86.475 110.117C87.9282 109.742 89.311 109.203 90.6235 108.5C92.4985 107.469 93.436 106.414 93.436 105.336C93.436 104.164 92.475 103.578 90.5532 103.578C89.2407 103.578 87.3188 103.859 84.7875 104.422C82.3032 104.938 80.4047 105.195 79.0922 105.195C77.3579 105.195 76.0219 104.867 75.0844 104.211C73.2563 102.992 72.5063 101.094 72.8344 98.5156C73.4438 93.3125 76.7954 87.2891 82.8891 80.4453C89.1235 73.4141 94.4907 69.7344 98.9907 69.4062C103.35 69.125 105.53 72.4062 105.53 79.25C105.53 80.8906 105.413 82.7422 105.178 84.8047Z" fill="#FFFF00"/>
<path d="M104.503 122.914C111.394 105.336 116.972 88.3906 121.238 72.0781L142.613 68.4922C140.175 82.6953 139.073 99.5 139.308 118.906L124.402 122.352L125.456 113.562L120.745 114.477L119.269 120.664L104.503 122.914ZM126.581 104.141L129.816 77.5625H129.745L123.136 104.773L126.581 104.141Z" fill="#FFFF00"/>
<path d="M155.227 72.5703L167.391 70.1094C167.297 71.5625 167.25 73.625 167.25 76.2969C167.25 82.6719 167.461 88.2734 167.883 93.1016C168.117 95.8672 168.469 98.0938 168.938 99.7812L173.719 72.3594L185.813 70.1094C180.938 88.9062 177.75 105.195 176.25 118.977L165.141 122.07C165.094 121.977 164.789 121.156 164.227 119.609L160.57 109.203C159.961 107.516 159.609 106.438 159.516 105.969C158.531 111.5 157.758 116.867 157.195 122.07L145.945 125.445L155.227 72.5703Z" fill="#FFFF00"/>
<path d="M219.52 84.8047C218.02 85.3672 216.239 86.0469 214.177 86.8438L208.903 88.8828C208.903 86.6797 208.294 85.5781 207.075 85.5781C205.341 85.5781 203.606 86.5625 201.872 88.5312C200.653 89.9844 200.138 91.3906 200.325 92.75C200.466 93.6406 201.356 94.0859 202.997 94.0859C203.888 94.0859 205.059 93.9453 206.513 93.6641C208.528 93.2422 210.309 93.0312 211.856 93.0312C215.794 93.0312 218.091 94.3906 218.747 97.1094C218.934 97.9531 219.028 98.8438 219.028 99.7812C219.028 102.781 217.903 106.016 215.653 109.484C212.747 114.031 208.669 117.852 203.419 120.945C200.653 122.586 197.934 123.406 195.263 123.406C192.825 123.406 190.434 122.727 188.091 121.367C189.263 118.555 191.138 114.406 193.716 108.922C195.216 109.953 196.809 110.469 198.497 110.469C199.247 110.469 200.02 110.352 200.817 110.117C202.27 109.742 203.653 109.203 204.966 108.5C206.841 107.469 207.778 106.414 207.778 105.336C207.778 104.164 206.817 103.578 204.895 103.578C203.583 103.578 201.661 103.859 199.13 104.422C196.645 104.938 194.747 105.195 193.434 105.195C191.7 105.195 190.364 104.867 189.427 104.211C187.598 102.992 186.848 101.094 187.177 98.5156C187.786 93.3125 191.138 87.2891 197.231 80.4453C203.466 73.4141 208.833 69.7344 213.333 69.4062C217.692 69.125 219.872 72.4062 219.872 79.25C219.872 80.8906 219.755 82.7422 219.52 84.8047Z" fill="#FFFF00"/>
<path d="M279.975 69.4062L279.553 82.4844C276.272 82.6719 273.155 82.9062 270.202 83.1875C267.108 96.1719 265.022 108.102 263.944 118.977L252.061 122.07L258.53 84.6641C257.264 84.8516 255.998 85.0625 254.733 85.2969L251.006 86L250.163 72.8516L279.975 69.4062Z" fill="#FFFF00"/>
<path d="M296.105 82.8359C295.73 84.1953 295.402 85.5312 295.12 86.8438L294.347 90.7109L305.597 88.3203L304.964 98.0234C299.62 98.9609 295.425 99.7812 292.378 100.484C292.191 101.422 292.027 102.359 291.886 103.297L291.394 106.039L304.472 104.141L303.558 117.219C296.808 117.781 288.253 119.398 277.894 122.07L286.261 71.6562L309.675 68.2812L308.761 81.2891C304.167 81.7109 299.948 82.2266 296.105 82.8359Z" fill="#FFFF00"/>
<path d="M345.141 84.8047C343.641 85.3672 341.859 86.0469 339.797 86.8438L334.523 88.8828C334.523 86.6797 333.914 85.5781 332.695 85.5781C330.961 85.5781 329.227 86.5625 327.492 88.5312C326.273 89.9844 325.758 91.3906 325.945 92.75C326.086 93.6406 326.977 94.0859 328.617 94.0859C329.508 94.0859 330.68 93.9453 332.133 93.6641C334.148 93.2422 335.93 93.0312 337.477 93.0312C341.414 93.0312 343.711 94.3906 344.367 97.1094C344.555 97.9531 344.648 98.8438 344.648 99.7812C344.648 102.781 343.523 106.016 341.273 109.484C338.367 114.031 334.289 117.852 329.039 120.945C326.273 122.586 323.555 123.406 320.883 123.406C318.445 123.406 316.055 122.727 313.711 121.367C314.883 118.555 316.758 114.406 319.336 108.922C320.836 109.953 322.43 110.469 324.117 110.469C324.867 110.469 325.641 110.352 326.438 110.117C327.891 109.742 329.273 109.203 330.586 108.5C332.461 107.469 333.398 106.414 333.398 105.336C333.398 104.164 332.438 103.578 330.516 103.578C329.203 103.578 327.281 103.859 324.75 104.422C322.266 104.938 320.367 105.195 319.055 105.195C317.32 105.195 315.984 104.867 315.047 104.211C313.219 102.992 312.469 101.094 312.797 98.5156C313.406 93.3125 316.758 87.2891 322.852 80.4453C329.086 73.4141 334.453 69.7344 338.953 69.4062C343.313 69.125 345.492 72.4062 345.492 79.25C345.492 80.8906 345.375 82.7422 345.141 84.8047Z" fill="#FFFF00"/>
<path d="M384.473 69.4062L384.052 82.4844C380.77 82.6719 377.653 82.9062 374.7 83.1875C371.606 96.1719 369.52 108.102 368.442 118.977L356.559 122.07L363.028 84.6641C361.763 84.8516 360.497 85.0625 359.231 85.2969L355.505 86L354.661 72.8516L384.473 69.4062Z" fill="#FFFF00"/>
<path d="M132.762 149.359L145.77 147.109C143.426 156.062 141.527 164.219 140.074 171.578L145.91 170.383L149.496 149.359L162.504 147.109C157.535 166.281 154.395 182.57 153.082 195.977L140.988 199.07L144.223 179.945C142.91 180.227 140.918 180.648 138.246 181.211C137.356 186.977 136.723 191.898 136.348 195.977L124.254 199.07L132.762 149.359Z" fill="#FFFF00"/>
<path d="M171.462 149.359L183.485 147.109C180.251 159.391 177.86 170.406 176.313 180.156L182.993 177.344L187.915 149.359L199.938 147.109C195.063 166.328 191.899 182.617 190.446 195.977L179.196 199.07L180.602 191.266C176.665 193 170.712 195.602 162.743 199.07L171.462 149.359Z" fill="#FFFF00"/>
<path d="M196.873 199.422C203.201 183.391 208.029 167.078 211.357 150.484L228.162 147.742L225.771 173.547L232.31 149.711L248.482 146.898C246.56 162.18 245.599 175.961 245.599 188.242C245.599 190.68 245.623 193.094 245.67 195.484L231.256 198.016L233.787 167.219L224.576 201.32L216.841 202.375L221.482 159.062L211.498 197.453L196.873 199.422Z" fill="#FFFF00"/>
<path d="M247.104 199.914C253.995 182.336 259.573 165.391 263.838 149.078L285.213 145.492C282.776 159.695 281.674 176.5 281.909 195.906L267.002 199.352L268.057 190.562L263.346 191.477L261.87 197.664L247.104 199.914ZM269.182 181.141L272.416 154.562H272.346L265.737 181.773L269.182 181.141Z" fill="#FFFF00"/>
<path d="M298.531 149.359L310.624 147.109C305.749 165.906 302.562 182.195 301.062 195.977L289.882 199.07L298.531 149.359Z" fill="#FFFF00"/>
<path d="M320.707 149.57L332.871 147.109C332.777 148.562 332.73 150.625 332.73 153.297C332.73 159.672 332.941 165.273 333.363 170.102C333.598 172.867 333.949 175.094 334.418 176.781L339.199 149.359L351.293 147.109C346.418 165.906 343.23 182.195 341.73 195.977L330.621 199.07C330.574 198.977 330.27 198.156 329.707 196.609L326.051 186.203C325.441 184.516 325.09 183.438 324.996 182.969C324.012 188.5 323.238 193.867 322.676 199.07L311.426 202.445L320.707 149.57Z" fill="#FFFF00"/>
<path fill-rule="evenodd" clip-rule="evenodd" d="M108.876 87.6901L106.583 88.5501C105.504 88.9548 104.274 89.4219 102.894 89.9519C103.353 90.1372 103.798 90.3548 104.227 90.6086C106.354 91.8674 107.725 93.8175 108.293 96.1709L108.302 96.2063L108.309 96.2418C108.565 97.3933 108.686 98.5764 108.686 99.7814C108.686 99.8095 108.686 99.8377 108.686 99.8658C112.021 90.0457 114.915 80.446 117.368 71.0663L118.023 68.5617L147.508 63.6151L146.555 69.1689C144.229 82.7196 143.131 98.7922 143.293 117.422L151.759 69.191L171.719 65.1528L171.49 68.7056L191.263 65.0268L189.684 71.1137C187.746 78.5886 186.08 85.6489 184.684 92.2965C186.507 87.6138 189.809 82.7668 194.242 77.7873C197.488 74.1274 200.629 71.1982 203.671 69.1131C206.695 67.0393 209.84 65.6504 213.042 65.4169L213.059 65.4157L213.075 65.4147C216.495 65.194 219.588 66.4607 221.569 69.443C223.311 72.0651 223.872 75.553 223.872 79.2501C223.872 81.075 223.742 83.0812 223.495 85.2564L223.218 87.6901L220.925 88.5501C219.846 88.9548 218.616 89.4219 217.236 89.9519C217.695 90.1372 218.141 90.3548 218.569 90.6086C220.696 91.8674 222.067 93.8175 222.635 96.1709L222.644 96.2063L222.652 96.2418C222.908 97.3933 223.028 98.5764 223.028 99.7814C223.028 103.79 221.529 107.773 219.017 111.649C215.732 116.785 211.17 121.02 205.455 124.389C202.199 126.319 198.784 127.406 195.262 127.406C192.044 127.406 188.968 126.5 186.084 124.827L183.049 123.067L184.398 119.829C185.501 117.183 187.186 113.439 189.438 108.623C188.645 108.365 187.881 108.005 187.172 107.515C185.651 106.492 184.465 105.095 183.773 103.343C183.37 102.323 183.167 101.267 183.115 100.207C181.832 107.098 180.87 113.498 180.227 119.409L179.933 122.103L163.037 126.808L161.563 123.859C161.427 123.587 161.253 123.119 161.154 122.85C161.149 122.835 161.144 122.822 161.139 122.809L160.887 125.139L140.885 131.14L142.438 122.288L119.751 127.532L120.105 124.583L98.247 127.914L100.779 121.454C101.992 118.359 103.165 115.284 104.295 112.229C101.042 117.105 96.6106 121.148 91.1121 124.389C87.8564 126.319 84.4421 127.406 80.9203 127.406C77.7016 127.406 74.6253 126.5 71.7416 124.827L68.7068 123.067L70.0561 119.829C71.1587 117.183 72.8437 113.439 75.0956 108.623C74.3022 108.365 73.5373 108.005 72.8281 107.514C71.3084 106.491 70.1225 105.094 69.4306 103.343C68.7518 101.625 68.6408 99.8036 68.8638 98.0311C69.6224 91.6084 73.6288 84.831 79.8989 77.7886C83.1448 74.1281 86.2867 71.1985 89.3284 69.1131C92.3532 67.0393 95.4981 65.6504 98.6997 65.4169L98.7164 65.4157L98.7331 65.4147C102.153 65.194 105.246 66.4607 107.227 69.443C108.969 72.0651 109.53 75.553 109.53 79.2501C109.53 81.075 109.4 83.0812 109.153 85.2564L108.876 87.6901ZM82.8891 80.4454C76.7953 87.2892 73.4437 93.3126 72.8344 98.5157C72.5062 101.094 73.2562 102.992 75.0844 104.211C75.5597 104.544 76.1375 104.792 76.8178 104.956C77.4791 105.116 78.2372 105.195 79.0922 105.195C79.5928 105.195 80.1787 105.158 80.8498 105.083C81.9382 104.961 83.2508 104.741 84.7875 104.422C87.3187 103.859 89.2406 103.578 90.5531 103.578C92.475 103.578 93.4359 104.164 93.4359 105.336C93.4359 106.414 92.4984 107.469 90.6234 108.5C89.3109 109.203 87.9281 109.742 86.475 110.117C85.6781 110.352 84.9047 110.469 84.1547 110.469C83.4505 110.469 82.7625 110.379 82.091 110.199C81.2937 109.986 80.5195 109.646 79.7683 109.18C79.6359 109.098 79.5043 109.012 79.3734 108.922C79.3305 109.013 79.2879 109.104 79.2454 109.195C78.6848 110.388 78.158 111.518 77.6652 112.583C75.9493 116.291 74.6437 119.219 73.7484 121.367C76.0922 122.727 78.4828 123.406 80.9203 123.406C83.5922 123.406 86.3109 122.586 89.0766 120.945C94.3266 117.852 98.4047 114.031 101.311 109.484C103.561 106.016 104.686 102.781 104.686 99.7814C104.686 98.8439 104.592 97.9532 104.405 97.1095C103.748 94.3907 101.452 93.0314 97.5141 93.0314C96.5227 93.0314 95.4352 93.118 94.2513 93.2912C93.5879 93.3883 92.8942 93.5127 92.1703 93.6642C91.5888 93.7767 91.0524 93.8667 90.5609 93.9342C89.8243 94.0354 89.1889 94.086 88.6547 94.086C87.0141 94.086 86.1234 93.6407 85.9828 92.7501C85.7953 91.3907 86.3109 89.9845 87.5297 88.5314C89.2641 86.5626 90.9984 85.5782 92.7328 85.5782C92.9487 85.5782 93.1456 85.6128 93.3232 85.682C94.1484 86.0032 94.5609 87.0701 94.5609 88.8829L99.8344 86.8439C101.897 86.047 103.678 85.3673 105.178 84.8048C105.412 82.7423 105.53 80.8907 105.53 79.2501C105.53 72.4064 103.35 69.1251 98.9906 69.4064C94.4906 69.7345 89.1234 73.4142 82.8891 80.4454ZM124.402 122.352L125.456 113.563L120.745 114.477L119.269 120.664L104.503 122.914C105.067 121.477 105.621 120.043 106.167 118.614C112.297 102.569 117.321 87.0567 121.237 72.0782L142.612 68.4923C142.378 69.8575 142.156 71.2467 141.947 72.6599C139.976 85.9499 139.096 101.365 139.308 118.906L124.402 122.352ZM158.159 114.408C158.376 112.892 158.609 111.363 158.86 109.821C158.861 109.815 158.862 109.809 158.863 109.803C159.069 108.534 159.287 107.256 159.516 105.969C159.609 106.438 159.961 107.516 160.57 109.203L164.227 119.609C164.789 121.156 165.094 121.977 165.141 122.07L176.25 118.977C177.635 106.25 180.46 91.3848 184.723 74.3808C185.076 72.9717 185.439 71.5479 185.812 70.1095L173.719 72.3595L168.938 99.7814C168.469 98.0939 168.117 95.8673 167.883 93.1017C167.672 90.6842 167.513 88.0728 167.408 85.2676C167.303 82.4702 167.25 79.48 167.25 76.297C167.25 75.5568 167.254 74.8634 167.261 74.2168C167.28 72.5292 167.323 71.1601 167.391 70.1095L155.227 72.5704L145.945 125.445L157.195 122.07C157.467 119.555 157.789 117 158.159 114.408ZM187.177 98.5157C186.848 101.094 187.598 102.992 189.427 104.211C189.902 104.544 190.48 104.792 191.16 104.956C191.821 105.116 192.579 105.195 193.434 105.195C193.935 105.195 194.521 105.158 195.192 105.083C196.28 104.961 197.593 104.741 199.13 104.422C201.661 103.859 203.583 103.578 204.895 103.578C206.817 103.578 207.778 104.164 207.778 105.336C207.778 106.414 206.841 107.469 204.966 108.5C203.653 109.203 202.27 109.742 200.817 110.117C200.02 110.352 199.247 110.469 198.497 110.469C197.793 110.469 197.105 110.379 196.433 110.199C195.636 109.986 194.862 109.646 194.11 109.18C193.978 109.098 193.847 109.012 193.716 108.922C193.673 109.013 193.63 109.104 193.588 109.195C193.027 110.388 192.5 111.518 192.007 112.583C190.291 116.291 188.986 119.219 188.091 121.367C190.434 122.727 192.825 123.406 195.262 123.406C197.934 123.406 200.653 122.586 203.419 120.945C208.669 117.852 212.747 114.031 215.653 109.484C217.903 106.016 219.028 102.781 219.028 99.7814C219.028 98.8439 218.934 97.9532 218.747 97.1095C218.091 94.3907 215.794 93.0314 211.856 93.0314C210.865 93.0314 209.777 93.118 208.593 93.2913C207.93 93.3884 207.236 93.5127 206.512 93.6642C205.931 93.7767 205.395 93.8667 204.903 93.9342C204.167 94.0354 203.531 94.086 202.997 94.086C201.356 94.086 200.466 93.6407 200.325 92.7501C200.137 91.3907 200.653 89.9845 201.872 88.5314C203.606 86.5626 205.341 85.5782 207.075 85.5782C207.291 85.5782 207.488 85.6128 207.665 85.682C208.491 86.0032 208.903 87.0701 208.903 88.8829L214.177 86.8439C216.239 86.047 218.02 85.3673 219.52 84.8048C219.755 82.7423 219.872 80.8907 219.872 79.2501C219.872 72.4064 217.692 69.1251 213.333 69.4064C208.833 69.7345 203.466 73.4142 197.231 80.4454C191.137 87.2892 187.786 93.3126 187.177 98.5157ZM129.816 77.5626H129.745L123.136 104.774L126.581 104.141L129.816 77.5626ZM284.024 67.9374L284.122 64.9004L245.927 69.3145L247.304 90.7692L253.621 89.5774L247.062 127.505L267.649 122.145L267.924 119.371C268.904 109.49 270.737 98.674 273.437 86.9167C275.463 86.7505 277.566 86.6048 279.746 86.48L272.941 127.479L278.893 125.944C289.143 123.3 297.455 121.741 303.89 121.205L307.309 120.92L308.671 101.434L308.751 101.42L308.787 100.862C308.88 101.702 309.073 102.534 309.393 103.343C310.085 105.095 311.271 106.492 312.792 107.515C313.501 108.005 314.265 108.365 315.058 108.623C312.806 113.439 311.121 117.183 310.019 119.829L308.669 123.067L311.704 124.827C314.588 126.5 317.664 127.406 320.883 127.406C324.405 127.406 327.819 126.319 331.075 124.389C336.791 121.019 341.353 116.784 344.638 111.647C347.15 107.771 348.648 103.79 348.648 99.7814C348.648 98.5764 348.528 97.3933 348.272 96.2418L348.264 96.2063L348.256 96.1709C347.687 93.8175 346.317 91.8674 344.19 90.6086C343.761 90.3548 343.315 90.1372 342.856 89.9519C344.237 89.4219 345.466 88.9548 346.545 88.5501L348.839 87.6901L349.115 85.2564C349.362 83.0812 349.492 81.075 349.492 79.2501C349.492 75.553 348.931 72.0651 347.189 69.443C345.208 66.4607 342.115 65.194 338.696 65.4147L338.679 65.4157L338.662 65.4169C335.461 65.6504 332.316 67.0393 329.291 69.1131C326.25 71.1982 323.108 74.1274 319.863 77.7873C314.1 84.2591 310.25 90.5071 309.074 96.4616L309.808 85.2098L312.513 84.9614L314.013 63.6147L284.024 67.9374ZM296.105 82.836C299.948 82.2267 304.167 81.711 308.761 81.2892L309.675 68.2814L286.261 71.6564L277.894 122.07C279.339 121.698 280.749 121.345 282.124 121.014C290.605 118.968 297.749 117.703 303.558 117.219L304.472 104.141L291.394 106.039L291.886 103.297C291.956 102.829 292.032 102.361 292.114 101.893C292.196 101.423 292.284 100.954 292.378 100.484C295.425 99.7814 299.62 98.961 304.964 98.0235L305.597 88.3204L294.347 90.711L295.12 86.8439C295.149 86.709 295.179 86.574 295.208 86.4386C295.469 85.2566 295.768 84.0558 296.105 82.836ZM312.797 98.5157C312.469 101.094 313.219 102.992 315.047 104.211C315.522 104.544 316.1 104.792 316.78 104.956C317.442 105.116 318.2 105.195 319.055 105.195C319.555 105.195 320.141 105.158 320.812 105.083C321.901 104.961 323.213 104.741 324.75 104.422C327.281 103.859 329.203 103.578 330.516 103.578C332.438 103.578 333.398 104.164 333.398 105.336C333.398 106.414 332.461 107.469 330.586 108.5C329.273 109.203 327.891 109.742 326.438 110.117C325.641 110.352 324.867 110.469 324.117 110.469C323.413 110.469 322.725 110.379 322.053 110.199C321.256 109.986 320.482 109.646 319.731 109.18C319.598 109.098 319.467 109.012 319.336 108.922C319.293 109.013 319.25 109.104 319.208 109.195C318.647 110.388 318.121 111.518 317.628 112.583C315.912 116.291 314.606 119.219 313.711 121.367C316.055 122.727 318.445 123.406 320.883 123.406C323.555 123.406 326.273 122.586 329.039 120.945C334.289 117.852 338.367 114.031 341.273 109.484C343.523 106.016 344.648 102.781 344.648 99.7814C344.648 98.8439 344.555 97.9532 344.367 97.1095C343.711 94.3907 341.414 93.0314 337.477 93.0314C336.485 93.0314 335.398 93.118 334.214 93.2913C333.55 93.3884 332.857 93.5127 332.133 93.6642C331.551 93.7767 331.015 93.8667 330.523 93.9342C329.787 94.0354 329.151 94.086 328.617 94.086C326.977 94.086 326.086 93.6407 325.945 92.7501C325.758 91.3907 326.273 89.9845 327.492 88.5314C329.227 86.5626 330.961 85.5782 332.695 85.5782C332.911 85.5782 333.108 85.6128 333.286 85.682C334.111 86.0032 334.523 87.0702 334.523 88.8829L339.797 86.8439C341.859 86.047 343.641 85.3673 345.141 84.8048C345.375 82.7423 345.492 80.8907 345.492 79.2501C345.492 72.4064 343.312 69.1251 338.953 69.4064C334.453 69.7345 329.086 73.4142 322.852 80.4454C316.758 87.2892 313.406 93.3126 312.797 98.5157ZM270.202 83.1876C273.155 82.9064 276.272 82.672 279.553 82.4845L279.975 69.4064L250.162 72.8517L251.006 86.0001L254.733 85.297C254.811 85.2825 254.889 85.2682 254.967 85.254C256.154 85.0367 257.342 84.8401 258.53 84.6642L252.061 122.07L263.944 118.977C265.022 108.102 267.108 96.172 270.202 83.1876ZM388.621 64.9004L387.932 86.2693L384.28 86.478C382.087 86.6033 379.973 86.7496 377.935 86.9167C375.236 98.674 373.402 109.49 372.423 119.371L372.148 122.145L351.56 127.505L358.119 89.5774L351.803 90.7692L350.426 69.3145L388.621 64.9004ZM356.559 122.07L368.442 118.977C369.52 108.102 371.606 96.172 374.7 83.1876C377.653 82.9064 380.77 82.672 384.052 82.4845L384.473 69.4064L354.661 72.8517L355.505 86.0001L359.231 85.297C359.309 85.2825 359.387 85.2682 359.465 85.254C360.653 85.0367 361.84 84.8401 363.028 84.6642L356.559 122.07ZM129.296 145.9L151.213 142.108L150.42 145.14L167.931 142.111L166.376 148.113C161.438 167.168 158.348 183.239 157.063 196.366L156.79 199.157L136.018 204.471L136.775 199.996L119.271 204.474L129.296 145.9ZM140.988 199.07L144.223 179.945C143.218 180.161 141.816 180.458 140.015 180.838C139.463 180.955 138.873 181.079 138.246 181.211C137.355 186.977 136.723 191.899 136.348 195.977L124.254 199.07L132.762 149.359L145.77 147.109C145.393 148.546 145.029 149.962 144.676 151.358C143.244 157.015 142.001 162.334 140.947 167.317C140.64 168.766 140.349 170.186 140.074 171.578L145.91 170.383L149.496 149.359L162.504 147.109C162.133 148.541 161.772 149.957 161.421 151.356C157.076 168.698 154.297 183.572 153.082 195.977L140.988 199.07ZM168.001 145.938L188.963 142.015L188.11 145.253L205.354 142.027L203.815 148.093C199.269 166.015 196.244 181.281 194.709 193.922C200.192 179.407 204.433 164.667 207.435 149.698L207.98 146.983L232.622 142.962L232.374 145.64L253.126 142.031L252.451 147.398C250.893 159.787 249.976 171.144 249.694 181.476C253.709 170.045 257.133 158.909 259.968 148.066L260.623 145.562L290.109 140.615L289.156 146.169C286.771 160.067 285.676 176.617 285.908 195.858L285.939 198.398L295.066 145.935L316.075 142.027L314.496 148.114C309.652 166.791 306.511 182.88 305.038 196.409L304.745 199.108L284.858 204.611L285.815 199.109L262.352 204.532L262.706 201.583L240.848 204.914L242.751 200.058L228.378 202.582L227.745 204.925L212.32 207.029L212.934 201.296L190.648 204.296L192.52 199.555L174.133 204.611L175.335 197.943C172.237 199.297 168.572 200.896 164.339 202.738L157.518 205.707L168.001 145.938ZM176.189 193.203C177.868 192.468 179.339 191.822 180.602 191.266L179.196 199.07L190.446 195.977C191.79 183.618 194.599 168.752 198.872 151.379C199.218 149.972 199.573 148.549 199.938 147.109L187.915 149.359L182.993 177.344L176.313 180.156C176.555 178.63 176.818 177.073 177.102 175.484C178.417 168.118 180.176 160.086 182.38 151.386C182.737 149.978 183.105 148.552 183.485 147.109L171.462 149.359L162.743 199.07C164.284 198.4 165.75 197.761 167.14 197.155C170.632 195.633 173.648 194.316 176.189 193.203ZM221.482 159.063L216.841 202.375L224.576 201.32L233.787 167.219L231.255 198.016L245.67 195.484C245.651 194.535 245.636 193.583 245.625 192.626C245.608 191.174 245.599 189.712 245.599 188.242C245.599 177.082 246.393 164.683 247.98 151.046C248.139 149.676 248.307 148.294 248.482 146.899L232.31 149.711L225.771 173.547L228.162 147.742L211.357 150.484C208.323 165.612 204.042 180.505 198.515 195.165C197.98 196.586 197.432 198.005 196.873 199.422L211.498 197.453L221.482 159.063ZM247.104 199.914C247.191 199.692 247.278 199.47 247.365 199.248C247.839 198.034 248.306 196.823 248.768 195.614C248.793 195.55 248.817 195.486 248.841 195.422C249.108 194.724 249.372 194.027 249.634 193.331C255.373 178.096 260.108 163.345 263.838 149.078L285.213 145.492C284.979 146.857 284.757 148.247 284.547 149.66C282.576 162.95 281.697 178.365 281.909 195.906L267.002 199.352L268.057 190.563L263.346 191.477L261.87 197.664L247.104 199.914ZM272.416 154.563H272.346L265.737 181.774L269.182 181.141L272.416 154.563ZM298.53 149.359L310.624 147.109C310.251 148.548 309.888 149.972 309.535 151.381C305.271 168.385 302.447 183.25 301.062 195.977L289.882 199.07L298.53 149.359ZM317.239 146.191L337.199 142.153L336.97 145.706L356.743 142.027L355.165 148.114C350.321 166.791 347.18 182.88 345.707 196.409L345.414 199.103L328.518 203.808L327.043 200.859C326.907 200.587 326.734 200.119 326.634 199.85L326.619 199.809L326.367 202.139L306.365 208.14L317.239 146.191ZM323.64 191.408C323.856 189.892 324.09 188.363 324.34 186.821C324.341 186.815 324.342 186.809 324.343 186.803C324.549 185.534 324.767 184.256 324.996 182.969C325.09 183.438 325.441 184.516 326.051 186.203L329.707 196.609C330.27 198.156 330.574 198.977 330.621 199.07L341.73 195.977C343.116 183.25 345.94 168.385 350.203 151.381C350.557 149.972 350.92 148.548 351.293 147.109L339.199 149.359L335.617 169.905L335.616 169.911L334.418 176.781C333.949 175.094 333.598 172.867 333.363 170.102C333.152 167.684 332.994 165.073 332.888 162.268C332.783 159.47 332.73 156.48 332.73 153.297C332.73 152.557 332.734 151.863 332.741 151.217C332.76 149.529 332.803 148.16 332.871 147.109L320.707 149.57L311.426 202.445L322.676 199.07C322.948 196.555 323.269 194 323.64 191.408Z" fill="black"/>
<defs>
<clipPath id="clip0_114_2492">
<rect width="358" height="312" fill="white"/>
</clipPath>
</defs>
</svg>
