<svg width="400" height="312" viewBox="0 0 400 312" fill="none" xmlns="http://www.w3.org/2000/svg">
<g clip-path="url(#clip0_114_2492)">
<path d="M23.7605 288.175C12.3737 281.64 -10.3999 305.996 12.3737 309.34C19.6417 309.724 26.7658 307.21 32.1867 302.349C37.5764 295.889 33.1356 285.744 23.7605 288.175Z" fill="white"/>
<path d="M14.1955 312C13.475 312.042 12.7526 312.042 12.032 312C0.607295 310.214 0 303.717 0 300.981C0.569338 293.153 10.6656 284.528 19.2816 284.528C20.9243 284.509 22.553 284.832 24.064 285.478C26.4067 284.916 28.871 285.181 31.0418 286.226C33.2126 287.271 34.9574 289.033 35.9822 291.215C36.9185 293.297 37.2444 295.603 36.9219 297.864C36.5993 300.124 35.6416 302.246 34.1603 303.983C28.7056 309.004 21.6047 311.856 14.1955 312V312ZM19.3196 289.619C12.867 289.619 5.46565 296.497 5.12405 301.361C4.85835 304.894 9.14737 306.262 12.7152 306.794C13.1951 306.835 13.6776 306.835 14.1575 306.794C20.108 306.713 25.8422 304.549 30.3647 300.677C31.23 299.697 31.7998 298.491 32.0081 297.199C32.2164 295.908 32.0545 294.584 31.5413 293.381C30.9248 292.138 29.8681 291.169 28.577 290.663C27.2859 290.158 25.853 290.151 24.5575 290.645L23.5706 290.911L22.6597 290.417C21.6431 289.843 20.4856 289.567 19.3196 289.619Z" fill="black"/>
<path d="M67.2958 261.501C64.1454 253.901 52.5309 248.582 44.5222 252.799C32.7938 259.107 38.5252 271.798 48.0901 272.33C41.9412 280.652 46.7237 286.123 50.1777 287.529C64.1075 293.115 67.2198 280.842 67.2198 280.842C67.2198 280.842 85.0971 285.554 83.427 270.392C81.757 255.231 67.2958 261.501 67.2958 261.501Z" fill="white"/>
<path d="M56.9338 291.519C54.3241 291.45 51.75 290.896 49.3426 289.885C47.8473 289.256 46.51 288.302 45.427 287.093C44.3441 285.885 43.5425 284.45 43.0799 282.894C42.3152 279.926 42.6946 276.779 44.1427 274.078C42.0807 273.355 40.2344 272.123 38.7747 270.496C37.315 268.868 36.2892 266.899 35.7924 264.769C35.2476 261.888 35.7035 258.908 37.0844 256.323C38.4653 253.738 40.6881 251.703 43.3835 250.558C45.7197 249.322 48.3334 248.707 50.9747 248.772C54.472 248.809 57.9066 249.705 60.9773 251.381C64.0479 253.057 66.6607 255.462 68.5862 258.385C70.2206 257.945 71.9042 257.716 73.5964 257.701C80.6942 257.701 85.2868 262.223 86.1219 270.05C86.4478 271.836 86.3824 273.672 85.9302 275.43C85.478 277.188 84.6498 278.827 83.5029 280.234C82.1371 281.568 80.5037 282.597 78.7108 283.252C76.9179 283.907 75.0064 284.174 73.103 284.034V284.034C71.7188 284.024 70.3367 283.922 68.9658 283.73C67.9332 286.058 66.2453 288.035 64.1085 289.418C61.9716 290.801 59.4785 291.532 56.9338 291.519V291.519ZM50.8988 253.863C49.1412 253.841 47.4059 254.259 45.8507 255.079C44.1526 255.705 42.7208 256.896 41.7949 258.452C40.869 260.009 40.5053 261.836 40.7646 263.629C41.2028 265.334 42.1774 266.854 43.5443 267.962C44.9113 269.071 46.5982 269.71 48.3558 269.784L53.1382 270.012L50.2915 273.812C49.367 274.827 48.6822 276.037 48.288 277.352C47.8938 278.668 47.8002 280.055 48.0142 281.412C48.2432 282.248 48.6548 283.022 49.2194 283.679C49.7839 284.336 50.4871 284.86 51.2784 285.212C53.0809 285.983 55.0122 286.408 56.9717 286.465C58.7934 286.441 60.5565 285.817 61.9898 284.691C63.4231 283.565 64.4472 281.999 64.9045 280.234L65.5498 277.764L68.0169 278.41C69.6979 278.798 71.416 279.001 73.141 279.018V279.018C75.5348 279.182 77.8958 278.389 79.7073 276.814C80.3411 275.928 80.7833 274.92 81.0055 273.854C81.2277 272.787 81.2251 271.686 80.9978 270.62C80.4285 265.339 78.0752 263.021 73.4066 263.021C71.5808 263.055 69.7728 263.389 68.0549 264.009L65.7016 264.959L64.7147 262.603C63.4138 260.042 61.4479 257.879 59.0235 256.341C56.5991 254.803 53.8057 253.947 50.9368 253.863H50.8988Z" fill="black"/>
<path d="M93.4095 208.57C90.242 206.646 86.4881 205.929 82.8355 206.55C79.1828 207.171 75.876 209.089 73.5206 211.952C64.1455 224.643 81.6052 235.511 92.8402 233.117C86.957 242.73 97.5467 258.347 108.023 258.537C119.409 258.537 130.113 248.012 126.583 236.574C136.641 242.54 150.913 232.775 151.824 225.593C154.101 207.506 134.668 200.097 119.789 206.024C118.119 186.189 88.8548 193.333 93.4095 208.57Z" fill="white"/>
<path d="M108.364 261.083H108.06C104.512 260.731 101.114 259.474 98.1897 257.432C95.2657 255.389 92.9141 252.63 91.3598 249.418C88.9639 245.385 88.1141 240.618 88.9686 236.004C85.0941 235.932 81.2994 234.89 77.9312 232.971C74.5629 231.053 71.7286 228.32 69.687 225.023C68.5429 222.679 68.1025 220.053 68.4192 217.463C68.7358 214.873 69.7959 212.431 71.4709 210.432C73.7117 207.698 76.7024 205.68 80.0745 204.627C83.4466 203.574 87.0528 203.531 90.4489 204.504C90.6149 202.131 91.4727 199.859 92.916 197.969C94.6299 195.847 96.8 194.141 99.2645 192.976C101.729 191.812 104.424 191.219 107.149 191.243C110.548 191.139 113.878 192.218 116.57 194.297C119.263 196.376 121.152 199.325 121.914 202.642C124.664 201.833 127.513 201.411 130.378 201.388C133.979 201.269 137.564 201.912 140.899 203.274C144.235 204.636 147.246 206.686 149.736 209.292C151.673 211.547 153.097 214.197 153.91 217.057C154.722 219.918 154.904 222.921 154.443 225.859C153.494 233.459 143.056 241.058 133.681 241.058C132.404 241.055 131.132 240.915 129.885 240.64C129.939 244.76 128.602 248.777 126.089 252.04C124.011 254.791 121.336 257.035 118.265 258.601C115.195 260.168 111.81 261.016 108.364 261.083V261.083ZM98.116 229.393L94.8897 234.447C93.9424 236.438 93.5316 238.643 93.698 240.843C93.8645 243.042 94.6024 245.16 95.8386 246.986C96.9858 249.387 98.7095 251.466 100.855 253.038C103.001 254.609 105.503 255.624 108.136 255.991L108.364 258.575V255.991C111.025 255.956 113.643 255.307 116.012 254.094C118.382 252.882 120.441 251.138 122.028 249C123.294 247.37 124.15 245.46 124.527 243.43C124.903 241.401 124.788 239.31 124.192 237.334L122.256 231.027L127.949 234.409C129.692 235.413 131.67 235.937 133.681 235.928C141.462 235.928 148.863 229.431 149.356 225.327C149.743 223.111 149.634 220.837 149.037 218.669C148.44 216.5 147.369 214.492 145.902 212.788C143.885 210.735 141.463 209.124 138.79 208.058C136.118 206.992 133.253 206.493 130.378 206.594C127.105 206.607 123.862 207.225 120.814 208.418L117.625 209.672L117.322 206.252C117.345 204.921 117.093 203.599 116.583 202.37C116.073 201.14 115.315 200.029 114.357 199.105C113.399 198.182 112.262 197.466 111.015 197.003C109.768 196.539 108.439 196.337 107.112 196.411C105.183 196.374 103.271 196.771 101.517 197.573C99.763 198.376 98.2115 199.563 96.9773 201.046C96.2389 201.997 95.7482 203.116 95.5494 204.303C95.3506 205.491 95.45 206.709 95.8386 207.848L97.6984 214.08L92.1189 210.812C89.471 209.289 86.3798 208.726 83.3657 209.217C80.3516 209.708 77.5986 211.224 75.5702 213.51C74.4633 214.746 73.7495 216.285 73.5197 217.93C73.2898 219.574 73.5544 221.25 74.2797 222.743C75.9174 225.276 78.168 227.352 80.8224 228.781C83.4768 230.209 86.4487 230.942 89.462 230.913C90.405 230.924 91.3466 230.835 92.2708 230.647L98.116 229.393Z" fill="black"/>
<path d="M355.001 133.258C354.257 128.067 352.454 123.085 349.705 118.62C346.956 114.156 343.32 110.305 339.022 107.306C342.298 103.182 344.682 98.4206 346.021 93.3248C347.361 88.229 347.627 82.91 346.803 77.7057C343.729 57.3009 325.737 43.0897 306.57 45.9395C306.551 45.7881 306.551 45.6349 306.57 45.4835C303.078 22.3049 282.582 6.1178 260.795 9.38561C255.493 10.1946 250.418 12.103 245.895 14.9885C241.372 17.874 237.501 21.6731 234.529 26.1426C230.96 18.316 224.98 11.8393 217.467 7.66143C209.954 3.48356 201.302 1.82405 192.778 2.92599C170.802 6.2318 155.961 27.6626 159.415 50.8792C135.161 49.3973 113.602 64.5964 110.3 86.4072C109.319 94.2126 110.558 102.137 113.875 109.269C117.191 116.4 122.452 122.45 129.05 126.723C115.5 138.882 110.983 156.931 119.257 170.002C126.849 182.124 143.17 186.227 158.921 181.212C154.443 202.604 164.918 223.009 182.302 226.505C186.377 227.272 190.568 227.157 194.594 226.168C198.621 225.178 202.389 223.337 205.645 220.767C209.395 225.424 214.284 229.029 219.838 231.233C225.391 233.437 231.42 234.164 237.338 233.345C242.587 232.531 247.573 230.504 251.902 227.423C256.231 224.343 259.783 220.295 262.275 215.6C269.246 220.301 277.72 222.226 286.036 220.995C305.014 218.146 318.26 199.261 315.186 178.894C315 177.612 314.733 176.343 314.389 175.094C318.222 175.894 322.167 176.01 326.041 175.436C345.019 172.548 358.076 153.663 355.001 133.258Z" fill="white"/>
<path d="M232.252 236.346C227.112 236.309 222.036 235.209 217.34 233.117C212.644 231.025 208.43 227.985 204.962 224.187C201.583 226.567 197.751 228.226 193.705 229.061C189.659 229.896 185.484 229.889 181.441 229.041C177.397 228.193 173.571 226.522 170.2 224.131C166.829 221.74 163.984 218.681 161.844 215.144C156.207 206.08 153.961 195.31 155.505 184.745C152.239 185.466 148.905 185.836 145.561 185.847C139.94 186.098 134.348 184.898 129.323 182.363C124.299 179.828 120.009 176.043 116.866 171.37C108.592 158.299 112.046 140.022 124.875 126.951C118.657 122.254 113.792 115.995 110.772 108.807C107.752 101.62 106.686 93.7606 107.681 86.0271C110.983 64.1784 131.1 48.2953 155.581 48.2953H156.492C155.467 37.5535 158.248 26.7928 164.349 17.8971C167.546 13.2259 171.67 9.26347 176.463 6.25641C181.256 3.24936 186.615 1.26201 192.209 0.418061C200.581 -0.634833 209.078 0.79924 216.643 4.54196C224.208 8.28469 230.507 14.171 234.757 21.4688C241.145 13.5922 250.242 8.38834 260.264 6.87769C262.238 6.60621 264.229 6.46657 266.223 6.45971C276.419 6.75973 286.201 10.571 293.917 17.2507C301.634 23.9304 306.813 33.0698 308.581 43.1276H311.466C320.816 43.3954 329.767 46.9818 336.72 53.2461C343.672 59.5105 348.174 68.045 349.422 77.3256C350.998 87.6516 348.597 98.1916 342.704 106.812C350.782 113.353 356.111 122.693 357.637 132.981C359.162 143.27 356.772 153.757 350.94 162.365C348.138 166.506 344.516 170.025 340.298 172.705C336.08 175.385 331.356 177.169 326.421 177.944C323.517 178.369 320.572 178.432 317.653 178.134C317.653 178.134 317.653 178.438 317.653 178.59C318.502 183.892 318.288 189.311 317.023 194.53C315.759 199.749 313.47 204.664 310.289 208.988C305.078 216.229 297.37 221.279 288.655 223.16C279.941 225.041 270.839 223.62 263.11 219.171C260.323 223.63 256.609 227.435 252.221 230.327C247.832 233.218 242.873 235.129 237.68 235.928C235.884 236.208 234.069 236.347 232.252 236.346V236.346ZM205.873 217.348L207.429 219.209C210.916 223.515 215.448 226.851 220.592 228.901C225.736 230.95 231.319 231.643 236.807 230.913C241.661 230.138 246.268 228.245 250.266 225.383C254.264 222.522 257.544 218.769 259.846 214.422L261.174 211.99L263.49 213.548C269.95 217.869 277.774 219.655 285.466 218.563C289.556 217.936 293.481 216.501 297.013 214.341C300.545 212.182 303.612 209.342 306.038 205.986C308.809 202.196 310.802 197.894 311.903 193.329C313.004 188.764 313.191 184.026 312.453 179.388C312.453 178.134 312.035 176.918 311.732 175.588L310.707 171.788L314.73 172.624C316.817 173.046 318.94 173.262 321.069 173.27V173.27C322.543 173.271 324.015 173.157 325.472 172.928C329.732 172.295 333.815 170.783 337.461 168.487C341.107 166.191 344.237 163.162 346.651 159.591C352.028 151.715 354.091 142.036 352.393 132.649C350.696 123.262 345.374 114.922 337.58 109.434L335.34 107.876L337.048 105.71C340.085 101.851 342.294 97.4049 343.535 92.6514C344.776 87.8979 345.022 82.9391 344.26 78.0856C343.252 70.0025 339.394 62.5453 333.382 57.0561C327.37 51.5669 319.599 48.4064 311.466 48.1433C309.941 48.1438 308.419 48.2581 306.911 48.4853L304.368 48.8653L303.875 45.9014C303.421 40.801 301.935 35.8466 299.505 31.3404C297.076 26.8342 293.755 22.8708 289.745 19.692C285.735 16.5132 281.12 14.1856 276.182 12.8514C271.244 11.5171 266.086 11.2041 261.023 11.9314C256.07 12.6958 251.331 14.4864 247.109 17.1886C242.887 19.8908 239.275 23.4451 236.503 27.6245L233.998 31.4243L232.1 27.6245C228.757 20.2628 223.167 14.1523 216.136 10.1717C209.104 6.19112 200.993 4.5456 192.968 5.47177C188.068 6.22288 183.377 7.98132 179.19 10.6364C175.003 13.2914 171.41 16.7856 168.638 20.8989C162.693 29.5392 160.301 40.1396 161.958 50.4992L162.413 53.653H159.263C135.806 52.0191 115.879 66.5342 112.805 86.9011C111.88 94.2472 113.038 101.706 116.145 108.425C119.253 115.143 124.185 120.852 130.378 124.899L132.997 126.761L130.606 128.889C117.663 140.098 113.868 156.931 121.459 168.634C124.141 172.577 127.792 175.763 132.059 177.886C136.326 180.008 141.067 180.997 145.826 180.756C150.015 180.731 154.175 180.064 158.162 178.78L162.261 177.488L161.464 181.668C159.005 192.153 160.779 203.186 166.399 212.37C168.18 215.326 170.536 217.895 173.326 219.925C176.116 221.955 179.285 223.404 182.644 224.187C186.364 224.875 190.188 224.76 193.86 223.849C197.532 222.938 200.968 221.253 203.937 218.905L205.873 217.348Z" fill="black"/>
</g>
<path d="M105.178 84.8047C103.678 85.3672 101.897 86.0469 99.8344 86.8438L94.5609 88.8828C94.5609 86.6797 93.9516 85.5781 92.7328 85.5781C90.9984 85.5781 89.2641 86.5625 87.5297 88.5312C86.3109 89.9844 85.7953 91.3906 85.9828 92.75C86.1234 93.6406 87.0141 94.0859 88.6547 94.0859C89.5453 94.0859 90.7172 93.9453 92.1703 93.6641C94.1859 93.2422 95.9672 93.0312 97.5141 93.0312C101.452 93.0312 103.748 94.3906 104.405 97.1094C104.592 97.9531 104.686 98.8438 104.686 99.7812C104.686 102.781 103.561 106.016 101.311 109.484C98.4047 114.031 94.3266 117.852 89.0766 120.945C86.3109 122.586 83.5922 123.406 80.9203 123.406C78.4828 123.406 76.0922 122.727 73.7484 121.367C74.9203 118.555 76.7953 114.406 79.3734 108.922C80.8734 109.953 82.4672 110.469 84.1547 110.469C84.9047 110.469 85.6781 110.352 86.475 110.117C87.9281 109.742 89.3109 109.203 90.6234 108.5C92.4984 107.469 93.4359 106.414 93.4359 105.336C93.4359 104.164 92.475 103.578 90.5531 103.578C89.2406 103.578 87.3188 103.859 84.7875 104.422C82.3031 104.938 80.4047 105.195 79.0922 105.195C77.3578 105.195 76.0219 104.867 75.0844 104.211C73.2563 102.992 72.5063 101.094 72.8344 98.5156C73.4438 93.3125 76.7953 87.2891 82.8891 80.4453C89.1234 73.4141 94.4906 69.7344 98.9906 69.4062C103.35 69.125 105.53 72.4062 105.53 79.25C105.53 80.8906 105.413 82.7422 105.178 84.8047ZM104.503 122.914C111.394 105.336 116.972 88.3906 121.238 72.0781L142.613 68.4922C140.175 82.6953 139.073 99.5 139.308 118.906L124.402 122.352L125.456 113.562L120.745 114.477L119.269 120.664L104.503 122.914ZM126.581 104.141L129.816 77.5625H129.745L123.136 104.773L126.581 104.141ZM155.227 72.5703L167.391 70.1094C167.297 71.5625 167.25 73.625 167.25 76.2969C167.25 82.6719 167.461 88.2734 167.883 93.1016C168.117 95.8672 168.469 98.0938 168.938 99.7812L173.719 72.3594L185.813 70.1094C180.938 88.9062 177.75 105.195 176.25 118.977L165.141 122.07C165.094 121.977 164.789 121.156 164.227 119.609L160.57 109.203C159.961 107.516 159.609 106.438 159.516 105.969C158.531 111.5 157.758 116.867 157.195 122.07L145.945 125.445L155.227 72.5703ZM219.52 84.8047C218.02 85.3672 216.239 86.0469 214.177 86.8438L208.903 88.8828C208.903 86.6797 208.294 85.5781 207.075 85.5781C205.341 85.5781 203.606 86.5625 201.872 88.5312C200.653 89.9844 200.138 91.3906 200.325 92.75C200.466 93.6406 201.356 94.0859 202.997 94.0859C203.888 94.0859 205.059 93.9453 206.513 93.6641C208.528 93.2422 210.309 93.0312 211.856 93.0312C215.794 93.0312 218.091 94.3906 218.747 97.1094C218.934 97.9531 219.028 98.8438 219.028 99.7812C219.028 102.781 217.903 106.016 215.653 109.484C212.747 114.031 208.669 117.852 203.419 120.945C200.653 122.586 197.934 123.406 195.263 123.406C192.825 123.406 190.434 122.727 188.091 121.367C189.263 118.555 191.138 114.406 193.716 108.922C195.216 109.953 196.809 110.469 198.497 110.469C199.247 110.469 200.02 110.352 200.817 110.117C202.27 109.742 203.653 109.203 204.966 108.5C206.841 107.469 207.778 106.414 207.778 105.336C207.778 104.164 206.817 103.578 204.895 103.578C203.583 103.578 201.661 103.859 199.13 104.422C196.645 104.938 194.747 105.195 193.434 105.195C191.7 105.195 190.364 104.867 189.427 104.211C187.598 102.992 186.848 101.094 187.177 98.5156C187.786 93.3125 191.138 87.2891 197.231 80.4453C203.466 73.4141 208.833 69.7344 213.333 69.4062C217.692 69.125 219.872 72.4062 219.872 79.25C219.872 80.8906 219.755 82.7422 219.52 84.8047ZM279.975 69.4062L279.553 82.4844C276.272 82.6719 273.155 82.9062 270.202 83.1875C267.108 96.1719 265.022 108.102 263.944 118.977L252.061 122.07L258.53 84.6641C257.264 84.8516 255.998 85.0625 254.733 85.2969L251.006 86L250.163 72.8516L279.975 69.4062ZM296.105 82.8359C295.73 84.1953 295.402 85.5312 295.12 86.8438L294.347 90.7109L305.597 88.3203L304.964 98.0234C299.62 98.9609 295.425 99.7812 292.378 100.484C292.191 101.422 292.027 102.359 291.886 103.297L291.394 106.039L304.472 104.141L303.558 117.219C296.808 117.781 288.253 119.398 277.894 122.07L286.261 71.6562L309.675 68.2812L308.761 81.2891C304.167 81.7109 299.948 82.2266 296.105 82.8359ZM345.141 84.8047C343.641 85.3672 341.859 86.0469 339.797 86.8438L334.523 88.8828C334.523 86.6797 333.914 85.5781 332.695 85.5781C330.961 85.5781 329.227 86.5625 327.492 88.5312C326.273 89.9844 325.758 91.3906 325.945 92.75C326.086 93.6406 326.977 94.0859 328.617 94.0859C329.508 94.0859 330.68 93.9453 332.133 93.6641C334.148 93.2422 335.93 93.0312 337.477 93.0312C341.414 93.0312 343.711 94.3906 344.367 97.1094C344.555 97.9531 344.648 98.8438 344.648 99.7812C344.648 102.781 343.523 106.016 341.273 109.484C338.367 114.031 334.289 117.852 329.039 120.945C326.273 122.586 323.555 123.406 320.883 123.406C318.445 123.406 316.055 122.727 313.711 121.367C314.883 118.555 316.758 114.406 319.336 108.922C320.836 109.953 322.43 110.469 324.117 110.469C324.867 110.469 325.641 110.352 326.438 110.117C327.891 109.742 329.273 109.203 330.586 108.5C332.461 107.469 333.398 106.414 333.398 105.336C333.398 104.164 332.438 103.578 330.516 103.578C329.203 103.578 327.281 103.859 324.75 104.422C322.266 104.938 320.367 105.195 319.055 105.195C317.32 105.195 315.984 104.867 315.047 104.211C313.219 102.992 312.469 101.094 312.797 98.5156C313.406 93.3125 316.758 87.2891 322.852 80.4453C329.086 73.4141 334.453 69.7344 338.953 69.4062C343.312 69.125 345.492 72.4062 345.492 79.25C345.492 80.8906 345.375 82.7422 345.141 84.8047ZM384.473 69.4062L384.052 82.4844C380.77 82.6719 377.653 82.9062 374.7 83.1875C371.606 96.1719 369.52 108.102 368.442 118.977L356.559 122.07L363.028 84.6641C361.763 84.8516 360.497 85.0625 359.231 85.2969L355.505 86L354.661 72.8516L384.473 69.4062ZM132.762 149.359L145.77 147.109C143.426 156.062 141.527 164.219 140.074 171.578L145.91 170.383L149.496 149.359L162.504 147.109C157.535 166.281 154.395 182.57 153.082 195.977L140.988 199.07L144.223 179.945C142.91 180.227 140.918 180.648 138.246 181.211C137.355 186.977 136.723 191.898 136.348 195.977L124.254 199.07L132.762 149.359ZM171.462 149.359L183.485 147.109C180.251 159.391 177.86 170.406 176.313 180.156L182.993 177.344L187.915 149.359L199.938 147.109C195.063 166.328 191.899 182.617 190.446 195.977L179.196 199.07L180.602 191.266C176.665 193 170.712 195.602 162.743 199.07L171.462 149.359ZM196.873 199.422C203.201 183.391 208.029 167.078 211.357 150.484L228.162 147.742L225.771 173.547L232.31 149.711L248.482 146.898C246.56 162.18 245.599 175.961 245.599 188.242C245.599 190.68 245.623 193.094 245.67 195.484L231.255 198.016L233.787 167.219L224.576 201.32L216.841 202.375L221.482 159.062L211.498 197.453L196.873 199.422ZM247.104 199.914C253.995 182.336 259.573 165.391 263.838 149.078L285.213 145.492C282.776 159.695 281.674 176.5 281.909 195.906L267.002 199.352L268.057 190.562L263.346 191.477L261.87 197.664L247.104 199.914ZM269.182 181.141L272.416 154.562H272.346L265.737 181.773L269.182 181.141ZM298.53 149.359L310.624 147.109C305.749 165.906 302.562 182.195 301.062 195.977L289.882 199.07L298.53 149.359ZM320.707 149.57L332.871 147.109C332.777 148.562 332.73 150.625 332.73 153.297C332.73 159.672 332.941 165.273 333.363 170.102C333.598 172.867 333.949 175.094 334.418 176.781L339.199 149.359L351.293 147.109C346.418 165.906 343.23 182.195 341.73 195.977L330.621 199.07C330.574 198.977 330.27 198.156 329.707 196.609L326.051 186.203C325.441 184.516 325.09 183.438 324.996 182.969C324.012 188.5 323.238 193.867 322.676 199.07L311.426 202.445L320.707 149.57Z" fill="#FFFF00"/>
<path d="M105.178 84.8047L106.583 88.55L108.876 87.69L109.153 85.2563L105.178 84.8047ZM99.8344 86.8438L98.3928 83.1126L98.3918 83.1129L99.8344 86.8438ZM94.5609 88.8828H90.5609V94.7181L96.0035 92.6136L94.5609 88.8828ZM87.5297 88.5312L84.5283 85.8871L84.4961 85.9236L84.4649 85.9608L87.5297 88.5312ZM85.9828 92.75L82.0203 93.2966L82.0257 93.3353L82.0318 93.3739L85.9828 92.75ZM92.1703 93.6641L92.9304 97.5912L92.9601 97.5854L92.9898 97.5792L92.1703 93.6641ZM104.405 97.1094L108.309 96.2417L108.302 96.2062L108.293 96.1708L104.405 97.1094ZM101.311 109.484L97.9551 107.308L97.9478 107.319L97.9406 107.33L101.311 109.484ZM89.0766 120.945L87.0458 117.499L87.0358 117.505L89.0766 120.945ZM73.7484 121.367L70.0561 119.829L68.7068 123.067L71.7416 124.827L73.7484 121.367ZM79.3734 108.922L81.6396 105.626L77.7576 102.957L75.7535 107.22L79.3734 108.922ZM86.475 110.117L85.4755 106.244L85.4106 106.261L85.3463 106.28L86.475 110.117ZM90.6234 108.5L92.5123 112.026L92.5318 112.015L92.5511 112.005L90.6234 108.5ZM84.7875 104.422L85.6004 108.338L85.6278 108.333L85.6552 108.327L84.7875 104.422ZM75.0844 104.211L77.3782 100.934L77.341 100.908L77.3032 100.883L75.0844 104.211ZM72.8344 98.5156L76.8024 99.0206L76.8049 99.0008L76.8072 98.9809L72.8344 98.5156ZM82.8891 80.4453L85.8765 83.1053L85.882 83.0991L82.8891 80.4453ZM98.9906 69.4062L98.7331 65.4145L98.7164 65.4156L98.6997 65.4168L98.9906 69.4062ZM103.774 81.0594C102.258 81.6279 100.463 82.3126 98.3928 83.1126L101.276 90.5749C103.33 89.7812 105.099 89.1065 106.583 88.55L103.774 81.0594ZM98.3918 83.1129L93.1184 85.152L96.0035 92.6136L101.277 90.5746L98.3918 83.1129ZM98.5609 88.8828C98.5609 87.5435 98.3984 85.9039 97.604 84.4681C97.1735 83.6897 96.5265 82.9187 95.5971 82.3586C94.6609 81.7945 93.6596 81.5781 92.7328 81.5781V89.5781C92.4154 89.5781 91.9473 89.4995 91.4682 89.2108C90.9957 88.9261 90.7297 88.5681 90.6038 88.3405C90.4906 88.1359 90.4906 88.0407 90.513 88.1624C90.5339 88.2757 90.5609 88.505 90.5609 88.8828H98.5609ZM92.7328 81.5781C89.3672 81.5781 86.6307 83.5006 84.5283 85.8871L90.5311 91.1754C91.8974 89.6244 92.6297 89.5781 92.7328 89.5781V81.5781ZM84.4649 85.9608C82.8076 87.9369 81.6264 90.4407 82.0203 93.2966L89.9453 92.2034C89.9453 92.2031 89.9453 92.2032 89.9453 92.2035C89.9453 92.2038 89.9453 92.204 89.9453 92.2038C89.9453 92.2037 89.9453 92.2029 89.9454 92.2013C89.9455 92.1997 89.9457 92.197 89.9462 92.193C89.9478 92.1789 89.9547 92.1338 89.9844 92.0528C90.0467 91.8828 90.207 91.5637 90.5945 91.1017L84.4649 85.9608ZM82.0318 93.3739C82.3268 95.2426 83.5069 96.5994 84.9674 97.3297C86.2162 97.954 87.5679 98.0859 88.6547 98.0859V90.0859C88.1009 90.0859 88.187 89.9952 88.5451 90.1742C88.7649 90.2841 89.0957 90.5021 89.3953 90.8903C89.7046 91.2909 89.8717 91.7326 89.9339 92.1261L82.0318 93.3739ZM88.6547 98.0859C89.9123 98.0859 91.3678 97.8936 92.9304 97.5912L91.4102 89.7369C90.0666 89.997 89.1784 90.0859 88.6547 90.0859V98.0859ZM92.9898 97.5792C94.8186 97.1965 96.3158 97.0312 97.5141 97.0312V89.0312C95.6186 89.0312 93.5533 89.2879 91.3509 89.7489L92.9898 97.5792ZM97.5141 97.0312C99.0841 97.0312 99.8468 97.3121 100.153 97.4931C100.284 97.5708 100.337 97.6318 100.365 97.6712C100.396 97.7141 100.461 97.8189 100.516 98.0479L108.293 96.1708C107.725 93.8174 106.354 91.8673 104.227 90.6085C102.236 89.4301 99.8815 89.0312 97.5141 89.0312V97.0312ZM100.5 97.9771C100.619 98.5131 100.686 99.1112 100.686 99.7812H108.686C108.686 98.5763 108.565 97.3932 108.309 96.2417L100.5 97.9771ZM100.686 99.7812C100.686 101.768 99.9383 104.25 97.9551 107.308L104.667 111.661C107.184 107.781 108.686 103.794 108.686 99.7812H100.686ZM97.9406 107.33C95.4147 111.282 91.8246 114.683 87.0458 117.499L91.1073 124.391C96.8286 121.02 101.395 116.781 104.681 111.639L97.9406 107.33ZM87.0358 117.505C84.7618 118.854 82.7404 119.406 80.9203 119.406V127.406C84.444 127.406 87.8601 126.318 91.1174 124.386L87.0358 117.505ZM80.9203 119.406C79.2641 119.406 77.559 118.953 75.7553 117.907L71.7416 124.827C74.6253 126.5 77.7016 127.406 80.9203 127.406V119.406ZM77.4408 122.906C78.5771 120.178 80.4211 116.096 82.9934 110.624L75.7535 107.22C73.1696 112.717 71.2636 116.931 70.0561 119.829L77.4408 122.906ZM77.1073 112.218C79.219 113.67 81.5936 114.469 84.1547 114.469V106.469C83.3408 106.469 82.5279 106.236 81.6396 105.626L77.1073 112.218ZM84.1547 114.469C85.3253 114.469 86.4792 114.285 87.6037 113.955L85.3463 106.28C84.8771 106.418 84.4841 106.469 84.1547 106.469V114.469ZM87.4745 113.99C89.2344 113.536 90.9161 112.881 92.5123 112.026L88.7346 104.974C87.7058 105.525 86.6218 105.948 85.4755 106.244L87.4745 113.99ZM92.5511 112.005C93.7035 111.371 94.8366 110.59 95.7225 109.593C96.6366 108.565 97.4359 107.125 97.4359 105.336H89.4359C89.4359 105.008 89.5107 104.73 89.5983 104.531C89.6803 104.344 89.7568 104.263 89.7432 104.278C89.7289 104.294 89.6522 104.375 89.4711 104.509C89.2921 104.642 89.0397 104.806 88.6958 104.995L92.5511 112.005ZM97.4359 105.336C97.4359 103.425 96.5277 101.657 94.7977 100.602C93.3889 99.7434 91.7904 99.5781 90.5531 99.5781V107.578C90.8425 107.578 90.9851 107.601 91.0176 107.608C91.0553 107.615 90.8892 107.589 90.6328 107.433C90.3499 107.26 90.0023 106.954 89.746 106.486C89.4937 106.024 89.4359 105.599 89.4359 105.336H97.4359ZM90.5531 99.5781C88.7874 99.5781 86.5167 99.94 83.9198 100.517L85.6552 108.327C88.1208 107.779 89.6938 107.578 90.5531 107.578V99.5781ZM83.9746 100.505C81.559 101.007 79.9844 101.195 79.0922 101.195V109.195C80.825 109.195 83.0473 108.868 85.6004 108.338L83.9746 100.505ZM79.0922 101.195C78.4672 101.195 78.0307 101.135 77.7436 101.065C77.4613 100.995 77.369 100.928 77.3782 100.934L72.7905 107.488C74.6655 108.8 76.9346 109.195 79.0922 109.195V101.195ZM77.3032 100.883C77.0127 100.689 76.9233 100.536 76.871 100.403C76.8023 100.23 76.7007 99.8198 76.8024 99.0206L68.8664 98.0106C68.64 99.7896 68.7493 101.618 69.4306 103.343C70.1282 105.109 71.3279 106.514 72.8656 107.539L77.3032 100.883ZM76.8072 98.9809C77.273 95.004 79.9669 89.7422 85.8764 83.1053L79.9017 77.7853C73.6237 84.836 69.6145 91.621 68.8615 98.0503L76.8072 98.9809ZM85.882 83.0991C88.8695 79.7297 91.5275 77.3049 93.8521 75.7112C96.1945 74.1053 97.9832 73.4903 99.2815 73.3957L98.6997 65.4168C95.4981 65.6503 92.3532 67.0392 89.3284 69.113C86.2858 71.199 83.143 74.1297 79.8961 77.7916L85.882 83.0991ZM99.2482 73.398C99.8172 73.3612 100.085 73.4536 100.184 73.4989C100.261 73.5346 100.389 73.6079 100.563 73.8696C101.001 74.5287 101.53 76.1034 101.53 79.25H109.53C109.53 75.5529 108.969 72.065 107.227 69.4429C105.246 66.4606 102.153 65.1939 98.7331 65.4145L99.2482 73.398ZM101.53 79.25C101.53 80.7064 101.425 82.4032 101.204 84.353L109.153 85.2563C109.4 83.0811 109.53 81.0749 109.53 79.25H101.53ZM104.503 122.914L100.779 121.454L98.247 127.914L105.106 126.868L104.503 122.914ZM121.238 72.0781L120.576 68.1333L118.023 68.5616L117.368 71.0662L121.238 72.0781ZM142.613 68.4922L146.555 69.1688L147.508 63.615L141.951 64.5473L142.613 68.4922ZM139.308 118.906L140.209 122.804L143.346 122.078L143.308 118.858L139.308 118.906ZM124.402 122.352L120.43 121.875L119.751 127.532L125.302 126.249L124.402 122.352ZM125.456 113.562L129.428 114.039L130.082 108.59L124.694 109.636L125.456 113.562ZM120.745 114.477L119.983 110.55L117.453 111.041L116.855 113.548L120.745 114.477ZM119.269 120.664L119.871 124.618L122.534 124.213L123.16 121.593L119.269 120.664ZM126.581 104.141L127.304 108.075L130.197 107.543L130.552 104.624L126.581 104.141ZM129.816 77.5625L133.786 78.0457L134.332 73.5625H129.816V77.5625ZM129.745 77.5625V73.5625H126.601L125.858 76.6184L129.745 77.5625ZM123.136 104.773L119.249 103.829L117.793 109.822L123.859 108.708L123.136 104.773ZM108.227 124.374C115.169 106.667 120.798 89.5713 125.107 73.0901L117.368 71.0662C113.146 87.2099 107.619 104.005 100.779 121.454L108.227 124.374ZM121.899 76.023L143.274 72.4371L141.951 64.5473L120.576 68.1333L121.899 76.023ZM138.67 67.8156C136.18 82.324 135.072 99.383 135.308 118.955L143.308 118.858C143.075 99.617 144.17 83.0666 146.555 69.1688L138.67 67.8156ZM138.407 115.009L123.501 118.454L125.302 126.249L140.209 122.804L138.407 115.009ZM128.373 122.828L129.428 114.039L121.485 113.086L120.43 121.875L128.373 122.828ZM124.694 109.636L119.983 110.55L121.507 118.403L126.218 117.489L124.694 109.636ZM116.855 113.548L115.378 119.736L123.16 121.593L124.636 115.405L116.855 113.548ZM118.666 116.71L103.901 118.96L105.106 126.868L119.871 124.618L118.666 116.71ZM130.552 104.624L133.786 78.0457L125.845 77.0793L122.611 103.657L130.552 104.624ZM129.816 73.5625H129.745V81.5625H129.816V73.5625ZM125.858 76.6184L119.249 103.829L127.023 105.718L133.632 78.5066L125.858 76.6184ZM123.859 108.708L127.304 108.075L125.859 100.206L122.413 100.839L123.859 108.708ZM155.227 72.5703L154.433 68.6497L151.759 69.1909L151.287 71.8788L155.227 72.5703ZM167.391 70.1094L171.382 70.3669L171.719 65.1527L166.597 66.1888L167.391 70.1094ZM167.883 93.1016L171.869 92.7638L171.868 92.7534L167.883 93.1016ZM168.938 99.7812L165.083 100.852L172.878 100.468L168.938 99.7812ZM173.719 72.3594L172.987 68.4269L170.255 68.9351L169.778 71.6723L173.719 72.3594ZM185.813 70.1094L189.684 71.1136L191.263 65.0267L185.081 66.1769L185.813 70.1094ZM176.25 118.977L177.323 122.83L179.933 122.103L180.227 119.409L176.25 118.977ZM165.141 122.07L161.563 123.859L163.037 126.808L166.214 125.924L165.141 122.07ZM164.227 119.609L160.453 120.935L160.46 120.956L160.467 120.976L164.227 119.609ZM160.57 109.203L164.344 107.877L164.338 107.861L164.333 107.845L160.57 109.203ZM159.516 105.969L163.438 105.184L155.578 105.268L159.516 105.969ZM157.195 122.07L158.345 125.902L160.887 125.139L161.172 122.5L157.195 122.07ZM145.945 125.445L142.006 124.754L140.885 131.14L147.095 129.277L145.945 125.445ZM156.02 76.4909L168.184 74.0299L166.597 66.1888L154.433 68.6497L156.02 76.4909ZM163.399 69.8518C163.297 71.4338 163.25 73.5972 163.25 76.2969H171.25C171.25 73.6528 171.297 71.6912 171.382 70.3669L163.399 69.8518ZM163.25 76.2969C163.25 82.7542 163.463 88.4764 163.898 93.4497L171.868 92.7534C171.458 88.0705 171.25 82.5895 171.25 76.2969H163.25ZM163.897 93.4393C164.142 96.3272 164.521 98.8279 165.083 100.852L172.792 98.7107C172.416 97.3596 172.093 95.4072 171.869 92.7638L163.897 93.4393ZM172.878 100.468L177.659 73.0464L169.778 71.6723L164.997 99.0942L172.878 100.468ZM174.45 76.2919L186.544 74.0419L185.081 66.1769L172.987 68.4269L174.45 76.2919ZM181.941 69.1052C177.035 88.0216 173.801 104.511 172.273 118.544L180.227 119.409C181.699 105.88 184.84 89.7909 189.684 71.1136L181.941 69.1052ZM175.177 115.123L164.068 118.217L166.214 125.924L177.323 122.83L175.177 115.123ZM168.718 120.281C168.769 120.383 168.802 120.46 168.805 120.469C168.811 120.481 168.815 120.49 168.816 120.495C168.817 120.497 168.818 120.499 168.819 120.5C168.819 120.501 168.819 120.502 168.819 120.502C168.819 120.502 168.819 120.501 168.819 120.501C168.818 120.5 168.818 120.498 168.817 120.496C168.816 120.493 168.814 120.488 168.811 120.481C168.806 120.468 168.799 120.45 168.791 120.428C168.755 120.335 168.701 120.192 168.627 119.992C168.479 119.595 168.266 119.013 167.986 118.242L160.467 120.976C160.75 121.752 160.97 122.354 161.127 122.778C161.22 123.027 161.413 123.56 161.563 123.859L168.718 120.281ZM168 118.283L164.344 107.877L156.796 110.529L160.453 120.935L168 118.283ZM164.333 107.845C164.035 107.02 163.81 106.372 163.653 105.889C163.478 105.353 163.434 105.164 163.438 105.184L155.593 106.753C155.758 107.578 156.232 108.968 156.808 110.562L164.333 107.845ZM155.578 105.268C154.578 110.882 153.791 116.34 153.218 121.64L161.172 122.5C161.724 117.394 162.484 112.118 163.454 106.67L155.578 105.268ZM156.046 118.239L144.796 121.614L147.095 129.277L158.345 125.902L156.046 118.239ZM149.885 126.137L159.166 73.2619L151.287 71.8788L142.006 124.754L149.885 126.137ZM219.52 84.8047L220.925 88.55L223.218 87.69L223.495 85.2563L219.52 84.8047ZM214.177 86.8438L212.735 83.1126L212.734 83.1129L214.177 86.8438ZM208.903 88.8828H204.903V94.7181L210.346 92.6136L208.903 88.8828ZM201.872 88.5312L198.87 85.8871L198.838 85.9236L198.807 85.9608L201.872 88.5312ZM200.325 92.75L196.363 93.2966L196.368 93.3353L196.374 93.3739L200.325 92.75ZM206.513 93.6641L207.273 97.5912L207.302 97.5854L207.332 97.5792L206.513 93.6641ZM218.747 97.1094L222.652 96.2417L222.644 96.2062L222.635 96.1708L218.747 97.1094ZM215.653 109.484L212.297 107.308L212.29 107.319L212.283 107.33L215.653 109.484ZM203.419 120.945L201.388 117.499L201.378 117.505L203.419 120.945ZM188.091 121.367L184.398 119.829L183.049 123.067L186.084 124.827L188.091 121.367ZM193.716 108.922L195.982 105.626L192.1 102.957L190.096 107.22L193.716 108.922ZM200.817 110.117L199.818 106.244L199.753 106.261L199.689 106.28L200.817 110.117ZM204.966 108.5L206.855 112.026L206.874 112.015L206.893 112.005L204.966 108.5ZM199.13 104.422L199.943 108.338L199.97 108.333L199.997 108.327L199.13 104.422ZM189.427 104.211L191.72 100.934L191.683 100.908L191.645 100.883L189.427 104.211ZM187.177 98.5156L191.145 99.0206L191.147 99.0008L191.149 98.9809L187.177 98.5156ZM197.231 80.4453L200.219 83.1053L200.224 83.0991L197.231 80.4453ZM213.333 69.4062L213.075 65.4145L213.059 65.4156L213.042 65.4168L213.333 69.4062ZM218.116 81.0594C216.6 81.6279 214.806 82.3126 212.735 83.1126L215.618 90.5749C217.673 89.7812 219.441 89.1065 220.925 88.55L218.116 81.0594ZM212.734 83.1129L207.461 85.152L210.346 92.6136L215.619 90.5746L212.734 83.1129ZM212.903 88.8828C212.903 87.5435 212.741 85.9039 211.946 84.4681C211.516 83.6897 210.869 82.9187 209.939 82.3586C209.003 81.7945 208.002 81.5781 207.075 81.5781V89.5781C206.758 89.5781 206.289 89.4995 205.81 89.2108C205.338 88.9261 205.072 88.5681 204.946 88.3405C204.833 88.1359 204.833 88.0407 204.855 88.1624C204.876 88.2757 204.903 88.505 204.903 88.8828H212.903ZM207.075 81.5781C203.709 81.5781 200.973 83.5006 198.87 85.8871L204.873 91.1754C206.24 89.6244 206.972 89.5781 207.075 89.5781V81.5781ZM198.807 85.9608C197.15 87.9369 195.969 90.4407 196.363 93.2966L204.287 92.2034C204.287 92.2031 204.287 92.2032 204.287 92.2035C204.288 92.2038 204.288 92.204 204.288 92.2038C204.288 92.2037 204.288 92.2029 204.288 92.2013C204.288 92.1997 204.288 92.197 204.288 92.193C204.29 92.1789 204.297 92.1338 204.327 92.0528C204.389 91.8828 204.549 91.5637 204.937 91.1017L198.807 85.9608ZM196.374 93.3739C196.669 95.2426 197.849 96.5994 199.31 97.3297C200.558 97.954 201.91 98.0859 202.997 98.0859V90.0859C202.443 90.0859 202.529 89.9952 202.887 90.1742C203.107 90.2841 203.438 90.5021 203.737 90.8903C204.047 91.2909 204.214 91.7326 204.276 92.1261L196.374 93.3739ZM202.997 98.0859C204.254 98.0859 205.71 97.8936 207.273 97.5912L205.752 89.7369C204.409 89.997 203.521 90.0859 202.997 90.0859V98.0859ZM207.332 97.5792C209.161 97.1965 210.658 97.0312 211.856 97.0312V89.0312C209.961 89.0312 207.895 89.2879 205.693 89.7489L207.332 97.5792ZM211.856 97.0312C213.426 97.0312 214.189 97.3121 214.495 97.4931C214.626 97.5708 214.679 97.6318 214.707 97.6712C214.738 97.7141 214.803 97.8189 214.859 98.0479L222.635 96.1708C222.067 93.8174 220.696 91.8673 218.569 90.6085C216.578 89.4301 214.224 89.0312 211.856 89.0312V97.0312ZM214.842 97.9771C214.961 98.5131 215.028 99.1112 215.028 99.7812H223.028C223.028 98.5763 222.908 97.3932 222.652 96.2417L214.842 97.9771ZM215.028 99.7812C215.028 101.768 214.28 104.25 212.297 107.308L219.009 111.661C221.526 107.781 223.028 103.794 223.028 99.7812H215.028ZM212.283 107.33C209.757 111.282 206.167 114.683 201.388 117.499L205.45 124.391C211.171 121.02 215.737 116.781 219.023 111.639L212.283 107.33ZM201.378 117.505C199.104 118.854 197.083 119.406 195.263 119.406V127.406C198.786 127.406 202.202 126.318 205.46 124.386L201.378 117.505ZM195.263 119.406C193.606 119.406 191.901 118.953 190.098 117.907L186.084 124.827C188.968 126.5 192.044 127.406 195.263 127.406V119.406ZM191.783 122.906C192.919 120.178 194.763 116.096 197.336 110.624L190.096 107.22C187.512 112.717 185.606 116.931 184.398 119.829L191.783 122.906ZM191.45 112.218C193.561 113.67 195.936 114.469 198.497 114.469V106.469C197.683 106.469 196.87 106.236 195.982 105.626L191.45 112.218ZM198.497 114.469C199.668 114.469 200.821 114.285 201.946 113.955L199.689 106.28C199.219 106.418 198.826 106.469 198.497 106.469V114.469ZM201.817 113.99C203.577 113.536 205.258 112.881 206.855 112.026L203.077 104.974C202.048 105.525 200.964 105.948 199.818 106.244L201.817 113.99ZM206.893 112.005C208.046 111.371 209.179 110.59 210.065 109.593C210.979 108.565 211.778 107.125 211.778 105.336H203.778C203.778 105.008 203.853 104.73 203.94 104.531C204.022 104.344 204.099 104.263 204.085 104.278C204.071 104.294 203.994 104.375 203.813 104.509C203.634 104.642 203.382 104.806 203.038 104.995L206.893 112.005ZM211.778 105.336C211.778 103.425 210.87 101.657 209.14 100.602C207.731 99.7434 206.133 99.5781 204.895 99.5781V107.578C205.185 107.578 205.327 107.601 205.36 107.608C205.398 107.615 205.231 107.589 204.975 107.433C204.692 107.26 204.344 106.954 204.088 106.486C203.836 106.024 203.778 105.599 203.778 105.336H211.778ZM204.895 99.5781C203.13 99.5781 200.859 99.94 198.262 100.517L199.997 108.327C202.463 107.779 204.036 107.578 204.895 107.578V99.5781ZM198.317 100.505C195.901 101.007 194.327 101.195 193.434 101.195V109.195C195.167 109.195 197.389 108.868 199.943 108.338L198.317 100.505ZM193.434 101.195C192.809 101.195 192.373 101.135 192.086 101.065C191.803 100.995 191.711 100.928 191.72 100.934L187.133 107.488C189.008 108.8 191.277 109.195 193.434 109.195V101.195ZM191.645 100.883C191.355 100.689 191.266 100.536 191.213 100.403C191.145 100.23 191.043 99.8198 191.145 99.0206L183.209 98.0106C182.982 99.7896 183.091 101.618 183.773 103.343C184.47 105.109 185.67 106.514 187.208 107.539L191.645 100.883ZM191.149 98.9809C191.615 95.004 194.309 89.7422 200.219 83.1053L194.244 77.7853C187.966 84.836 183.957 91.621 183.204 98.0503L191.149 98.9809ZM200.224 83.0991C203.212 79.7297 205.87 77.3049 208.194 75.7112C210.537 74.1053 212.325 73.4903 213.624 73.3957L213.042 65.4168C209.84 65.6503 206.695 67.0392 203.671 69.113C200.628 71.199 197.485 74.1297 194.238 77.7916L200.224 83.0991ZM213.59 73.398C214.159 73.3612 214.427 73.4536 214.526 73.4989C214.603 73.5346 214.731 73.6079 214.905 73.8696C215.343 74.5287 215.872 76.1034 215.872 79.25H223.872C223.872 75.5529 223.311 72.065 221.569 69.4429C219.588 66.4606 216.495 65.1939 213.075 65.4145L213.59 73.398ZM215.872 79.25C215.872 80.7064 215.767 82.4032 215.546 84.353L223.495 85.2563C223.742 83.0811 223.872 81.0749 223.872 79.25H215.872ZM279.975 69.4062L283.973 69.5352L284.122 64.9003L279.516 65.4327L279.975 69.4062ZM279.553 82.4844L279.781 86.4779L283.433 86.2692L283.551 82.6133L279.553 82.4844ZM270.202 83.1875L269.822 79.2055L266.974 79.4768L266.311 82.2604L270.202 83.1875ZM263.944 118.977L264.952 122.848L267.649 122.145L267.924 119.371L263.944 118.977ZM252.061 122.07L248.119 121.389L247.062 127.505L253.069 125.941L252.061 122.07ZM258.53 84.6641L262.471 85.3457L263.413 79.8969L257.943 80.7072L258.53 84.6641ZM254.733 85.2969L254.004 81.3637L253.991 81.3662L254.733 85.2969ZM251.006 86L247.014 86.2562L247.304 90.7691L251.748 89.9306L251.006 86ZM250.163 72.8516L249.703 68.878L245.927 69.3144L246.171 73.1077L250.163 72.8516ZM275.977 69.2773L275.555 82.3554L283.551 82.6133L283.973 69.5352L275.977 69.2773ZM279.325 78.4909C275.999 78.681 272.831 78.919 269.822 79.2055L270.581 87.1695C273.479 86.8935 276.545 86.6628 279.781 86.4779L279.325 78.4909ZM266.311 82.2604C263.184 95.3832 261.063 107.494 259.963 118.582L267.924 119.371C268.981 108.71 271.032 96.9605 274.093 84.1146L266.311 82.2604ZM262.936 115.106L251.053 118.199L253.069 125.941L264.952 122.848L262.936 115.106ZM256.002 122.752L262.471 85.3457L254.588 83.9825L248.119 121.389L256.002 122.752ZM257.943 80.7072C256.63 80.9018 255.317 81.1207 254.004 81.3637L255.461 89.23C256.68 89.0043 257.898 88.8013 259.116 88.6209L257.943 80.7072ZM253.991 81.3662L250.265 82.0694L251.748 89.9306L255.474 89.2275L253.991 81.3662ZM254.998 85.7438L254.154 72.5954L246.171 73.1077L247.014 86.2562L254.998 85.7438ZM250.622 76.8251L280.434 73.3798L279.516 65.4327L249.703 68.878L250.622 76.8251ZM296.105 82.8359L295.478 78.8853L292.934 79.2887L292.249 81.7722L296.105 82.8359ZM295.12 86.8438L291.209 86.0056L291.203 86.0324L291.198 86.0593L295.12 86.8438ZM294.347 90.7109L290.425 89.9265L289.232 95.8871L295.178 94.6236L294.347 90.7109ZM305.597 88.3203L309.588 88.5806L309.932 83.3098L304.765 84.4077L305.597 88.3203ZM304.964 98.0234L305.655 101.963L308.751 101.42L308.956 98.2838L304.964 98.0234ZM292.378 100.484L291.479 96.5868L288.962 97.1675L288.456 99.6999L292.378 100.484ZM291.886 103.297L295.823 104.004L295.833 103.947L295.842 103.89L291.886 103.297ZM291.394 106.039L287.457 105.332L286.476 110.795L291.968 109.998L291.394 106.039ZM304.472 104.141L308.462 104.42L308.808 99.4692L303.897 100.182L304.472 104.141ZM303.558 117.219L303.89 121.205L307.309 120.92L307.548 117.498L303.558 117.219ZM277.894 122.07L273.948 121.415L272.941 127.479L278.893 125.944L277.894 122.07ZM286.261 71.6562L285.69 67.6972L282.794 68.1146L282.315 71.0013L286.261 71.6562ZM309.675 68.2812L313.665 68.5616L314.013 63.6146L309.104 64.3222L309.675 68.2812ZM308.761 81.2891L309.127 85.2723L312.513 84.9613L312.751 81.5695L308.761 81.2891ZM292.249 81.7722C291.854 83.2025 291.507 84.6137 291.209 86.0056L299.032 87.6819C299.296 86.4488 299.605 85.1881 299.961 83.8997L292.249 81.7722ZM291.198 86.0593L290.425 89.9265L298.269 91.4954L299.043 87.6282L291.198 86.0593ZM295.178 94.6236L306.428 92.2329L304.765 84.4077L293.515 86.7983L295.178 94.6236ZM301.605 88.06L300.973 97.7631L308.956 98.2838L309.588 88.5806L301.605 88.06ZM304.273 94.0836C298.902 95.0259 294.627 95.8603 291.479 96.5868L293.278 104.382C296.223 103.702 300.339 102.896 305.655 101.963L304.273 94.0836ZM288.456 99.6999C288.256 100.7 288.08 101.702 287.93 102.704L295.842 103.89C295.973 103.017 296.126 102.143 296.3 101.269L288.456 99.6999ZM287.949 102.59L287.457 105.332L295.331 106.746L295.823 104.004L287.949 102.59ZM291.968 109.998L305.046 108.099L303.897 100.182L290.819 102.081L291.968 109.998ZM300.482 103.862L299.568 116.94L307.548 117.498L308.462 104.42L300.482 103.862ZM303.226 113.233C296.16 113.821 287.363 115.497 276.895 118.197L278.893 125.944C289.143 123.3 297.455 121.741 303.89 121.205L303.226 113.233ZM281.84 122.725L290.207 72.3112L282.315 71.0013L273.948 121.415L281.84 122.725ZM286.832 75.6153L310.246 72.2403L309.104 64.3222L285.69 67.6972L286.832 75.6153ZM305.685 68.0009L304.771 81.0087L312.751 81.5695L313.665 68.5616L305.685 68.0009ZM308.395 77.3058C303.73 77.7343 299.423 78.26 295.478 78.8853L296.731 86.7866C300.474 86.1932 304.605 85.6876 309.127 85.2723L308.395 77.3058ZM345.141 84.8047L346.545 88.55L348.839 87.69L349.115 85.2563L345.141 84.8047ZM339.797 86.8438L338.355 83.1126L338.354 83.1129L339.797 86.8438ZM334.523 88.8828H330.523V94.7181L335.966 92.6136L334.523 88.8828ZM327.492 88.5312L324.491 85.8871L324.459 85.9236L324.427 85.9608L327.492 88.5312ZM325.945 92.75L321.983 93.2966L321.988 93.3353L321.994 93.3739L325.945 92.75ZM332.133 93.6641L332.893 97.5912L332.923 97.5854L332.952 97.5792L332.133 93.6641ZM344.367 97.1094L348.272 96.2417L348.264 96.2062L348.256 96.1708L344.367 97.1094ZM341.273 109.484L337.918 107.308L337.91 107.319L337.903 107.33L341.273 109.484ZM329.039 120.945L327.008 117.499L326.998 117.505L329.039 120.945ZM313.711 121.367L310.019 119.829L308.669 123.067L311.704 124.827L313.711 121.367ZM319.336 108.922L321.602 105.626L317.72 102.957L315.716 107.22L319.336 108.922ZM326.438 110.117L325.438 106.244L325.373 106.261L325.309 106.28L326.438 110.117ZM330.586 108.5L332.475 112.026L332.494 112.015L332.514 112.005L330.586 108.5ZM324.75 104.422L325.563 108.338L325.59 108.333L325.618 108.327L324.75 104.422ZM315.047 104.211L317.341 100.934L317.303 100.908L317.266 100.883L315.047 104.211ZM312.797 98.5156L316.765 99.0206L316.767 99.0008L316.77 98.9809L312.797 98.5156ZM322.852 80.4453L325.839 83.1053L325.844 83.0991L322.852 80.4453ZM338.953 69.4062L338.696 65.4145L338.679 65.4156L338.662 65.4168L338.953 69.4062ZM343.736 81.0594C342.22 81.6279 340.426 82.3126 338.355 83.1126L341.238 90.5749C343.293 89.7812 345.061 89.1065 346.545 88.55L343.736 81.0594ZM338.354 83.1129L333.081 85.152L335.966 92.6136L341.239 90.5746L338.354 83.1129ZM338.523 88.8828C338.523 87.5435 338.361 85.9039 337.567 84.4681C337.136 83.6897 336.489 82.9187 335.56 82.3586C334.623 81.7945 333.622 81.5781 332.695 81.5781V89.5781C332.378 89.5781 331.91 89.4995 331.431 89.2108C330.958 88.9261 330.692 88.5681 330.566 88.3405C330.453 88.1359 330.453 88.0407 330.475 88.1624C330.496 88.2757 330.523 88.505 330.523 88.8828H338.523ZM332.695 81.5781C329.33 81.5781 326.593 83.5006 324.491 85.8871L330.494 91.1754C331.86 89.6244 332.592 89.5781 332.695 89.5781V81.5781ZM324.427 85.9608C322.77 87.9369 321.589 90.4407 321.983 93.2966L329.908 92.2034C329.908 92.2031 329.908 92.2032 329.908 92.2035C329.908 92.2038 329.908 92.204 329.908 92.2038C329.908 92.2037 329.908 92.2029 329.908 92.2013C329.908 92.1997 329.908 92.197 329.909 92.193C329.91 92.1789 329.917 92.1338 329.947 92.0528C330.009 91.8828 330.169 91.5637 330.557 91.1017L324.427 85.9608ZM321.994 93.3739C322.289 95.2426 323.469 96.5994 324.93 97.3297C326.179 97.954 327.53 98.0859 328.617 98.0859V90.0859C328.063 90.0859 328.149 89.9952 328.508 90.1742C328.727 90.2841 329.058 90.5021 329.358 90.8903C329.667 91.2909 329.834 91.7326 329.896 92.1261L321.994 93.3739ZM328.617 98.0859C329.875 98.0859 331.33 97.8936 332.893 97.5912L331.373 89.7369C330.029 89.997 329.141 90.0859 328.617 90.0859V98.0859ZM332.952 97.5792C334.781 97.1965 336.278 97.0312 337.477 97.0312V89.0312C335.581 89.0312 333.516 89.2879 331.313 89.7489L332.952 97.5792ZM337.477 97.0312C339.047 97.0312 339.809 97.3121 340.115 97.4931C340.246 97.5708 340.299 97.6318 340.328 97.6712C340.359 97.7141 340.424 97.8189 340.479 98.0479L348.256 96.1708C347.687 93.8174 346.317 91.8673 344.19 90.6085C342.199 89.4301 339.844 89.0312 337.477 89.0312V97.0312ZM340.462 97.9771C340.582 98.5131 340.648 99.1112 340.648 99.7812H348.648C348.648 98.5763 348.528 97.3932 348.272 96.2417L340.462 97.9771ZM340.648 99.7812C340.648 101.768 339.901 104.25 337.918 107.308L344.629 111.661C347.146 107.781 348.648 103.794 348.648 99.7812H340.648ZM337.903 107.33C335.377 111.282 331.787 114.683 327.008 117.499L331.07 124.391C336.791 121.02 341.357 116.781 344.644 111.639L337.903 107.33ZM326.998 117.505C324.724 118.854 322.703 119.406 320.883 119.406V127.406C324.406 127.406 327.823 126.318 331.08 124.386L326.998 117.505ZM320.883 119.406C319.227 119.406 317.522 118.953 315.718 117.907L311.704 124.827C314.588 126.5 317.664 127.406 320.883 127.406V119.406ZM317.403 122.906C318.54 120.178 320.384 116.096 322.956 110.624L315.716 107.22C313.132 112.717 311.226 116.931 310.019 119.829L317.403 122.906ZM317.07 112.218C319.181 113.67 321.556 114.469 324.117 114.469V106.469C323.303 106.469 322.49 106.236 321.602 105.626L317.07 112.218ZM324.117 114.469C325.288 114.469 326.442 114.285 327.566 113.955L325.309 106.28C324.84 106.418 324.447 106.469 324.117 106.469V114.469ZM327.437 113.99C329.197 113.536 330.879 112.881 332.475 112.026L328.697 104.974C327.668 105.525 326.584 105.948 325.438 106.244L327.437 113.99ZM332.514 112.005C333.666 111.371 334.799 110.59 335.685 109.593C336.599 108.565 337.398 107.125 337.398 105.336H329.398C329.398 105.008 329.473 104.73 329.561 104.531C329.643 104.344 329.719 104.263 329.706 104.278C329.691 104.294 329.615 104.375 329.434 104.509C329.255 104.642 329.002 104.806 328.658 104.995L332.514 112.005ZM337.398 105.336C337.398 103.425 336.49 101.657 334.76 100.602C333.351 99.7434 331.753 99.5781 330.516 99.5781V107.578C330.805 107.578 330.948 107.601 330.98 107.608C331.018 107.615 330.852 107.589 330.595 107.433C330.312 107.26 329.965 106.954 329.708 106.486C329.456 106.024 329.398 105.599 329.398 105.336H337.398ZM330.516 99.5781C328.75 99.5781 326.479 99.94 323.882 100.517L325.618 108.327C328.083 107.779 329.656 107.578 330.516 107.578V99.5781ZM323.937 100.505C321.521 101.007 319.947 101.195 319.055 101.195V109.195C320.787 109.195 323.01 108.868 325.563 108.338L323.937 100.505ZM319.055 101.195C318.43 101.195 317.993 101.135 317.706 101.065C317.424 100.995 317.331 100.928 317.341 100.934L312.753 107.488C314.628 108.8 316.897 109.195 319.055 109.195V101.195ZM317.266 100.883C316.975 100.689 316.886 100.536 316.833 100.403C316.765 100.23 316.663 99.8198 316.765 99.0206L308.829 98.0106C308.602 99.7896 308.712 101.618 309.393 103.343C310.091 105.109 311.29 106.514 312.828 107.539L317.266 100.883ZM316.77 98.9809C317.235 95.004 319.929 89.7422 325.839 83.1053L319.864 77.7853C313.586 84.836 309.577 91.621 308.824 98.0503L316.77 98.9809ZM325.844 83.0991C328.832 79.7297 331.49 77.3049 333.815 75.7112C336.157 74.1053 337.946 73.4903 339.244 73.3957L338.662 65.4168C335.461 65.6503 332.316 67.0392 329.291 69.113C326.248 71.199 323.106 74.1297 319.859 77.7916L325.844 83.0991ZM339.211 73.398C339.78 73.3612 340.047 73.4536 340.146 73.4989C340.224 73.5346 340.352 73.6079 340.526 73.8696C340.963 74.5287 341.492 76.1034 341.492 79.25H349.492C349.492 75.5529 348.931 72.065 347.189 69.4429C345.208 66.4606 342.115 65.1939 338.696 65.4145L339.211 73.398ZM341.492 79.25C341.492 80.7064 341.388 82.4032 341.166 84.353L349.115 85.2563C349.362 83.0811 349.492 81.0749 349.492 79.25H341.492ZM384.473 69.4062L388.471 69.5352L388.621 64.9003L384.014 65.4327L384.473 69.4062ZM384.052 82.4844L384.28 86.4779L387.932 86.2692L388.049 82.6133L384.052 82.4844ZM374.7 83.1875L374.321 79.2055L371.472 79.4768L370.809 82.2604L374.7 83.1875ZM368.442 118.977L369.45 122.848L372.148 122.145L372.423 119.371L368.442 118.977ZM356.559 122.07L352.618 121.389L351.56 127.505L357.567 125.941L356.559 122.07ZM363.028 84.6641L366.97 85.3457L367.912 79.8969L362.442 80.7072L363.028 84.6641ZM359.231 85.2969L358.503 81.3637L358.49 81.3662L359.231 85.2969ZM355.505 86L351.513 86.2562L351.803 90.7691L356.246 89.9306L355.505 86ZM354.661 72.8516L354.202 68.878L350.426 69.3144L350.669 73.1077L354.661 72.8516ZM380.476 69.2773L380.054 82.3554L388.049 82.6133L388.471 69.5352L380.476 69.2773ZM383.823 78.4909C380.497 78.681 377.329 78.919 374.321 79.2055L375.079 87.1695C377.977 86.8935 381.044 86.6628 384.28 86.4779L383.823 78.4909ZM370.809 82.2604C367.682 95.3832 365.561 107.494 364.462 118.582L372.423 119.371C373.48 108.71 375.53 96.9605 378.591 84.1146L370.809 82.2604ZM367.434 115.106L355.552 118.199L357.567 125.941L369.45 122.848L367.434 115.106ZM360.501 122.752L366.97 85.3457L359.087 83.9825L352.618 121.389L360.501 122.752ZM362.442 80.7072C361.129 80.9018 359.815 81.1207 358.503 81.3637L359.96 89.23C361.178 89.0043 362.397 88.8013 363.614 88.6209L362.442 80.7072ZM358.49 81.3662L354.763 82.0694L356.246 89.9306L359.973 89.2275L358.49 81.3662ZM359.496 85.7438L358.653 72.5954L350.669 73.1077L351.513 86.2562L359.496 85.7438ZM355.12 76.8251L384.933 73.3798L384.014 65.4327L354.202 68.878L355.12 76.8251ZM132.762 149.359L132.08 145.418L129.296 145.9L128.819 148.685L132.762 149.359ZM145.77 147.109L149.639 148.122L151.213 142.108L145.088 143.168L145.77 147.109ZM140.074 171.578L136.15 170.803L134.985 176.704L140.877 175.497L140.074 171.578ZM145.91 170.383L146.713 174.301L149.393 173.752L149.853 171.055L145.91 170.383ZM149.496 149.359L148.814 145.418L146.028 145.9L145.553 148.687L149.496 149.359ZM162.504 147.109L166.376 148.113L167.931 142.111L161.822 143.168L162.504 147.109ZM153.082 195.977L154.073 199.852L156.79 199.157L157.063 196.366L153.082 195.977ZM140.988 199.07L137.044 198.403L136.018 204.471L141.98 202.946L140.988 199.07ZM144.223 179.945L148.167 180.612L149.15 174.799L143.385 176.034L144.223 179.945ZM138.246 181.211L137.422 177.297L134.715 177.867L134.293 180.6L138.246 181.211ZM136.348 195.977L137.339 199.852L140.072 199.153L140.331 196.343L136.348 195.977ZM124.254 199.07L120.311 198.396L119.271 204.474L125.245 202.946L124.254 199.07ZM133.443 153.301L146.451 151.051L145.088 143.168L132.08 145.418L133.443 153.301ZM141.9 146.096C139.54 155.111 137.622 163.348 136.15 170.803L143.998 172.353C145.433 165.089 147.311 157.014 149.639 148.122L141.9 146.096ZM140.877 175.497L146.713 174.301L145.108 166.464L139.272 167.659L140.877 175.497ZM149.853 171.055L153.439 150.032L145.553 148.687L141.967 169.71L149.853 171.055ZM150.178 153.301L163.186 151.051L161.822 143.168L148.814 145.418L150.178 153.301ZM158.632 146.106C153.633 165.395 150.441 181.902 149.101 195.587L157.063 196.366C158.348 183.239 161.438 167.168 166.376 148.113L158.632 146.106ZM152.091 192.101L139.997 195.195L141.98 202.946L154.073 199.852L152.091 192.101ZM144.932 199.737L148.167 180.612L140.279 179.278L137.044 198.403L144.932 199.737ZM143.385 176.034C142.079 176.314 140.093 176.734 137.422 177.297L139.07 185.125C141.743 184.562 143.741 184.139 145.061 183.857L143.385 176.034ZM134.293 180.6C133.395 186.416 132.749 191.424 132.364 195.61L140.331 196.343C140.696 192.373 141.316 187.537 142.199 181.822L134.293 180.6ZM135.356 192.101L123.263 195.195L125.245 202.946L137.339 199.852L135.356 192.101ZM128.197 199.745L136.704 150.034L128.819 148.685L120.311 198.396L128.197 199.745ZM171.462 149.359L170.726 145.428L168.001 145.938L167.522 148.668L171.462 149.359ZM183.485 147.109L187.353 148.128L188.963 142.015L182.749 143.178L183.485 147.109ZM176.313 180.156L172.363 179.529L171.235 186.634L177.866 183.843L176.313 180.156ZM182.993 177.344L184.545 181.03L186.555 180.184L186.932 178.037L182.993 177.344ZM187.915 149.359L187.179 145.428L184.455 145.937L183.975 148.666L187.915 149.359ZM199.938 147.109L203.815 148.093L205.354 142.026L199.203 143.178L199.938 147.109ZM190.446 195.977L191.507 199.833L194.129 199.112L194.423 196.409L190.446 195.977ZM179.196 199.07L175.259 198.361L174.133 204.611L180.257 202.927L179.196 199.07ZM180.602 191.266L184.539 191.975L185.873 184.573L178.99 187.605L180.602 191.266ZM162.743 199.07L158.803 198.379L157.518 205.707L164.339 202.738L162.743 199.07ZM172.197 153.291L184.221 151.041L182.749 143.178L170.726 145.428L172.197 153.291ZM179.617 146.091C176.358 158.467 173.935 169.616 172.363 179.529L180.264 180.783C181.785 171.196 184.144 160.315 187.353 148.128L179.617 146.091ZM177.866 183.843L184.545 181.03L181.441 173.657L174.761 176.47L177.866 183.843ZM186.932 178.037L191.854 150.052L183.975 148.666L179.053 176.651L186.932 178.037ZM188.651 153.291L200.674 151.041L199.203 143.178L187.179 145.428L188.651 153.291ZM196.061 146.126C191.16 165.449 187.95 181.934 186.47 195.544L194.423 196.409C195.849 183.3 198.967 167.207 203.815 148.093L196.061 146.126ZM189.385 192.12L178.135 195.213L180.257 202.927L191.507 199.833L189.385 192.12ZM183.133 199.78L184.539 191.975L176.666 190.556L175.259 198.361L183.133 199.78ZM178.99 187.605C175.061 189.336 169.114 191.934 161.146 195.403L164.339 202.738C172.309 199.269 178.269 196.664 182.215 194.926L178.99 187.605ZM166.683 199.761L175.402 150.05L167.522 148.668L158.803 198.379L166.683 199.761ZM196.873 199.422L193.152 197.953L190.648 204.296L197.406 203.386L196.873 199.422ZM211.357 150.484L210.713 146.537L207.98 146.983L207.435 149.698L211.357 150.484ZM228.162 147.742L232.145 148.111L232.622 142.961L227.518 143.794L228.162 147.742ZM225.771 173.547L221.788 173.178L229.629 174.605L225.771 173.547ZM232.31 149.711L231.625 145.77L229.124 146.205L228.453 148.653L232.31 149.711ZM248.482 146.898L252.451 147.398L253.126 142.031L247.797 142.958L248.482 146.898ZM245.67 195.484L246.361 199.424L249.736 198.831L249.669 195.406L245.67 195.484ZM231.255 198.016L227.269 197.688L226.845 202.851L231.947 201.955L231.255 198.016ZM233.787 167.219L237.773 167.546L229.925 166.176L233.787 167.219ZM224.576 201.32L225.116 205.284L227.745 204.925L228.437 202.363L224.576 201.32ZM216.841 202.375L212.864 201.949L212.32 207.029L217.382 206.338L216.841 202.375ZM221.482 159.062L225.459 159.489L217.611 158.056L221.482 159.062ZM211.498 197.453L212.031 201.417L214.693 201.059L215.369 198.46L211.498 197.453ZM200.593 200.891C207.007 184.642 211.903 168.102 215.279 151.271L207.435 149.698C204.155 166.054 199.395 182.139 193.152 197.953L200.593 200.891ZM212.001 154.432L228.806 151.69L227.518 143.794L210.713 146.537L212.001 154.432ZM224.179 147.373L221.788 173.178L229.754 173.916L232.145 148.111L224.179 147.373ZM229.629 174.605L236.168 150.769L228.453 148.653L221.914 172.489L229.629 174.605ZM232.996 153.652L249.167 150.839L247.797 142.958L231.625 145.77L232.996 153.652ZM244.513 146.399C242.576 161.807 241.599 175.758 241.599 188.242H249.599C249.599 176.163 250.545 162.553 252.451 147.398L244.513 146.399ZM241.599 188.242C241.599 190.705 241.623 193.146 241.67 195.563L249.669 195.406C249.622 193.042 249.599 190.654 249.599 188.242H241.599ZM244.978 191.545L230.564 194.076L231.947 201.955L246.361 199.424L244.978 191.545ZM235.242 198.343L237.773 167.546L229.8 166.891L227.269 197.688L235.242 198.343ZM229.925 166.176L220.714 200.277L228.437 202.363L237.648 168.262L229.925 166.176ZM224.035 197.357L216.301 198.412L217.382 206.338L225.116 205.284L224.035 197.357ZM220.819 202.801L225.459 159.489L217.505 158.636L212.864 201.949L220.819 202.801ZM217.611 158.056L207.626 196.446L215.369 198.46L225.353 160.069L217.611 158.056ZM210.964 193.489L196.339 195.458L197.406 203.386L212.031 201.417L210.964 193.489ZM247.104 199.914L243.38 198.454L240.848 204.914L247.706 203.868L247.104 199.914ZM263.838 149.078L263.176 145.133L260.623 145.562L259.968 148.066L263.838 149.078ZM285.213 145.492L289.156 146.169L290.109 140.615L284.551 141.547L285.213 145.492ZM281.909 195.906L282.809 199.803L285.947 199.078L285.908 195.858L281.909 195.906ZM267.002 199.352L263.031 198.875L262.352 204.532L267.903 203.249L267.002 199.352ZM268.057 190.562L272.029 191.039L272.682 185.59L267.295 186.636L268.057 190.562ZM263.346 191.477L262.584 187.55L260.054 188.041L259.455 190.548L263.346 191.477ZM261.87 197.664L262.472 201.618L265.135 201.213L265.76 198.593L261.87 197.664ZM269.182 181.141L269.905 185.075L272.797 184.543L273.153 181.624L269.182 181.141ZM272.416 154.562L276.387 155.046L276.933 150.562H272.416V154.562ZM272.346 154.562V150.562H269.201L268.459 153.618L272.346 154.562ZM265.737 181.773L261.85 180.829L260.394 186.822L266.459 185.708L265.737 181.773ZM250.828 201.374C257.769 183.667 263.398 166.571 267.708 150.09L259.968 148.066C255.747 164.21 250.22 181.005 243.38 198.454L250.828 201.374ZM264.5 153.023L285.875 149.437L284.551 141.547L263.176 145.133L264.5 153.023ZM281.271 144.816C278.781 159.324 277.673 176.383 277.909 195.955L285.908 195.858C285.676 176.617 286.771 160.067 289.156 146.169L281.271 144.816ZM281.008 192.009L266.102 195.454L267.903 203.249L282.809 199.803L281.008 192.009ZM270.974 199.828L272.029 191.039L264.086 190.086L263.031 198.875L270.974 199.828ZM267.295 186.636L262.584 187.55L264.108 195.403L268.819 194.489L267.295 186.636ZM259.455 190.548L257.979 196.736L265.76 198.593L267.237 192.405L259.455 190.548ZM261.267 193.71L246.501 195.96L247.706 203.868L262.472 201.618L261.267 193.71ZM273.153 181.624L276.387 155.046L268.446 154.079L265.211 180.657L273.153 181.624ZM272.416 150.562H272.346V158.562H272.416V150.562ZM268.459 153.618L261.85 180.829L269.624 182.718L276.233 155.507L268.459 153.618ZM266.459 185.708L269.905 185.075L268.459 177.206L265.014 177.839L266.459 185.708ZM298.53 149.359L297.799 145.427L295.066 145.935L294.59 148.674L298.53 149.359ZM310.624 147.109L314.496 148.114L316.075 142.027L309.893 143.177L310.624 147.109ZM301.062 195.977L302.129 199.832L304.745 199.108L305.038 196.409L301.062 195.977ZM289.882 199.07L285.941 198.385L284.858 204.611L290.949 202.925L289.882 199.07ZM299.262 153.292L311.356 151.042L309.893 143.177L297.799 145.427L299.262 153.292ZM306.752 146.105C301.846 165.022 298.613 181.511 297.085 195.544L305.038 196.409C306.511 182.88 309.652 166.791 314.496 148.114L306.752 146.105ZM299.995 192.121L288.815 195.215L290.949 202.925L302.129 199.832L299.995 192.121ZM293.823 199.756L302.471 150.045L294.59 148.674L285.941 198.385L293.823 199.756ZM320.707 149.57L319.914 145.65L317.239 146.191L316.767 148.879L320.707 149.57ZM332.871 147.109L336.863 147.367L337.199 142.153L332.078 143.189L332.871 147.109ZM333.363 170.102L337.349 169.764L337.348 169.753L333.363 170.102ZM334.418 176.781L330.564 177.852L338.359 177.468L334.418 176.781ZM339.199 149.359L338.468 145.427L335.736 145.935L335.259 148.672L339.199 149.359ZM351.293 147.109L355.165 148.114L356.743 142.027L350.561 143.177L351.293 147.109ZM341.73 195.977L342.804 199.83L345.414 199.103L345.707 196.409L341.73 195.977ZM330.621 199.07L327.043 200.859L328.518 203.808L331.694 202.924L330.621 199.07ZM329.707 196.609L325.933 197.935L325.94 197.956L325.948 197.976L329.707 196.609ZM326.051 186.203L329.825 184.877L329.819 184.861L329.813 184.845L326.051 186.203ZM324.996 182.969L328.918 182.184L321.058 182.268L324.996 182.969ZM322.676 199.07L323.825 202.902L326.367 202.139L326.653 199.5L322.676 199.07ZM311.426 202.445L307.486 201.754L306.365 208.14L312.575 206.277L311.426 202.445ZM321.5 153.491L333.664 151.03L332.078 143.189L319.914 145.65L321.5 153.491ZM328.879 146.852C328.777 148.434 328.73 150.597 328.73 153.297H336.73C336.73 150.653 336.777 148.691 336.863 147.367L328.879 146.852ZM328.73 153.297C328.73 159.754 328.944 165.476 329.378 170.45L337.348 169.753C336.939 165.07 336.73 159.59 336.73 153.297H328.73ZM329.378 170.439C329.622 173.327 330.002 175.828 330.564 177.852L338.272 175.711C337.897 174.36 337.573 172.407 337.349 169.764L329.378 170.439ZM338.359 177.468L343.14 150.046L335.259 148.672L330.477 176.094L338.359 177.468ZM339.931 153.292L352.025 151.042L350.561 143.177L338.468 145.427L339.931 153.292ZM347.421 146.105C342.515 165.022 339.281 181.511 337.754 195.544L345.707 196.409C347.18 182.88 350.321 166.791 355.165 148.114L347.421 146.105ZM340.657 192.123L329.548 195.217L331.694 202.924L342.804 199.83L340.657 192.123ZM334.199 197.281C334.249 197.383 334.282 197.46 334.286 197.469C334.291 197.481 334.295 197.49 334.297 197.495C334.298 197.497 334.299 197.499 334.299 197.5C334.3 197.501 334.3 197.502 334.3 197.502C334.3 197.502 334.3 197.501 334.299 197.501C334.299 197.5 334.298 197.498 334.298 197.496C334.296 197.493 334.294 197.488 334.292 197.481C334.286 197.468 334.28 197.45 334.271 197.428C334.235 197.335 334.181 197.192 334.107 196.992C333.96 196.595 333.747 196.013 333.466 195.242L325.948 197.976C326.23 198.752 326.451 199.354 326.608 199.778C326.7 200.027 326.894 200.56 327.043 200.859L334.199 197.281ZM333.481 195.283L329.825 184.877L322.277 187.529L325.933 197.935L333.481 195.283ZM329.813 184.845C329.515 184.02 329.291 183.372 329.133 182.889C328.958 182.353 328.914 182.164 328.918 182.184L321.074 183.753C321.239 184.578 321.713 185.968 322.289 187.562L329.813 184.845ZM321.058 182.268C320.059 187.882 319.272 193.34 318.699 198.64L326.653 199.5C327.205 194.394 327.965 189.118 328.934 183.67L321.058 182.268ZM321.526 195.239L310.276 198.614L312.575 206.277L323.825 202.902L321.526 195.239ZM315.366 203.137L324.647 150.262L316.767 148.879L307.486 201.754L315.366 203.137Z" fill="black"/>
<defs>
<clipPath id="clip0_114_2492">
<rect width="358" height="312" fill="white"/>
</clipPath>
</defs>
</svg>
