<svg xmlns="http://www.w3.org/2000/svg" xmlns:xlink="http://www.w3.org/1999/xlink" viewBox="0 0 210.92 433.24"><defs><style>.cls-1{isolation:isolate;}.cls-2,.cls-37{opacity:0.6;}.cls-3{fill:#d56d19;}.cls-115,.cls-117,.cls-119,.cls-121,.cls-123,.cls-124,.cls-129,.cls-24,.cls-4,.cls-85,.cls-91{stroke:#000;stroke-miterlimit:10;}.cls-4{fill:url(#linear-gradient);}.cls-116,.cls-124,.cls-5{fill:#e19d16;}.cls-10,.cls-116,.cls-126,.cls-39,.cls-5,.cls-6,.cls-65,.cls-87,.cls-88,.cls-89,.cls-90{opacity:0.5;}.cls-11,.cls-12,.cls-13,.cls-14,.cls-15,.cls-16,.cls-17,.cls-18,.cls-19,.cls-20,.cls-21,.cls-22,.cls-23,.cls-45,.cls-46,.cls-47,.cls-48,.cls-49,.cls-50,.cls-51,.cls-52,.cls-53,.cls-54,.cls-55,.cls-56,.cls-57,.cls-58,.cls-59,.cls-6,.cls-60,.cls-61,.cls-62,.cls-63,.cls-67,.cls-68,.cls-69,.cls-70,.cls-71,.cls-72,.cls-73,.cls-74,.cls-75,.cls-76,.cls-77,.cls-78,.cls-79,.cls-80,.cls-81,.cls-82,.cls-83,.cls-84{fill:#ffa652;}.cls-7,.cls-8,.cls-9{fill:#ce6612;}.cls-11,.cls-128,.cls-7,.cls-95{opacity:0.1;}.cls-118,.cls-120,.cls-27,.cls-36,.cls-37,.cls-64,.cls-65,.cls-7,.cls-8,.cls-88,.cls-9,.cls-92,.cls-93{mix-blend-mode:multiply;}.cls-125,.cls-40,.cls-41,.cls-42,.cls-43,.cls-64,.cls-8,.cls-93{opacity:0.2;}.cls-44,.cls-9{opacity:0.4;}.cls-12{opacity:0.15;}.cls-13{opacity:0.21;}.cls-14{opacity:0.26;}.cls-15{opacity:0.32;}.cls-16{opacity:0.37;}.cls-17{opacity:0.43;}.cls-18{opacity:0.48;}.cls-19{opacity:0.54;}.cls-20{opacity:0.59;}.cls-21{opacity:0.65;}.cls-122,.cls-127,.cls-22,.cls-66,.cls-86{opacity:0.7;}.cls-23,.cls-92{opacity:0.3;}.cls-24{fill:url(#linear-gradient-2);}.cls-25{fill:url(#Super_Soft_Black_Vignette);}.cls-26,.cls-27,.cls-30{fill:#f9b845;}.cls-28{fill:url(#Super_Soft_Black_Vignette-2);}.cls-29{fill:url(#Super_Soft_Black_Vignette-3);}.cls-100,.cls-101,.cls-102,.cls-103,.cls-104,.cls-105,.cls-106,.cls-107,.cls-108,.cls-109,.cls-110,.cls-111,.cls-112,.cls-113,.cls-114,.cls-30,.cls-39,.cls-40,.cls-41,.cls-42,.cls-43,.cls-86,.cls-90,.cls-95,.cls-96,.cls-97,.cls-98,.cls-99{mix-blend-mode:screen;}.cls-101,.cls-125,.cls-126,.cls-127,.cls-31,.cls-86,.cls-90{fill:#fff;}.cls-32{fill:url(#Super_Soft_Black_Vignette-4);}.cls-33{fill:url(#Super_Soft_Black_Vignette-5);}.cls-34{fill:url(#Super_Soft_Black_Vignette-6);}.cls-35{fill:url(#Super_Soft_Black_Vignette-7);}.cls-36{fill:#cccecf;}.cls-37{fill:#b9bbbd;}.cls-38{fill:url(#Super_Soft_Black_Vignette-8);}.cls-39{fill:url(#radial-gradient);}.cls-40{fill:url(#radial-gradient-2);}.cls-41{fill:url(#radial-gradient-3);}.cls-42{fill:url(#radial-gradient-4);}.cls-43{fill:url(#radial-gradient-5);}.cls-45{opacity:0.15;}.cls-46{opacity:0.19;}.cls-47{opacity:0.24;}.cls-48{opacity:0.29;}.cls-49{opacity:0.34;}.cls-50{opacity:0.38;}.cls-51{opacity:0.43;}.cls-52{opacity:0.48;}.cls-53{opacity:0.53;}.cls-54{opacity:0.57;}.cls-55{opacity:0.62;}.cls-56{opacity:0.67;}.cls-57{opacity:0.72;}.cls-58{opacity:0.76;}.cls-59{opacity:0.81;}.cls-60{opacity:0.86;}.cls-61{opacity:0.91;}.cls-62{opacity:0.95;}.cls-64,.cls-65{fill:#882000;}.cls-67{opacity:0.15;}.cls-68{opacity:0.19;}.cls-69{opacity:0.24;}.cls-70{opacity:0.29;}.cls-71{opacity:0.34;}.cls-72{opacity:0.38;}.cls-73{opacity:0.43;}.cls-74{opacity:0.48;}.cls-75{opacity:0.53;}.cls-76{opacity:0.57;}.cls-77{opacity:0.62;}.cls-78{opacity:0.67;}.cls-79{opacity:0.72;}.cls-80{opacity:0.76;}.cls-81{opacity:0.81;}.cls-82{opacity:0.86;}.cls-83{opacity:0.91;}.cls-84{opacity:0.95;}.cls-85{fill:url(#linear-gradient-3);}.cls-87{fill:url(#linear-gradient-4);}.cls-88{fill:url(#linear-gradient-5);}.cls-89{fill:url(#linear-gradient-6);}.cls-91{fill:url(#linear-gradient-7);}.cls-92{fill:url(#linear-gradient-8);}.cls-94{opacity:0.8;}.cls-96{fill:#2b2b2b;opacity:0.25;}.cls-97{fill:#555;opacity:0.4;}.cls-98{fill:gray;opacity:0.55;}.cls-99{fill:#aaa;opacity:0.7;}.cls-100{fill:#d4d4d4;opacity:0.85;}.cls-102{fill:#c35e00;opacity:0;}.cls-103{fill:#c86a14;opacity:0.08;}.cls-104{fill:#cc7727;opacity:0.15;}.cls-105{fill:#d1833b;opacity:0.23;}.cls-106{fill:#d5904e;opacity:0.31;}.cls-107{fill:#da9c62;opacity:0.38;}.cls-108{fill:#dfa876;opacity:0.46;}.cls-109{fill:#e3b589;opacity:0.54;}.cls-110{fill:#e8c19d;opacity:0.62;}.cls-111{fill:#edcdb1;opacity:0.69;}.cls-112{fill:#f1dac4;opacity:0.77;}.cls-113{fill:#f6e6d8;opacity:0.85;}.cls-114{fill:#faf3eb;opacity:0.92;}.cls-115{fill:url(#linear-gradient-9);}.cls-116,.cls-125,.cls-126,.cls-127{mix-blend-mode:overlay;}.cls-117{stroke-width:2px;fill:url(#linear-gradient-10);}.cls-118{fill:url(#linear-gradient-11);}.cls-119{fill:url(#linear-gradient-12);}.cls-120{fill:url(#linear-gradient-13);}.cls-121{fill:#1f1f1f;}.cls-122{fill:url(#linear-gradient-14);}.cls-123{fill:url(#linear-gradient-15);}.cls-129{fill:#f15256;}</style><linearGradient id="linear-gradient" x1="83.68" y1="288.94" x2="208.14" y2="288.94" gradientUnits="userSpaceOnUse"><stop offset="0" stop-color="#f38b37"/><stop offset="1" stop-color="#e47c28"/></linearGradient><linearGradient id="linear-gradient-2" x1="83.68" y1="305.75" x2="208.14" y2="305.75" gradientUnits="userSpaceOnUse"><stop offset="0" stop-color="#f6ecd8"/><stop offset="0.68" stop-color="#cfbe9d"/><stop offset="1" stop-color="#f8f1de"/></linearGradient><radialGradient id="Super_Soft_Black_Vignette" cx="141.19" cy="312.99" r="9.96" gradientUnits="userSpaceOnUse"><stop offset="0.57" stop-color="#130c0e"/><stop offset="0.8" stop-color="#130c0e"/><stop offset="1" stop-color="#130c0e"/></radialGradient><radialGradient id="Super_Soft_Black_Vignette-2" cx="156.01" cy="313.52" r="11.37" xlink:href="#Super_Soft_Black_Vignette"/><radialGradient id="Super_Soft_Black_Vignette-3" cx="146.57" cy="273.58" r="39.39" xlink:href="#Super_Soft_Black_Vignette"/><radialGradient id="Super_Soft_Black_Vignette-4" cx="127.88" cy="289.39" r="2.82" xlink:href="#Super_Soft_Black_Vignette"/><radialGradient id="Super_Soft_Black_Vignette-5" cx="129.96" cy="289.29" r="2.11" xlink:href="#Super_Soft_Black_Vignette"/><radialGradient id="Super_Soft_Black_Vignette-6" cx="132.01" cy="288.98" r="1.38" xlink:href="#Super_Soft_Black_Vignette"/><radialGradient id="Super_Soft_Black_Vignette-7" cx="119.23" cy="253.53" r="0.81" xlink:href="#Super_Soft_Black_Vignette"/><radialGradient id="Super_Soft_Black_Vignette-8" cx="129.6" cy="250.83" r="1.71" xlink:href="#Super_Soft_Black_Vignette"/><radialGradient id="radial-gradient" cx="87.56" cy="194.65" r="205.07" gradientUnits="userSpaceOnUse"><stop offset="0" stop-color="#ffa652"/><stop offset="1" stop-color="#0f0000"/></radialGradient><radialGradient id="radial-gradient-2" cx="85.56" cy="192.65" r="205.07" xlink:href="#radial-gradient"/><radialGradient id="radial-gradient-3" cx="95.01" cy="192.65" r="205.07" xlink:href="#radial-gradient"/><radialGradient id="radial-gradient-4" cx="1061.32" cy="193.67" r="208.44" gradientTransform="matrix(-1, 0, 0, 1, 1262.4, 0)" xlink:href="#radial-gradient"/><radialGradient id="radial-gradient-5" cx="1058.66" cy="193.67" r="208.44" gradientTransform="matrix(-1, 0, 0, 1, 1262.4, 0)" gradientUnits="userSpaceOnUse"><stop offset="0" stop-color="#ffe7d1"/><stop offset="1" stop-color="#0f0000"/></radialGradient><linearGradient id="linear-gradient-3" x1="112.45" y1="125.69" x2="179.52" y2="125.69" xlink:href="#linear-gradient"/><linearGradient id="linear-gradient-4" x1="106.84" y1="139.88" x2="185.13" y2="139.88" xlink:href="#linear-gradient"/><linearGradient id="linear-gradient-5" x1="117.14" y1="119.85" x2="174.36" y2="119.85" xlink:href="#linear-gradient"/><linearGradient id="linear-gradient-6" x1="114.18" y1="117.95" x2="177.79" y2="117.95" xlink:href="#linear-gradient"/><linearGradient id="linear-gradient-7" x1="106.84" y1="147.22" x2="185.13" y2="147.22" xlink:href="#linear-gradient"/><linearGradient id="linear-gradient-8" x1="140.67" y1="126.92" x2="181.03" y2="126.92" xlink:href="#linear-gradient"/><linearGradient id="linear-gradient-9" x1="33.66" y1="196.3" x2="59.8" y2="196.3" gradientTransform="translate(134.72 15.46) rotate(29.96)" gradientUnits="userSpaceOnUse"><stop offset="0" stop-color="#f1f6f4"/><stop offset="0.68" stop-color="#cfbe9d"/><stop offset="1" stop-color="#f8f1ed"/></linearGradient><linearGradient id="linear-gradient-10" x1="5.98" y1="64.08" x2="87.49" y2="64.08" gradientTransform="translate(134.72 15.46) rotate(29.96)" gradientUnits="userSpaceOnUse"><stop offset="0" stop-color="#acacac"/><stop offset="0.06" stop-color="#3e3e3e"/><stop offset="0.07" stop-color="#717171"/><stop offset="0.08" stop-color="#9c9c9c"/><stop offset="0.1" stop-color="silver"/><stop offset="0.11" stop-color="#dcdcdc"/><stop offset="0.12" stop-color="#efefef"/><stop offset="0.14" stop-color="#fbfbfb"/><stop offset="0.15" stop-color="#fff"/><stop offset="0.33" stop-color="#525252"/><stop offset="0.69" stop-color="#0d0d0d"/><stop offset="0.89"/><stop offset="1" stop-color="#827b7b"/></linearGradient><linearGradient id="linear-gradient-11" x1="5.98" y1="66.14" x2="87.47" y2="66.14" gradientTransform="translate(134.72 15.46) rotate(29.96)" gradientUnits="userSpaceOnUse"><stop offset="0" stop-color="#d8d7d6"/><stop offset="0.1" stop-color="#d5d5d5"/><stop offset="0.26" stop-color="#fbfbfb"/><stop offset="0.45" stop-color="#f7f7f7"/><stop offset="0.9" stop-color="#b7b4b2"/><stop offset="1" stop-color="#ecebeb"/></linearGradient><linearGradient id="linear-gradient-12" x1="5.98" y1="49.4" x2="87.47" y2="49.4" xlink:href="#linear-gradient-10"/><linearGradient id="linear-gradient-13" x1="5.98" y1="49.4" x2="87.47" y2="49.4" gradientTransform="translate(134.72 15.46) rotate(29.96)" gradientUnits="userSpaceOnUse"><stop offset="0" stop-color="#d8d7d6"/><stop offset="0.1" stop-color="#e7e7e7"/><stop offset="0.24" stop-color="#fff"/><stop offset="0.9" stop-color="#c8c5c4"/><stop offset="1" stop-color="#ecebeb"/></linearGradient><linearGradient id="linear-gradient-14" x1="5.98" y1="52.46" x2="87.49" y2="52.46" gradientTransform="translate(134.72 15.46) rotate(29.96)" gradientUnits="userSpaceOnUse"><stop offset="0" stop-color="#d8d7d6"/><stop offset="0.23" stop-color="#f9f9f9"/><stop offset="0.66" stop-color="#717171"/><stop offset="1" stop-color="#ecebeb"/></linearGradient><linearGradient id="linear-gradient-15" x1="23.23" y1="-0.93" x2="70.19" y2="-0.93" gradientTransform="translate(134.72 15.46) rotate(29.96)" gradientUnits="userSpaceOnUse"><stop offset="0.21" stop-color="#525252"/><stop offset="0.24" stop-color="#4d4d4d"/><stop offset="0.54" stop-color="#1f1f1f"/><stop offset="0.69" stop-color="#0d0d0d"/><stop offset="1" stop-color="#353535"/></linearGradient></defs><title>Huile</title><g class="cls-1"><g id="Calque_2" data-name="Calque 2"><g id="OBJECTS"><g class="cls-2"><path class="cls-3" d="M204.08,414.61c0,10.15-26.06,15.53-58.21,15.53s-58.21-5.38-58.21-15.53,26.06-18.38,58.21-18.38S204.08,404.46,204.08,414.61Z"/><path class="cls-3" d="M204.46,414.82c0,10-26.25,15.49-58.63,15.49S87.2,424.86,87.2,414.82s26.25-18.19,58.63-18.19S204.46,404.77,204.46,414.82Z"/><path class="cls-3" d="M204.84,415c0,9.94-26.44,15.46-59.05,15.46s-59-5.52-59-15.46,26.43-18,59-18S204.84,405.09,204.84,415Z"/><path class="cls-3" d="M205.22,415.23c0,9.83-26.62,15.43-59.46,15.43s-59.47-5.6-59.47-15.43,26.62-17.79,59.47-17.79S205.22,405.4,205.22,415.23Z"/><path class="cls-3" d="M205.6,415.44c0,9.72-26.81,15.39-59.88,15.39s-59.89-5.67-59.89-15.39,26.81-17.6,59.89-17.6S205.6,405.72,205.6,415.44Z"/><path class="cls-3" d="M206,415.65c0,9.61-27,15.35-60.3,15.35s-60.3-5.74-60.3-15.35,27-17.41,60.3-17.41S206,406,206,415.65Z"/><path class="cls-3" d="M206.36,415.85c0,9.51-27.18,15.32-60.72,15.32s-60.72-5.81-60.72-15.32,27.19-17.21,60.72-17.21S206.36,406.35,206.36,415.85Z"/><path class="cls-3" d="M206.74,416.06c0,9.4-27.37,15.29-61.14,15.29s-61.14-5.89-61.14-15.29,27.38-17,61.14-17S206.74,406.66,206.74,416.06Z"/><path class="cls-3" d="M207.12,416.27c0,9.29-27.56,15.25-61.56,15.25S84,425.56,84,416.27s27.56-16.83,61.55-16.83S207.12,407,207.12,416.27Z"/><path class="cls-3" d="M207.5,416.48c0,9.19-27.75,15.21-62,15.21s-62-6-62-15.21,27.75-16.64,62-16.64S207.5,407.29,207.5,416.48Z"/><path class="cls-3" d="M207.88,416.69c0,9.08-27.93,15.17-62.39,15.17s-62.4-6.09-62.4-15.17,27.94-16.44,62.4-16.44S207.88,407.61,207.88,416.69Z"/><path class="cls-3" d="M208.26,416.89c0,9-28.12,15.15-62.81,15.15s-62.81-6.17-62.81-15.15,28.12-16.24,62.81-16.24S208.26,407.92,208.26,416.89Z"/><path class="cls-3" d="M208.64,417.1c0,8.87-28.31,15.11-63.23,15.11S82.18,426,82.18,417.1s28.31-16.05,63.23-16.05S208.64,408.24,208.64,417.1Z"/><path class="cls-3" d="M209,417.31c0,8.76-28.5,15.07-63.65,15.07s-63.65-6.31-63.65-15.07,28.5-15.86,63.65-15.86S209,408.55,209,417.31Z"/><path class="cls-3" d="M209.4,417.52c0,8.65-28.68,15-64.07,15s-64.06-6.38-64.06-15,28.68-15.67,64.06-15.67S209.4,408.87,209.4,417.52Z"/><path class="cls-3" d="M209.78,417.73c0,8.54-28.87,15-64.48,15s-64.49-6.46-64.49-15,28.87-15.48,64.49-15.48S209.78,409.18,209.78,417.73Z"/><path class="cls-3" d="M210.16,417.93c0,8.44-29.06,15-64.9,15s-64.9-6.53-64.9-15,29.05-15.28,64.9-15.28S210.16,409.49,210.16,417.93Z"/><path class="cls-3" d="M210.54,418.14c0,8.33-29.24,14.93-65.32,14.93s-65.32-6.6-65.32-14.93,29.24-15.09,65.32-15.09S210.54,409.81,210.54,418.14Z"/><ellipse class="cls-3" cx="145.18" cy="418.35" rx="65.74" ry="14.89"/></g><path class="cls-4" d="M178.54,167.27a5,5,0,0,1-3.6-4.86V151.84H116.87v10.57a5,5,0,0,1-3.59,4.86c-13.77,4-29.6,16.7-29.6,31.75V392.86a33,33,0,0,0,9.91,23.6c5.12,5.62,28.12,9.59,52.32,9.59s47.11-4.39,52.31-9.59a32.94,32.94,0,0,0,9.92-23.6V199C208.14,184,192.3,171.27,178.54,167.27Z"/><path class="cls-5" d="M178.17,171.67c-6.32-1.18-13-1.38-18.95-1.78-9.74-.66-19.5-1.31-29.27-1.1-9.48.21-19.24.62-27.6,5.46-5.06,2.93-8,5.6-10.62,10.7-2.89,5.65-6.37,9.72-6.37,16.49V391.51a32.33,32.33,0,0,0,9.73,23.14c5,5.51,27.56,9.39,51.29,9.39s46.2-4.3,51.3-9.39a32.36,32.36,0,0,0,9.72-23.14V201.44c0-10.2-7.18-18.73-15.12-24.33A35.45,35.45,0,0,0,178.17,171.67Z"/><path class="cls-6" d="M145.91,422.71c-24.2,0-47.2-4-52.32-9.58a33,33,0,0,1-9.91-23.6v3.33a33,33,0,0,0,9.91,23.6c5.12,5.62,28.12,9.59,52.32,9.59s47.11-4.39,52.31-9.59a32.94,32.94,0,0,0,9.92-23.6v-3.33a33,33,0,0,1-9.92,23.6C193,418.33,170.11,422.71,145.91,422.71Z"/><path class="cls-7" d="M94.71,392.86V199c0-15.05,18-23.8,32-26.7,22.82-4.72,6-12.3,5.22-14.74l-4-5.74h-9.35v10.57a5,5,0,0,1-3.6,4.86c-13.76,4-29.6,16.7-29.6,31.75V392.86c0,18.26,20.58,30.06,38.84,30.06h9.35C115.29,422.92,94.71,411.12,94.71,392.86Z"/><path class="cls-8" d="M95.89,392.86V199c0-15.05,18-23.8,32-26.7,22.83-4.72,6-12.3,5.23-14.74l-4-5.74h-9.35v10.57a5,5,0,0,1-3.6,4.86c-13.76,4-29.6,16.7-29.6,31.75V392.86c0,18.26,20.58,30.06,38.84,30.06h9.35C116.47,422.92,95.89,411.12,95.89,392.86Z"/><path class="cls-9" d="M97.74,392.86V199c0-15.05,18-23.8,32-26.7,22.82-4.72,6-12.3,5.22-14.74l-4-5.74h-9.35v10.57a5,5,0,0,1-3.6,4.86c-13.76,4-29.6,16.7-29.6,31.75V392.86c0,18.26,20.58,30.06,38.85,30.06h9.35C118.32,422.92,97.74,411.12,97.74,392.86Z"/><path class="cls-7" d="M196.83,392.86V199c0-15.05-18-23.8-32-26.7-22.83-4.72-6-12.3-5.23-14.74l4-5.74H173v10.57a5,5,0,0,0,3.6,4.86c13.76,4,29.6,16.7,29.6,31.75V392.86c0,18.26-20.58,30.06-38.84,30.06H158C176.25,422.92,196.83,411.12,196.83,392.86Z"/><path class="cls-9" d="M195.45,394.24V200.4c0-15.06-18-23.81-32-26.71-22.83-4.71-6-12.29-5.22-14.74l4-5.73h9.35v10.57a5,5,0,0,0,3.59,4.86c13.77,4,29.6,16.69,29.6,31.75V394.24c0,18.26-20.58,30.06-38.84,30.06h-9.35C174.87,424.3,195.45,412.5,195.45,394.24Z"/><g class="cls-10"><path class="cls-11" d="M196.59,187.47c-1.86-2.81-26.1-3.63-50.21-3.63-22,0-46.09-.33-49.63,2.74a7.34,7.34,0,0,0-2,2.26c-1.81,3-1.13,8.13,1.28,9.57,6.89,4.12,30,4,50.24,4,19.81,0,42.46-.55,49.58-4.8,2.62-1.56,3.12-7.57.8-10.12Z"/><path class="cls-12" d="M196,187.65c-1.84-2.69-25.85-3.39-49.66-3.39-21.76,0-45.06-.4-48.55,2.54A8.5,8.5,0,0,0,95.3,189c-1.79,2.9-.59,7.79,1.79,9.18,6.8,3.94,29.16,3.85,49.16,3.85,19.56,0,42-.53,49-4.6,2.58-1.49,3.08-7.25.79-9.7Z"/><path class="cls-13" d="M195.47,187.83c-1.81-2.58-25.6-3.15-49.11-3.15-21.48,0-44-.48-47.47,2.34-.75.48-2.47,1.19-3,2.06-1.77,2.77,0,7.46,2.3,8.78,6.72,3.78,28.34,3.69,48.08,3.69,19.32,0,41.55-.51,48.49-4.4,2.55-1.43,3-6.94.78-9.28Z"/><path class="cls-14" d="M194.91,188c-1.79-2.46-25.34-2.91-48.55-2.91-21.21,0-43-.56-46.41,2.13-.73.46-3,1.14-3.52,2-1.75,2.64.49,7.12,2.81,8.38,6.63,3.6,27.5,3.52,47,3.52,19.07,0,41.09-.49,47.94-4.2,2.52-1.37,3-6.63.77-8.87Z"/><path class="cls-15" d="M194.35,188.19c-1.77-2.34-25.09-2.67-48-2.67-20.93,0-42-.63-45.33,1.93-.73.44-3.48,1.08-4,1.88-1.73,2.52,1,6.78,3.31,8,6.55,3.44,26.68,3.36,45.92,3.36,18.83,0,40.63-.47,47.4-4,2.48-1.31,3-6.32.76-8.45Z"/><path class="cls-16" d="M193.79,188.37c-1.74-2.23-24.84-2.43-47.44-2.43-20.66,0-40.95-.71-44.26,1.73-.72.41-4,1-4.53,1.78-1.7,2.4,1.57,6.45,3.83,7.59,6.46,3.26,25.85,3.19,44.84,3.19,18.57,0,40.17-.44,46.85-3.81,2.45-1.23,2.92-6,.75-8Z"/><path class="cls-17" d="M193.23,188.55c-1.72-2.11-24.58-2.19-46.89-2.19-20.38,0-39.92-.78-43.19,1.52-.7.4-4.49,1-5,1.7-1.68,2.26,2.1,6.1,4.33,7.18,6.38,3.1,25,3,43.77,3,18.32,0,39.71-.42,46.3-3.61,2.42-1.17,2.89-5.68.74-7.6Z"/><path class="cls-18" d="M192.67,188.73c-1.7-2-24.33-1.95-46.33-1.95-20.11,0-38.9-.86-42.12,1.32-.7.37-5,.92-5.53,1.6-1.65,2.14,2.65,5.77,4.85,6.79,6.29,2.92,24.2,2.86,42.68,2.86,18.08,0,39.26-.4,45.75-3.41,2.39-1.11,2.86-5.37.74-7.18Z"/><path class="cls-19" d="M192.11,188.91c-1.67-1.88-24.08-1.71-45.78-1.71-19.84,0-37.87-.93-41.05,1.12-.68.35-5.5.86-6,1.5-1.63,2,3.18,5.43,5.36,6.4,6.2,2.75,23.37,2.68,41.6,2.68,17.83,0,38.8-.37,45.2-3.2,2.36-1,2.82-5.06.73-6.76Z"/><path class="cls-20" d="M191.55,189.09c-1.65-1.76-23.82-1.47-45.23-1.47-19.56,0-36.84-1-40,.91-.68.33-6,.82-6.52,1.42-1.61,1.89,3.72,5.09,5.86,6,6.12,2.58,22.54,2.52,40.52,2.52,17.59,0,38.35-.35,44.66-3,2.33-1,2.78-4.75.72-6.35Z"/><path class="cls-21" d="M191,189.27c-1.63-1.65-23.57-1.23-44.67-1.23-19.29,0-35.81-1.09-38.9.71-.67.31-6.52.76-7,1.32-1.59,1.77,4.27,4.76,6.38,5.6,6,2.41,21.71,2.35,39.44,2.35,17.34,0,37.88-.32,44.11-2.81a3.54,3.54,0,0,0,.71-5.92Z"/><path class="cls-22" d="M190.43,189.45c-1.6-1.53-23.31-1-44.12-1-19,0-34.78-1.16-37.83.51-.66.28-7,.7-7.52,1.22-1.57,1.64,4.8,4.42,6.88,5.2,6,2.24,20.89,2.19,38.36,2.19,17.1,0,37.43-.3,43.57-2.61a3.19,3.19,0,0,0,.69-5.5Z"/></g><path class="cls-7" d="M147.71,181a126.07,126.07,0,0,1,13.75.37c6.74.67,19.24,2.43,26,1.65a4.35,4.35,0,0,0,2.18-.69,3,3,0,0,0,.83-3.35,6.08,6.08,0,0,0-2.31-2.81c-3.52-2.57-14-3.26-17.16-6.29-2.34-2.28-3.41-5.53-4.34-8.66a2.8,2.8,0,0,0-1.13-1.85,2.75,2.75,0,0,0-1.3-.21l-39.66,0a2.74,2.74,0,0,0-1.5.29,3.16,3.16,0,0,0-1,1.94c-1.36,4.66-5.3,8-8.93,11.23s-13.14,7-13.79,11.78c4,1.24,14.14,0,18.26-1C127.39,181.24,137.6,181.14,147.71,181Z"/><path class="cls-23" d="M204.61,404.26c0,11.58-26.48,20.9-58.5,20.9s-58.91-9.32-58.91-20.9,26.89-18,58.91-18S204.61,392.68,204.61,404.26Z"/><path class="cls-24" d="M198.22,222.7c-5.2,2.47-28.11,4.56-52.31,4.56s-47.2-1.89-52.32-4.56c-6.11-2.86-9.91-2.84-9.91-7.24V362.84a33,33,0,0,0,9.91,23.6c5.12,5.62,28.12,9.59,52.32,9.59s47.11-4.39,52.31-9.59a32.94,32.94,0,0,0,9.92-23.6V215.46C208.14,219.86,204.34,219.84,198.22,222.7Z"/><path class="cls-25" d="M149.86,313.38a2.55,2.55,0,0,0-.85-1.25,2,2,0,0,1-.91-1.69,29.48,29.48,0,0,1,.16-5.46.51.51,0,0,0,.09-.12c.26-.82.34-2.09-.48-2.62a2.49,2.49,0,0,0-2.51.21,4.2,4.2,0,0,0-1.7,2,1.45,1.45,0,0,0-.06.41c-.11.07-.24.25-.2.33,1.21,2.42,1.18,5,1.45,7.61-1.33.76-7.2,2.92-7.93,3.22a20.75,20.75,0,0,0-3.49,2,4.67,4.67,0,0,0-1,.81,1.1,1.1,0,0,0,.93.12,9.81,9.81,0,0,0,2-.11,2.89,2.89,0,0,1,1.6.37c.14.09.42.87.61.94l.05,0a.29.29,0,0,0,.14.05,7.05,7.05,0,0,0,1.53,0,5,5,0,0,1,2.61,1c.95.64,1.46,1.67,2.3,2.42a.54.54,0,0,0,.06.29c.06.11.19.08.32,0a22.86,22.86,0,0,0,4.16-5.78c.23-.56.52-1.12.73-1.69a7,7,0,0,0,.55-2.34A2.88,2.88,0,0,0,149.86,313.38Z"/><path class="cls-26" d="M136.4,318.31a5.7,5.7,0,0,0-2.25.21A23,23,0,0,1,137,317.2q1-.39,2.1-.81c.4-.15,2.48-1,3.13-.8A22.5,22.5,0,0,1,140,317.3c-.36.29-1.31.91-2,1.52a2.26,2.26,0,0,0-.23.31l-.15.27a.73.73,0,0,0-.09-.39A1.65,1.65,0,0,0,136.4,318.31Z"/><path class="cls-26" d="M142.55,321.14a5.26,5.26,0,0,0-3.53-1.29,1.39,1.39,0,0,1-.61.11l-.08,0,.13-.09c1-.73,1.92-1.46,2.91-2.15a24.14,24.14,0,0,1,2.95-1.72c.34-.17,1.53-.85,1.84-.38s-.06,1.35-.19,1.83c-.28,1.05-.57,2.09-.91,3.11a24.62,24.62,0,0,1-.82,2.47A18.54,18.54,0,0,0,142.55,321.14Z"/><path class="cls-26" d="M149.12,316.18c-.09.17-.18.35-.26.52-.36.75-.67,1.53-1.08,2.25s-.95,1.65-1.49,2.43a13.13,13.13,0,0,1-.87,1.1c-.16.18-.33.35-.5.51s-.28.19-.39.29h0a18.17,18.17,0,0,0,1-3c.46-1.51,1.45-3.53,1.06-5.13-.23-.94-3.24.91-3.55,1.08-.71.41-1.37.84-2,1.31-.46.33-.91.68-1.36,1l-.81.61a1.51,1.51,0,0,1-1,.48c.84-.74,1.66-1.5,2.53-2.21a13.4,13.4,0,0,0,2.36-1.94c.07-.08.18-.25.09-.35-.6-.68-3.29.8-4,1.09-1,.4-2,.72-3,1.19-.45.22-.87.47-1.32.69-.14.07-.7.29-1.14.47h-.08a30.66,30.66,0,0,1,7.7-3.52c1.29-.45,3-.81,4-1.85,0,0,0,.06,0,.09a3.44,3.44,0,0,0,.55-1.18,33,33,0,0,0-.4-3.72,6.83,6.83,0,0,0-1-3.09l0-.09c-.43-1.11,1-2.41,2-2.67a1.79,1.79,0,0,1,1.84.55,1.67,1.67,0,0,1,.21.9,24.1,24.1,0,0,0-.61,5.48,7.94,7.94,0,0,0,.29,2.58,2.66,2.66,0,0,1,1.84,2.55A3.68,3.68,0,0,1,149.12,316.18Z"/><path class="cls-27" d="M144.07,323.55a10.28,10.28,0,0,1,.49-1.34,23.3,23.3,0,0,0,1.37-3.31,9.9,9.9,0,0,0,.58-2.84c-.09-2.25-3.5.05-4.37.7-1.4,1.06-2.62,2.33-3.95,3.48.34,0,.68-.05,1.06,0a5,5,0,0,1,2.61,1A18.78,18.78,0,0,1,144.07,323.55Z"/><path class="cls-27" d="M137.47,320.07a21.58,21.58,0,0,0,2.77-2.27c.43-.4.85-.83,1.29-1.21.22-.19.44-.37.64-.57s.83-.82.11-.79c-3.33.17-6.65,1.95-9.54,3.47a.15.15,0,0,1-.21-.05l-.14.14a1.1,1.1,0,0,0,.93.12,9.81,9.81,0,0,0,2-.11,2.89,2.89,0,0,1,1.6.37C137,319.25,137.29,319.89,137.47,320.07Z"/><path class="cls-27" d="M149.86,313.38a2.55,2.55,0,0,0-.85-1.25,2,2,0,0,1-.91-1.69,29.48,29.48,0,0,1,.16-5.46.51.51,0,0,0,.09-.12c.26-.82.34-2.09-.48-2.62a2.49,2.49,0,0,0-2.51.21,4.2,4.2,0,0,0-1.7,2,1.45,1.45,0,0,0-.06.41c-.11.07-.24.25-.2.33a10,10,0,0,1,.84,2.43,1.1,1.1,0,0,1,.14-.09,1.2,1.2,0,0,1,1.61.3c.73,1,.66,2.53.66,3.74,0,.19-.12,1,.12,1.06a3.43,3.43,0,0,1,.64.21,2.59,2.59,0,0,1,.92.72c1.46,2-.36,4.91-1.31,6.74-.28.56-.57,1.22-.9,1.89a16.57,16.57,0,0,0,2.58-4c.23-.56.52-1.12.73-1.69a7,7,0,0,0,.55-2.34A2.88,2.88,0,0,0,149.86,313.38Z"/><path class="cls-28" d="M165.16,313a2.88,2.88,0,0,0-1.26-1.23,2.31,2.31,0,0,1-1.44-1.73,34.62,34.62,0,0,1-1.09-6.28.4.4,0,0,0,.07-.16c.11-1-.1-2.47-1.16-2.89a2.9,2.9,0,0,0-2.82.84,4.92,4.92,0,0,0-1.48,2.66,2.57,2.57,0,0,0,0,.48c-.11.11-.2.35-.14.43,1.94,2.48,2.51,5.45,3.43,8.36-1.35,1.18-7.55,5-8.31,5.53a23.06,23.06,0,0,0-3.53,3.09,5,5,0,0,0-1,1.17,1.23,1.23,0,0,0,1.09-.09,10.8,10.8,0,0,0,2.26-.58,3.27,3.27,0,0,1,1.91.05c.18.06.69.89.92.93h.07a.3.3,0,0,0,.17,0,8.63,8.63,0,0,0,1.75-.32,6,6,0,0,1,3.22.53c1.24.52,2.07,1.57,3.19,2.24a.68.68,0,0,0,.14.31c.1.11.24.05.38,0,.15-.28,2.76-4.22,3.41-7.58.13-.7.33-1.4.44-2.11a8,8,0,0,0,.08-2.8A3,3,0,0,0,165.16,313Z"/><path class="cls-26" d="M150.92,321.79a6.72,6.72,0,0,0-2.52.77,28.29,28.29,0,0,1,2.94-2.18c.75-.46,1.48-.93,2.22-1.41.42-.27,2.6-1.73,3.4-1.65a30.56,30.56,0,0,1-2.17,2.48c-.34.42-1.29,1.34-1.9,2.2a3,3,0,0,0-.19.41,2,2,0,0,0-.1.34.8.8,0,0,0-.21-.42A1.86,1.86,0,0,0,150.92,321.79Z"/><path class="cls-26" d="M158.61,323.59a6.15,6.15,0,0,0-4.34-.65,1.66,1.66,0,0,1-.67.28l-.09,0a.74.74,0,0,0,.12-.13c.93-1.06,1.86-2.12,2.83-3.14a26.94,26.94,0,0,1,3-2.66c.34-.27,1.55-1.33,2-.86s.24,1.56.21,2.14c-.08,1.26-.17,2.52-.31,3.77a29.59,29.59,0,0,1-.37,3A20.33,20.33,0,0,0,158.61,323.59Z"/><path class="cls-26" d="M165,316.39c-.06.21-.12.43-.17.65-.24.94-.41,1.9-.72,2.83S163.39,322,163,323a13.33,13.33,0,0,1-.74,1.46c-.14.24-.29.48-.45.71a5.5,5.5,0,0,0-.37.42h0a22.84,22.84,0,0,0,.49-3.65c.17-1.84.83-4.37,0-6.11-.48-1-3.49,1.79-3.8,2.06a27.24,27.24,0,0,0-2,2c-.45.48-.87,1-1.31,1.48-.26.29-.53.58-.79.88a1.71,1.71,0,0,1-1.07.79c.8-1,1.56-2.1,2.38-3.11a16,16,0,0,0,2.26-2.77c0-.11.14-.33,0-.43-.85-.63-3.58,1.69-4.36,2.2-1.05.68-2.17,1.29-3.17,2.06-.46.35-.89.74-1.35,1.1-.14.11-.73.49-1.19.8l-.09,0a35.67,35.67,0,0,1,8-5.82c1.37-.82,3.24-1.64,4.12-3.06l0,.1a4.35,4.35,0,0,0,.36-1.47,42.15,42.15,0,0,0-1.33-4.17,8.07,8.07,0,0,0-1.85-3.3l0-.09c-.76-1.18.55-3,1.63-3.52a2.09,2.09,0,0,1,2.23.2,2,2,0,0,1,.45,1,27.62,27.62,0,0,0,.59,6.42,9.14,9.14,0,0,0,.92,2.89,3.09,3.09,0,0,1,2.71,2.47A4.36,4.36,0,0,1,165,316.39Z"/><path class="cls-27" d="M160.92,326a12.31,12.31,0,0,1,.24-1.65,24.82,24.82,0,0,0,.79-4.09,11,11,0,0,0,0-3.39c-.63-2.56-4,.87-4.83,1.81-1.36,1.55-2.46,3.29-3.72,4.91.4-.07.77-.21,1.21-.28a6,6,0,0,1,3.22.53C159,324.33,159.85,325.33,160.92,326Z"/><path class="cls-27" d="M152.55,323.55a23.36,23.36,0,0,0,2.64-3.24c.4-.56.78-1.14,1.2-1.69.2-.26.41-.52.59-.8.08-.12.76-1.13,0-.92-3.78,1-7.16,3.78-10.11,6.2a.18.18,0,0,1-.25,0,2.12,2.12,0,0,0-.12.2,1.23,1.23,0,0,0,1.09-.09,10.8,10.8,0,0,0,2.26-.58,3.27,3.27,0,0,1,1.91.05C151.87,322.72,152.3,323.39,152.55,323.55Z"/><path class="cls-27" d="M165.16,313a2.88,2.88,0,0,0-1.26-1.23,2.31,2.31,0,0,1-1.44-1.73,34.62,34.62,0,0,1-1.09-6.28.4.4,0,0,0,.07-.16c.11-1-.1-2.47-1.16-2.89a2.9,2.9,0,0,0-2.82.84,4.92,4.92,0,0,0-1.48,2.66,2.57,2.57,0,0,0,0,.48c-.11.11-.2.35-.14.43a12.49,12.49,0,0,1,1.52,2.57l.14-.13a1.42,1.42,0,0,1,1.92,0c1.07,1,1.34,2.74,1.62,4.12.05.22.1,1.17.39,1.19a4.05,4.05,0,0,1,.78.09,2.82,2.82,0,0,1,1.22.61c2.14,2,.74,5.7.08,8-.2.7-.37,1.53-.58,2.37a20.22,20.22,0,0,0,2-5.17c.13-.7.33-1.4.44-2.11a8,8,0,0,0,.08-2.8A3,3,0,0,0,165.16,313Z"/><path class="cls-29" d="M189.74,279.72c-.94-.21-2,.87-2.6,1.4l-.06.05a15.9,15.9,0,0,0,.8-3.4c.13-1.13-.16-3.17-1.64-1.81l-.69.69a.46.46,0,0,0-.05-.2c-.35-.65-1.67.37-2.9,1.53a32,32,0,0,0,2.42-4c.54-1.1.14-2.82-1.27-1.71a36.06,36.06,0,0,0-6.4,6.37,8,8,0,0,0,.48-2.36c0-1.42-.82-1.09-1.69-.36a17.14,17.14,0,0,0-3.29,4.64,17.93,17.93,0,0,0-2,4.16.19.19,0,0,0-.07.06l-1.38-1.17c-.61-.42-1.22-.85-1.81-1.3l-.55-.37.16.07c-1.75-1.35-3.46-2.74-5.26-4a64.68,64.68,0,0,0-10.11-5.5c-3.21-1.27-6.73-2.26-10.12-1.27a8,8,0,0,0-.82.28c-.64-1.92-.07-3.89.4-5.82.52-2.15,1.65-4,2.43-6.06a7.94,7.94,0,0,0,.18-6.26s0-.06,0-.1l0,0c.16.07.34-.25.37-.36a3.74,3.74,0,0,0-.55-2.61,1,1,0,0,0,.29-.48c-.22-7-7.21-11.2-13.54-11a12.35,12.35,0,0,0-8.36,4.26c-1.06,1.17-2.59,3.72-1.66,5.29a4.29,4.29,0,0,0-2.31,2.29l0,.05c-.71,1-1,2.16-2.22,2.87a20,20,0,0,1-2.39,1.13c-1.84.79-3.71,1.5-5.59,2.17-1.28.45-4.89.94-4.9,2.9,0,.95,1.19,1.14,1.88,1.34a25.46,25.46,0,0,0,3,.7c.53.16,1.06.33,1.6.45,1.41.33,2.87.49,4.31.69a39.1,39.1,0,0,0,8.3.53c2-.14,4.71-.23,6.43-1.47a1,1,0,0,0,.25-.25c0-.15,0-.3.07-.44a2.12,2.12,0,0,0,1.62,1.62,5.08,5.08,0,0,0,1.16.17c.32.17.53-.08.63,1.17a5.05,5.05,0,0,1-.14,1.48c0,2.23-1.24,4.39-2.82,6.31-1.07,1.48-2.24,2.92-3.2,4.46a16.19,16.19,0,0,0-1.58,2.33,14.16,14.16,0,0,0-1.6,6.93,8.68,8.68,0,0,0,2.24,5.41c.18.53.33,1.06.46,1.44a24.4,24.4,0,0,0,6.36,8.18,44.9,44.9,0,0,0,4.05,3.15c5.4,3.39,12,4.45,18.29,4.28s12.06-2.28,17.82-4.42a25.36,25.36,0,0,0,11.11-8.2,19.14,19.14,0,0,0,3.6-5.19c1.22-2.58,2.89-5.5,3.13-8.41C190,281.74,190.39,279.86,189.74,279.72Z"/><path class="cls-26" d="M128.49,260.44c0,1.55-1.7,1.68-2.85,1.94a26,26,0,0,1-7.26.32c-1.49-.09-3-.29-4.46-.5a32.85,32.85,0,0,0,7.53-.89c1.22-.31,2.45-1.1,3.68-.72a2.84,2.84,0,0,0,2.89-.52,2.73,2.73,0,0,0,.25-.23l.25.23Z"/><path class="cls-26" d="M127.26,259.9c-1,.34-2-.33-3-.32a9.8,9.8,0,0,0-2.51.93,27.18,27.18,0,0,1-7.88.93,31.25,31.25,0,0,1-8.06-.79c-.72-.17-3.57-1-1.41-2a33.36,33.36,0,0,1,4.22-1.45,38.64,38.64,0,0,0,6.21-2.56,7.86,7.86,0,0,0,2.17-1.43,1.44,1.44,0,0,0,.22-.27A8.72,8.72,0,0,1,119.2,250a3.62,3.62,0,0,1,.42-.36,1.46,1.46,0,0,1,2-.24l.18.17a2.34,2.34,0,0,1,.87,1.25c.23.46.44.94.71,1.39s.51.77.78,1.14a7.89,7.89,0,0,0,2.42,1.5,11.71,11.71,0,0,1,1.42.9C129.53,256.82,129,259.33,127.26,259.9Z"/><path class="cls-30" d="M103.87,259.82c.5-.8,1.94-1.21,2.69-1.42,2.41-.66,4.92-.95,7.26-1.84a6.82,6.82,0,0,0,3.62-2.68,23.4,23.4,0,0,1,1.94-2.88,2.38,2.38,0,0,1,2.5-1,2.41,2.41,0,0,1,.63.4,2.08,2.08,0,0,0-.69-.83l-.18-.17a1.46,1.46,0,0,0-2,.24,3.62,3.62,0,0,0-.42.36,8.72,8.72,0,0,0-1.93,2.95,1.44,1.44,0,0,1-.22.27,7.86,7.86,0,0,1-2.17,1.43,38.64,38.64,0,0,1-6.21,2.56,33.36,33.36,0,0,0-4.22,1.45C103.53,259.11,103.52,259.5,103.87,259.82Z"/><path class="cls-27" d="M128,255.78a11.71,11.71,0,0,0-1.42-.9,7.89,7.89,0,0,1-2.42-1.5c-.27-.37-.54-.74-.78-1.14s-.32-.58-.46-.87c0,.42,0,.86.08,1.27a2.53,2.53,0,0,0,1,2.2c.42.22.86.4,1.29.6.73.35,2.1.92,2.29,1.84s-.86,1.6-1.75,1.53c-1.92-.13-3.38-1.72-5.29-.47a19.33,19.33,0,0,1-5.28,2.38,23.6,23.6,0,0,1-3.54.71c.71,0,1.42,0,2.14,0a27.18,27.18,0,0,0,7.88-.93,9.8,9.8,0,0,1,2.51-.93c1,0,2,.66,3,.32C129,259.33,129.53,256.82,128,255.78Z"/><path class="cls-31" d="M188.72,284.45a30.68,30.68,0,0,1-6.81,12.12l-.06.09a26,26,0,0,1-3.54,3.15,32,32,0,0,1-8.75,4.28c-5.59,2-11.13,3.49-17.13,3.34a31.45,31.45,0,0,1-17.51-5.4,24.24,24.24,0,0,1-6.44-6,39.06,39.06,0,0,1-2.25-3.72l.55.49c.16.14.54-.34.4-.49-2.31-2.58-3.76-5.21-3.43-8.76.27-3,1.66-5.23,3.29-7.46.89-1.14,1.75-2.29,2.56-3.48l.36-.55c.52-.78,1-1.57,1.46-2.39a15.19,15.19,0,0,0,1.54-5,2.58,2.58,0,0,0-.1-1.65,6.15,6.15,0,0,0,2.32-1,8.33,8.33,0,0,1-2.86.16,10.12,10.12,0,0,1-1.31-.15c-1.67-.32-1.67-2.15-1.85-3.53.64-1.42.05-2.89-1.68-3.93-.63-.38-1.28-.68-1.91-1a4.4,4.4,0,0,1-1.64-2.42,4.72,4.72,0,0,0-2.53-2.76l-.17,0c-2-2.56,2.38-6.3,4.38-7.4a11.82,11.82,0,0,1,8.64-.82,12.26,12.26,0,0,1,9,9,2.75,2.75,0,0,0-.62-.28h-.07a7,7,0,0,1,.24,1.08,5.63,5.63,0,0,1,1.08,2.6,3.19,3.19,0,0,1-.51-.47,5.41,5.41,0,0,0-.46-.64,10.14,10.14,0,0,1-.35,7.8.22.22,0,0,0,.07-.09,10,10,0,0,0,1.08-2.4c0,2.15-1.22,4.23-2.11,6.11a21.39,21.39,0,0,0-1.59,5.66,4.57,4.57,0,0,0,.19,3.23,3.6,3.6,0,0,0-2,1.79,5.81,5.81,0,0,1,3.59-1.79,8.5,8.5,0,0,1,.87-.07,10.09,10.09,0,0,1,3.82.25,36.08,36.08,0,0,1,8.59,3.18,41,41,0,0,1,6.41,3.5,41.69,41.69,0,0,1,6.6,5.16c.86.65,1.7,1.36,2.51,2.1a.06.06,0,0,0,.07.05c.13.12.24.24.37.35,1.3,1.12,2.57,2.28,3.78,3.52a.35.35,0,0,1,.1.25,8.49,8.49,0,0,1,.9,1.07c.5.72.3.71-.53.7a20.85,20.85,0,0,1-4.7-.75c-.88-.22-1.75-.48-2.62-.76-1.11-.28-2.21-.58-3.3-1l.56.28c1.69.9,3.24,2,4.87,3,.86.53,2.35,1.88.59,2.32a11.42,11.42,0,0,1-3.55-.07c-1.75-.18-3.5-.42-5.22-.75a48.63,48.63,0,0,1-8.43-2.12c2,1.42,5,2.14,7.22,2.61a41.14,41.14,0,0,0,7.05.82,13.42,13.42,0,0,1-2.34.59,30.62,30.62,0,0,1-3.58.26,28,28,0,0,1-6.6-.46,36.36,36.36,0,0,1-3.57-.86h-.07a15.26,15.26,0,0,1-4.63-1.91,27.12,27.12,0,0,1-3.54-2.39,10.88,10.88,0,0,0,.68.95c.44.64.88,1.27,1.37,1.88.07.1.16.19.24.29l-.67-.38a14.3,14.3,0,0,1-4.72-3.93,10.19,10.19,0,0,1-2.2-3.23.67.67,0,0,0-.21.4c0,.54.18,1,.28,1.58a7.81,7.81,0,0,0,.26.86,16.42,16.42,0,0,1-1.17-2.45,9,9,0,0,1-.53-2,11.78,11.78,0,0,0,0,1.45,9.55,9.55,0,0,0,1.22,3.89,4.67,4.67,0,0,0,.44.45c.28.27.78-.4.84-.6a2.51,2.51,0,0,0,0-.27,13.81,13.81,0,0,0,3.65,3.62c.75.52,3.45,2.76,4.28,1.6.08-.11.24-.33.11-.47l0,0a25.44,25.44,0,0,0,10.89,2.85,28.14,28.14,0,0,0,9.1-.79,3.68,3.68,0,0,0,1.58-.91c.57,0,1.14,0,1.7,0,.73,0,2.58-.71,1.76-1.76a9.72,9.72,0,0,0-2-1.83c3.57.93,6.71,1.22,6.61-.4-.07-1.24-1.51-2.42-2.35-3.19-1.13-1-2.24-2.08-3.38-3.1.74-2.78,2.42-5.12,4-7.48.51-.76,2-2.16,1.76-.48a17.52,17.52,0,0,1-.5,2,10.73,10.73,0,0,1-.45,1.19c-.35.55-.66,1.11-1,1.68l.82-.83,1-1.05.24-.37a29.5,29.5,0,0,1,4.16-5,14.1,14.1,0,0,1,2.23-1.77c1.82-1.19-.15,2.73-.28,3-.9,1.58-2.13,3-3.17,4.45a1,1,0,0,0-.09.17,18,18,0,0,1,3-2.58,3.94,3.94,0,0,1,1.15-.74c.6-.23.6,0,.42.28l-.22.26a.34.34,0,0,1,0,.14,8.22,8.22,0,0,1-.33.87,8.39,8.39,0,0,1,2.87-2.68c.22-.09.46.14.46.36a7.57,7.57,0,0,1-.11,1.14,15.94,15.94,0,0,1-.35,2.07,1.6,1.6,0,0,1-.05.21,20.92,20.92,0,0,1-2.08,5.59c-.35.69-.67,1.46-1,2.21a36.56,36.56,0,0,0,2-3.55c.37-.7.7-1.39,1-2.1,1-.81,2.48-2,2.64-1A8.4,8.4,0,0,1,188.72,284.45Z"/><path class="cls-32" d="M130.22,291.84c-1.12.19-2.29-.92-3-1.66a5.49,5.49,0,0,1-1.47-3.87c0-.18-.2,0-.22.11a5.47,5.47,0,0,0,1.16,4.42c.69.91,2.24,2.26,3.39,1.46C130.18,292.24,130.49,291.8,130.22,291.84Z"/><path class="cls-33" d="M132.18,290.62a3.6,3.6,0,0,1-2.27-1,5.84,5.84,0,0,1-2-2.19c0-.1-.25.13-.22.21a5.66,5.66,0,0,0,2.25,2.82c.57.45,1.59,1.06,2.23.47C132.19,290.88,132.37,290.59,132.18,290.62Z"/><path class="cls-34" d="M133.63,289.55c-1.09-.34-2.43-.44-3-1.54-.07-.11-.28.13-.24.23a3.43,3.43,0,0,0,3,1.73C133.5,290,133.83,289.61,133.63,289.55Z"/><path class="cls-35" d="M119.66,253.07a.35.35,0,0,0-.18-.32,1.21,1.21,0,0,0-.21-.24c-.07-.07-.19.13-.21.18a1.09,1.09,0,0,0,0,.44.94.94,0,0,0-.1.28c0,.21,0,.14,0,.32a1.25,1.25,0,0,0-.13.76c0,.11.18.08.25,0a1.38,1.38,0,0,0,.7-1.07A1,1,0,0,0,119.66,253.07Z"/><path class="cls-36" d="M133.2,253.62a5.06,5.06,0,0,0-2.7-1.27h-.24a6.47,6.47,0,0,0-3.14.7l0,0A17.7,17.7,0,0,1,133.2,253.62Z"/><path class="cls-37" d="M189.3,281.28c-.16-1-1.69.16-2.64,1-.29.71-.62,1.4-1,2.1a36.56,36.56,0,0,1-2,3.55c.35-.75.67-1.52,1-2.21a20.92,20.92,0,0,0,2.08-5.59,1.6,1.6,0,0,0,.05-.21,15.94,15.94,0,0,0,.35-2.07,7.57,7.57,0,0,0,.11-1.14c0-.22-.24-.45-.46-.36A8.39,8.39,0,0,0,184,279a8.22,8.22,0,0,0,.33-.87.34.34,0,0,0,0-.14l.22-.26c.18-.32.18-.51-.42-.28a3.94,3.94,0,0,0-1.15.74,18,18,0,0,0-3,2.58,1,1,0,0,1,.09-.17c1-1.48,2.27-2.87,3.17-4.45.13-.24,2.1-4.16.28-3a14.1,14.1,0,0,0-2.23,1.77,29.5,29.5,0,0,0-4.16,5c-.08.11-.15.23-.22.34.34-.46.68-.92,1-1.36,1.13-1.41,2.52-3.61,4.46-3.92a.19.19,0,0,1,.23.13,3,3,0,0,1-.66,2c-.56.87-1.21,1.66-1.85,2.47s-1.3,1.76-2,2.62a11.85,11.85,0,0,0-2,3c1.22-1,2.21-2.38,3.36-3.49a9.76,9.76,0,0,1,3-2.38c.85-.3,1.55.06,1.07,1-.26.49-.55,1-.85,1.43a3.93,3.93,0,0,1,2.27-1.42.19.19,0,0,1,.24.18c-.17,2.29-2,3.88-3.1,5.74a31,31,0,0,1-2.33,3.66c-.27.34-.7,1-1.19,1s-.78-.63-1-1a8.53,8.53,0,0,0-3-2.69,20.84,20.84,0,0,0-2.38-1l2.31,2.12c.84.77,2.28,1.95,2.35,3.19.1,1.62-3,1.33-6.61.4a9.72,9.72,0,0,1,2,1.83c.82,1.05-1,1.73-1.76,1.76-.56,0-1.13,0-1.7,0a3.68,3.68,0,0,1-1.58.91,28.14,28.14,0,0,1-9.1.79,25.44,25.44,0,0,1-10.89-2.85l0,0c.13.14,0,.36-.11.47-.83,1.16-3.53-1.08-4.28-1.6a13.81,13.81,0,0,1-3.65-3.62,2.51,2.51,0,0,1,0,.27c-.06.2-.56.87-.84.6a4.67,4.67,0,0,1-.44-.45,9.55,9.55,0,0,1-1.22-3.89,11.78,11.78,0,0,1,0-1.45,9,9,0,0,0,.53,2,16.42,16.42,0,0,0,1.17,2.45,7.81,7.81,0,0,1-.26-.86c-.1-.54-.23-1-.28-1.58a.67.67,0,0,1,.21-.4,10.19,10.19,0,0,0,2.2,3.23,14.3,14.3,0,0,0,4.72,3.93l.67.38c-.08-.1-.17-.19-.24-.29-.49-.61-.93-1.24-1.37-1.88a10,10,0,0,1-.61-.84c-.33-.2-.64-.4-.95-.63a9.15,9.15,0,0,1-2.55-3h0l-.29-.46a11.57,11.57,0,0,1-1.7-3.74,5.73,5.73,0,0,1,3.34-6.85c6.07-2.86,13.47,1.07,18.1,5a.19.19,0,0,1-.13.32,22.79,22.79,0,0,1-3.47-.74c.73.45,1.44.93,2.14,1.44,2.7,2,5.76,3.55,8,6.05.1.11,0,.34-.13.32a31.76,31.76,0,0,1-8.09-2.33c1.68,1.16,3.38,2.26,5.12,3.35,1,.63,2.44,1.45,2.94,2.6.41,1,0,1.16-.9,1.27a18.69,18.69,0,0,1-5.52-.48,29,29,0,0,1-5.64-1.5,23,23,0,0,1-3.71-1.91,18.34,18.34,0,0,0,5.75,4.8c.2.11.05.37-.14.34a20.58,20.58,0,0,1-11.85-5.81,40,40,0,0,0,2.5,3.17c.13.15,0,.41-.23.29-.78-.51-1.63-.93-2.44-1.4a32.07,32.07,0,0,0,3.28,2.17,15.26,15.26,0,0,0,4.63,1.91h.07a36.36,36.36,0,0,0,3.57.86,28,28,0,0,0,6.6.46,30.62,30.62,0,0,0,3.58-.26,13.42,13.42,0,0,0,2.34-.59,41.14,41.14,0,0,1-7.05-.82c-2.22-.47-5.26-1.19-7.22-2.61a48.63,48.63,0,0,0,8.43,2.12c1.72.33,3.47.57,5.22.75a11.42,11.42,0,0,0,3.55.07c1.76-.44.27-1.79-.59-2.32-1.63-1-3.18-2.11-4.87-3l-.56-.28c1.09.37,2.19.67,3.3,1,.87.28,1.74.54,2.62.76a20.85,20.85,0,0,0,4.7.75c.83,0,1,0,.53-.7a8.49,8.49,0,0,0-.9-1.07.35.35,0,0,0-.1-.25c-1.21-1.24-2.48-2.4-3.78-3.52-.13-.11-.24-.23-.37-.35a.06.06,0,0,1-.07-.05c-.81-.74-1.65-1.45-2.51-2.1a41.69,41.69,0,0,0-6.6-5.16,41,41,0,0,0-6.41-3.5,36.08,36.08,0,0,0-8.59-3.18,10.09,10.09,0,0,0-3.82-.25,8.5,8.5,0,0,0-.87.07,5.81,5.81,0,0,0-3.59,1.79,3.6,3.6,0,0,1,2-1.79,4.57,4.57,0,0,1-.19-3.23,21.39,21.39,0,0,1,1.59-5.66c.89-1.88,2.09-4,2.11-6.11a10,10,0,0,1-1.08,2.4.22.22,0,0,1-.07.09,10.14,10.14,0,0,0,.35-7.8,5.41,5.41,0,0,1,.46.64,3.19,3.19,0,0,0,.51.47,5.63,5.63,0,0,0-1.08-2.6,7,7,0,0,0-.24-1.08h.07a2.75,2.75,0,0,1,.62.28,12.14,12.14,0,0,0-7.55-8.55c3.52,2.09,5.43,6.67,4.94,10.7,0,.14-.2.28-.31.13a7.77,7.77,0,0,0-2.42-2.39,9.14,9.14,0,0,1,2.12,5,.19.19,0,0,1-.32.13c-.6-.67-1.07-1.44-1.68-2.07a5,5,0,0,1,.18,6c-1.21,1.67-3.87,3.07-5.89,2a3.58,3.58,0,0,1-1.94-2.5c-.27-1.16-.3-2.85-1.44-3.56a9.15,9.15,0,0,0-2.79-.75,5.4,5.4,0,0,1-1.53-.62,2.44,2.44,0,0,0,.92.91c.63.36,1.28.66,1.91,1,1.73,1,2.32,2.51,1.68,3.93.18,1.38.18,3.21,1.85,3.53a10.12,10.12,0,0,0,1.31.15,8.33,8.33,0,0,0,2.86-.16,6.15,6.15,0,0,1-2.32,1,1.72,1.72,0,0,1,.17.82l.3-.23c1.22-.82,3.11-1,4.06.38,1.29,1.84.19,4.39-.48,6.25a36.26,36.26,0,0,0-1.11,3.82,9.45,9.45,0,0,0-.36,4.05.19.19,0,0,1-.31.18c-.75-.7-.71-1.74-.85-2.7-.81,2.23-.46,4.75,0,7,.23,1.17.51,2.33.75,3.5a7.7,7.7,0,0,1,.29,2.24,1.54,1.54,0,0,1-2.48,1.19c-1.23-.73-1.93-2.16-3.09-3,.37,1.34,1.65,2.2,2.13,3.51,0,.11-.06.23-.18.23a6.25,6.25,0,0,1-4.61-2,19,19,0,0,0,1.15,2.92.19.19,0,0,1-.26.26,14.09,14.09,0,0,1-3-2.27,17,17,0,0,0,2.25,3.08c.14.15-.24.63-.4.49l-.55-.49a39.06,39.06,0,0,0,2.25,3.72,24.24,24.24,0,0,0,6.44,6,31.45,31.45,0,0,0,17.51,5.4c6,.15,11.54-1.34,17.13-3.34a32,32,0,0,0,8.75-4.28,26,26,0,0,0,3.54-3.15l.06-.09a30.68,30.68,0,0,0,6.81-12.12A8.4,8.4,0,0,0,189.3,281.28Z"/><path class="cls-38" d="M131.06,250.84c0,1.07-.65,1.94-1.46,1.94s-1.45-.87-1.45-1.94.65-2,1.45-2S131.06,249.76,131.06,250.84Z"/><path class="cls-31" d="M129.6,250.08c0,.32-.2.59-.44.59s-.44-.27-.44-.59.2-.59.44-.59S129.6,249.75,129.6,250.08Z"/><path class="cls-39" d="M121,135.26c2.67-.57,10,2.36,13.46,2.35-.06,6.74-.5,13.24-.68,25.67-.35,23.26-2.77,7.63-2.77,34.89l.31,207.14c0,.55,0,12.05,0,12.55-17.17,4-30.45-2.86-36.23-10.37l.58-207.15c0-27.26,24.63-21.73,25-35C120.94,153.52,120.89,141.92,121,135.26Z"/><path class="cls-40" d="M119,133.26c2.67-.57,10,2.36,13.46,2.35-.06,6.74-.5,13.24-.68,25.67-.35,23.26-2.77,7.63-2.77,34.89l.31,207.14c0,.55,0,12.05,0,12.55-17.17,4-30.45-2.86-36.23-10.37l.58-207.15c0-27.26,24.63-21.73,25-35C118.94,151.52,118.89,139.92,119,133.26Z"/><path class="cls-41" d="M128.43,133.26c2.66-.57,10,2.36,13.45,2.35-.06,6.74-.5,13.24-.68,25.67-.35,23.26-2.76,7.63-2.76,34.89l.3,207.14c0,.55,0,12.05,0,12.55-17.17,4-30.45-2.86-36.23-10.37l.58-207.15c0-27.26,24.64-21.73,25-35C128.39,151.52,128.34,139.92,128.43,133.26Z"/><path class="cls-42" d="M167.67,133.26c-2.67-.57-10,2.36-13.46,2.35.06,6.74.5,13.24.68,25.67.35,23.26,20.53,7.63,20.53,34.89l-.31,207.14c0,.55-1.77,14.85-17.77,17.8,17.17,4,30.45-8.11,36.23-15.62L193,198.34c0-27.26-24.63-21.73-25-35C167.7,151.52,167.75,139.92,167.67,133.26Z"/><path class="cls-43" d="M170.32,133.26c-2.66-.57-10,2.36-13.45,2.35.06,6.74.5,13.24.68,25.67.35,23.26,20.53,7.63,20.53,34.89l-.31,207.14c0,.55-1.77,14.85-17.77,17.8,17.17,4,30.45-8.11,36.23-15.62l-.58-207.15c0-27.26-24.64-21.73-25-35C170.36,151.52,170.41,139.92,170.32,133.26Z"/><g class="cls-44"><path class="cls-11" d="M105.42,396.16c-5.16-.1-5.92,1.11-6.49,5.61-1.87,14.94,20.92,12.86,28.64,13.63a13.88,13.88,0,0,0,4.41,0,5.62,5.62,0,0,0,3.72-2.67,7.13,7.13,0,0,0,.37-5.37C132,393.47,116.24,396.37,105.42,396.16Z"/><path class="cls-45" d="M105.55,396.45c-5-.1-5.78,1.07-6.33,5.46C97.43,416.18,119,414.25,126.43,415a17.66,17.66,0,0,0,5.09-.07,5.77,5.77,0,0,0,3.58-2.91,6.54,6.54,0,0,0,.16-5.12C130.78,393.83,115.89,396.65,105.55,396.45Z"/><path class="cls-46" d="M105.68,396.73c-4.9-.1-5.63,1-6.17,5.31-1.7,13.61,18.64,11.83,25.79,12.64a21.3,21.3,0,0,0,5.77-.1,5.83,5.83,0,0,0,3.38-8C129.63,394.2,115.55,396.92,105.68,396.73Z"/><path class="cls-47" d="M105.81,397c-4.77-.09-5.49,1-6,5.17-1.62,12.94,17.5,11.31,24.37,12.15a26.47,26.47,0,0,0,6.45-.13c1.32-.33,2.54-1.9,3.28-3.36a5.54,5.54,0,0,0-.26-4.64C128.49,394.57,115.2,397.2,105.81,397Z"/><path class="cls-48" d="M105.94,397.29c-4.65-.09-5.34,1-5.84,5C98.56,414.59,116.45,413.12,123,414a30.52,30.52,0,0,0,7.14-.16c1.27-.32,2.42-2.13,3.13-3.59a5,5,0,0,0-.48-4.39C127.37,395,114.85,397.47,105.94,397.29Z"/><path class="cls-49" d="M106.07,397.58c-4.52-.09-5.19,1-5.68,4.87-1.46,11.61,15.2,10.31,21.51,11.16a35.07,35.07,0,0,0,7.81-.18c1.23-.33,2.31-2.37,3-3.82.59-1.26.1-2.76-.69-4.15C126.27,395.33,114.51,397.74,106.07,397.58Z"/><path class="cls-50" d="M106.2,397.86c-4.39-.09-5,.93-5.52,4.73-1.37,10.94,14.06,9.81,20.09,10.67a39.83,39.83,0,0,0,8.49-.22c1.19-.32,2.18-2.59,2.84-4,.54-1.19,0-2.59-.9-3.91C125.2,395.71,114.16,398,106.2,397.86Z"/><path class="cls-51" d="M106.33,398.14c-4.27-.08-4.9.9-5.36,4.59C99.68,413,113.89,412,119.63,412.9a45.57,45.57,0,0,0,9.18-.24c1.14-.33,2.06-2.83,2.69-4.28.49-1.12-.2-2.4-1.11-3.67C124.16,396.09,113.82,398.29,106.33,398.14Z"/><path class="cls-52" d="M106.46,398.43c-4.14-.09-4.75.87-5.2,4.43-1.21,9.61,11.77,8.83,17.24,9.68a49.86,49.86,0,0,0,9.86-.27c1.09-.32,1.94-3,2.54-4.5.44-1-.35-2.23-1.33-3.43C123.14,396.46,113.47,398.57,106.46,398.43Z"/><path class="cls-53" d="M106.59,398.71c-4-.08-4.61.84-5,4.29-1.12,8.94,10.63,8.35,15.82,9.19a55.81,55.81,0,0,0,10.54-.3c1-.33,1.81-3.29,2.39-4.73.39-1-.49-2.05-1.54-3.19C122.15,396.82,113.13,398.84,106.59,398.71Z"/><path class="cls-54" d="M106.72,399c-3.88-.08-4.46.81-4.88,4.15-1,8.27,9.48,7.86,14.39,8.69a60.13,60.13,0,0,0,11.22-.33c1-.32,1.7-3.51,2.25-5,.34-.9-.63-1.87-1.75-2.94C121.18,397.17,112.78,399.12,106.72,399Z"/><path class="cls-55" d="M106.85,399.28c-3.76-.08-4.31.78-4.72,4-.95,7.61,8.34,7.39,13,8.2a65.52,65.52,0,0,0,11.9-.35c1-.32,1.58-3.74,2.1-5.19.3-.83-.76-1.7-2-2.7C120.24,397.5,112.43,399.39,106.85,399.28Z"/><path class="cls-56" d="M107,399.56c-3.63-.08-4.17.75-4.56,3.85-.87,6.94,7.19,6.91,11.55,7.71a69.91,69.91,0,0,0,12.58-.39c.91-.32,1.46-4,2-5.41.25-.76-.89-1.54-2.18-2.46C119.32,397.8,112.09,399.66,107,399.56Z"/><path class="cls-57" d="M107.11,399.84c-3.5-.07-4,.72-4.4,3.71-.78,6.27,6,6.43,10.12,7.21,2.14.41,12.33-.07,13.27-.42s1.34-4.18,1.8-5.64c.21-.68-1-1.37-2.39-2.21C118.41,398.08,111.74,399.94,107.11,399.84Z"/><path class="cls-58" d="M107.24,400.13c-3.38-.08-3.88.69-4.24,3.55-.7,5.61,4.9,6,8.7,6.72,2.19.44,13-.1,13.94-.44s1.24-4.41,1.66-5.87c.17-.61-1.15-1.21-2.6-2C117.5,398.33,111.4,400.21,107.24,400.13Z"/><path class="cls-59" d="M107.37,400.41c-3.25-.07-3.73.66-4.07,3.41-.62,4.95,3.74,5.5,7.27,6.23,2.24.46,13.77-.13,14.62-.48s1.13-4.62,1.51-6.09c.14-.54-1.28-1.06-2.82-1.74C116.59,398.56,111.05,400.49,107.37,400.41Z"/><path class="cls-60" d="M107.5,400.69c-3.12-.07-3.58.63-3.91,3.27-.54,4.28,2.59,5,5.84,5.73,2.29.49,14.5-.16,15.31-.5s1-4.85,1.36-6.33c.1-.45-1.4-.91-3-1.49C115.68,398.76,110.71,400.76,107.5,400.69Z"/><path class="cls-61" d="M107.63,401c-3-.06-3.44.61-3.75,3.12-.46,3.62,1.44,4.57,4.42,5.24,2.34.53,15.21-.18,16-.53s.94-5.06,1.21-6.55c.07-.38-1.53-.78-3.24-1.25C114.75,398.93,110.36,401,107.63,401Z"/><path class="cls-62" d="M107.76,401.26c-2.87-.07-3.29.57-3.59,3-.37,2.95.29,4.1,3,4.75,2.38.57,15.93-.21,16.67-.56s.87-5.28,1.06-6.78c0-.31-1.66-.65-3.45-1C113.8,399.09,110,401.31,107.76,401.26Z"/><path class="cls-63" d="M107.89,401.54c-2.74-.07-3.14.55-3.43,2.83s-.86,3.63,1.57,4.25,16.66-.23,17.35-.59.85-5.5.92-7c0-.24-1.8-.53-3.67-.77C112.83,399.24,109.67,401.58,107.89,401.54Z"/></g><path class="cls-64" d="M175,156.08V143.73H116.86v12.68H117c1,1.1,13.59,2,29,2,16.08,0,29.11-.94,29.11-2.1C175.1,156.21,175.05,156.15,175,156.08Z"/><path class="cls-64" d="M175,155.46V143.11H116.86v12.68H117c1,1.1,13.59,2,29,2,16.08,0,29.11-.94,29.11-2.1A.27.27,0,0,0,175,155.46Z"/><path class="cls-64" d="M175,155V142.67H116.86v12.68H117c1,1.1,13.59,2,29,2,16.08,0,29.11-.94,29.11-2.1A.27.27,0,0,0,175,155Z"/><path class="cls-65" d="M175,154.74V142.39H116.86v12.68H117c1,1.1,13.59,2,29,2,16.08,0,29.11-.94,29.11-2.1A.27.27,0,0,0,175,154.74Z"/><g class="cls-66"><path class="cls-11" d="M123.22,159c-2.94.1-2.87.62-2.87,1.4s-.69,7,.18,7.41c2.94,1.47,23,1.23,23.73,1.08s.48-8.93.35-9.45a35.93,35.93,0,0,0-4-.1C132.08,159.31,125.13,158.92,123.22,159Z"/><path class="cls-67" d="M123.37,159.08c-2.87.1-2.81.61-2.81,1.44s-.67,6.73.23,7.16c2.87,1.38,22.49,1.19,23.17,1s.46-8.66.33-9.2a35.42,35.42,0,0,0-3.93-.11C132.07,159.39,125.23,159,123.37,159.08Z"/><path class="cls-68" d="M123.52,159.17c-2.8.11-2.76.62-2.76,1.48s-.63,6.49.29,6.92c2.8,1.29,22,1.15,22.61,1s.44-8.4.31-9a30.06,30.06,0,0,0-3.83-.12C132.06,159.47,125.33,159.11,123.52,159.17Z"/><path class="cls-69" d="M123.66,159.27c-2.72.11-2.69.62-2.69,1.52s-.61,6.25.34,6.67c2.72,1.21,21.41,1.11,22.05.94s.42-8.12.3-8.71a25.06,25.06,0,0,0-3.73-.12C132.06,159.55,125.43,159.2,123.66,159.27Z"/><path class="cls-70" d="M123.81,159.36c-2.65.12-2.64.62-2.64,1.57s-.58,6,.4,6.42c2.65,1.13,20.87,1.07,21.49.89s.4-7.85.28-8.47a25.32,25.32,0,0,0-3.63-.12C132.05,159.63,125.53,159.29,123.81,159.36Z"/><path class="cls-71" d="M124,159.46c-2.59.12-2.58.62-2.58,1.61s-.56,5.76.45,6.17c2.57,1.06,20.32,1,20.93.85s.38-7.58.26-8.23a21.61,21.61,0,0,0-3.53-.13C132,159.71,125.63,159.38,124,159.46Z"/><path class="cls-72" d="M124.1,159.56c-2.51.12-2.52.62-2.52,1.64s-.53,5.53.51,5.94c2.5,1,19.78,1,20.37.79s.36-7.31.25-8a21.23,21.23,0,0,0-3.43-.14C132,159.79,125.73,159.48,124.1,159.56Z"/><path class="cls-73" d="M124.25,159.65c-2.44.13-2.46.62-2.46,1.69s-.51,5.29.56,5.69c2.42.9,19.24.94,19.81.74s.34-7,.23-7.73a18.32,18.32,0,0,0-3.33-.15C132,159.88,125.83,159.57,124.25,159.65Z"/><path class="cls-74" d="M124.4,159.75c-2.37.13-2.41.62-2.41,1.73s-.48,5.05.62,5.44c2.34.84,18.7.91,19.25.69s.32-6.76.21-7.49a16.68,16.68,0,0,0-3.23-.14C132,160,125.93,159.66,124.4,159.75Z"/><path class="cls-75" d="M124.54,159.84c-2.29.14-2.34.63-2.34,1.78s-.46,4.81.66,5.19c2.26.77,18.16.87,18.7.65s.3-6.49.2-7.25a15.39,15.39,0,0,0-3.14-.15C132,160,126,159.75,124.54,159.84Z"/><path class="cls-76" d="M124.69,159.94c-2.22.14-2.28.62-2.28,1.82s-.44,4.57.71,4.94c2.18.71,17.62.83,18.15.6s.27-6.22.17-7a13.94,13.94,0,0,0-3-.16C132,160.12,126.13,159.85,124.69,159.94Z"/><path class="cls-77" d="M124.84,160c-2.15.15-2.23.63-2.23,1.86s-.41,4.34.77,4.7c2.1.65,17.08.79,17.59.55s.25-5.95.15-6.75a12.11,12.11,0,0,0-2.93-.17C132,160.2,126.23,159.94,124.84,160Z"/><path class="cls-78" d="M125,160.13c-2.07.15-2.16.63-2.16,1.9s-.39,4.11.82,4.46c2,.58,16.54.74,17,.5s.23-5.68.14-6.52a11.75,11.75,0,0,0-2.84-.16C132,160.28,126.33,160,125,160.13Z"/><path class="cls-79" d="M125.13,160.23c-2,.15-2.11.62-2.11,1.94s-.36,3.87.88,4.21c1.93.52,16,.7,16.47.45s.21-5.41.12-6.27a10.09,10.09,0,0,0-2.74-.17C132,160.36,126.43,160.12,125.13,160.23Z"/><path class="cls-80" d="M125.28,160.32c-1.93.16-2,.63-2,2s-.34,3.64.93,4c1.85.46,15.45.66,15.91.4s.19-5.13.1-6a9.13,9.13,0,0,0-2.63-.18C132,160.45,126.53,160.22,125.28,160.32Z"/><path class="cls-81" d="M125.42,160.42c-1.85.16-2,.63-2,2s-.31,3.42,1,3.72a122.6,122.6,0,0,0,15.35.36c.37-.23.17-4.87.09-5.78a8.42,8.42,0,0,0-2.54-.19C132,160.53,126.63,160.31,125.42,160.42Z"/><path class="cls-82" d="M125.57,160.51c-1.78.17-1.93.63-1.93,2.07s-.3,3.19,1,3.47c1.68.36,14.37.58,14.79.31s.15-4.59.07-5.53a7.27,7.27,0,0,0-2.44-.2C132,160.61,126.73,160.4,125.57,160.51Z"/><path class="cls-83" d="M125.72,160.61c-1.72.18-1.87.63-1.87,2.11s-.28,3,1.09,3.22c1.59.31,13.83.54,14.23.26s.13-4.32.05-5.29a6.52,6.52,0,0,0-2.34-.19C131.94,160.69,126.82,160.49,125.72,160.61Z"/><path class="cls-84" d="M125.86,160.7c-1.64.19-1.81.64-1.81,2.16s-.25,2.74,1.15,3,13.28.49,13.67.21.11-4.06,0-5.05a5.92,5.92,0,0,0-2.24-.2C131.94,160.77,126.92,160.59,125.86,160.7Z"/><path class="cls-63" d="M126,160.8c-1.57.19-1.75.63-1.75,2.19s-.23,2.53,1.2,2.74,12.74.45,13.11.16.09-3.78,0-4.8c0-.16-1.06-.2-2.14-.21C131.93,160.85,127,160.68,126,160.8Z"/></g><path class="cls-65" d="M185.13,138.74c0,2-17.53,3.58-39.15,3.58s-39.14-1.6-39.14-3.58,17.52-3.59,39.14-3.59S185.13,136.76,185.13,138.74Z"/><path class="cls-85" d="M179.52,153.22H112.45s3.94-14.87,4.62-19.82c1.21-8.81,3-35.24,3-35.24h51.91s1.71,26.21,2.91,34.94C175.55,138.13,179.52,153.22,179.52,153.22Z"/><ellipse class="cls-65" cx="145.98" cy="98.22" rx="25.95" ry="2.52"/><path class="cls-86" d="M171,97.55c-3,1.07-13.07,1.86-25,1.86s-22-.79-25-1.86c-.6.21-.92.44-.92.67,0,1.39,11.62,2.52,25.95,2.52s26-1.13,26-2.52C171.94,98,171.61,97.76,171,97.55Z"/><path class="cls-86" d="M171,98.55c-3,1.07-13.07,1.86-25,1.86s-22-.79-25-1.86c-.6.22-.92.44-.92.67,0,1.39,11.62,2.52,25.95,2.52s26-1.13,26-2.52C171.94,99,171.61,98.77,171,98.55Z"/><path class="cls-87" d="M182.41,137.43c-5.7,1.34-19.84,2.28-36.43,2.28s-30.73-.94-36.43-2.28c-1.73.41-2.71.85-2.71,1.31,0,2,17.52,3.58,39.14,3.58s39.15-1.6,39.15-3.58C185.13,138.28,184.14,137.84,182.41,137.43Z"/><path class="cls-88" d="M146.19,121.48c11.6-.83,21.71-2.12,27.2-3.37l-.06-.85c-5.51,1.24-15.58,2.53-27.14,3.35-11.94.85-22.37,1-27.88.49,0,.28,0,.57-.07.86C123.72,122.47,134.2,122.33,146.19,121.48Zm0-11a218.88,218.88,0,0,0,26.38-3.18l-.06-.85a223.54,223.54,0,0,1-26.32,3.17,215.38,215.38,0,0,1-27,.56c0,.29,0,.56-.06.86A212.57,212.57,0,0,0,146.19,110.43Zm28.09,17.64c-5.24,1.31-15.83,2.71-28.09,3.58-12.77.91-23.81,1-28.94.38,0,.29-.08.58-.11.85,5.09.65,16.2.55,29.05-.36,12.33-.88,23-2.28,28.17-3.6C174.34,128.65,174.31,128.36,174.28,128.07Z"/><path class="cls-89" d="M146.19,109.68c17.57-1.25,31.71-3.57,31.6-5.18,0-.53-1.65-.92-4.4-1.15-5.49,1.25-15.58,2.54-27.2,3.37s-22,1-27.62.51c-2.81.64-4.43,1.26-4.39,1.81C114.29,110.64,128.62,110.93,146.19,109.68Zm27.2,4.71c-5.49,1.25-15.58,2.54-27.2,3.37s-22,1-27.62.51c-2.81.64-4.43,1.26-4.39,1.81.11,1.61,14.44,1.9,32,.64s31.71-3.57,31.6-5.18C177.75,115,176.14,114.63,173.39,114.39Zm0,11c-5.49,1.25-15.58,2.55-27.2,3.37s-22,1-27.62.51c-2.81.64-4.43,1.27-4.39,1.81.11,1.61,14.44,1.9,32,.64s31.71-3.57,31.6-5.18C177.75,126.05,176.14,125.67,173.39,125.43Z"/><path class="cls-90" d="M146.19,131.18c-16.54,1.18-30.21,1-31.85-.37a.43.43,0,0,0-.16.31c.11,1.61,14.44,1.9,32,.64s31.71-3.57,31.6-5.18a.39.39,0,0,0-.17-.25C176,127.91,162.59,130,146.19,131.18Zm0-11c-16.54,1.18-30.21,1-31.85-.38a.47.47,0,0,0-.16.32c.11,1.61,14.44,1.9,32,.64s31.71-3.57,31.6-5.18a.39.39,0,0,0-.17-.25C176,116.87,162.59,119,146.19,120.14Zm0-10.46c17.57-1.25,31.71-3.57,31.6-5.18a.39.39,0,0,0-.17-.25c-1.61,1.58-15,3.68-31.43,4.85s-30.21,1-31.85-.38a.45.45,0,0,0-.16.32C114.29,110.64,128.62,110.93,146.19,109.68Z"/><path class="cls-91" d="M106.84,138.74v12.13c0,2.67,17.52,4.83,39.14,4.83s39.15-2.16,39.15-4.83V138.74Z"/><path class="cls-92" d="M171.35,136.38c-.27-1.3-.48-2.43-.6-3.28-1.2-8.73-2.91-34.94-2.91-34.94H161.3s1.72,26.21,2.92,34.94c.12.85.33,2,.6,3.28,6,.63,9.68,1.46,9.68,2.36h0v12.13c0,2.45-14.73,4.46-33.83,4.78l3.26,0c20.67-.13,37.1-2.24,37.1-4.82V138.74h0C181,137.84,177.37,137,171.35,136.38Z"/><path class="cls-93" d="M173.09,136.38c-.27-1.3-.48-2.43-.6-3.28-1.2-8.73-2.91-34.94-2.91-34.94H163s1.71,26.21,2.92,34.94c.11.85.33,2,.59,3.28,6,.63,9.68,1.46,9.68,2.36h0v12.13c0,2.45-14.72,4.46-33.83,4.78l3.27,0c20.67-.13,37.1-2.24,37.1-4.82V138.74h0C182.77,137.84,179.11,137,173.09,136.38Z"/><g class="cls-94"><path class="cls-95" d="M147.41,131.2c0,.52-5.36,1.3-12,1.74s-12.13.36-12.17-.16,5.36-1.31,12.05-1.74S147.38,130.67,147.41,131.2Z"/><path class="cls-96" d="M147,131.22c0,.47-5.2,1.18-11.67,1.61s-11.75.38-11.78-.08,5.19-1.18,11.67-1.6S147,130.76,147,131.22Z"/><path class="cls-97" d="M146.65,131.25c0,.4-5,1.05-11.3,1.46s-11.36.42-11.39,0,5-1.06,11.3-1.47S146.62,130.85,146.65,131.25Z"/><path class="cls-98" d="M146.26,131.27c0,.34-4.86.94-10.92,1.33s-11,.44-11,.1,4.87-.93,10.92-1.33S146.24,130.93,146.26,131.27Z"/><path class="cls-99" d="M145.88,131.3c0,.27-4.7.81-10.54,1.19s-10.6.46-10.62.19,4.71-.81,10.55-1.19S145.86,131,145.88,131.3Z"/><path class="cls-100" d="M145.5,131.32c0,.22-4.54.69-10.17,1.06s-10.21.49-10.22.27,4.54-.68,10.17-1.05S145.48,131.11,145.5,131.32Z"/><path class="cls-101" d="M145.12,131.35a88.46,88.46,0,0,1-9.8.91,87.41,87.41,0,0,1-9.83.37,89.77,89.77,0,0,1,9.79-.92A88.86,88.86,0,0,1,145.12,131.35Z"/></g><g class="cls-94"><path class="cls-95" d="M147.41,119.76c0,.53-5.36,1.3-12,1.74s-12.13.36-12.17-.16,5.36-1.3,12.05-1.74S147.38,119.24,147.41,119.76Z"/><path class="cls-96" d="M147,119.79c0,.46-5.2,1.18-11.67,1.6s-11.75.39-11.78-.08,5.19-1.18,11.67-1.6S147,119.32,147,119.79Z"/><path class="cls-97" d="M146.65,119.81c0,.4-5,1.06-11.3,1.47s-11.36.41-11.39,0,5-1.06,11.3-1.47S146.62,119.41,146.65,119.81Z"/><path class="cls-98" d="M146.26,119.84c0,.33-4.86.93-10.92,1.32s-11,.44-11,.1,4.87-.93,10.92-1.32S146.24,119.5,146.26,119.84Z"/><path class="cls-99" d="M145.88,119.86c0,.28-4.7.81-10.54,1.19s-10.6.47-10.62.19,4.71-.81,10.55-1.19S145.86,119.58,145.88,119.86Z"/><path class="cls-100" d="M145.5,119.89c0,.21-4.54.68-10.17,1s-10.21.49-10.22.27,4.54-.68,10.17-1S145.48,119.67,145.5,119.89Z"/><path class="cls-101" d="M145.12,119.91a89.8,89.8,0,0,1-9.8.92,88.7,88.7,0,0,1-9.83.36,89.77,89.77,0,0,1,9.79-.92A88.86,88.86,0,0,1,145.12,119.91Z"/></g><g class="cls-94"><path class="cls-95" d="M147.41,109.15c0,.52-5.36,1.3-12,1.74s-12.13.36-12.17-.16,5.36-1.31,12.05-1.74S147.38,108.62,147.41,109.15Z"/><path class="cls-96" d="M147,109.17c0,.46-5.2,1.18-11.67,1.6s-11.75.39-11.78-.07,5.19-1.18,11.67-1.6S147,108.71,147,109.17Z"/><path class="cls-97" d="M146.65,109.2c0,.4-5,1-11.3,1.46s-11.36.42-11.39,0,5-1.06,11.3-1.47S146.62,108.8,146.65,109.2Z"/><ellipse class="cls-98" cx="135.3" cy="109.94" rx="10.98" ry="0.61" transform="translate(-6.87 9.04) rotate(-3.73)"/><path class="cls-99" d="M145.88,109.25c0,.27-4.7.81-10.54,1.19s-10.6.46-10.62.19,4.71-.81,10.55-1.19S145.86,109,145.88,109.25Z"/><path class="cls-100" d="M145.5,109.27c0,.22-4.54.69-10.17,1s-10.21.5-10.22.28,4.54-.68,10.17-1S145.48,109.06,145.5,109.27Z"/><path class="cls-101" d="M145.12,109.3a88.46,88.46,0,0,1-9.8.91,90.36,90.36,0,0,1-9.83.37,84.17,84.17,0,0,1,9.79-.92A86,86,0,0,1,145.12,109.3Z"/></g><g class="cls-94"><path class="cls-102" d="M180,179c0,8.42-15.69,15.25-35.05,15.25s-35-6.83-35-15.25,15.69-15.26,35-15.26S180,170.53,180,179Z"/></g><g class="cls-10"><path class="cls-102" d="M174.62,424.07c0,1.17-13.28,2.12-29.67,2.12s-29.67-.95-29.67-2.12S128.56,422,145,422,174.62,422.9,174.62,424.07Z"/><path class="cls-103" d="M173.94,424.07c0,1.11-13,2-29,2s-29-.9-29-2,13-2,29-2S173.94,423,173.94,424.07Z"/><path class="cls-104" d="M173.26,424.07c0,1.05-12.68,1.9-28.31,1.9s-28.31-.85-28.31-1.9,12.68-1.91,28.31-1.91S173.26,423,173.26,424.07Z"/><path class="cls-105" d="M172.57,424.07c0,1-12.37,1.8-27.62,1.8s-27.62-.81-27.62-1.8,12.36-1.8,27.62-1.8S172.57,423.07,172.57,424.07Z"/><path class="cls-106" d="M171.89,424.07c0,.93-12.06,1.69-26.94,1.69S118,425,118,424.07s12.06-1.69,26.94-1.69S171.89,423.13,171.89,424.07Z"/><path class="cls-107" d="M171.21,424.07c0,.87-11.76,1.58-26.26,1.58s-26.26-.71-26.26-1.58,11.76-1.59,26.26-1.59S171.21,423.19,171.21,424.07Z"/><path class="cls-108" d="M170.52,424.07c0,.81-11.45,1.48-25.57,1.48s-25.57-.67-25.57-1.48,11.44-1.48,25.57-1.48S170.52,423.25,170.52,424.07Z"/><path class="cls-109" d="M169.84,424.07c0,.75-11.14,1.37-24.89,1.37s-24.89-.62-24.89-1.37S131.2,422.7,145,422.7,169.84,423.31,169.84,424.07Z"/><path class="cls-110" d="M169.16,424.07c0,.7-10.84,1.26-24.21,1.26s-24.21-.56-24.21-1.26,10.84-1.27,24.21-1.27S169.16,423.37,169.16,424.07Z"/><path class="cls-111" d="M168.47,424.07c0,.64-10.53,1.16-23.52,1.16s-23.53-.52-23.53-1.16S132,422.91,145,422.91,168.47,423.43,168.47,424.07Z"/><path class="cls-112" d="M167.79,424.07c0,.58-10.23,1.05-22.84,1.05s-22.84-.47-22.84-1.05S132.33,423,145,423,167.79,423.49,167.79,424.07Z"/><path class="cls-113" d="M167.11,424.07c0,.52-9.92.94-22.16.94s-22.16-.42-22.16-.94,9.92-.95,22.16-.95S167.11,423.55,167.11,424.07Z"/><path class="cls-114" d="M166.42,424.07c0,.46-9.61.83-21.47.83s-21.48-.37-21.48-.83,9.62-.84,21.48-.84S166.42,423.61,166.42,424.07Z"/><path class="cls-101" d="M165.74,424.07c0,.4-9.31.73-20.79.73s-20.79-.33-20.79-.73,9.31-.73,20.79-.73S165.74,423.66,165.74,424.07Z"/></g><path class="cls-115" d="M162.14,87.63l-22.64-13L25.92,271.63a78.48,78.48,0,0,0-8.14,20.22h0a95.82,95.82,0,0,1-10,24.87l-6.35,11a6.51,6.51,0,0,0,1.84,8.71,6.28,6.28,0,0,0,8.86-2.13L18.65,323a96,96,0,0,1,16.5-21.13h0a78.17,78.17,0,0,0,13.42-17.18Z"/><path class="cls-116" d="M95.27,195.38a1,1,0,0,0-.37-.15c-2.62-.53-5.28.53-7.69,1.67a132.2,132.2,0,0,0-26,16.43c-7.64,6.22-11.94,17.88-16.8,26.31l-18.44,32a78.48,78.48,0,0,0-8.14,20.22,95.82,95.82,0,0,1-10,24.87l-6.35,11a6.51,6.51,0,0,0,1.84,8.71,6.28,6.28,0,0,0,8.86-2.13L18.65,323a96,96,0,0,1,16.5-21.13,78.17,78.17,0,0,0,13.42-17.18l16.84-29.23,17.4-30.18C83.69,223.75,98.8,197.8,95.27,195.38Z"/><path class="cls-31" d="M5.92,330.34l6.35-11a95.85,95.85,0,0,0,10-24.87,77.92,77.92,0,0,1,8.14-20.22L144,77.18l-2.29-1.32L28.14,272.91A77.71,77.71,0,0,0,20,293.12,96.06,96.06,0,0,1,10,318L3.63,329a6.71,6.71,0,0,0,.19,7.07,6.92,6.92,0,0,1-1.34-.27,6.13,6.13,0,0,0,.78.63,6.17,6.17,0,0,0,2.84,1A6.73,6.73,0,0,1,5.92,330.34Z"/><path class="cls-117" d="M143.9,93.13c-17.89-10.31-34.5-21.32-34-22.61l-2.54,4.41c-.08,0,0,0,0,0-.76,1.33,15.85,12.5,33.84,22.87s36,19.11,36.76,17.78l2.57-4.45C179.84,112.35,161.89,103.5,143.9,93.13ZM178,115.6c0,.09,0,0,0,0Z"/><path class="cls-118" d="M141.7,97c-17.89-10.31-34.44-21.44-33.84-22.84l-.48.82c-.08,0,0,0,0,0-.76,1.33,15.85,12.5,33.84,22.87s36,19.11,36.76,17.78l.5-.87C177.7,116.05,159.69,107.32,141.7,97Z"/><path class="cls-119" d="M192.33,90.66,121.76,50,110.23,70c-.08,0,0,0,0,0-.77,1.32,15.85,12.5,33.84,22.87,17.82,10.27,35.7,19,36.72,17.81h0Z"/><path class="cls-120" d="M191.84,90.38l-11.26,19.54h0c-1,1.16-18.91-7.53-36.73-17.81-16.06-9.25-31.57-19.47-33.59-22.16l0,0c-.08,0,0,0,0,0-.77,1.32,15.85,12.5,33.84,22.87,17.82,10.27,35.7,19,36.72,17.81h0l11.54-20Z"/><path class="cls-121" d="M192.21,90.86c-.61,1.06-19.16-6.87-37.11-17.22S121,51.22,121.6,50.17s18.45,8.09,36.4,18.44S192.81,89.81,192.21,90.86Z"/><path class="cls-122" d="M133.91,62.36c-.73-.52-1.58-.49-1.91.09L121.18,81.21a1.64,1.64,0,0,0,.72,2c.73.52,1.59.47,1.92-.1l10.82-18.76A1.63,1.63,0,0,0,133.91,62.36Zm4.46,3.08c-.74-.51-1.6-.46-1.93.11Q131,74.94,125.62,84.32a1.61,1.61,0,0,0,.74,2c.74.5,1.61.44,1.94-.13q5.4-9.39,10.82-18.77A1.59,1.59,0,0,0,138.37,65.44Zm4.52,3c-.75-.49-1.62-.43-1.95.14L130.12,87.34a1.55,1.55,0,0,0,.76,1.92,1.36,1.36,0,0,0,2-.16l10.81-18.76A1.54,1.54,0,0,0,142.89,68.43Zm4.58,2.89a1.39,1.39,0,0,0-2,.17L134.69,90.26a1.51,1.51,0,0,0,.77,1.89,1.39,1.39,0,0,0,2-.18L148.25,73.2A1.5,1.5,0,0,0,147.47,71.32Zm4.64,2.79a1.44,1.44,0,0,0-2,.2L139.31,93.08A1.48,1.48,0,0,0,140.1,95a1.42,1.42,0,0,0,2-.22L152.91,76A1.48,1.48,0,0,0,152.11,74.11Zm4.69,2.7a1.46,1.46,0,0,0-2,.23L144,95.81a1.45,1.45,0,0,0,.81,1.84,1.48,1.48,0,0,0,2-.25l10.82-18.76A1.44,1.44,0,0,0,156.8,76.81Zm4.75,2.6a1.51,1.51,0,0,0-2,.26L148.72,98.44a1.41,1.41,0,0,0,.82,1.81,1.51,1.51,0,0,0,2-.28l10.81-18.76C162.71,80.64,162.34,79.84,161.55,79.41Zm4.81,2.5a1.55,1.55,0,0,0-2,.29L153.51,101c-.33.57,0,1.37.84,1.78a1.55,1.55,0,0,0,2-.3L167.2,83.68C167.53,83.11,167.15,82.32,166.36,81.91Zm4.85,2.4a1.58,1.58,0,0,0-2.05.32L158.35,103.4c-.33.57.05,1.36.85,1.75a1.59,1.59,0,0,0,2.06-.33l10.81-18.77C172.4,85.48,172,84.71,171.21,84.31Zm4.91,2.3a1.63,1.63,0,0,0-2.07.35l-10.81,18.77c-.33.57.06,1.35.87,1.72a1.62,1.62,0,0,0,2.07-.36L177,88.32C177.33,87.75,176.93,87,176.12,86.61Zm4.95,2.2a1.66,1.66,0,0,0-2.07.38q-5.42,9.39-10.82,18.77c-.33.57.06,1.33.88,1.69a1.67,1.67,0,0,0,2.09-.39L182,90.49C182.3,89.92,181.9,89.17,181.07,88.81Zm5,2.1a1.7,1.7,0,0,0-2.09.41l-10.82,18.77c-.33.57.07,1.32.9,1.66a1.72,1.72,0,0,0,2.1-.43L187,92.56C187.31,92,186.91,91.25,186.08,90.91Zm4.27,1.69c-.41-.16-1,.18-1.33.75l-10.81,18.76c-.33.58-.28,1.17.13,1.33s1-.18,1.33-.75l10.81-18.76C190.81,93.35,190.75,92.76,190.35,92.6Zm-60.19-33a1,1,0,0,0-1.55.31L117.79,78.68a1.39,1.39,0,0,0,.36,1.76,1,1,0,0,0,1.56-.32l10.81-18.76A1.39,1.39,0,0,0,130.16,59.6Zm-3.24-2.5a1,1,0,0,0-1.54.28q-5.4,9.39-10.82,18.77a1.44,1.44,0,0,0,.35,1.78,1,1,0,0,0,1.54-.29l10.81-18.76A1.43,1.43,0,0,0,126.92,57.1Zm-3.19-2.59a1,1,0,0,0-1.52.26q-5.42,9.38-10.82,18.77a1.48,1.48,0,0,0,.33,1.81,1,1,0,0,0,1.53-.27l10.81-18.77A1.47,1.47,0,0,0,123.73,54.51Zm-2.44-2.07c-.36-.31-.92-.1-1.25.47L109.23,71.67a1.36,1.36,0,0,0,0,1.61c.36.31.92.09,1.25-.48L121.35,54A1.34,1.34,0,0,0,121.29,52.44Z"/><path d="M166.92,82.33a1.38,1.38,0,0,0-1.57.46l-10.82,18.77a1.17,1.17,0,0,0,.28,1.36,1.41,1.41,0,0,0,1.58-.47L167.2,83.68A1.16,1.16,0,0,0,166.92,82.33Zm-14.37-7.87a1.23,1.23,0,0,0-1.4.45L140.33,93.67a1.33,1.33,0,0,0,.35,1.52,1.25,1.25,0,0,0,1.41-.46L152.91,76A1.3,1.3,0,0,0,152.55,74.46Zm19.26,10.29a1.42,1.42,0,0,0-1.62.48L159.37,104a1.12,1.12,0,0,0,.27,1.31,1.44,1.44,0,0,0,1.62-.48l10.81-18.77A1.09,1.09,0,0,0,171.81,84.75Zm-14.52-7.56a1.26,1.26,0,0,0-1.46.44L145,96.4a1.26,1.26,0,0,0,.32,1.46,1.28,1.28,0,0,0,1.47-.46l10.82-18.76A1.23,1.23,0,0,0,157.29,77.19Zm4.79,2.62a1.33,1.33,0,0,0-1.52.45L149.74,99a1.22,1.22,0,0,0,.3,1.41,1.35,1.35,0,0,0,1.53-.47l10.81-18.76A1.19,1.19,0,0,0,162.08,79.81Zm28.6,13.49a1.76,1.76,0,0,0-.63.64L179.23,112.7a1.67,1.67,0,0,0-.19.63,1.68,1.68,0,0,0,.63-.64l10.81-18.76A1.49,1.49,0,0,0,190.68,93.3Zm-13.93-6.23a1.49,1.49,0,0,0-1.67.49l-10.81,18.76a1.08,1.08,0,0,0,.24,1.27,1.49,1.49,0,0,0,1.67-.5L177,88.32A1.07,1.07,0,0,0,176.75,87.07Zm10,4.33a1.61,1.61,0,0,0-1.77.51L174.2,110.68a1,1,0,0,0,.2,1.17,1.6,1.6,0,0,0,1.77-.53L187,92.56A1,1,0,0,0,186.78,91.4Zm-5-2.11a1.53,1.53,0,0,0-1.72.5l-10.81,18.76a1,1,0,0,0,.22,1.22,1.56,1.56,0,0,0,1.72-.51L182,90.49A1,1,0,0,0,181.74,89.29ZM143.26,68.74a1.11,1.11,0,0,0-1.29.42L131.15,87.93a1.4,1.4,0,0,0,.38,1.61,1.17,1.17,0,0,0,1.31-.44l10.81-18.76A1.38,1.38,0,0,0,143.26,68.74Zm-21-14q-5.42,9.38-10.82,18.77a.35.35,0,0,0,0,.11,1.79,1.79,0,0,0,.2-.26l10.81-18.76a.36.36,0,0,0,0-.07A.77.77,0,0,0,122.21,54.77Zm1.81.09a1,1,0,0,0-.78.5L112.42,74.13a1.5,1.5,0,0,0,0,1.45,1,1,0,0,0,.8-.5l10.81-18.77A1.45,1.45,0,0,0,124,54.86Zm3.22,2.61a1,1,0,0,0-.83.5L115.59,76.74a1.44,1.44,0,0,0,0,1.41,1,1,0,0,0,.84-.51l10.81-18.76A1.42,1.42,0,0,0,127.24,57.47Zm-6.17-4L110.25,72.27a1.66,1.66,0,0,0-.21,1,1.35,1.35,0,0,0,.49-.49L121.35,54a1.61,1.61,0,0,0,.2-1A1.23,1.23,0,0,0,121.07,53.5Zm26.8,18.15a1.16,1.16,0,0,0-1.34.43L135.71,90.85a1.36,1.36,0,0,0,.37,1.56,1.19,1.19,0,0,0,1.35-.44L148.25,73.2A1.33,1.33,0,0,0,147.87,71.65Zm-9.16-5.92a1.07,1.07,0,0,0-1.24.42L126.65,84.91a1.45,1.45,0,0,0,.4,1.66,1.1,1.1,0,0,0,1.25-.42q5.4-9.39,10.82-18.77A1.45,1.45,0,0,0,138.71,65.73Zm-4.49-3.1A1,1,0,0,0,133,63L122.21,81.8a1.51,1.51,0,0,0,.41,1.71,1.05,1.05,0,0,0,1.2-.42l10.82-18.76A1.49,1.49,0,0,0,134.22,62.63ZM130.49,60a1,1,0,0,0-.86.51L118.82,79.27a1.37,1.37,0,0,0,0,1.37,1,1,0,0,0,.87-.52l10.81-18.76A1.37,1.37,0,0,0,130.49,60Z"/><path class="cls-123" d="M176.32,83.84S160.79,76,155.49,73c-4.87-2.81-19.85-12.58-19.85-12.58S144.7,50,148,47c7.54-6.9,23.4-37.64,23.4-37.64a17.77,17.77,0,0,1,24.27-6.52h0a17.76,17.76,0,0,1,6.52,24.27S184.64,55,181.78,65.48C180,72.09,176.32,83.84,176.32,83.84Z"/><path class="cls-124" d="M6.6,339.87a73.23,73.23,0,0,0-5.43,13.47C-1,360.87,3.82,367,9.22,365c6.23-2.3,1.71-11.15-.18-17.8C7.19,340.7,7.66,336.6,6.6,339.87Z"/><path class="cls-125" d="M1.54,353.39c-.57,2.27-.91,4.81.26,6.84a3,3,0,0,0,3.48,1.28,2.77,2.77,0,0,0,1.73-1,3.35,3.35,0,0,0,.52-1.38c.52-2.84-.39-5.68-1-8.43A24.87,24.87,0,0,1,6,347.85a11,11,0,0,1,.1-2.43c0-.46-.19-1.05-.66-1.05s-.6.32-.78.62A28,28,0,0,0,2,351.75C1.83,352.27,1.68,352.83,1.54,353.39Z"/><path class="cls-126" d="M2.45,353.91c-.48,1.46-.91,3.15-.11,4.46a1.54,1.54,0,0,0,1.07.78,1.47,1.47,0,0,0,1.43-1,4.43,4.43,0,0,0,.22-1.82A69.2,69.2,0,0,1,5.38,349a4.5,4.5,0,0,0-.07-2.28c-.8.26-1.24,2.53-1.51,3.27Q3.1,352,2.45,353.91Z"/><path class="cls-127" d="M2.31,352.38c-.46,1.33-.9,2.86-.3,4.1a1.31,1.31,0,0,0,.83.77,1.23,1.23,0,0,0,1.21-.84,4.42,4.42,0,0,0,.27-1.66q.15-3.39.61-6.74A4.71,4.71,0,0,0,5,345.9c-.67.21-1.13,2.28-1.39,3C3.15,350,2.72,351.2,2.31,352.38Z"/><path class="cls-128" d="M132.07,133.22c-.73,1.33-1.07,3.58.43,3.84a2.31,2.31,0,0,0,1.55-.5c5.3-3.39,8.59-9.07,12.46-14s9.21-9.65,15.5-9.5c3.14.07,6.54,1.31,9.26-.27s3.29-5.42,1.9-8.18-4.28-4.46-7.25-5.29c-7.7-2.15-14.21.28-18.08,6.84C142.53,115.13,137.11,124.05,132.07,133.22Z"/><path class="cls-128" d="M132.3,131.16c-.73,1.33-1.07,3.58.43,3.84a2.31,2.31,0,0,0,1.55-.5c5.3-3.39,8.59-9.07,12.46-14s9.21-9.65,15.5-9.51c3.14.08,6.54,1.32,9.26-.26s3.29-5.42,1.91-8.18-4.29-4.46-7.26-5.29c-7.7-2.15-14.21.27-18.08,6.84C142.76,113.07,137.34,122,132.3,131.16Z"/><path class="cls-129" d="M102.46,342l2.89-.5q-.78,3-1.26,5.44l1.29-.27.8-4.67,2.89-.5a73.28,73.28,0,0,0-2.1,10.86l-2.68.68.72-4.25-1.33.28c-.2,1.29-.34,2.38-.42,3.29l-2.69.68Z"/><path class="cls-129" d="M109.46,342l2.67-.5a74.12,74.12,0,0,0-1.59,7.34l1.48-.63,1.09-6.21,2.68-.5a79.67,79.67,0,0,0-2.11,10.86l-2.5.68.31-1.73-4,1.73Z"/><path class="cls-129" d="M116.47,342l2.69-.5A77.25,77.25,0,0,0,117,352.32l-2.49.68Z"/><path class="cls-129" d="M119.68,342l2.68-.5c-.75,2.88-1.32,5.54-1.73,8l2.75-.42-.23,2.9a32.81,32.81,0,0,0-5.39,1.08Z"/><path class="cls-129" d="M126.91,344.28c-.08.3-.16.6-.22.89l-.17.86,2.5-.53-.14,2.16c-1.18.21-2.12.39-2.79.55,0,.2-.08.41-.11.62l-.12.61,2.91-.42-.2,2.9a36.92,36.92,0,0,0-5.71,1.08l1.86-11.2,5.21-.77-.21,2.91C128.7,344,127.76,344.14,126.91,344.28Z"/><path class="cls-129" d="M134.68,353.36a2.41,2.41,0,0,1-2.35-1.78,5.28,5.28,0,0,1-.36-2,9.1,9.1,0,0,1,.33-2.3,10.56,10.56,0,0,1,2-3.92,4.69,4.69,0,0,1,3.62-2.17,2.44,2.44,0,0,1,2.36,1.84l-1.73,1.86a.94.94,0,0,0-.83-.42c-.71,0-1.38.49-2,1.47a8.52,8.52,0,0,0-1.05,2.45,4,4,0,0,0-.14,1,1.55,1.55,0,0,0,.33,1,1.23,1.23,0,0,0,1,.44,1.85,1.85,0,0,0,1.36-.68,4.09,4.09,0,0,0,.81-1.34c-.77.16-1.48.32-2.14.48l.49-2.29,4.15-.89a6.32,6.32,0,0,1-.44,2.33,10.71,10.71,0,0,1-1,2.12C137.79,352.43,136.34,353.36,134.68,353.36Z"/><path class="cls-129" d="M141.27,341.94a14.62,14.62,0,0,1,4-.73c1.4,0,2.1.49,2.09,1.46q0,2.11-2.66,4.24c.15.4.75,1.64,1.82,3.73-.54.5-1.36,1.24-2.44,2.21l-1.67-4.32h0c-.25,1.37-.44,2.63-.56,3.78l-2.48.69c0-.23.14-.92.35-2.08Zm2,2.47c-.09.35-.18.71-.25,1.06l-.22,1.06a5.41,5.41,0,0,0,1.08-.73,2.74,2.74,0,0,0,.81-1,.56.56,0,0,0,.08-.26c0-.23-.15-.35-.45-.35A3.53,3.53,0,0,0,143.24,344.41Z"/><path class="cls-129" d="M144.61,353.19a97.81,97.81,0,0,0,3.72-11.3l4.75-.79a63,63,0,0,0-.73,11.2l-3.31.77.23-2-1.05.21-.32,1.37Zm4.91-4.18.72-5.9h0l-1.46,6.05Z"/><path class="cls-129" d="M154.43,342l2.68-.5A77.25,77.25,0,0,0,155,352.32l-2.48.68Z"/><path class="cls-129" d="M163.18,344.72l-1.19.45-1.17.46c0-.49-.14-.74-.41-.74a1.59,1.59,0,0,0-1.15.66,1.19,1.19,0,0,0-.35.94c0,.2.23.29.6.29a4.63,4.63,0,0,0,.78-.09,6.05,6.05,0,0,1,1.18-.14c.88,0,1.39.3,1.54.91a2.74,2.74,0,0,1,.06.59,4,4,0,0,1-.75,2.16,7.85,7.85,0,0,1-2.72,2.54,3.51,3.51,0,0,1-1.81.55,3.16,3.16,0,0,1-1.6-.45c.26-.63.68-1.55,1.25-2.77a1.86,1.86,0,0,0,1.07.34,1.89,1.89,0,0,0,.51-.07,4.88,4.88,0,0,0,.92-.36c.42-.23.63-.47.63-.71s-.22-.39-.64-.39a6.69,6.69,0,0,0-1.28.18,6.51,6.51,0,0,1-1.27.18,1.5,1.5,0,0,1-.89-.22,1.2,1.2,0,0,1-.5-1.26,8,8,0,0,1,2.23-4q2.09-2.34,3.58-2.45c1-.06,1.46.67,1.46,2.19A11.63,11.63,0,0,1,163.18,344.72Z"/><path class="cls-129" d="M170.13,344.72l-1.19.45-1.17.46c0-.49-.13-.74-.41-.74a1.59,1.59,0,0,0-1.15.66,1.23,1.23,0,0,0-.35.94c0,.2.23.29.6.29a4.43,4.43,0,0,0,.78-.09,6.14,6.14,0,0,1,1.19-.14c.87,0,1.38.3,1.53.91a2.74,2.74,0,0,1,.06.59,4,4,0,0,1-.75,2.16,7.85,7.85,0,0,1-2.72,2.54,3.48,3.48,0,0,1-1.81.55,3.15,3.15,0,0,1-1.59-.45c.26-.63.67-1.55,1.25-2.77a1.81,1.81,0,0,0,1.06.34,1.84,1.84,0,0,0,.51-.07,5,5,0,0,0,.93-.36c.41-.23.62-.47.62-.71s-.21-.39-.64-.39a6.51,6.51,0,0,0-1.27.18,6.69,6.69,0,0,1-1.28.18,1.52,1.52,0,0,1-.89-.22,1.22,1.22,0,0,1-.5-1.26,7.93,7.93,0,0,1,2.24-4c1.38-1.56,2.58-2.38,3.58-2.45s1.45.67,1.45,2.19A11.63,11.63,0,0,1,170.13,344.72Z"/><path class="cls-129" d="M173.55,344.28c-.08.3-.15.6-.22.89l-.17.86,2.5-.53-.14,2.16c-1.18.21-2.11.39-2.79.55,0,.2-.08.41-.11.62l-.12.61,2.91-.42-.2,2.9a36.61,36.61,0,0,0-5.7,1.08l1.85-11.2,5.21-.77-.21,2.91C175.34,344,174.41,344.14,173.55,344.28Z"/><path class="cls-129" d="M182.41,344.28c-.08.3-.16.6-.22.89L182,346l2.5-.53-.14,2.16c-1.18.21-2.12.39-2.79.55,0,.2-.08.41-.11.62l-.12.61,2.91-.42-.2,2.9a36.92,36.92,0,0,0-5.71,1.08l1.86-11.2,5.21-.77-.21,2.91C184.2,344,183.26,344.14,182.41,344.28Z"/><path class="cls-129" d="M191.88,341.3l-.09,2.91c-.73,0-1.43.09-2.08.15a60,60,0,0,0-1.39,8l-2.64.68,1.43-8.31-.84.14-.83.16-.18-2.92Z"/><path class="cls-129" d="M111.9,360.39a2.52,2.52,0,0,1,2.39,1.77l-1.76,1.93a1.12,1.12,0,0,0-.83-.37c-.55,0-1.12.47-1.72,1.42a6.77,6.77,0,0,0-1,2.19,4.14,4.14,0,0,0-.11.87,1.46,1.46,0,0,0,.76,1.44,1.26,1.26,0,0,0,.54.13c.54,0,1.11-.4,1.7-1.21l.5,1.86a4.32,4.32,0,0,1-3.14,1.72,2.49,2.49,0,0,1-2.38-1.72,5.35,5.35,0,0,1-.45-2.23,8.81,8.81,0,0,1,.23-1.92,9.77,9.77,0,0,1,1.79-3.8A4.37,4.37,0,0,1,111.9,360.39Z"/><path class="cls-129" d="M114.33,361.14a14.56,14.56,0,0,1,4-.73c1.41,0,2.11.49,2.09,1.46q0,2.11-2.65,4.24c.14.4.75,1.64,1.81,3.73-.54.5-1.35,1.24-2.44,2.21l-1.66-4.32h0c-.25,1.37-.43,2.63-.56,3.78l-2.47.69c0-.23.14-.92.34-2.08Zm2,2.47c-.09.35-.17.71-.25,1.06l-.21,1.06a5.35,5.35,0,0,0,1.07-.73,2.89,2.89,0,0,0,.82-1,.54.54,0,0,0,.07-.26c0-.23-.15-.35-.45-.35A3.53,3.53,0,0,0,116.29,363.61Z"/><path class="cls-129" d="M121.11,361.16l2.68-.5a77.25,77.25,0,0,0-2.12,10.86l-2.49.68Z"/><path class="cls-129" d="M129.86,363.92l-1.19.45-1.17.46c0-.49-.14-.74-.41-.74a1.62,1.62,0,0,0-1.16.66,1.21,1.21,0,0,0-.34.94c0,.2.23.29.59.29a4.62,4.62,0,0,0,.79-.09,6.05,6.05,0,0,1,1.18-.14c.88,0,1.39.3,1.53.91a2.22,2.22,0,0,1,.07.59,4,4,0,0,1-.75,2.16,7.85,7.85,0,0,1-2.72,2.54,3.51,3.51,0,0,1-1.81.55,3.16,3.16,0,0,1-1.6-.45c.26-.63.68-1.55,1.25-2.77a1.85,1.85,0,0,0,1.06.34,1.91,1.91,0,0,0,.52-.07,4.88,4.88,0,0,0,.92-.36c.42-.23.63-.47.63-.71s-.22-.39-.64-.39a6.59,6.59,0,0,0-1.28.18,6.51,6.51,0,0,1-1.27.18,1.5,1.5,0,0,1-.89-.22,1.2,1.2,0,0,1-.5-1.26,8,8,0,0,1,2.23-4q2.09-2.34,3.58-2.45c1-.06,1.45.67,1.45,2.19A11.4,11.4,0,0,1,129.86,363.92Z"/><path class="cls-129" d="M134.17,361.14a9.87,9.87,0,0,1,3.05-.59,2.91,2.91,0,0,1,2.14.73,3.56,3.56,0,0,1,1,2.55,4.75,4.75,0,0,1-.14,1.15,9,9,0,0,1-2.87,4.81,9.16,9.16,0,0,1-5.05,2.41q0-.34.33-2l1.25-7.19C134.06,361.9,134.16,361.29,134.17,361.14Zm2.23,2.58q-.72,3.06-1.09,5.8a11,11,0,0,0,1.67-2.07,4.83,4.83,0,0,0,.91-2.47C137.89,364.1,137.39,363.68,136.4,363.72Z"/><path class="cls-129" d="M143.06,363.48c-.08.3-.16.6-.22.89l-.17.86,2.5-.53-.14,2.16c-1.19.21-2.12.39-2.79.55,0,.21-.08.41-.11.62l-.12.61,2.91-.42-.2,2.9A36.7,36.7,0,0,0,139,372.2l1.86-11.2,5.21-.77-.21,2.91C144.85,363.23,143.91,363.34,143.06,363.48Z"/><path class="cls-129" d="M153.67,360.39a2.52,2.52,0,0,1,2.39,1.77l-1.77,1.93a1.1,1.1,0,0,0-.82-.37c-.56,0-1.13.47-1.72,1.42a7,7,0,0,0-1,2.19,4.14,4.14,0,0,0-.11.87,1.47,1.47,0,0,0,.77,1.44,1.22,1.22,0,0,0,.53.13c.54,0,1.11-.4,1.7-1.21l.5,1.86a4.31,4.31,0,0,1-3.14,1.72,2.48,2.48,0,0,1-2.37-1.72,5.35,5.35,0,0,1-.45-2.23,8.24,8.24,0,0,1,.23-1.92,9.75,9.75,0,0,1,1.78-3.8A4.38,4.38,0,0,1,153.67,360.39Z"/><path class="cls-129" d="M153.06,372.39a101.82,101.82,0,0,0,3.72-11.3l4.75-.79a62.91,62.91,0,0,0-.74,11.2l-3.31.77.24-2-1.05.21-.33,1.37Zm4.91-4.18.71-5.9h0l-1.47,6.05Z"/><path class="cls-129" d="M162.72,361.2l2.7-.54c0,.32,0,.78,0,1.37,0,1.42,0,2.66.14,3.74a8.74,8.74,0,0,0,.23,1.48l1.07-6.09,2.68-.5a77.25,77.25,0,0,0-2.12,10.86l-2.47.68s-.08-.2-.2-.54l-.82-2.32a6.85,6.85,0,0,1-.23-.72c-.22,1.23-.39,2.43-.52,3.58l-2.5.75Z"/><path class="cls-129" d="M166.72,372.39a99.65,99.65,0,0,0,3.71-11.3l4.75-.79a63,63,0,0,0-.73,11.2l-3.31.77.23-2-1,.21-.33,1.37Zm4.9-4.18.72-5.9h0l-1.47,6.05Z"/><path class="cls-129" d="M176.12,361.14a14.68,14.68,0,0,1,4-.73c1.4,0,2.1.49,2.09,1.46q0,2.11-2.65,4.24c.14.4.75,1.64,1.81,3.73-.54.5-1.35,1.24-2.44,2.21l-1.67-4.32h0c-.25,1.37-.44,2.63-.56,3.78l-2.47.69c0-.23.13-.92.34-2.08Zm2,2.47c-.09.35-.18.71-.25,1.06l-.22,1.06a5.14,5.14,0,0,0,1.08-.73,2.74,2.74,0,0,0,.81-1,.56.56,0,0,0,.08-.26c0-.23-.15-.35-.45-.35A3.53,3.53,0,0,0,178.09,363.61Z"/><path class="cls-129" d="M182.43,361.14a9.93,9.93,0,0,1,3-.59,2.89,2.89,0,0,1,2.14.73,3.52,3.52,0,0,1,1,2.55,5.3,5.3,0,0,1-.14,1.15,9.7,9.7,0,0,1-7.92,7.22c0-.23.13-.91.32-2l1.25-7.19C182.33,361.9,182.42,361.29,182.43,361.14Zm2.24,2.58q-.72,3.06-1.09,5.8a11,11,0,0,0,1.67-2.07,4.9,4.9,0,0,0,.9-2.47C186.15,364.1,185.66,363.68,184.67,363.72Z"/></g></g></g></svg>