<svg xmlns="http://www.w3.org/2000/svg" xmlns:xlink="http://www.w3.org/1999/xlink" viewBox="0 0 452.26 365.91"><defs><style>.cls-1{fill:none;}.cls-2,.cls-8{fill:#ff0;}.cls-3{fill:#fff;}.cls-4{clip-path:url(#clip-path);}.cls-5{fill-rule:evenodd;}.cls-6{fill:#fefefe;}.cls-7{fill:#3fc8f2;}.cls-7,.cls-8{stroke:#000;stroke-miterlimit:10;}.cls-8{stroke-width:3px;}</style><clipPath id="clip-path"><path class="cls-1" d="M72.93,215.73s25.5-10.55,29.36-34.66S75.7,122.25,75.7,122.25s48.63,27,85.64,8.08S200.5,77.59,200.5,77.59s4.86,23.29,32.27,33.52c34.89,13,73.2-15,73.2-15s-17.24,33.64,5,43.52,37.27,8.92,37.27,8.92-27.18,13.06-28.6,31S334.89,216,334.89,216s-43.28-10.13-60.92,3c-14.92,11.1-18.69,39.17-18.69,39.17s-14-14.34-22.27-18.74C215.27,230,193.4,229.1,169.79,237c-10.12,3.37-26.52,13.32-26.52,13.32s2-16.88-12.42-26.68S72.93,215.73,72.93,215.73Z"/></clipPath></defs><title>Logo_sans_fond</title><g id="Calque_2" data-name="Calque 2"><g id="Calque_1-2" data-name="Calque 1"><path class="cls-2" d="M364.77,159.68s-42.24-.09-55.65-16.54c-7.07-8.67-4.11-25.64,6.57-41.88,0,0-40.08,19.21-68.23,10.56-19-5.83-38.77-24.89-36.17-57.55,0,0-10,51.35-53.51,65.53-21.53,7-52.73-1-87-22,0,0,36.18,45.62,28.48,71-4.55,15-19,25.85-42,34.54,0,0,39.46,2.54,62,15.17,16.56,9.3,10,34,10,34s85.39-43.59,118.68,27.81c0,0-1.55-39.15,27.52-49.45,13.37-4.74,33-4.68,61.68,5.63C337.07,236.52,285.15,184.39,364.77,159.68Z"/><path d="M199.89,54s-4.93,52.26-48.07,71.38c-21.34,9.46-54.17,5.08-91.53-11.89,0,0,41.82,41.24,36.57,67.41C93.75,196.34,80,208.77,57.34,220.07c0,0,40.73-2,65.11,8,17.94,7.35,13.82,32.68,13.82,32.68s83-53.21,124.57,14c0,0-5.65-38.79,23.08-52.38,13.23-6.26,33.33-8.45,63.83-1.49,0,0-58.64-45.91,20.43-79.66,0,0-43.32,4.78-58.77-10-8.15-7.82-6.87-25.05,2.39-42.44,0,0-39.1,23.73-68.86,18.36C222.91,103.46,200.61,86.77,199.89,54Z"/><path class="cls-3" d="M72.93,215.73s25.5-10.55,29.36-34.66S75.7,122.25,75.7,122.25s48.63,27,85.64,8.08S200.5,77.59,200.5,77.59s4.86,23.29,32.27,33.52c34.89,13,73.2-15,73.2-15s-17.24,33.64,5,43.52,37.27,8.92,37.27,8.92-27.18,13.06-28.6,31S334.89,216,334.89,216s-43.28-10.13-60.92,3c-14.92,11.1-18.69,39.17-18.69,39.17s-14-14.34-22.27-18.74C215.27,230,193.4,229.1,169.79,237c-10.12,3.37-26.52,13.32-26.52,13.32s2-16.88-12.42-26.68S72.93,215.73,72.93,215.73Z"/><g class="cls-4"><path class="cls-5" d="M260.82,278.32a2.65,2.65,0,0,1,4.59-2.65,2.65,2.65,0,1,1-4.59,2.65Z"/><path class="cls-5" d="M254,277a2.59,2.59,0,1,1-2.57-4.5A2.59,2.59,0,1,1,254,277Z"/><path class="cls-5" d="M260.81,272.91a2.59,2.59,0,0,1-2.86-4.33,2.59,2.59,0,0,1,2.86,4.33Z"/><path class="cls-5" d="M263.53,268.37a2.53,2.53,0,0,1,.85-3.63,2.6,2.6,0,0,1,2.59,4.5A2.5,2.5,0,0,1,263.53,268.37Z"/><path class="cls-5" d="M266,258.4a2.59,2.59,0,1,1,3.55.71A2.73,2.73,0,0,1,266,258.4Z"/><path class="cls-5" d="M310.3,232a2.59,2.59,0,1,1,3.52.82A2.69,2.69,0,0,1,310.3,232Z"/><path class="cls-5" d="M333.44,218a2.57,2.57,0,1,1-3.53-.71A2.68,2.68,0,0,1,333.44,218Z"/><path class="cls-5" d="M253.43,265.7a2.65,2.65,0,0,1,1-3.45,2.56,2.56,0,0,1,3.43,1,2.52,2.52,0,0,1-1,3.42A2.6,2.6,0,0,1,253.43,265.7Z"/><path class="cls-5" d="M250.19,270.65a2.53,2.53,0,0,1-2.45-4.42,2.53,2.53,0,1,1,2.45,4.42Z"/><path class="cls-5" d="M326.38,225.3a2.5,2.5,0,0,1-3.45-.82,2.53,2.53,0,0,1,.78-3.47,2.64,2.64,0,0,1,3.49.81A2.6,2.6,0,0,1,326.38,225.3Z"/><path class="cls-5" d="M317.52,224.69a2.56,2.56,0,0,1,3.42,1,2.54,2.54,0,0,1-1,3.42,2.53,2.53,0,0,1-2.45-4.43Z"/><path class="cls-5" d="M263.14,262.94a2.5,2.5,0,0,1-3.39-1,2.55,2.55,0,0,1,1-3.42,2.62,2.62,0,0,1,3.42,1A2.59,2.59,0,0,1,263.14,262.94Z"/><path class="cls-5" d="M291.62,234.5a2.6,2.6,0,0,1-.64,3.34,2.52,2.52,0,0,1-3.49-.7,2.44,2.44,0,0,1,.64-3.3A2.47,2.47,0,0,1,291.62,234.5Z"/><path class="cls-5" d="M331.8,210.79a2.44,2.44,0,1,1,4.1-2.66,2.44,2.44,0,1,1-4.1,2.66Z"/><path class="cls-5" d="M317.17,219.49a2.51,2.51,0,0,1-1.06,3.39,2.62,2.62,0,0,1-3.24-1,2.48,2.48,0,0,1,.88-3.26A2.44,2.44,0,0,1,317.17,219.49Z"/><path class="cls-5" d="M256.2,255.81a2.42,2.42,0,0,1,.58-3.31,2.49,2.49,0,0,1,3.5.62,2.61,2.61,0,0,1-.8,3.48A2.51,2.51,0,0,1,256.2,255.81Z"/><path class="cls-5" d="M243.13,263.43a2.45,2.45,0,0,1,.78-3.28,2.49,2.49,0,0,1,3.46.8,2.46,2.46,0,1,1-4.24,2.48Z"/><path class="cls-5" d="M253.27,260.29a2.61,2.61,0,0,1-3.48-.84,2.49,2.49,0,0,1,.81-3.28,2.42,2.42,0,0,1,3.3.62A2.49,2.49,0,0,1,253.27,260.29Z"/><path class="cls-5" d="M322.54,219.07a2.49,2.49,0,0,1-3.39-1.08,2.41,2.41,0,0,1,1-3.2,2.46,2.46,0,0,1,3.4,1A2.6,2.6,0,0,1,322.54,219.07Z"/><path class="cls-5" d="M281.1,240.77a2.51,2.51,0,0,1,1.08-3.39,2.47,2.47,0,0,1,3.22,1,2.54,2.54,0,0,1-1,3.4A2.64,2.64,0,0,1,281.1,240.77Z"/><path class="cls-5" d="M303.72,230.27a2.54,2.54,0,0,1-3.39-1.09,2.45,2.45,0,0,1,1-3.21,2.48,2.48,0,0,1,3.39,1.06A2.6,2.6,0,0,1,303.72,230.27Z"/><path class="cls-5" d="M306.68,225.66a2.51,2.51,0,0,1,.74-3.3,2.58,2.58,0,0,1,3.51.71,2.68,2.68,0,0,1-1,3.47A2.62,2.62,0,0,1,306.68,225.66Z"/><path class="cls-5" d="M241,264.6a2.62,2.62,0,0,1-.62,3.33,2.54,2.54,0,0,1-3.5-.67A2.45,2.45,0,0,1,241,264.6Z"/><path class="cls-5" d="M328.8,215.33a2.64,2.64,0,0,1-3.45-1,2.54,2.54,0,0,1,1-3.24,2.48,2.48,0,0,1,3.41,1A2.58,2.58,0,0,1,328.8,215.33Z"/><path class="cls-5" d="M266.65,249.52a2.61,2.61,0,0,1-1.08,3.43,2.69,2.69,0,0,1-3.28-1,2.5,2.5,0,0,1,4.36-2.46Z"/><path class="cls-5" d="M324.93,209a2.39,2.39,0,0,1-3.19-1,2.37,2.37,0,0,1,4.18-2.22A2.37,2.37,0,0,1,324.93,209Z"/><path class="cls-5" d="M334.78,200.37a2.42,2.42,0,0,1,.86-3.22,2.33,2.33,0,0,1,3.2.88,2.29,2.29,0,0,1-.85,3.2A2.35,2.35,0,0,1,334.78,200.37Z"/><path class="cls-5" d="M318.73,212.69a2.34,2.34,0,0,1-3.19-.91,2.38,2.38,0,0,1,.9-3.2,2.41,2.41,0,0,1,3.21.91A2.38,2.38,0,0,1,318.73,212.69Z"/><path class="cls-5" d="M293.78,227.54a2.35,2.35,0,1,1,.7-3.24A2.31,2.31,0,0,1,293.78,227.54Z"/><path class="cls-5" d="M262,246.48a2.35,2.35,0,1,1-2.34-4.08,2.43,2.43,0,0,1,3.1.79A2.4,2.4,0,0,1,262,246.48Z"/><path class="cls-5" d="M250.22,250.74a2.32,2.32,0,0,1-.82,3.21,2.37,2.37,0,0,1-3.23-.81,2.41,2.41,0,0,1,.82-3.23A2.38,2.38,0,0,1,250.22,250.74Z"/><path class="cls-5" d="M306.26,220.11a2.39,2.39,0,0,1-3.26-.85,2.36,2.36,0,1,1,3.26.85Z"/><path class="cls-5" d="M239.49,257.16a2.45,2.45,0,0,1,.77-3.25,2.34,2.34,0,0,1,3.23.79,2.3,2.3,0,0,1-.76,3.22A2.37,2.37,0,0,1,239.49,257.16Z"/><path class="cls-5" d="M331.36,205.18a2.39,2.39,0,0,1-3.25-.74,2.46,2.46,0,0,1,.74-3.26,2.41,2.41,0,0,1,3.25.76A2.36,2.36,0,0,1,331.36,205.18Z"/><path class="cls-5" d="M274.4,239.07a2.31,2.31,0,0,1-3.18-.94,2.36,2.36,0,0,1,.94-3.19,2.35,2.35,0,1,1,2.24,4.13Z"/><path class="cls-5" d="M280.72,235.31a2.37,2.37,0,0,1-3.25-.88,2.35,2.35,0,1,1,3.25.88Z"/><path class="cls-5" d="M287.05,231.55a2.39,2.39,0,0,1-3.25-.74,2.44,2.44,0,0,1,.76-3.26,2.39,2.39,0,0,1,3.24.76A2.35,2.35,0,0,1,287.05,231.55Z"/><path class="cls-5" d="M256.48,246.93a2.36,2.36,0,1,1-4,2.52,2.42,2.42,0,0,1,.72-3.25A2.45,2.45,0,0,1,256.48,246.93Z"/><path class="cls-5" d="M313.33,213.2a2.35,2.35,0,0,1-4.07,2.37,2.43,2.43,0,0,1,.85-3.23A2.4,2.4,0,0,1,313.33,213.2Z"/><path class="cls-5" d="M299.93,223.88a2.35,2.35,0,0,1-2.3-4.11,2.43,2.43,0,0,1,3.21.91A2.38,2.38,0,0,1,299.93,223.88Z"/><path class="cls-5" d="M268.25,242.74A2.39,2.39,0,0,1,265,242a2.44,2.44,0,0,1,.73-3.26,2.41,2.41,0,0,1,3.25.76A2.37,2.37,0,0,1,268.25,242.74Z"/><path class="cls-5" d="M237.18,258.35a2.4,2.4,0,0,1-.7,3.29,2.37,2.37,0,0,1-3.27-.78,2.35,2.35,0,0,1,4-2.51Z"/><path class="cls-5" d="M286.81,220.39a2.26,2.26,0,1,1,3,.9A2.23,2.23,0,0,1,286.81,220.39Z"/><path class="cls-5" d="M258.89,237a2.24,2.24,0,0,1-3.69,2.55,2.24,2.24,0,1,1,3.69-2.55Z"/><path class="cls-5" d="M303.31,210.78a2.25,2.25,0,1,1-3-.95A2.21,2.21,0,0,1,303.31,210.78Z"/><path class="cls-5" d="M271.46,229.54a2.26,2.26,0,1,1-3.89,2.29,2.26,2.26,0,0,1,3.89-2.29Z"/><path class="cls-5" d="M238.92,251.6a2.34,2.34,0,0,1-3.08-.73,2.28,2.28,0,0,1,.69-3.08,2.19,2.19,0,0,1,3.21.78A2.22,2.22,0,0,1,238.92,251.6Z"/><path class="cls-5" d="M334.29,194.83a2.31,2.31,0,0,1-3.09-.64,2.23,2.23,0,0,1,.59-3.08,2.2,2.2,0,0,1,3.24.67A2.22,2.22,0,0,1,334.29,194.83Z"/><path class="cls-5" d="M227.15,255.89a2.28,2.28,0,0,1-.64,3.08,2.24,2.24,0,1,1,.64-3.08Z"/><path class="cls-5" d="M277.65,225.79a2.21,2.21,0,0,1-.55,3.07,2.24,2.24,0,1,1,.55-3.07Z"/><path class="cls-5" d="M284.07,222.31a2.18,2.18,0,0,1-.95,3,2.29,2.29,0,0,1-3-.88,2.26,2.26,0,0,1,1-3.15A2.15,2.15,0,0,1,284.07,222.31Z"/><path class="cls-5" d="M245.54,247.64a2.24,2.24,0,1,1,1-3A2.25,2.25,0,0,1,245.54,247.64Z"/><path class="cls-5" d="M296.15,217.53a2.25,2.25,0,1,1-2.08-4,2.23,2.23,0,0,1,3,1A2.26,2.26,0,0,1,296.15,217.53Z"/><path class="cls-5" d="M308.73,210a2.23,2.23,0,0,1-3-.72,2.24,2.24,0,1,1,3.84-2.31A2.24,2.24,0,0,1,308.73,210Z"/><path class="cls-5" d="M265.23,233.42a2.22,2.22,0,0,1-.83,3,2.25,2.25,0,1,1-2.14-4A2.19,2.19,0,0,1,265.23,233.42Z"/><path class="cls-5" d="M321.15,202.64a2.22,2.22,0,0,1-3-.89,2.24,2.24,0,1,1,4-2.09A2.24,2.24,0,0,1,321.15,202.64Z"/><path class="cls-5" d="M312.62,202.5a2.25,2.25,0,0,1,2.58,3.68,2.28,2.28,0,0,1-3.27-.61A2.25,2.25,0,0,1,312.62,202.5Z"/><path class="cls-5" d="M248.81,243a2.23,2.23,0,1,1,3.93-2.1,2.23,2.23,0,0,1-.92,3A2.26,2.26,0,0,1,248.81,243Z"/><path class="cls-5" d="M328.38,196a2.18,2.18,0,0,1-1,2.94,2.28,2.28,0,0,1-3-1,2.25,2.25,0,0,1,1.1-3.12A2.16,2.16,0,0,1,328.38,196Z"/><path class="cls-5" d="M220.08,262.81a2.3,2.3,0,0,1-3-.8,2.26,2.26,0,0,1,.94-3.18,2.25,2.25,0,0,1,2.1,4Z"/><path class="cls-5" d="M232.65,255.32a2.21,2.21,0,0,1-3-.75,2.21,2.21,0,1,1,3,.75Z"/><path class="cls-5" d="M232.14,244.49a2.18,2.18,0,0,1,.91-3,2.07,2.07,0,0,1,2.94.93,2.1,2.1,0,0,1-.82,2.8A2.23,2.23,0,0,1,232.14,244.49Z"/><path class="cls-5" d="M331.28,185.64a2.11,2.11,0,0,1-.94,3,2.22,2.22,0,0,1-2.84-.76,2.15,2.15,0,0,1,.79-3A2.1,2.1,0,0,1,331.28,185.64Z"/><path class="cls-5" d="M312,197a2.12,2.12,0,0,1-.7,3,2.15,2.15,0,0,1-2.86-.57A2.16,2.16,0,1,1,312,197Z"/><path class="cls-5" d="M286.92,211.91a2.18,2.18,0,0,1-3.66,2.37,2.18,2.18,0,1,1,3.66-2.37Z"/><path class="cls-5" d="M264,225.66a2.18,2.18,0,1,1,3.74-2.24,2.18,2.18,0,0,1-3.74,2.24Z"/><path class="cls-5" d="M219.67,252a2.12,2.12,0,0,1,.76-3,2.17,2.17,0,0,1,3,.79,2.2,2.2,0,0,1-.72,2.85A2.16,2.16,0,0,1,219.67,252Z"/><path class="cls-5" d="M276.44,218.08a2.17,2.17,0,0,1,.95-3,2.15,2.15,0,0,1,2.05,3.77A2.21,2.21,0,0,1,276.44,218.08Z"/><path class="cls-5" d="M254.48,233.74a2.15,2.15,0,0,1-3-.64,2.16,2.16,0,0,1,3.58-2.4A2.14,2.14,0,0,1,254.48,233.74Z"/><path class="cls-5" d="M299.44,204.45a2.16,2.16,0,0,1-3.61,2.37,2.16,2.16,0,1,1,3.61-2.37Z"/><path class="cls-5" d="M242.62,238.33a2.16,2.16,0,1,1-3-.74A2.12,2.12,0,0,1,242.62,238.33Z"/><path class="cls-5" d="M248.19,237.49a2.1,2.1,0,0,1-3-.73,2.13,2.13,0,0,1,3.6-2.28A2.1,2.1,0,0,1,248.19,237.49Z"/><path class="cls-5" d="M324.47,189.55a2.06,2.06,0,0,1-.74,3,2.15,2.15,0,0,1-2.24-3.66A2,2,0,0,1,324.47,189.55Z"/><path class="cls-5" d="M314.56,195.55a2.15,2.15,0,1,1,3.7-2.18,2.15,2.15,0,0,1-3.7,2.18Z"/><path class="cls-5" d="M337.52,182a2.14,2.14,0,0,1-.94,2.93,2.09,2.09,0,0,1-2.89-1,2,2,0,0,1,.88-2.74A2.09,2.09,0,0,1,337.52,182Z"/><path class="cls-5" d="M213.41,255.67a2.09,2.09,0,0,1,.81-3,2,2,0,0,1,2.92.91,2.07,2.07,0,0,1-.74,2.79A2.13,2.13,0,0,1,213.41,255.67Z"/><path class="cls-5" d="M226,248.26a2.1,2.1,0,1,1,3,.66A2.06,2.06,0,0,1,226,248.26Z"/><path class="cls-5" d="M304.91,203.73a2.11,2.11,0,0,1-3-.86,2.13,2.13,0,0,1,3.7-2.12A2.09,2.09,0,0,1,304.91,203.73Z"/><path class="cls-5" d="M210.16,260.12a2.15,2.15,0,1,1-2.26-3.65,2.05,2.05,0,0,1,2.83.63A2.11,2.11,0,0,1,210.16,260.12Z"/><path class="cls-5" d="M273.15,222.63a2.15,2.15,0,1,1-2-3.77,2,2,0,0,1,2.77.79A2.09,2.09,0,0,1,273.15,222.63Z"/><path class="cls-5" d="M260.61,230.1a2.13,2.13,0,0,1-2.95-.88,2.08,2.08,0,0,1,.73-2.8,2,2,0,0,1,3,.71A2.07,2.07,0,0,1,260.61,230.1Z"/><path class="cls-5" d="M215.77,245.31a2.1,2.1,0,0,1,.54-2.84,2.05,2.05,0,1,1-.54,2.84Z"/><path class="cls-5" d="M292.53,211.1a2.07,2.07,0,0,1-3-.66,2,2,0,0,1,.69-3,2.06,2.06,0,0,1,2.83.6A2.13,2.13,0,0,1,292.53,211.1Z"/><path class="cls-5" d="M326.35,181.75a2.06,2.06,0,0,1-2.08-3.55,2.1,2.1,0,0,1,3,.79A2.14,2.14,0,0,1,326.35,181.75Z"/><path class="cls-5" d="M251.12,224.28a2.07,2.07,0,1,1-2.77-.89A2.08,2.08,0,0,1,251.12,224.28Z"/><path class="cls-5" d="M282.19,208a2.23,2.23,0,0,1-2.87-.49,2.18,2.18,0,0,1,.49-2.86,2.06,2.06,0,1,1,2.38,3.35Z"/><path class="cls-5" d="M231.84,235.59a2.07,2.07,0,0,1-.68,2.8,2.06,2.06,0,1,1-2.11-3.52A2.08,2.08,0,0,1,231.84,235.59Z"/><path class="cls-5" d="M291.78,199.82a2.06,2.06,0,0,1,.85-2.79,2.06,2.06,0,1,1,1.94,3.63A2.06,2.06,0,0,1,291.78,199.82Z"/><path class="cls-5" d="M260.06,218.86a2.07,2.07,0,0,1,.62-2.81,2.15,2.15,0,0,1,3,.69,2.18,2.18,0,0,1-.81,2.79A2.1,2.1,0,0,1,260.06,218.86Z"/><path class="cls-5" d="M200.51,254.24a2.1,2.1,0,0,1-.72,2.82,2.05,2.05,0,1,1-2.11-3.52A2.1,2.1,0,0,1,200.51,254.24Z"/><path class="cls-5" d="M307.28,193.09a2.06,2.06,0,0,1-2.28-3.42,2.06,2.06,0,1,1,2.28,3.42Z"/><path class="cls-5" d="M310.61,188.73a2,2,0,0,1,.7-2.81,2,2,0,0,1,2.11,3.51A2.06,2.06,0,0,1,310.61,188.73Z"/><path class="cls-5" d="M206,253.36a2.05,2.05,0,1,1-2.09-3.53,2.05,2.05,0,0,1,2.09,3.53Z"/><path class="cls-5" d="M237.84,234.42a2.05,2.05,0,1,1-2.21-3.46,2.05,2.05,0,1,1,2.21,3.46Z"/><path class="cls-5" d="M339.68,171.42a2.06,2.06,0,0,1-.71,2.81,2.05,2.05,0,0,1-2.11-3.52A2.06,2.06,0,0,1,339.68,171.42Z"/><path class="cls-5" d="M242,227.14a2.09,2.09,0,0,1,2.8.81,2.11,2.11,0,0,1-.82,2.8,2.06,2.06,0,0,1-2-3.61Z"/><path class="cls-5" d="M272.63,211.42a2.11,2.11,0,0,1,.61-2.85,2.06,2.06,0,0,1,2.24,3.45A2.09,2.09,0,0,1,272.63,211.42Z"/><path class="cls-5" d="M333.35,175.11a2.09,2.09,0,0,1-.63,2.84,2.05,2.05,0,1,1,.63-2.84Z"/><path class="cls-5" d="M304.1,184a2.18,2.18,0,0,1-.62,2.83,2.07,2.07,0,0,1-2.79-.72,2.2,2.2,0,0,1,.55-2.67A2.24,2.24,0,0,1,304.1,184Z"/><path class="cls-5" d="M300.78,197a2.06,2.06,0,1,1-1.88-3.66,2.06,2.06,0,0,1,1.88,3.66Z"/><path class="cls-5" d="M323.43,172.72a2.14,2.14,0,0,1-.88,2.77,2.18,2.18,0,0,1-2.75-.94,2.33,2.33,0,0,1,.82-2.63A2.22,2.22,0,0,1,323.43,172.72Z"/><path class="cls-5" d="M267.08,212.24a2.05,2.05,0,0,1,2,3.61,2.05,2.05,0,0,1-2.77-.84A2,2,0,0,1,267.08,212.24Z"/><path class="cls-5" d="M271.65,205.8a2.16,2.16,0,0,1-2.78-.81,2.26,2.26,0,0,1,.65-2.66,2.22,2.22,0,0,1,2.83.66A2.14,2.14,0,0,1,271.65,205.8Z"/><path class="cls-5" d="M194.18,258a2,2,0,0,1-.68,2.82,2.09,2.09,0,0,1-2.82-.69,2.07,2.07,0,0,1,.69-2.82A2,2,0,0,1,194.18,258Z"/><path class="cls-5" d="M227.33,232.17a2.16,2.16,0,0,1-2.78-.82,2.28,2.28,0,0,1,.68-2.66,2.24,2.24,0,0,1,2.84.67A2.16,2.16,0,0,1,227.33,232.17Z"/><path class="cls-5" d="M335.21,168a2,2,0,0,1-2.75-.79,2.15,2.15,0,0,1,.59-2.65,2.21,2.21,0,0,1,2.84.64A2.12,2.12,0,0,1,335.21,168Z"/><path class="cls-5" d="M183,258.58a2.19,2.19,0,0,1-2.77-.9A2.33,2.33,0,0,1,181,255a2.26,2.26,0,0,1,2.83.75A2.17,2.17,0,0,1,183,258.58Z"/><path class="cls-5" d="M214.78,239.65a2.14,2.14,0,0,1-2.79-.85,2.19,2.19,0,0,1,.93-2.76,2.34,2.34,0,0,1,2.64.79A2.26,2.26,0,0,1,214.78,239.65Z"/><path class="cls-5" d="M234.06,228.16a2.17,2.17,0,0,1-2.81-.73,2.27,2.27,0,0,1,.81-2.8,2.2,2.2,0,0,1,2.63.72A2.06,2.06,0,0,1,234.06,228.16Z"/><path class="cls-5" d="M222.05,241.49a2,2,0,0,1,.62-2.82,2.06,2.06,0,0,1,2.19,3.48A2,2,0,0,1,222.05,241.49Z"/><path class="cls-5" d="M171.17,263.13a2,2,0,1,1-3.45,2.14,2,2,0,0,1,3.45-2.14Z"/><path class="cls-5" d="M196.77,248.05a2.2,2.2,0,0,1-.81,2.8,2.06,2.06,0,0,1-2.73-.92,2.13,2.13,0,0,1,.72-2.61A2.24,2.24,0,0,1,196.77,248.05Z"/><path class="cls-5" d="M212.21,249.68a2.09,2.09,0,0,1-2.78-.88,2.06,2.06,0,0,1,.88-2.77,2,2,0,0,1,2.76.88A2.07,2.07,0,0,1,212.21,249.68Z"/><path class="cls-5" d="M310.3,180.35a2,2,0,0,1-.66,2.83,2.13,2.13,0,0,1-2.66-.67,2.15,2.15,0,0,1,.67-2.86A2.11,2.11,0,0,1,310.3,180.35Z"/><path class="cls-5" d="M265.29,209.57a2.1,2.1,0,0,1-2.76-1,2.17,2.17,0,0,1,.86-2.61,2.09,2.09,0,0,1,2.74,1A2,2,0,0,1,265.29,209.57Z"/><path class="cls-5" d="M284.59,198.1a2.07,2.07,0,0,1-2.74-.85,2.14,2.14,0,0,1,.85-2.76,2.29,2.29,0,0,1,2.62.81A2.14,2.14,0,0,1,284.59,198.1Z"/><path class="cls-5" d="M259.9,210.52a2.24,2.24,0,0,1-.87,2.79,2.08,2.08,0,0,1-2.73-1,2.16,2.16,0,0,1,.78-2.6A2.26,2.26,0,0,1,259.9,210.52Z"/><path class="cls-5" d="M256.58,223.27a2.06,2.06,0,0,1-2.07-3.56,2.06,2.06,0,0,1,2.07,3.56Z"/><path class="cls-5" d="M250.1,216.25a2,2,0,0,1,3.37-2.12,2.08,2.08,0,0,1-.57,2.83A2.12,2.12,0,0,1,250.1,216.25Z"/><path class="cls-5" d="M320.42,182.9a2,2,0,0,1-.72,2.81,2.09,2.09,0,0,1-2.81-.74,2.05,2.05,0,0,1,.73-2.81A2,2,0,0,1,320.42,182.9Z"/><path class="cls-5" d="M275.6,201.15a2.29,2.29,0,0,1,.69-2.85,2.23,2.23,0,0,1,2.67.59,2.08,2.08,0,0,1-.5,2.85A2.21,2.21,0,0,1,275.6,201.15Z"/><path class="cls-5" d="M189.84,254.49a2.16,2.16,0,0,1-2.83-.63,2.29,2.29,0,0,1,.47-2.69,2.14,2.14,0,0,1,2.85.48A2.07,2.07,0,0,1,189.84,254.49Z"/><path class="cls-5" d="M240.42,224.38a2.05,2.05,0,0,1-2.8-.65,2.17,2.17,0,0,1,.67-2.81,2.25,2.25,0,0,1,2.66.62A2.15,2.15,0,0,1,240.42,224.38Z"/><path class="cls-5" d="M176.76,262.27a2.06,2.06,0,0,1-2.75-.83,2,2,0,0,1,3.43-2A2.07,2.07,0,0,1,176.76,262.27Z"/><path class="cls-5" d="M203,244.39a2.05,2.05,0,0,1-.64,2.66,2,2,0,1,1-2-3.54A2.11,2.11,0,0,1,203,244.39Z"/><path class="cls-5" d="M180.57,268.51a2,2,0,0,1-2.81-.67,2,2,0,1,1,3.43-2.15A2,2,0,0,1,180.57,268.51Z"/><path class="cls-5" d="M297.84,187.88a2.08,2.08,0,0,1-.75,2.78,2.15,2.15,0,0,1-2.76-.88,2.25,2.25,0,0,1,.71-2.63A2.16,2.16,0,0,1,297.84,187.88Z"/><path class="cls-5" d="M221.71,233.09a2.07,2.07,0,0,1-.68,2.83,2.09,2.09,0,0,1-2.65-.7,2,2,0,1,1,3.33-2.13Z"/><path class="cls-5" d="M208.54,243.36a2.12,2.12,0,0,1-2.76-.83,2.21,2.21,0,0,1,.64-2.64,2.18,2.18,0,0,1,2.82.67A2.12,2.12,0,0,1,208.54,243.36Z"/><path class="cls-5" d="M243.9,220.08a2.17,2.17,0,0,1,.58-2.84,2.14,2.14,0,0,1,2.66.53,2,2,0,1,1-3.24,2.31Z"/><path class="cls-5" d="M288.23,193.67a2.09,2.09,0,0,1,.59-2.81,2.18,2.18,0,0,1,2.66.54,2.1,2.1,0,0,1-.45,2.84A2,2,0,0,1,288.23,193.67Z"/><path class="cls-5" d="M313.22,178.69a2.18,2.18,0,0,1,.74-2.8,2.2,2.2,0,0,1,2.63.67,2.12,2.12,0,0,1-.57,2.83A2.1,2.1,0,0,1,313.22,178.69Z"/><path class="cls-5" d="M288.38,204.35a2.06,2.06,0,0,1-2.11-3.54,2.07,2.07,0,0,1,2.81.72A2.09,2.09,0,0,1,288.38,204.35Z"/><path class="cls-5" d="M328.89,171.73a2.11,2.11,0,0,1-2.76-.83,2.2,2.2,0,0,1,.86-2.77,2.27,2.27,0,0,1,2.61.8A2.13,2.13,0,0,1,328.89,171.73Z"/><path class="cls-5" d="M224.25,223.24a1.87,1.87,0,0,1-3.22,1.9,1.87,1.87,0,1,1,3.22-1.9Z"/><path class="cls-5" d="M265.26,198.66a1.94,1.94,0,0,1,.82-2.56,1.87,1.87,0,0,1,1.76,3.29A1.93,1.93,0,0,1,265.26,198.66Z"/><path class="cls-5" d="M252.75,206.16a1.87,1.87,0,0,1,.76-2.56,1.85,1.85,0,0,1,1.83,3.22A1.86,1.86,0,0,1,252.75,206.16Z"/><path class="cls-5" d="M192.32,244.33a1.86,1.86,0,1,1-2-3.15,2,2,0,0,1,2.47.5A2,2,0,0,1,192.32,244.33Z"/><path class="cls-5" d="M300.32,178a2,2,0,0,1-.8,2.58,1.87,1.87,0,0,1-1.8-3.27A1.94,1.94,0,0,1,300.32,178Z"/><path class="cls-5" d="M261.58,203.11a1.9,1.9,0,0,1-2.59-.68,1.92,1.92,0,0,1,.77-2.57,1.89,1.89,0,0,1,2.41.65A1.87,1.87,0,0,1,261.58,203.11Z"/><path class="cls-5" d="M344.55,151.47a2,2,0,0,1-.61,2.63,1.87,1.87,0,0,1-2-3.13A2,2,0,0,1,344.55,151.47Z"/><path class="cls-5" d="M237.2,215.49a2,2,0,0,1-.76,2.59,1.91,1.91,0,0,1-2.55-.83,1.88,1.88,0,0,1,3.31-1.76Z"/><path class="cls-5" d="M161.08,260.68a1.87,1.87,0,1,1-3.21,1.92,1.87,1.87,0,0,1,3.21-1.92Z"/><path class="cls-5" d="M154.27,267a1.93,1.93,0,0,1-2.63-.54,1.87,1.87,0,0,1,3.08-2.1A1.91,1.91,0,0,1,154.27,267Z"/><path class="cls-5" d="M185.94,248.13a1.94,1.94,0,0,1-2.6-.71,2,2,0,0,1,.6-2.43,1.86,1.86,0,1,1,2,3.14Z"/><path class="cls-5" d="M325.78,162.77a1.94,1.94,0,0,1-.74,2.58,1.86,1.86,0,0,1-1.86-3.23A1.92,1.92,0,0,1,325.78,162.77Z"/><path class="cls-5" d="M293.24,184.27a1.86,1.86,0,0,1-1.79-3.27,1.87,1.87,0,1,1,1.79,3.27Z"/><path class="cls-5" d="M335.11,157.28a2,2,0,0,1,.62-2.62,1.86,1.86,0,0,1,2,3.1A2,2,0,0,1,335.11,157.28Z"/><path class="cls-5" d="M230.24,221.76a2,2,0,0,1-2.61-.69,2,2,0,0,1,.61-2.44,1.86,1.86,0,1,1,2,3.13Z"/><path class="cls-5" d="M331.49,161.49a1.86,1.86,0,1,1-2-3.14,1.86,1.86,0,0,1,2,3.14Z"/><path class="cls-5" d="M318.77,169.06a1.92,1.92,0,0,1-2.55-.84,2,2,0,0,1,.74-2.4,1.9,1.9,0,0,1,2.58.69A1.87,1.87,0,0,1,318.77,169.06Z"/><path class="cls-5" d="M312.08,173.06a1.87,1.87,0,1,1,.75-2.57A1.92,1.92,0,0,1,312.08,173.06Z"/><path class="cls-5" d="M305.86,176.75a1.85,1.85,0,0,1-2.55-.73,1.84,1.84,0,0,1,3.18-1.85A1.84,1.84,0,0,1,305.86,176.75Z"/><path class="cls-5" d="M284.52,187.2a1.82,1.82,0,0,1,.79-2.52,1.85,1.85,0,0,1,2.51.88,1.91,1.91,0,0,1-.74,2.38A1.86,1.86,0,0,1,284.52,187.2Z"/><path class="cls-5" d="M249,210.61a1.94,1.94,0,0,1-2.56-.8,2,2,0,0,1,.68-2.42,1.93,1.93,0,0,1,2.61.64A1.91,1.91,0,0,1,249,210.61Z"/><path class="cls-5" d="M243.47,211.85a1.85,1.85,0,1,1-3.33,1.59,1.88,1.88,0,0,1,.78-2.36A1.85,1.85,0,0,1,243.47,211.85Z"/><path class="cls-5" d="M214.75,228.87a1.88,1.88,0,0,1,.63-2.59,1.86,1.86,0,1,1-.63,2.59Z"/><path class="cls-5" d="M204.66,237a1.87,1.87,0,1,1,.78-2.57A2,2,0,0,1,204.66,237Z"/><path class="cls-5" d="M198.38,240.71a1.85,1.85,0,1,1,.75-2.55A1.86,1.86,0,0,1,198.38,240.71Z"/><path class="cls-5" d="M179.14,252.16a1.91,1.91,0,0,1-2.54-.85,2,2,0,0,1,.74-2.39,1.85,1.85,0,1,1,1.8,3.24Z"/><path class="cls-5" d="M166.63,259.61a1.85,1.85,0,1,1,.72-2.57A1.89,1.89,0,0,1,166.63,259.61Z"/><path class="cls-5" d="M274.6,195.36a1.92,1.92,0,0,1-2.6-.63,1.86,1.86,0,1,1,2.6.63Z"/><path class="cls-5" d="M173.56,253.2a1.86,1.86,0,1,1-2.63-.47A1.91,1.91,0,0,1,173.56,253.2Z"/><path class="cls-5" d="M210.93,233.25a1.85,1.85,0,1,1,.74-2.57A1.91,1.91,0,0,1,210.93,233.25Z"/><path class="cls-5" d="M280.78,191.69a1.94,1.94,0,0,1-2.58-.77,1.87,1.87,0,0,1,3.26-1.82A1.92,1.92,0,0,1,280.78,191.69Z"/><path class="cls-5" d="M302.05,170.39a1.72,1.72,0,0,1-2.36-.66,1.7,1.7,0,0,1,.64-2.37,1.74,1.74,0,1,1,1.72,3Z"/><path class="cls-5" d="M194.6,234.33a1.74,1.74,0,0,1-1.62-3.08,1.74,1.74,0,0,1,1.62,3.08Z"/><path class="cls-5" d="M328.15,152.74a1.69,1.69,0,0,1-.48,2.4,1.74,1.74,0,1,1-1.91-2.91A1.66,1.66,0,0,1,328.15,152.74Z"/><path class="cls-5" d="M239,208a1.74,1.74,0,0,1-2.37-.68,1.71,1.71,0,0,1,.67-2.36,1.75,1.75,0,0,1,2.37.67A1.77,1.77,0,0,1,239,208Z"/><path class="cls-5" d="M340.68,145.3a1.73,1.73,0,0,1-.49,2.4,1.75,1.75,0,1,1-1.9-2.94A1.71,1.71,0,0,1,340.68,145.3Z"/><path class="cls-5" d="M251.5,200.49a1.81,1.81,0,0,1-2.4-.64,1.76,1.76,0,0,1,3.05-1.76A1.83,1.83,0,0,1,251.5,200.49Z"/><path class="cls-5" d="M314.85,162.75a1.75,1.75,0,0,1-2.28-.95,1.74,1.74,0,0,1,3.23-1.32A1.77,1.77,0,0,1,314.85,162.75Z"/><path class="cls-5" d="M258.43,194.44a1.74,1.74,0,0,1-.74,2.35,1.68,1.68,0,0,1-2.32-.76,1.65,1.65,0,0,1,.71-2.33A1.75,1.75,0,0,1,258.43,194.44Z"/><path class="cls-5" d="M333.84,151.47a1.74,1.74,0,0,1-1.74-3,1.74,1.74,0,1,1,1.74,3Z"/><path class="cls-5" d="M163.5,250.8a1.75,1.75,0,1,1-3,1.82,1.75,1.75,0,0,1,.58-2.4A1.78,1.78,0,0,1,163.5,250.8Z"/><path class="cls-5" d="M264.13,193a1.74,1.74,0,0,1-2.41-.51,1.77,1.77,0,0,1,.49-2.41,1.75,1.75,0,0,1,1.92,2.92Z"/><path class="cls-5" d="M270.76,189a1.75,1.75,0,1,1,.64-2.39A1.82,1.82,0,0,1,270.76,189Z"/><path class="cls-5" d="M283.89,179.15a1.74,1.74,0,0,1-.58,2.4,1.75,1.75,0,0,1-1.81-3A1.74,1.74,0,0,1,283.89,179.15Z"/><path class="cls-5" d="M289.43,177.9a1.71,1.71,0,0,1-2.3-.82,1.66,1.66,0,0,1,.77-2.32,1.75,1.75,0,1,1,1.53,3.14Z"/><path class="cls-5" d="M188.51,238a1.81,1.81,0,0,1-2.44-.46,1.79,1.79,0,0,1,.48-2.43,1.7,1.7,0,0,1,2.41.47A1.74,1.74,0,0,1,188.51,238Z"/><path class="cls-5" d="M182.1,241.79a1.73,1.73,0,0,1-2.34-.71,1.69,1.69,0,0,1,.66-2.36,1.75,1.75,0,1,1,1.68,3.07Z"/><path class="cls-5" d="M156.55,257a1.74,1.74,0,0,1-2.32-.79,1.72,1.72,0,1,1,3.08-1.55A1.74,1.74,0,0,1,156.55,257Z"/><path class="cls-5" d="M293.39,173.43a1.8,1.8,0,0,1,.72-2.37,1.72,1.72,0,0,1,2.35.72,1.75,1.75,0,0,1-.69,2.36A1.81,1.81,0,0,1,293.39,173.43Z"/><path class="cls-5" d="M207.26,226.81a1.8,1.8,0,0,1-2.42-.53,1.75,1.75,0,1,1,2.42.53Z"/><path class="cls-5" d="M175.38,245.78a1.74,1.74,0,1,1,.72-2.37A1.77,1.77,0,0,1,175.38,245.78Z"/><path class="cls-5" d="M151,258.23a1.77,1.77,0,0,1-.53,2.41,1.72,1.72,0,0,1-2.39-.55,1.68,1.68,0,0,1,.51-2.39A1.74,1.74,0,0,1,151,258.23Z"/><path class="cls-5" d="M217.39,218.81a1.8,1.8,0,0,1,.54-2.42,1.75,1.75,0,0,1,1.88,3A1.8,1.8,0,0,1,217.39,218.81Z"/><path class="cls-5" d="M144.21,264.33a1.8,1.8,0,0,1-2.44-.44,1.78,1.78,0,0,1,.46-2.43,1.74,1.74,0,1,1,2,2.87Z"/><path class="cls-5" d="M224,214.7a1.73,1.73,0,0,1,.72-2.35,1.74,1.74,0,1,1,1.64,3.07A1.76,1.76,0,0,1,224,214.7Z"/><path class="cls-5" d="M233.32,209.28a1.74,1.74,0,0,1-.6,2.38,1.75,1.75,0,1,1-1.77-3A1.71,1.71,0,0,1,233.32,209.28Z"/><path class="cls-5" d="M166.87,249a1.73,1.73,0,0,1,.42-2.43,1.67,1.67,0,0,1,2.4.46,1.72,1.72,0,1,1-2.82,2Z"/><path class="cls-5" d="M318.94,158.32a1.73,1.73,0,1,1,2.38.61A1.72,1.72,0,0,1,318.94,158.32Z"/><path class="cls-5" d="M135.5,267.56a1.74,1.74,0,1,1,2.92-1.88,1.78,1.78,0,0,1-.51,2.42A1.76,1.76,0,0,1,135.5,267.56Z"/><path class="cls-5" d="M201.6,228.24a1.76,1.76,0,0,1-.69,2.36,1.74,1.74,0,0,1-2.35-.73,1.7,1.7,0,0,1,.68-2.36A1.74,1.74,0,0,1,201.6,228.24Z"/><path class="cls-5" d="M245.91,201.89a1.79,1.79,0,0,1-.73,2.36,1.76,1.76,0,0,1-2.34-.75,1.71,1.71,0,0,1,.71-2.36A1.78,1.78,0,0,1,245.91,201.89Z"/><path class="cls-5" d="M213.55,223.08a1.73,1.73,0,0,1-2.41-.52,1.73,1.73,0,1,1,2.89-1.9A1.76,1.76,0,0,1,213.55,223.08Z"/><path class="cls-5" d="M308.37,166.64A1.74,1.74,0,0,1,306,166a1.7,1.7,0,0,1,.6-2.38,1.73,1.73,0,0,1,2.38.62A1.75,1.75,0,0,1,308.37,166.64Z"/><path class="cls-5" d="M277.58,182.87a1.75,1.75,0,0,1-.51,2.41,1.79,1.79,0,0,1-2.41-.56,1.76,1.76,0,0,1,.53-2.41A1.69,1.69,0,0,1,277.58,182.87Z"/><path class="cls-5" d="M203.92,218.14a1.63,1.63,0,1,1-2.71,1.82,1.64,1.64,0,0,1,2.71-1.82Z"/><path class="cls-5" d="M311.9,154.1a1.64,1.64,0,0,1-.8,2.28,1.67,1.67,0,0,1-2.11-.79,1.58,1.58,0,0,1,.77-2.09A1.55,1.55,0,0,1,311.9,154.1Z"/><path class="cls-5" d="M172.18,237a1.66,1.66,0,0,1-.54,2.36,1.61,1.61,0,0,1-2.17-.54,1.55,1.55,0,0,1,.5-2.16A1.61,1.61,0,0,1,172.18,237Z"/><path class="cls-5" d="M232.93,200.94a1.58,1.58,0,0,1,.67-2.13,1.53,1.53,0,0,1,2.16.52,1.63,1.63,0,1,1-2.83,1.61Z"/><path class="cls-5" d="M280.07,172.94a1.63,1.63,0,1,1-2.82,1.64,1.64,1.64,0,0,1,2.82-1.64Z"/><path class="cls-5" d="M140.88,255.78a1.62,1.62,0,0,1-.46,2.19,1.68,1.68,0,0,1-2.36-.55,1.61,1.61,0,0,1,.65-2.14A1.57,1.57,0,0,1,140.88,255.78Z"/><path class="cls-5" d="M247.69,194.13a1.67,1.67,0,0,1-2.18-.56,1.6,1.6,0,0,1,.75-2.28,1.53,1.53,0,0,1,2.1.71A1.61,1.61,0,0,1,247.69,194.13Z"/><path class="cls-5" d="M264.69,182a1.64,1.64,0,0,1,2.89-1.53,1.65,1.65,0,0,1-.78,2.29A1.62,1.62,0,0,1,264.69,182Z"/><path class="cls-5" d="M184.64,231.66a1.65,1.65,0,0,1-2.19-.51,1.59,1.59,0,0,1,.68-2.3,1.51,1.51,0,0,1,2.1.67A1.58,1.58,0,0,1,184.64,231.66Z"/><path class="cls-5" d="M324.41,146.66a1.56,1.56,0,0,1-.57,2.15,1.61,1.61,0,0,1-2.31-.69,1.54,1.54,0,0,1,.77-2.08A1.48,1.48,0,0,1,324.41,146.66Z"/><path class="cls-5" d="M190.69,228a1.6,1.6,0,0,1-2.09-.78,1.57,1.57,0,0,1,1-2.19,1.51,1.51,0,0,1,2,.93A1.57,1.57,0,0,1,190.69,228Z"/><path class="cls-5" d="M292,167.76a1.65,1.65,0,0,1-2.17-.57,1.59,1.59,0,0,1,.75-2.28,1.52,1.52,0,0,1,2.08.73A1.57,1.57,0,0,1,292,167.76Z"/><path class="cls-5" d="M330.68,142.94a1.62,1.62,0,1,1-2.9,1.45,1.62,1.62,0,0,1,2.9-1.45Z"/><path class="cls-5" d="M298.39,163.94a1.58,1.58,0,0,1-2.21-.32,1.62,1.62,0,1,1,2.65-1.86A1.57,1.57,0,0,1,298.39,163.94Z"/><path class="cls-5" d="M159.09,246.86a1.64,1.64,0,0,1-2.3-.73,1.61,1.61,0,0,1,.81-2.08,1.52,1.52,0,0,1,2.1.67A1.57,1.57,0,0,1,159.09,246.86Z"/><path class="cls-5" d="M216.59,210.86a1.61,1.61,0,0,1-.84,2.26,1.63,1.63,0,0,1-2.07-.85,1.62,1.62,0,0,1,2.91-1.41Z"/><path class="cls-5" d="M220.48,208.48a1.52,1.52,0,0,1,.5-2.15,1.62,1.62,0,0,1,2.2.36,1.68,1.68,0,0,1-.55,2.36A1.58,1.58,0,0,1,220.48,208.48Z"/><path class="cls-5" d="M254.54,188.22a1.53,1.53,0,0,1-.53,2.14,1.57,1.57,0,0,1-2.29-.66,1.51,1.51,0,0,1,.72-2.08A1.48,1.48,0,0,1,254.54,188.22Z"/><path class="cls-5" d="M260.23,186.66a1.52,1.52,0,0,1-2.11-.61,1.48,1.48,0,0,1,.5-2.12,1.53,1.53,0,0,1,2.16.41A1.59,1.59,0,0,1,260.23,186.66Z"/><path class="cls-5" d="M152.91,250.53a1.59,1.59,0,0,1-1.79-2.63,1.59,1.59,0,1,1,1.79,2.63Z"/><path class="cls-5" d="M146.63,254.27a1.54,1.54,0,0,1-2.17-.42,1.59,1.59,0,1,1,2.66-1.74A1.56,1.56,0,0,1,146.63,254.27Z"/><path class="cls-5" d="M161.49,236.77a1.43,1.43,0,0,1-1.94-.57,1.51,1.51,0,0,1,.6-2.13,1.54,1.54,0,0,1,2.08.81A1.47,1.47,0,0,1,161.49,236.77Z"/><path class="cls-5" d="M165.87,240.81a1.56,1.56,0,0,1-.31,2.19,1.54,1.54,0,0,1-2.33-.45,1.47,1.47,0,0,1,.48-2.13A1.49,1.49,0,0,1,165.87,240.81Z"/><path class="cls-5" d="M307.41,149.94a1.48,1.48,0,0,1-1.93-.5,1.54,1.54,0,0,1,.45-2.14,1.65,1.65,0,0,1,2.15.55A1.57,1.57,0,0,1,307.41,149.94Z"/><path class="cls-5" d="M315.3,151.92a1.52,1.52,0,0,1,.64-2.1,1.48,1.48,0,0,1,2.11.55,1.53,1.53,0,0,1-.66,2.27A1.59,1.59,0,0,1,315.3,151.92Z"/><path class="cls-5" d="M283.62,171a1.5,1.5,0,0,1,.41-2.15,1.58,1.58,0,0,1,2.19.31,1.6,1.6,0,0,1-.46,2.34A1.52,1.52,0,0,1,283.62,171Z"/><path class="cls-5" d="M276.29,166.77a1.51,1.51,0,0,1-.67,2.08,1.48,1.48,0,0,1-1.94-.5,1.56,1.56,0,0,1,.48-2.14A1.59,1.59,0,0,1,276.29,166.77Z"/><path class="cls-5" d="M270,170.5a1.45,1.45,0,0,1-.42,2,1.49,1.49,0,0,1-2.15-.47,1.55,1.55,0,0,1,.42-2A1.51,1.51,0,0,1,270,170.5Z"/><path class="cls-5" d="M271,178.24a1.54,1.54,0,0,1,.7-2.09,1.5,1.5,0,0,1,2.1.61,1.56,1.56,0,0,1-.72,2.27A1.62,1.62,0,0,1,271,178.24Z"/><path class="cls-5" d="M300.65,154a1.44,1.44,0,0,1-1.92-.63,1.5,1.5,0,0,1,.64-2.11,1.57,1.57,0,0,1,1.95.63A1.51,1.51,0,0,1,300.65,154Z"/><path class="cls-5" d="M304.51,160.31a1.53,1.53,0,0,1-2.11-.63,1.48,1.48,0,0,1,.53-2.12,1.52,1.52,0,0,1,2.27.66A1.57,1.57,0,0,1,304.51,160.31Z"/><path class="cls-5" d="M237.75,191.39a1.45,1.45,0,0,1-2-.29,1.53,1.53,0,0,1,.29-2.2,1.56,1.56,0,0,1,2.16.52A1.49,1.49,0,0,1,237.75,191.39Z"/><path class="cls-5" d="M241.51,197.8a1.59,1.59,0,0,1-1.82-2.61,1.59,1.59,0,1,1,1.82,2.61Z"/><path class="cls-5" d="M231.3,195.22a1.5,1.5,0,0,1-2.06-.7,1.53,1.53,0,0,1,2.73-1.37A1.5,1.5,0,0,1,231.3,195.22Z"/><path class="cls-5" d="M134.13,261.71a1.6,1.6,0,0,1-1.87-2.58,1.56,1.56,0,0,1,2.34.42A1.58,1.58,0,0,1,134.13,261.71Z"/><path class="cls-5" d="M130.21,255.39a1.45,1.45,0,0,1-2-.49,1.52,1.52,0,0,1,.51-2.15,1.57,1.57,0,0,1,2.11.72A1.51,1.51,0,0,1,130.21,255.39Z"/><path class="cls-5" d="M225.18,198.87a1.51,1.51,0,0,1-2-.35,1.57,1.57,0,0,1,.39-2.19,1.53,1.53,0,0,1,2.14.58A1.48,1.48,0,0,1,225.18,198.87Z"/><path class="cls-5" d="M229,205.25a1.57,1.57,0,0,1-2.17-.42,1.55,1.55,0,0,1,.54-2.31,1.49,1.49,0,0,1,2.11.58A1.54,1.54,0,0,1,229,205.25Z"/><path class="cls-5" d="M205.84,210.38a1.47,1.47,0,0,1-2-.47,1.51,1.51,0,1,1,2.62-1.46A1.47,1.47,0,0,1,205.84,210.38Z"/><path class="cls-5" d="M210.26,214.62a1.53,1.53,0,0,1-.58,2.13,1.58,1.58,0,0,1-2.27-.73,1.53,1.53,0,0,1,.76-2.07A1.5,1.5,0,0,1,210.26,214.62Z"/><path class="cls-5" d="M197.56,213.65a1.66,1.66,0,0,1,.51-2.16,1.57,1.57,0,0,1,2.11.59,1.49,1.49,0,0,1-.46,1.94A1.57,1.57,0,0,1,197.56,213.65Z"/><path class="cls-5" d="M167.9,233a1.49,1.49,0,0,1-2-.33,1.55,1.55,0,0,1,.28-2.17,1.63,1.63,0,0,1,2.18.37A1.55,1.55,0,0,1,167.9,233Z"/><path class="cls-5" d="M178.42,235.35a1.54,1.54,0,0,1-2.16-.4,1.52,1.52,0,0,1,.3-2.18,1.59,1.59,0,1,1,1.86,2.58Z"/><path class="cls-5" d="M193.25,217.88a1.44,1.44,0,0,1-1.92-.63,1.49,1.49,0,0,1,.64-2.11,1.58,1.58,0,0,1,1.95.63A1.53,1.53,0,0,1,193.25,217.88Z"/><path class="cls-5" d="M197.69,222a1.58,1.58,0,0,1-.61,2.3,1.52,1.52,0,0,1-2.09-.68,1.47,1.47,0,0,1,.56-2.1A1.51,1.51,0,0,1,197.69,222Z"/><path class="cls-5" d="M313.75,146.16a1.5,1.5,0,0,1-2.13-.59,1.58,1.58,0,0,1,.54-2,1.51,1.51,0,0,1,2.13.62A1.45,1.45,0,0,1,313.75,146.16Z"/><path class="cls-5" d="M243.86,187.75a1.52,1.52,0,0,1-2.07-.68,1.52,1.52,0,0,1,2.7-1.4A1.49,1.49,0,0,1,243.86,187.75Z"/><path class="cls-5" d="M134.48,251.17A1.61,1.61,0,0,1,135,249a1.58,1.58,0,0,1,2.11.6,1.51,1.51,0,0,1-.49,2A1.53,1.53,0,0,1,134.48,251.17Z"/><path class="cls-5" d="M263,176.37a1.51,1.51,0,0,1-1.89-.67,1.54,1.54,0,0,1,.66-2.08,1.62,1.62,0,0,1,2.08.72A1.6,1.6,0,0,1,263,176.37Z"/><path class="cls-5" d="M218.93,202.59a1.54,1.54,0,0,1-2-.29,1.56,1.56,0,0,1,.34-2.2,1.53,1.53,0,0,1,2.15.52A1.49,1.49,0,0,1,218.93,202.59Z"/><path class="cls-5" d="M212.15,206.62a1.42,1.42,0,0,1-2-.47,1.47,1.47,0,0,1,.5-2.14,1.61,1.61,0,0,1,2,.46A1.52,1.52,0,0,1,212.15,206.62Z"/><path class="cls-5" d="M140.67,247.33a1.5,1.5,0,1,1,2.67-1.38,1.47,1.47,0,0,1-.76,2.07A1.49,1.49,0,0,1,140.67,247.33Z"/><path class="cls-5" d="M256.52,180.22a1.45,1.45,0,0,1-2-.36,1.51,1.51,0,0,1,.38-2.18,1.6,1.6,0,0,1,2,.36A1.53,1.53,0,0,1,256.52,180.22Z"/><path class="cls-5" d="M282.48,163a1.5,1.5,0,1,1-2.57,1.53,1.5,1.5,0,1,1,2.57-1.53Z"/><path class="cls-5" d="M288.27,161.32a1.53,1.53,0,0,1-2-.37,1.51,1.51,0,1,1,2.57-1.58A1.5,1.5,0,0,1,288.27,161.32Z"/><path class="cls-5" d="M295,155.55a1.44,1.44,0,0,1-.36,2,1.53,1.53,0,0,1-2.19-.39A1.56,1.56,0,0,1,293,155,1.49,1.49,0,0,1,295,155.55Z"/><path class="cls-5" d="M320.07,142.39a1.42,1.42,0,0,1-2.09-.5,1.52,1.52,0,0,1,.37-2,1.56,1.56,0,0,1,2.16.34A1.48,1.48,0,0,1,320.07,142.39Z"/><path class="cls-5" d="M175.15,227.07a1.5,1.5,0,0,1-.61,1.94,1.47,1.47,0,0,1-2.1-.65,1.53,1.53,0,0,1,.59-2A1.56,1.56,0,0,1,175.15,227.07Z"/><path class="cls-5" d="M149,244.23a1.41,1.41,0,0,1-1.92-.6,1.46,1.46,0,0,1,.6-2.11,1.59,1.59,0,0,1,2,.59A1.54,1.54,0,0,1,149,244.23Z"/><path class="cls-5" d="M250.77,182.07a1.44,1.44,0,0,1-.61,1.93,1.48,1.48,0,0,1-2.11-.64,1.54,1.54,0,0,1,.6-2A1.52,1.52,0,0,1,250.77,182.07Z"/><path class="cls-5" d="M185,221.09a1.55,1.55,0,0,1,.56-2.16,1.5,1.5,0,0,1,2,.53,1.45,1.45,0,0,1-.34,2A1.52,1.52,0,0,1,185,221.09Z"/><path class="cls-5" d="M153.25,240a1.58,1.58,0,0,1,.57-2.16,1.49,1.49,0,0,1,2,.53,1.45,1.45,0,0,1-.33,2A1.57,1.57,0,0,1,153.25,240Z"/><path class="cls-5" d="M180.78,225.3a1.51,1.51,0,0,1-2-.52,1.55,1.55,0,0,1,.57-2.15,1.57,1.57,0,0,1,2.1.75A1.54,1.54,0,0,1,180.78,225.3Z"/><path class="cls-5" d="M126.55,249a1.42,1.42,0,0,1-1.94-.41,1.52,1.52,0,0,1,.28-1.8,1.54,1.54,0,0,1,2,.24A1.48,1.48,0,0,1,126.55,249Z"/><path class="cls-5" d="M157.82,230.37a1.44,1.44,0,0,1-1.94-.51,1.49,1.49,0,0,1,.63-1.91,1.51,1.51,0,0,1,1.77.47A1.43,1.43,0,0,1,157.82,230.37Z"/><path class="cls-5" d="M187.72,211a1.45,1.45,0,0,1,.5-1.93,1.38,1.38,0,0,1,1.45,2.35A1.42,1.42,0,0,1,187.72,211Z"/><path class="cls-5" d="M200.19,203.51a1.39,1.39,0,1,1,1.93.49A1.42,1.42,0,0,1,200.19,203.51Z"/><path class="cls-5" d="M232,184.63a1.47,1.47,0,0,1,.52-1.93,1.38,1.38,0,0,1,1.42,2.37A1.43,1.43,0,0,1,232,184.63Z"/><path class="cls-5" d="M265.7,166.17a1.47,1.47,0,0,1-1.95-.47,1.51,1.51,0,0,1,.58-1.93,1.55,1.55,0,0,1,1.77.44A1.44,1.44,0,0,1,265.7,166.17Z"/><path class="cls-5" d="M297.45,145.55a1.5,1.5,0,0,1-.41,2,1.45,1.45,0,0,1-1.8-.27,1.5,1.5,0,0,1,.2-2A1.58,1.58,0,0,1,297.45,145.55Z"/><path class="cls-5" d="M168.93,222.25a1.46,1.46,0,0,1,.42-1.95,1.48,1.48,0,0,1,1.93.51,1.51,1.51,0,0,1-.38,1.78A1.46,1.46,0,0,1,168.93,222.25Z"/><path class="cls-5" d="M177.08,218.91a1.46,1.46,0,0,1-1.93-.51,1.5,1.5,0,0,1,.61-1.91,1.55,1.55,0,0,1,1.77.47A1.45,1.45,0,0,1,177.08,218.91Z"/><path class="cls-5" d="M316.78,134.21a1.49,1.49,0,0,1-.62,1.92,1.37,1.37,0,0,1-1.33-2.4A1.49,1.49,0,0,1,316.78,134.21Z"/><path class="cls-5" d="M276.23,158.18a1.39,1.39,0,1,1,2.54-1.13,1.49,1.49,0,0,1-.63,1.71A1.45,1.45,0,0,1,276.23,158.18Z"/><path class="cls-5" d="M282.6,154.55a1.49,1.49,0,0,1,.5-1.94,1.38,1.38,0,1,1-.5,1.94Z"/><path class="cls-5" d="M221.32,192.59a1.48,1.48,0,0,1-1.9-.62,1.53,1.53,0,0,1,.7-1.88,1.56,1.56,0,0,1,1.74.57A1.47,1.47,0,0,1,221.32,192.59Z"/><path class="cls-5" d="M309.92,139.85a1.48,1.48,0,0,1-1.92-.58,1.56,1.56,0,0,1,.69-1.9,1.51,1.51,0,0,1,1.74.56A1.41,1.41,0,0,1,309.92,139.85Z"/><path class="cls-5" d="M253.22,172a1.5,1.5,0,0,1-.59,1.92,1.44,1.44,0,0,1-1.89-.65,1.39,1.39,0,0,1,2.48-1.27Z"/><path class="cls-5" d="M145.81,236a1.49,1.49,0,0,1-.59,1.92,1.44,1.44,0,0,1-1.88-.65,1.5,1.5,0,0,1,.52-1.75A1.53,1.53,0,0,1,145.81,236Z"/><path class="cls-5" d="M183.27,215.2a1.42,1.42,0,0,1-1.92-.54,1.51,1.51,0,0,1,.69-1.9,1.48,1.48,0,0,1,1.74.53A1.38,1.38,0,0,1,183.27,215.2Z"/><path class="cls-5" d="M151.51,234.11a1.49,1.49,0,0,1-1.94-.53,1.62,1.62,0,0,1,.68-1.91,1.46,1.46,0,0,1,1.73.53A1.36,1.36,0,0,1,151.51,234.11Z"/><path class="cls-5" d="M139.53,239.76a1.42,1.42,0,0,1-.67,1.88,1.37,1.37,0,0,1-1.24-2.45A1.43,1.43,0,0,1,139.53,239.76Z"/><path class="cls-5" d="M208.88,198.27a1.53,1.53,0,0,1-.46,2,1.4,1.4,0,0,1-1.78-.27,1.46,1.46,0,0,1,.22-2A1.64,1.64,0,0,1,208.88,198.27Z"/><path class="cls-5" d="M215.16,196.24a1.43,1.43,0,0,1-1.94-.39,1.38,1.38,0,0,1,2.26-1.59A1.48,1.48,0,0,1,215.16,196.24Z"/><path class="cls-5" d="M247,175.86a1.43,1.43,0,0,1-.71,1.87,1.37,1.37,0,0,1-1.2-2.47A1.44,1.44,0,0,1,247,175.86Z"/><path class="cls-5" d="M290.67,151.28a1.43,1.43,0,0,1-1.92-.55,1.51,1.51,0,0,1,.7-1.89,1.46,1.46,0,0,1,1.74.54A1.37,1.37,0,0,1,290.67,151.28Z"/><path class="cls-5" d="M133.19,243.32a1.41,1.41,0,0,1-.41,1.94A1.48,1.48,0,0,1,131,245a1.51,1.51,0,0,1,.23-2A1.49,1.49,0,0,1,133.19,243.32Z"/><path class="cls-5" d="M257.5,169.41a1.44,1.44,0,0,1,.57-1.9,1.37,1.37,0,0,1,1.34,2.39A1.4,1.4,0,0,1,257.5,169.41Z"/><path class="cls-5" d="M228.09,186.93a1.36,1.36,0,0,1-.52,1.9,1.35,1.35,0,0,1-1.41-2.31A1.4,1.4,0,0,1,228.09,186.93Z"/><path class="cls-5" d="M193.89,207.19a1.54,1.54,0,0,1,.69-1.88,1.43,1.43,0,0,1,1.83.75,1.38,1.38,0,0,1-.61,1.68A1.45,1.45,0,0,1,193.89,207.19Z"/><path class="cls-5" d="M270.1,162.05a1.39,1.39,0,0,1,.42-1.94,1.44,1.44,0,0,1,1.93.49,1.39,1.39,0,0,1-.41,1.76A1.35,1.35,0,0,1,270.1,162.05Z"/><path class="cls-5" d="M303.62,143.59a1.4,1.4,0,0,1-1.86-.67,1.43,1.43,0,0,1,.53-1.72,1.51,1.51,0,0,1,1.94.48A1.5,1.5,0,0,1,303.62,143.59Z"/><path class="cls-5" d="M164,226.69a1.41,1.41,0,0,1-1.86-.67,1.43,1.43,0,0,1,.53-1.72,1.37,1.37,0,1,1,1.33,2.39Z"/><path class="cls-5" d="M240.1,181.4a1.48,1.48,0,0,1-1.9-.63,1.51,1.51,0,0,1,.74-1.86,1.47,1.47,0,0,1,1.71.59A1.41,1.41,0,0,1,240.1,181.4Z"/><path class="cls-5" d="M223.28,182a1.07,1.07,0,0,1-1.44-.58,1.15,1.15,0,0,1,.72-1.58,1.11,1.11,0,0,1,1.45.58A1.14,1.14,0,0,1,223.28,182Z"/><path class="cls-5" d="M299.56,136.66a1.15,1.15,0,0,1-1.52-.33A1.17,1.17,0,0,1,300,135,1.15,1.15,0,0,1,299.56,136.66Z"/><path class="cls-5" d="M159.94,219.75a1.13,1.13,0,0,1-1.52-.32,1.17,1.17,0,0,1,1.91-1.36A1.14,1.14,0,0,1,159.94,219.75Z"/><path class="cls-5" d="M266.27,155.27a1.11,1.11,0,0,1,.2-1.55,1.14,1.14,0,0,1,1.73.14,1.08,1.08,0,0,1-.19,1.54A1.16,1.16,0,0,1,266.27,155.27Z"/><path class="cls-5" d="M191.73,200.84a1.17,1.17,0,0,1-1.53-.32,1.19,1.19,0,0,1,.39-1.69,1.15,1.15,0,0,1,1.64.54A1.13,1.13,0,0,1,191.73,200.84Z"/><path class="cls-5" d="M247,166.61a1.15,1.15,0,0,1,.52-1.65,1.15,1.15,0,1,1,1,2.1A1.11,1.11,0,0,1,247,166.61Z"/><path class="cls-5" d="M210.77,189.48a1.06,1.06,0,0,1-1.42-.58,1.08,1.08,0,0,1,.64-1.57,1.12,1.12,0,0,1,1.43.56A1.15,1.15,0,0,1,210.77,189.48Z"/><path class="cls-5" d="M128.73,238.32a1.14,1.14,0,1,1,.36-1.5A1.11,1.11,0,0,1,128.73,238.32Z"/><path class="cls-5" d="M204.25,193.39a1.17,1.17,0,0,1-1.52-.33,1.18,1.18,0,0,1,.39-1.69,1.16,1.16,0,1,1,1.13,2Z"/><path class="cls-5" d="M253.64,162.54a1.13,1.13,0,0,1,.43-1.49,1.19,1.19,0,0,1,1.67.46,1.16,1.16,0,0,1-.67,1.59A1.06,1.06,0,0,1,253.64,162.54Z"/><path class="cls-5" d="M147.41,227.2a1.12,1.12,0,0,1-1.51-.31,1.16,1.16,0,1,1,2-1.15A1.1,1.1,0,0,1,147.41,227.2Z"/><path class="cls-5" d="M173.36,210.41a1.09,1.09,0,0,1-.28,1.51,1.13,1.13,0,0,1-1.7-.3,1.15,1.15,0,0,1,.5-1.65A1.12,1.12,0,0,1,173.36,210.41Z"/><path class="cls-5" d="M287.05,142.77a1.14,1.14,0,0,1-.35,1.52,1.12,1.12,0,0,1-1.7-.3,1.11,1.11,0,0,1,.33-1.52A1.17,1.17,0,0,1,287.05,142.77Z"/><path class="cls-5" d="M139.63,230.6a1.15,1.15,0,0,1,.4-1.68,1.16,1.16,0,0,1,1.12,2A1.17,1.17,0,0,1,139.63,230.6Z"/><path class="cls-5" d="M280.44,148a1.11,1.11,0,0,1-1.67-.37,1.15,1.15,0,1,1,2-1.12A1.09,1.09,0,0,1,280.44,148Z"/><path class="cls-5" d="M236.52,173a1.1,1.1,0,0,1-.46,1.47,1.14,1.14,0,0,1-1.65-.5,1.19,1.19,0,0,1,.47-1.48A1.13,1.13,0,0,1,236.52,173Z"/><path class="cls-5" d="M179.2,208.28a1.11,1.11,0,0,1-1.53-.27,1.14,1.14,0,0,1,.35-1.7,1.18,1.18,0,0,1,1.55.28A1.14,1.14,0,0,1,179.2,208.28Z"/><path class="cls-5" d="M198,197.05a1.1,1.1,0,0,1-1.52-.19,1.13,1.13,0,0,1,.25-1.69,1.13,1.13,0,1,1,1.27,1.88Z"/><path class="cls-5" d="M166.73,215.69a1.11,1.11,0,0,1-1.52-.17,1.15,1.15,0,0,1,.2-1.69,1.11,1.11,0,0,1,1.65.38A1.1,1.1,0,0,1,166.73,215.69Z"/><path class="cls-5" d="M242.07,170.81a1,1,0,0,1-1.41-.56,1.17,1.17,0,0,1,2.11-1A1.15,1.15,0,0,1,242.07,170.81Z"/><path class="cls-5" d="M185.46,204.58a1.11,1.11,0,0,1-1.51-.34,1.13,1.13,0,0,1,.36-1.68,1.16,1.16,0,0,1,1.15,2Z"/><path class="cls-5" d="M272.57,151.53a1.14,1.14,0,1,1,1.49.29A1.09,1.09,0,0,1,272.57,151.53Z"/><path class="cls-5" d="M291.37,140.33a1.14,1.14,0,1,1,1.5.32A1.08,1.08,0,0,1,291.37,140.33Z"/><path class="cls-5" d="M133.37,234.37a1.12,1.12,0,0,1,.15-1.53,1.16,1.16,0,0,1,1.72.12,1.14,1.14,0,0,1-.35,1.68A1.11,1.11,0,0,1,133.37,234.37Z"/><path class="cls-5" d="M217.27,185.64a1.08,1.08,0,0,1-1.51-.3,1.14,1.14,0,0,1,.31-1.69,1.16,1.16,0,0,1,1.2,2Z"/><path class="cls-5" d="M304.31,132.55a1.14,1.14,0,1,1,1.9-1.26,1.1,1.1,0,0,1-.42,1.64A1.09,1.09,0,0,1,304.31,132.55Z"/><path class="cls-5" d="M154.06,221.83a1.06,1.06,0,0,1-.21,1.51,1.11,1.11,0,0,1-1.69-.21,1.08,1.08,0,0,1,.21-1.52A1.11,1.11,0,0,1,154.06,221.83Z"/><path class="cls-5" d="M250.15,156.45a1.13,1.13,0,0,1,.39-1.64,1,1,0,0,1,1.27.43.92.92,0,0,1-.49,1.39A3.06,3.06,0,0,1,250.15,156.45Z"/><path class="cls-5" d="M261.58,159.23a1.11,1.11,0,0,1-1.53-.28,1.15,1.15,0,0,1,.2-1.55,1.11,1.11,0,0,1,1.69.34A1.06,1.06,0,0,1,261.58,159.23Z"/><path class="cls-5" d="M163.09,209.18a1.08,1.08,0,0,1-1.51,0,1,1,0,0,1,.16-1.5.94.94,0,0,1,1.43.38A2.86,2.86,0,0,1,163.09,209.18Z"/><path class="cls-5" d="M188.11,194.62a4.42,4.42,0,0,1-1.44-.46,1,1,0,1,1,1.63-1A4.82,4.82,0,0,1,188.11,194.62Z"/><path class="cls-5" d="M294.11,129.93a5,5,0,0,1,.61-1.41c.39-.4,1.19-.12,1.45.4a.94.94,0,0,1-.6,1.36A4.57,4.57,0,0,1,294.11,129.93Z"/><path class="cls-5" d="M283.29,136.81a2.81,2.81,0,0,1-.48,1.09,1,1,0,0,1-1.47-.31,1.08,1.08,0,0,1,.35-1.32A1.1,1.1,0,0,1,283.29,136.81Z"/><path class="cls-5" d="M258.24,151.8a3.14,3.14,0,0,1-.5,1,.92.92,0,0,1-1.41-.41,1,1,0,0,1,.36-1.28C257.19,150.82,257.86,151,258.24,151.8Z"/><path class="cls-5" d="M289.45,132.91a1,1,0,1,1-1.79.88,1,1,0,0,1,.33-1.29A1,1,0,0,1,289.45,132.91Z"/><path class="cls-5" d="M155.84,213.48a2.94,2.94,0,0,1-1.06-.51,1,1,0,0,1,.43-1.43,1,1,0,1,1,.63,1.94Z"/><path class="cls-5" d="M218.31,175.26a1.11,1.11,0,0,1,.38-1.51A1.14,1.14,0,0,1,220,174a1,1,0,0,1-.19,1.34A1.08,1.08,0,0,1,218.31,175.26Z"/><path class="cls-5" d="M229.79,178.15a1.09,1.09,0,0,1-1.52-.29,1.15,1.15,0,0,1,.19-1.55,1.13,1.13,0,0,1,1.69.35A1.07,1.07,0,0,1,229.79,178.15Z"/><path class="cls-5" d="M270.52,145.23a1.08,1.08,0,0,1-1.51,0,1,1,0,0,1,.1-1.51,1,1,0,0,1,1.45.31A2.83,2.83,0,0,1,270.52,145.23Z"/><path class="cls-5" d="M226.28,170.38a1,1,0,1,1-1.69,1.08,1.07,1.07,0,0,1,.19-1.33A1,1,0,0,1,226.28,170.38Z"/><path class="cls-5" d="M182,196.84a1,1,0,0,1-.55,1.4,1,1,0,0,1-1.23-.52,1,1,0,0,1,.33-1.29A1,1,0,0,1,182,196.84Z"/><path class="cls-5" d="M175.66,201.67c-.7.51-1.42.39-1.71-.11a1.09,1.09,0,0,1,.29-1.34,1,1,0,0,1,1.49.28A2.79,2.79,0,0,1,175.66,201.67Z"/><path class="cls-5" d="M150.14,216.88c-.63.43-1.2.36-1.52,0a1,1,0,0,1,.18-1.5,1,1,0,0,1,1.45.38A3,3,0,0,1,150.14,216.88Z"/><path class="cls-5" d="M213.19,179.37a3.1,3.1,0,0,1-1.06-.48.94.94,0,0,1,.35-1.44,1,1,0,0,1,1.4.57C214.06,178.49,213.85,179,213.19,179.37Z"/><path class="cls-5" d="M143.9,220.58a1.12,1.12,0,0,1-1.68-.13,1.1,1.1,0,0,1,.26-1.33,1,1,0,0,1,1.46.29A2.82,2.82,0,0,1,143.9,220.58Z"/><path class="cls-5" d="M264.17,149.32a4.83,4.83,0,0,1-1.46-.42c-.45-.33-.26-1.18.24-1.49s1.35-.14,1.47.4A4.8,4.8,0,0,1,264.17,149.32Z"/><path class="cls-5" d="M194.57,189.38a1,1,0,0,1-.57,1.4,1,1,0,0,1-.9-1.79A1,1,0,0,1,194.57,189.38Z"/><path class="cls-5" d="M118.7,235.94a5,5,0,0,1-1.43-.5,1,1,0,1,1,1.64-1A4.62,4.62,0,0,1,118.7,235.94Z"/><path class="cls-5" d="M122.43,242.05a1.13,1.13,0,0,1-1.54-.22,1.19,1.19,0,0,1,.12-1.57,1.14,1.14,0,0,1,1.71.27A1.08,1.08,0,0,1,122.43,242.05Z"/><path class="cls-5" d="M244.51,160.72a2.78,2.78,0,0,1-1-.47.93.93,0,0,1,.34-1.43,1,1,0,0,1,1.3.33C245.43,159.63,245.25,160.32,244.51,160.72Z"/><path class="cls-5" d="M124.65,232.06a2.91,2.91,0,0,1-1.07-.39.91.91,0,0,1,.24-1.44,1,1,0,0,1,1.31.24C125.51,230.91,125.37,231.6,124.65,232.06Z"/><path class="cls-5" d="M207.66,181.42a4.41,4.41,0,0,1-.4,1.44,1,1,0,0,1-1.48-.18,1,1,0,0,1,.39-1.44A4.59,4.59,0,0,1,207.66,181.42Z"/><path class="cls-5" d="M200.29,187.05a2.8,2.8,0,0,1-1.07-.35.93.93,0,0,1,.18-1.46,1.08,1.08,0,0,1,1.32.2C201.11,185.88,201,186.57,200.29,187.05Z"/><path class="cls-5" d="M129.75,228.08a1.13,1.13,0,0,1,.43-1.64,1.11,1.11,0,0,1,1.27.47.94.94,0,0,1-.55,1.38A2.91,2.91,0,0,1,129.75,228.08Z"/><path class="cls-5" d="M137.77,223.2a1,1,0,0,1-.6,1.4,1,1,0,0,1-1.21-.54,1,1,0,0,1,.35-1.28A1.06,1.06,0,0,1,137.77,223.2Z"/><path class="cls-5" d="M231.08,167.94c-.49-.7-.35-1.37.17-1.65a1.06,1.06,0,0,1,1.31.28.93.93,0,0,1-.35,1.43A2.78,2.78,0,0,1,231.08,167.94Z"/><path class="cls-5" d="M277,140.36a1,1,0,0,1-.59,1.4,1,1,0,0,1-1.22-.54,1,1,0,0,1,.36-1.28A1,1,0,0,1,277,140.36Z"/><path class="cls-5" d="M167.62,205.44A4.45,4.45,0,0,1,168,204a1,1,0,0,1,1.48.17.93.93,0,0,1-.37,1.43A4.33,4.33,0,0,1,167.62,205.44Z"/><path class="cls-5" d="M238.93,163.09a3,3,0,0,1-.34,1.13,1,1,0,0,1-1.5-.18,1,1,0,1,1,1.84-.95Z"/><path class="cls-5" d="M146.18,210.88a4.83,4.83,0,0,1-1.18-.51c-.33-.3-.06-1.13.38-1.15a1.2,1.2,0,0,1,1,.41C146.49,209.88,146.27,210.33,146.18,210.88Z"/><path class="cls-5" d="M190.86,183.08a4.22,4.22,0,0,1-.5,1.18c-.29.31-1.15,0-1.16-.39a1.31,1.31,0,0,1,.44-1C189.88,182.75,190.33,183,190.86,183.08Z"/><path class="cls-5" d="M208.31,172.64a3.82,3.82,0,0,1,.46-1.17c.34-.34.78-.14,1.07.15s.17,1.14-.26,1.22A4.34,4.34,0,0,1,208.31,172.64Z"/><path class="cls-5" d="M254,146.74a4.18,4.18,0,0,1-1.16-.61c-.31-.35,0-1.14.45-1.13a1.25,1.25,0,0,1,.95.5C254.35,145.76,254.12,146.19,254,146.74Z"/><path class="cls-5" d="M159.16,203.17a4.28,4.28,0,0,1-1.19-.51.77.77,0,0,1,.35-1.18c.4-.09.87,0,1,.43A4.37,4.37,0,0,1,159.16,203.17Z"/><path class="cls-5" d="M266.55,139.26a4.43,4.43,0,0,1-1.18-.53c-.34-.31-.08-1.13.36-1.15a1.2,1.2,0,0,1,1,.43C266.84,138.25,266.63,138.7,266.55,139.26Z"/><path class="cls-5" d="M127.74,220.63a4.07,4.07,0,0,1-.47,1.17c-.29.32-1.16,0-1.17-.36a1.28,1.28,0,0,1,.42-1C126.75,220.32,127.2,220.54,127.74,220.63Z"/><path class="cls-5" d="M114.91,229.51c-.53-.18-1-.2-1.18-.44a1.23,1.23,0,0,1,.06-1.07c.21-.38,1.07-.24,1.2.21A4.47,4.47,0,0,1,114.91,229.51Z"/><path class="cls-5" d="M222.18,165.66A4.16,4.16,0,0,1,221,165a.77.77,0,0,1,.48-1.13c.43-.07.87.08,1,.52A3.77,3.77,0,0,1,222.18,165.66Z"/><path class="cls-5" d="M285.35,128.07a4.74,4.74,0,0,1-1.18-.54c-.33-.33-.05-1.15.39-1.16a1.23,1.23,0,0,1,1,.45C285.66,127.07,285.44,127.52,285.35,128.07Z"/><path class="cls-5" d="M296.9,119.92c.2-.51.24-.94.47-1.17s.77-.15,1.06.15.17,1.13-.27,1.21A4.61,4.61,0,0,1,296.9,119.92Z"/><path class="cls-5" d="M234.84,158.09a4.59,4.59,0,0,1-1.21-.37c-.35-.25-.17-1,.26-1.2a.72.72,0,0,1,1,.31A3.78,3.78,0,0,1,234.84,158.09Z"/><path class="cls-5" d="M178,192a4.3,4.3,0,0,1-1.21-.41c-.36-.3-.22-.76,0-1.09a.78.78,0,0,1,1.22.18A4.76,4.76,0,0,1,178,192Z"/><path class="cls-5" d="M241.06,154.43a4.17,4.17,0,0,1-1.17-.54c-.34-.33-.08-1.12.36-1.15a1.2,1.2,0,0,1,1,.44C241.35,153.43,241.15,153.87,241.06,154.43Z"/><path class="cls-5" d="M164.07,199.1c.13-.53.12-1,.33-1.22a.74.74,0,0,1,1.08,0,.79.79,0,0,1-.13,1.23A4.14,4.14,0,0,1,164.07,199.1Z"/><path class="cls-5" d="M133.62,218.37a4.25,4.25,0,0,1-1.16-.58.77.77,0,0,1,.42-1.16.73.73,0,0,1,1,.49A3.8,3.8,0,0,1,133.62,218.37Z"/><path class="cls-5" d="M272.86,135.5a4.08,4.08,0,0,1-1.17-.52.76.76,0,0,1,.34-1.17c.41-.11.87,0,1,.42A3.81,3.81,0,0,1,272.86,135.5Z"/><path class="cls-5" d="M203.44,176.8a4.28,4.28,0,0,1-1.16-.52.77.77,0,0,1,.36-1.17c.4-.08.87,0,1,.44A3.8,3.8,0,0,1,203.44,176.8Z"/><path class="cls-5" d="M172,194.65c-.12.2-.22.64-.5.81a.72.72,0,0,1-1-.36.88.88,0,0,1,.41-1A.93.93,0,0,1,172,194.65Z"/><path class="cls-5" d="M279.42,130.22c-.17.56-.17,1-.41,1.25s-.77.18-1.09-.15a.74.74,0,0,1,.17-1.07A4.25,4.25,0,0,1,279.42,130.22Z"/><path class="cls-5" d="M292.35,122.49c-.15.55-.14,1-.36,1.24a.67.67,0,0,1-1-.15.66.66,0,0,1,.13-1C291.35,122.38,291.78,122.5,292.35,122.49Z"/><path class="cls-5" d="M151,206.67c.27-.52.36-1,.62-1.13a.68.68,0,0,1,1,.37.69.69,0,0,1-.35,1C151.94,207,151.54,206.79,151,206.67Z"/><path class="cls-5" d="M182.81,187.81c.21-.53.26-1,.51-1.17a.69.69,0,0,1,1,.28.72.72,0,0,1-.25,1.05C183.82,188.1,183.39,187.89,182.81,187.81Z"/><path class="cls-5" d="M215.88,169.35c-.5-.29-.93-.39-1.1-.66a.74.74,0,1,1,1.36-.59A3.67,3.67,0,0,1,215.88,169.35Z"/><path class="cls-5" d="M248,148.85a3.58,3.58,0,0,1-.35,1.24.75.75,0,0,1-.93-1.18C247,148.76,247.47,148.87,248,148.85Z"/><path class="cls-5" d="M228.59,161.83c-.55-.22-1-.27-1.2-.51a.67.67,0,0,1,.21-1,.65.65,0,0,1,1,.26A3.79,3.79,0,0,1,228.59,161.83Z"/><path class="cls-5" d="M258.88,142.54c.22-.53.27-1,.53-1.16a.69.69,0,0,1,1,.27.72.72,0,0,1-.27,1C259.88,142.81,259.45,142.62,258.88,142.54Z"/><path class="cls-5" d="M119.7,225.37c.23-.54.28-1,.53-1.18a.69.69,0,0,1,1,.29.7.7,0,0,1-.27,1C120.71,225.65,120.28,225.45,119.7,225.37Z"/><path class="cls-5" d="M197,179.22c-.15.55-.15,1-.37,1.23a.68.68,0,0,1-1-.13.67.67,0,0,1,.14-1C196,179.11,196.46,179.23,197,179.22Z"/><path class="cls-5" d="M139.94,214.58c-.52-.23-.95-.29-1.17-.54a.73.73,0,1,1,1.25-.75A4.08,4.08,0,0,1,139.94,214.58Z"/><path class="cls-5" d="M223.73,155.05a2.61,2.61,0,0,1,.33-.84c.07-.09.46,0,.6.1a.45.45,0,0,1-.11.76C224.39,155.16,224.13,155.07,223.73,155.05Z"/><path class="cls-5" d="M288.41,116.45c-.14.38-.19.74-.29.76a2.51,2.51,0,0,1-.79-.13c.05-.21,0-.56.16-.61A2.7,2.7,0,0,1,288.41,116.45Z"/><path class="cls-5" d="M148.79,199.6c-.15.37-.22.73-.32.74a1.43,1.43,0,0,1-.76-.23c-.05,0,.06-.53.18-.57A2.69,2.69,0,0,1,148.79,199.6Z"/><path class="cls-5" d="M243.87,143.77a2.46,2.46,0,0,1-.83-.3c-.08-.07,0-.57.1-.58a1.39,1.39,0,0,1,.78.09C244,143,243.9,143.38,243.87,143.77Z"/><path class="cls-5" d="M136.25,207c-.14.38-.19.73-.3.75a2.24,2.24,0,0,1-.78-.13c.06-.21.05-.55.17-.6A2.9,2.9,0,0,1,136.25,207Z"/><path class="cls-5" d="M256.49,135.35a1.92,1.92,0,0,1-.09.7.43.43,0,0,1-.76-.08.67.67,0,0,1,.14-.62C255.9,135.24,256.2,135.34,256.49,135.35Z"/><path class="cls-5" d="M117.22,219.18c-.34-.18-.63-.25-.78-.44s.09-.39.15-.6a2.35,2.35,0,0,1,.76.25C117.42,218.44,117.29,218.78,117.22,219.18Z"/><path class="cls-5" d="M180.55,180.59c-.12.39-.14.74-.25.77a2.4,2.4,0,0,1-.79-.07c0-.21,0-.56.13-.62A2.63,2.63,0,0,1,180.55,180.59Z"/><path class="cls-5" d="M192.83,174.17c-.36-.15-.73-.23-.73-.31a1.42,1.42,0,0,1,.24-.75c0-.06.53,0,.57.16A2.78,2.78,0,0,1,192.83,174.17Z"/><path class="cls-5" d="M205.67,166.43c-.26-.17-.5-.24-.62-.41a.44.44,0,0,1,.4-.67.73.73,0,0,1,.49.41C206,165.93,205.79,166.16,205.67,166.43Z"/><path class="cls-5" d="M280.69,121.27a2.22,2.22,0,0,1,0-.75.48.48,0,0,1,.8.06.76.76,0,0,1-.12.63C281.27,121.32,281,121.25,280.69,121.27Z"/><path class="cls-5" d="M268,128.42c.15-.24.22-.52.38-.57a.71.71,0,0,1,.61.18c.2.2,0,.76-.32.74A2.17,2.17,0,0,1,268,128.42Z"/><path class="cls-5" d="M160.63,192.35c.15-.25.22-.53.37-.58a.71.71,0,0,1,.61.18c.21.2,0,.76-.31.74A2.11,2.11,0,0,1,160.63,192.35Z"/><path class="cls-5" d="M173.28,185.19c0-.32-.06-.57,0-.75a.47.47,0,0,1,.79.06.73.73,0,0,1-.12.63C173.87,185.24,173.58,185.18,173.28,185.19Z"/><path class="cls-5" d="M199.54,170.06c-.29-.05-.58,0-.69-.14a.67.67,0,0,1-.06-.62.45.45,0,0,1,.77,0A1.83,1.83,0,0,1,199.54,170.06Z"/><path class="cls-5" d="M300.53,109.93c-.23-.15-.47-.23-.57-.39a.4.4,0,0,1,.37-.63.68.68,0,0,1,.47.38C300.84,109.46,300.65,109.67,300.53,109.93Z"/><path class="cls-5" d="M129.76,211.62c-.29-.07-.58-.06-.68-.19a.77.77,0,0,1-.06-.65c.11-.26.72-.2.81.08A2.17,2.17,0,0,1,129.76,211.62Z"/><path class="cls-5" d="M236.24,147.34c.15-.24.22-.52.38-.57a.68.68,0,0,1,.6.18c.21.2,0,.76-.31.74A2.06,2.06,0,0,1,236.24,147.34Z"/><path class="cls-5" d="M212.12,162.57a2,2,0,0,1-.71-.09c-.26-.16-.22-.71.07-.79a.72.72,0,0,1,.62.17C212.2,162,212.12,162.28,212.12,162.57Z"/><path class="cls-5" d="M294.44,113.6c-.33-.1-.63-.1-.7-.23s0-.41.05-.62c.2,0,.48,0,.59.12S294.42,113.26,294.44,113.6Z"/><path class="cls-5" d="M167.75,189c-.35-.16-.67-.22-.69-.34s.12-.4.24-.58.35.06.39.16A2.86,2.86,0,0,1,167.75,189Z"/><path class="cls-5" d="M262.67,132.85c-.38-.27-.64-.37-.73-.54s0-.42.05-.63c.21,0,.49,0,.6.11S262.63,132.18,262.67,132.85Z"/><path class="cls-5" d="M217.53,158.78c.07-.33.05-.63.17-.72a.43.43,0,0,1,.55.67C218.14,158.83,217.85,158.76,217.53,158.78Z"/><path class="cls-5" d="M186.58,177.78c-.32-.09-.61-.1-.69-.22s0-.41.05-.62c.2,0,.47,0,.58.12S186.56,177.45,186.58,177.78Z"/><path class="cls-5" d="M155.27,196.77c-.39-.27-.65-.37-.73-.54s0-.42.05-.63c.2,0,.48,0,.59.11S155.23,196.1,155.27,196.77Z"/><path class="cls-5" d="M231,150.76c-.15.25-.23.51-.37.55s-.48-.1-.51-.22a.59.59,0,0,1,.21-.54C230.48,150.49,230.73,150.65,231,150.76Z"/><path class="cls-5" d="M110.12,222.7c.08-.33,0-.62.18-.72a.43.43,0,0,1,.54.67C110.73,222.76,110.45,222.69,110.12,222.7Z"/><path class="cls-5" d="M275,125.14c-.31-.23-.62-.35-.62-.47s.2-.38.36-.53.34.13.36.24A2.25,2.25,0,0,1,275,125.14Z"/><path class="cls-5" d="M250,140.06c-.29-.19-.57-.28-.61-.43s.13-.39.21-.59c.19.09.48.14.56.29S250.08,139.72,250,140.06Z"/><path class="cls-5" d="M123.35,215.4c-.29-.17-.57-.24-.61-.38s.12-.37.19-.57c.19.08.45.12.54.27S123.41,215.08,123.35,215.4Z"/><path class="cls-5" d="M142.13,204.23c-.27-.19-.54-.27-.58-.42s.13-.38.2-.57c.19.09.47.13.55.28S142.22,203.9,142.13,204.23Z"/></g><polygon class="cls-3" points="274.57 128.71 346.76 57.73 336.06 40.08 321.55 37.53 272.3 129.11 274.57 128.71"/><polygon points="337.58 48.15 277.76 123.72 341.55 50.62 337.58 48.15"/><polygon points="275.75 123.53 323.49 41.15 316.5 38.77 275.75 123.53"/><polygon points="284.04 119.53 341.1 64.76 339.63 62.94 284.04 119.53"/><path d="M376.54,50.13a19.78,19.78,0,0,0-14.56-30A17.57,17.57,0,0,0,344.17,0a17.29,17.29,0,0,0-6.88,2.73,17.6,17.6,0,0,0-5.89,22.55,17.82,17.82,0,0,1-3.24-3.61A17.58,17.58,0,0,1,326.8,4.55a19.8,19.8,0,1,0-16.51,35.77,19.8,19.8,0,0,0,28.92,20.4,13.66,13.66,0,0,0,27-2.24A19.74,19.74,0,0,0,376.54,50.13Z"/><path class="cls-6" d="M382.25,53.22a19.78,19.78,0,0,0-14.55-30A17.59,17.59,0,0,0,349.89,3.1a17.57,17.57,0,0,0-12.77,25.28,17.5,17.5,0,0,1-4.6-20.74A19.8,19.8,0,1,0,316,43.41a19.8,19.8,0,0,0,28.92,20.4,13.66,13.66,0,0,0,27-2.24A19.68,19.68,0,0,0,382.25,53.22Z"/><polygon class="cls-3" points="136.22 140.9 60.46 66.6 42.16 78.15 39.78 93.41 136.69 143.27 136.22 140.9"/><polygon points="50.6 76.41 130.93 137.65 53.11 72.2 50.6 76.41"/><polygon points="130.77 139.75 43.53 91.31 41.16 98.67 130.77 139.75"/><polygon points="126.42 131.15 67.93 72.4 66.05 73.97 126.42 131.15"/><path d="M51.92,35.55A20.73,20.73,0,0,0,20.77,51.38,18.42,18.42,0,0,0,0,70.42a18.22,18.22,0,0,0,3,7.16,18.42,18.42,0,0,0,23.74,5.74A18.33,18.33,0,0,1,5.11,88.54a20.76,20.76,0,0,0,36,20.75,20.54,20.54,0,0,0,1.84-4.14A20.75,20.75,0,0,0,63.73,74.46,14.31,14.31,0,0,0,60.87,46.2,20.65,20.65,0,0,0,51.92,35.55Z"/><path class="cls-6" d="M55.05,29.5a20.76,20.76,0,0,0-28.41,7.41,20.41,20.41,0,0,0-2.73,8.41A18.43,18.43,0,0,0,3.15,64.37a18.4,18.4,0,0,0,26.73,12.9A18.33,18.33,0,0,1,8.24,82.49a20.76,20.76,0,0,0,36,20.75A20.54,20.54,0,0,0,46,99.1,20.74,20.74,0,0,0,66.86,68.41,14.31,14.31,0,0,0,64,40.15,20.65,20.65,0,0,0,55.05,29.5Z"/><polygon class="cls-3" points="304.18 150.94 376.23 141.76 379.82 123.93 372.23 114.69 302.53 150.05 304.18 150.94"/><polygon points="309.08 149.09 377.11 134.11 376.07 130.35 309.08 149.09"/><polygon points="307.94 147.93 371.33 118.21 368.36 112.96 307.94 147.93"/><polygon points="315.44 149.39 368.6 143.76 368.74 141.73 315.44 149.39"/><path d="M383.81,149.7a10.23,10.23,0,0,0,4.27-1.19,10.37,10.37,0,0,0,4.26-14A10.48,10.48,0,0,0,390.5,132a15.23,15.23,0,0,1-10.39-2.69,14.67,14.67,0,0,0,10.73,0,15.39,15.39,0,1,0-20.54-22.92,10.36,10.36,0,1,0-14.92,14.35,15.19,15.19,0,0,1,9.9-.73,14.69,14.69,0,0,0-9.1,2.93,13.17,13.17,0,0,0,9.09,21.53,9.92,9.92,0,0,0,14.59,9A9.79,9.79,0,0,0,383.81,149.7Z"/><path class="cls-6" d="M386.23,151.1a10.37,10.37,0,0,0,8.54-15.23,10.25,10.25,0,0,0-1.85-2.45,15.14,15.14,0,0,1-10.38-2.69,14.64,14.64,0,0,0,10.72,0,15.4,15.4,0,0,0-17.59-25,15.15,15.15,0,0,0-2.95,2.07,10.36,10.36,0,0,0-16.82,11.84,10.12,10.12,0,0,0,1.9,2.51,15.25,15.25,0,0,1,9.9-.73,14.65,14.65,0,0,0-9.09,2.94,13.17,13.17,0,0,0,9.08,21.52,9.91,9.91,0,0,0,18.54,5.19Z"/><polygon class="cls-3" points="93.07 235.59 50.77 265.84 42.79 258.87 42.78 251.3 93.47 234.48 93.07 235.59"/><polygon points="46.74 260.35 90.26 236.76 47.64 262.58 46.74 260.35"/><polygon points="90.34 235.73 44.44 252.6 43.85 248.86 90.34 235.73"/><polygon points="87.59 239.57 54.83 263.6 54.04 262.7 87.59 239.57"/><path d="M44.3,280.23a10.17,10.17,0,0,1-13.2-5.73,10,10,0,0,1-.69-4.28,9,9,0,0,1-8.61-10.79,8.87,8.87,0,0,1,2-3.24,9,9,0,0,1,11.93-1,9.18,9.18,0,0,0-1.54-1.95A9,9,0,0,0,25.63,251a10.17,10.17,0,0,1,19-7.33,9.86,9.86,0,0,1,.58,2.14A10.17,10.17,0,0,1,53,262.29a7,7,0,0,1-3.52,13.46A10.1,10.1,0,0,1,44.3,280.23Z"/><path class="cls-6" d="M45.35,283.4a10.17,10.17,0,0,1-13.19-5.74,10,10,0,0,1-.69-4.28,9,9,0,0,1-8.61-10.79,9,9,0,0,1,13.92-4.22,9.24,9.24,0,0,0-1.54-2,9,9,0,0,0-8.55-2.2,10.17,10.17,0,0,1,19-7.33,9.71,9.71,0,0,1,.58,2.14A10.16,10.16,0,0,1,54,265.45a7,7,0,0,1-3.52,13.47A10.08,10.08,0,0,1,45.35,283.4Z"/><polygon class="cls-3" points="161.46 267.72 132.92 344.24 112.48 343.59 104.32 332.91 160.91 265.69 161.46 267.72"/><polygon points="158.18 272.62 124.32 343.24 120.47 341.13 158.18 272.62"/><polygon points="157.2 271.07 108.4 332.83 103.42 328.22 157.2 271.07"/><polygon points="156.88 279.66 137.07 336.4 134.81 336.03 156.88 279.66"/><path d="M139.67,354.57a11.8,11.8,0,0,1-2.4,4.36A11.66,11.66,0,0,1,120.81,360a11.45,11.45,0,0,1-2.2-2.64,17.14,17.14,0,0,0-.28-12.07A16.5,16.5,0,0,1,115.6,357a17.3,17.3,0,0,1-19.82-28.37,11.65,11.65,0,0,1,17.28-15.37,11.46,11.46,0,0,1,2.26,2.73A17.06,17.06,0,0,0,112,326.68a16.42,16.42,0,0,1,5.55-9.2A14.8,14.8,0,0,1,138.75,333a11.15,11.15,0,0,1,.92,21.62Z"/><path class="cls-6" d="M140.57,357.58a11.52,11.52,0,0,1-2.4,4.36,11.59,11.59,0,0,1-18.66-1.58,17.06,17.06,0,0,0-.28-12.06,16.5,16.5,0,0,1-2.73,11.75,17.31,17.31,0,0,1-22.84-25.66,17.11,17.11,0,0,1,3-2.71A11.65,11.65,0,0,1,114,316.31a11.26,11.26,0,0,1,2.26,2.73,17.12,17.12,0,0,0-3.34,10.65,16.48,16.48,0,0,1,5.55-9.2A14.8,14.8,0,0,1,139.66,336a11.15,11.15,0,0,1,6.15,18.29A11.06,11.06,0,0,1,140.57,357.58Z"/><polygon class="cls-3" points="293.45 235.75 375.81 277.95 372.38 300.87 359.29 308.65 291.09 236.1 293.45 235.75"/><polygon points="298.52 240.09 373.55 287.5 370.67 291.55 298.52 240.09"/><polygon points="296.65 240.99 359.74 304.04 353.9 309.05 296.65 240.99"/><polygon points="306.28 242.48 367.53 272.25 366.82 274.74 306.28 242.48"/><path d="M388.32,271.71a13.17,13.17,0,0,1,.37,24.08,19.35,19.35,0,0,0-13.61-1.28,18.67,18.67,0,0,1,12.86,4.62A19.61,19.61,0,0,1,353.4,317.7a13.2,13.2,0,0,1-15-21.47,13,13,0,0,1,3.37-2.18,19.42,19.42,0,0,0,11.55,5.16,18.68,18.68,0,0,1-9.63-7.46,16.78,16.78,0,0,1,20.21-21.85,12.63,12.63,0,0,1,24.45,1.81Z"/><path class="cls-6" d="M391.83,271.09a13.16,13.16,0,0,1,.36,24.08,19.34,19.34,0,0,0-13.61-1.28,18.67,18.67,0,0,1,12.86,4.62,19.61,19.61,0,0,1-31.89,22.33,19.07,19.07,0,0,1-2.64-3.76,13.2,13.2,0,0,1-15-21.47,12.87,12.87,0,0,1,3.37-2.18,19.4,19.4,0,0,0,11.54,5.16,18.7,18.7,0,0,1-9.62-7.46,16.77,16.77,0,0,1,20.2-21.85,12.64,12.64,0,0,1,24.46,1.81Z"/><path d="M408.82,205.64c-25.33-.94-27.92,1.29-35.54,30.57,2.29-30.17.56-33.11-23.7-40.44,25.33.94,27.92-1.29,35.53-30.57C382.82,195.37,384.55,198.32,408.82,205.64Z"/><path class="cls-2" d="M375.34,223.88c1.53-18.51-.54-22-15.47-26.39,15.53.72,18.64-2,23.19-20-1.53,18.5.54,22,15.47,26.39C383,203.2,379.89,205.88,375.34,223.88Z"/><path d="M74.85,172.45c-29.25-1.08-32.24,1.49-41,35.3,2.64-34.84.65-38.24-27.37-46.69,29.25,1.08,32.23-1.49,41-35.3C44.83,160.59,46.83,164,74.85,172.45Z"/><path class="cls-2" d="M36.19,193.51C38,172.14,35.56,168.06,18.33,163c17.93.84,21.52-2.25,26.78-23-1.77,21.37.62,25.45,17.86,30.47C45,169.63,41.45,172.72,36.19,193.51Z"/><path d="M452.26,189.16c-15.9-.59-17.53.81-22.31,19.18,1.44-18.93.36-20.78-14.87-25.38,15.89.59,17.52-.81,22.3-19.19C435.94,182.71,437,184.56,452.26,189.16Z"/><path class="cls-2" d="M431.52,198.93c.85-10.28-.3-12.24-8.59-14.66,8.63.4,10.35-1.08,12.88-11.08-.85,10.28.3,12.24,8.59,14.66C435.78,187.45,434.05,188.93,431.52,198.93Z"/><path d="M260,307.32c-13.82-.52-15.23.7-19.39,16.68,1.25-16.46.31-18.07-12.94-22.07,13.83.51,15.24-.7,19.4-16.68C245.84,301.71,246.78,303.32,260,307.32Z"/><path class="cls-2" d="M242,315.87c.75-9-.26-10.7-7.51-12.81,7.54.35,9.05-.95,11.26-9.69-.74,9,.27,10.71,7.51,12.82C245.7,305.84,244.19,307.13,242,315.87Z"/><path d="M129.12,267.61c-13.83-.51-15.24.71-19.4,16.69,1.25-16.47.31-18.08-12.93-22.07,13.82.51,15.23-.71,19.39-16.69C114.93,262,115.87,263.62,129.12,267.61Z"/><path class="cls-2" d="M111.08,276.17c.74-9-.27-10.7-7.51-12.81,7.54.35,9.05-.95,11.26-9.69-.75,9,.26,10.7,7.51,12.81C114.8,266.13,113.29,267.43,111.08,276.17Z"/><path d="M193.84,36.34c-19.13-.71-21.08,1-26.83,23.09,1.73-22.79.42-25-17.9-30.54,19.12.71,21.08-1,26.83-23.09C174.21,28.59,175.52,30.81,193.84,36.34Z"/><path class="cls-2" d="M168.81,48.62c1.05-12.78-.38-15.23-10.69-18.23,10.73.5,12.88-1.35,16-13.78-1.06,12.78.38,15.23,10.69,18.23C174.1,34.34,172,36.19,168.81,48.62Z"/><path d="M61.09,214.53q-4.85-20.26-13.66-52.79,28.68-20.62,37.92-4.1,2.9,6.54-3,15.31,7.89-.58,13.43,7Q106,199.19,61.09,214.53Zm3.49-47.43q1.68,6.19,2.88,10.59,4.82-3.51,4.25-8.83Q71,162.9,64.58,167.1Zm5.65,21q1.27,4.84,2.13,8.16,10.73-4.47,7.89-10.33Q79,182.87,70.23,188.08Z"/><path d="M110.27,168.84q-1.51-11.47-3.13-21.46a60.31,60.31,0,0,1,14.55-8q4.84,35.58,7,54.63a98.79,98.79,0,0,0-14.7,7.7q-1.32-13.38-2.46-23.26L108,180.24q1.2,8.58,1.91,15a123.87,123.87,0,0,0-14.71,7.47q-3.37-32.28-6.82-53.23A60.26,60.26,0,0,1,102,141.68q2.8,16.94,4.64,29Z"/><path d="M161.91,187.88q-7.71,3.17-14.76,6-4.2-25.94-10.33-54,30.45-19.14,41.21-1.82,7.07,16.58-19.82,32.09Q160.1,179,161.91,187.88Zm-8.61-40.7q1.33,6.42,2.42,11.3,9-5,6.65-11.34Q161,143.44,153.3,147.18Z"/><path d="M195.76,152.36q-1.53-11.48-3.13-21.46a60,60,0,0,1,14.54-8q4.85,35.58,7,54.63a99.42,99.42,0,0,0-14.71,7.7Q198.13,171.89,197,162l-3.49,1.75q1.2,8.58,1.91,15a123.87,123.87,0,0,0-14.71,7.47q-3.37-32.28-6.82-53.23a60.11,60.11,0,0,1,13.61-7.78q2.81,16.94,4.65,29Z"/><path d="M228.91,172.32c-.22,3.18-.42,6.68-.58,10.52q-7.19-1-14.74-2.45a505.4,505.4,0,0,0,2.56-55q14.29-6.17,16-6.56,11.7,29.13,23,52-5.46,4-13,9.53-2.64-6.07-4.82-11.47Zm5.16-11.51q-3.66-9.28-4.42-11.4.12,1.93-.26,13.28Z"/><path d="M263.67,169.55a110.68,110.68,0,0,0-13.08,5.1q-2.75-21-7.93-52.88,28.29-23.2,37.93-6.37,6.2,14.22-7.34,33.23a105.52,105.52,0,0,0,14,11Q282.2,166.33,278,172q-8.31-7.68-15.89-14.34Q262.68,161.84,263.67,169.55Zm-3.75-26.15q8.77-6.84,5.31-16.16-1.31-3.33-7.74.86Q258.51,134.49,259.92,143.4Z"/><path d="M298.82,167.86a75.17,75.17,0,0,1-15.13-2.1q1-18.34-.58-51.93,7.62-3.48,14.08-6.61,3.56,7.77,5.1,11.1.13-1.27,2.17-10.55a70.55,70.55,0,0,0,12.91.68q7.31,24.87,15.52,49.6-5.89,3-14.31,6.69-4.83-14.24-9.05-27.8a109.9,109.9,0,0,1-4,15.45q-4.43-8.64-6.77-13.8Q299.23,151.17,298.82,167.86Z"/><path d="M343.56,150.22c-.22,3.17-.42,6.68-.58,10.52q-7.2-1-14.75-2.45a503,503,0,0,0,2.56-55q14.31-6.16,16-6.57,11.71,29.15,23,52-5.46,4-13,9.53-2.62-6.08-4.82-11.46Zm5.16-11.51q-3.68-9.28-4.43-11.4.13,1.92-.26,13.28Z"/><path d="M388,85.74q2.78,23.07,6.39,41.27a65.73,65.73,0,0,1-13.7,6.4q-5.61-26.89-7.6-41.41A110.22,110.22,0,0,0,388,85.74Zm-6.54,57.45a5,5,0,0,1,.87-4.51,10.18,10.18,0,0,1,5.32-3.82,11.11,11.11,0,0,1,6.59-.56c2.06.5,3.35,1.48,3.86,3q.74,2-.78,4.68a9.18,9.18,0,0,1-5.09,4,10.75,10.75,0,0,1-6.89.39Q382.23,145.37,381.47,143.19Z"/><path class="cls-7" d="M55.09,213.53q-4.85-20.26-13.66-52.79,28.68-20.62,37.92-4.1,2.9,6.54-3,15.31,7.89-.58,13.43,7Q100,198.19,55.09,213.53Zm3.49-47.43q1.68,6.19,2.88,10.59,4.82-3.51,4.25-8.83Q65,161.9,58.58,166.1Zm5.65,21q1.27,4.84,2.13,8.16,10.73-4.47,7.89-10.33Q73,181.87,64.23,187.08Z"/><path class="cls-7" d="M104.27,167.84q-1.51-11.47-3.13-21.46a60.31,60.31,0,0,1,14.55-8q4.84,35.58,7,54.63a98.79,98.79,0,0,0-14.7,7.7q-1.32-13.38-2.46-23.26L102,179.24q1.2,8.58,1.91,15a123.87,123.87,0,0,0-14.71,7.47q-3.37-32.28-6.82-53.23A60.26,60.26,0,0,1,96,140.68q2.8,16.94,4.64,29Z"/><path class="cls-7" d="M155.91,186.88q-7.71,3.17-14.76,6-4.2-25.94-10.33-54,30.45-19.14,41.21-1.82,7.07,16.58-19.82,32.09Q154.1,178,155.91,186.88Zm-8.61-40.7q1.33,6.42,2.42,11.3,9-5,6.65-11.34Q155,142.44,147.3,146.18Z"/><path class="cls-7" d="M189.76,151.36q-1.53-11.48-3.13-21.46a60,60,0,0,1,14.54-8q4.85,35.58,7,54.63a99.42,99.42,0,0,0-14.71,7.7Q192.13,170.89,191,161l-3.49,1.75q1.2,8.58,1.91,15a123.87,123.87,0,0,0-14.71,7.47q-3.37-32.28-6.82-53.23a60.11,60.11,0,0,1,13.61-7.78q2.81,16.94,4.65,29Z"/><path class="cls-7" d="M222.91,171.32c-.22,3.18-.42,6.68-.58,10.52q-7.19-1-14.74-2.45a505.4,505.4,0,0,0,2.56-55q14.29-6.17,16-6.56,11.7,29.13,23,52-5.46,4-13,9.53-2.64-6.07-4.82-11.47Zm5.16-11.51q-3.66-9.28-4.42-11.4.12,1.93-.26,13.28Z"/><path class="cls-7" d="M257.67,168.55a110.68,110.68,0,0,0-13.08,5.1q-2.75-21-7.93-52.88,28.29-23.2,37.93-6.37,6.2,14.22-7.34,33.23a105.52,105.52,0,0,0,14,11Q276.2,165.33,272,171q-8.31-7.68-15.89-14.34Q256.68,160.84,257.67,168.55Zm-3.75-26.15q8.78-6.84,5.31-16.16-1.31-3.33-7.74.86Q252.51,133.49,253.92,142.4Z"/><path class="cls-7" d="M292.82,166.86a75.17,75.17,0,0,1-15.13-2.1q1-18.34-.58-51.93,7.62-3.48,14.08-6.61,3.56,7.77,5.1,11.1.13-1.27,2.17-10.55a70.55,70.55,0,0,0,12.91.68q7.31,24.87,15.52,49.6-5.89,3-14.31,6.69-4.83-14.24-9.05-27.8a109.9,109.9,0,0,1-4,15.45q-4.43-8.64-6.77-13.8Q293.23,150.17,292.82,166.86Z"/><path class="cls-7" d="M337.56,149.22c-.22,3.17-.42,6.68-.58,10.52q-7.2-1-14.75-2.45a503,503,0,0,0,2.56-55q14.31-6.16,16-6.57,11.71,29.15,23,52-5.46,4-13,9.53-2.62-6.08-4.82-11.46Zm5.16-11.51q-3.68-9.28-4.43-11.4.13,1.92-.26,13.28Z"/><path class="cls-7" d="M382,84.74q2.78,23.07,6.39,41.27a65.73,65.73,0,0,1-13.7,6.4q-5.61-26.89-7.6-41.41A110.22,110.22,0,0,0,382,84.74Zm-6.54,57.45a5,5,0,0,1,.87-4.51,10.18,10.18,0,0,1,5.32-3.82,11.11,11.11,0,0,1,6.59-.56c2.06.5,3.35,1.48,3.86,3q.74,2-.78,4.68a9.18,9.18,0,0,1-5.09,4,10.75,10.75,0,0,1-6.89.39Q376.23,144.37,375.47,142.19Z"/><path class="cls-8" d="M360.72,196.8,72.43,254.53,91.8,219.88l285.35-57.12Q368.93,179.77,360.72,196.8Z"/><path d="M117.07,222.91l3.18-1.24c-.24,3.72-.33,7.12-.25,10.21l3.28-1.17.39,3.62a40.53,40.53,0,0,0-6.36,2.6Z"/><path d="M124.21,235.84a126.23,126.23,0,0,0,1.9-14.74l5.65-2.1a77.6,77.6,0,0,0,1.73,13.93l-3.88,1.72-.17-2.46-1.24.5-.08,1.77Zm5-6.28-.51-7.42h0l-.38,7.77Z"/><path d="M135,219.53c.39-.14,1.13-.46,2.2-1a21.15,21.15,0,0,1,2.25-.89l.67-.15c1.69-.32,2.64.12,2.86,1.32.33,1.7-.39,3.61-2.17,5.71,1.3-.34,2.14-.12,2.5.67a3.2,3.2,0,0,1,.17.55,4.41,4.41,0,0,1-.83,3.18,10.47,10.47,0,0,1-2.22,2.49,8.82,8.82,0,0,1-4.08,1.86l-.77.13c0-2.72-.13-6.35-.38-10.89C135.15,221.27,135.08,220.26,135,219.53Zm3.56,7.59c0,.5,0,1.18.05,2,1.7-.9,2.48-1.7,2.35-2.4-.05-.26-.3-.34-.75-.26A8.32,8.32,0,0,0,138.57,227.12Zm.07-5.34c0,.44,0,.88,0,1.32l0,1.31a5.37,5.37,0,0,0,1.61-2.37.93.93,0,0,0,.06-.43c0-.22-.23-.3-.56-.23A4.31,4.31,0,0,0,138.64,221.78Z"/><path d="M150.76,214.93a3,3,0,0,1,3.31,1.72,7.23,7.23,0,0,1,.94,2.48,12,12,0,0,1,.15,3,14.09,14.09,0,0,1-1.5,5.42c-1.07,2.12-2.39,3.33-4,3.63a3.07,3.07,0,0,1-3.35-1.7,7.27,7.27,0,0,1-.9-2.41,12.37,12.37,0,0,1-.15-3,14.07,14.07,0,0,1,1.49-5.43Q148.36,215.4,150.76,214.93Zm.22,4.89c-.7.14-1.31.85-1.82,2.14a9.5,9.5,0,0,0-.71,2.91,5.09,5.09,0,0,0,.07,1.27,2.11,2.11,0,0,0,.63,1.22,1.51,1.51,0,0,0,1.33.32,2.48,2.48,0,0,0,1.72-1.51,6,6,0,0,0,.59-2.32,7.27,7.27,0,0,0-.39-2.87C152.07,220.09,151.6,219.71,151,219.82Z"/><path d="M157.14,215.2a18.87,18.87,0,0,1,4.76-1.85c1.72-.33,2.7.11,2.92,1.31.31,1.73-.44,3.67-2.27,5.83q.4.67,3.11,4.15c-.55.75-1.37,1.84-2.48,3.28l-3.06-4.9h0c0,1.73.08,3.32.21,4.77l-2.88,1.43c0-.29,0-1.16-.07-2.63Zm3,2.57c0,.45,0,.91-.06,1.36v1.36a7.43,7.43,0,0,0,1.15-1.16,3.7,3.7,0,0,0,.75-1.44.59.59,0,0,0,0-.34c-.06-.28-.27-.39-.64-.32A4.75,4.75,0,0,0,160.14,217.77Z"/><path d="M165.86,227.85a126.49,126.49,0,0,0,1.91-14.75l5.64-2.09a78.42,78.42,0,0,0,1.74,13.92l-3.89,1.72-.17-2.45-1.24.49-.08,1.77Zm5-6.29-.51-7.41h0l-.37,7.77Z"/><path d="M183.75,209.28l.56,3.59c-.88.22-1.72.45-2.51.68a75.1,75.1,0,0,0,.17,10.09l-3.08,1.47-.2-10.55-1,.38-1,.38-.92-3.54Z"/><path d="M190.76,207.26a3,3,0,0,1,3.31,1.71,7.23,7.23,0,0,1,.94,2.48,12.54,12.54,0,0,1,.16,3,14,14,0,0,1-1.51,5.42q-1.59,3.16-4,3.62a3.06,3.06,0,0,1-3.35-1.7,7.27,7.27,0,0,1-.9-2.41,11.92,11.92,0,0,1-.14-3,14.11,14.11,0,0,1,1.48-5.43Q188.36,207.72,190.76,207.26Zm.23,4.89c-.71.13-1.31.84-1.82,2.13a9.9,9.9,0,0,0-.72,2.91,5.71,5.71,0,0,0,.07,1.28,2.11,2.11,0,0,0,.63,1.21,1.52,1.52,0,0,0,1.33.32,2.48,2.48,0,0,0,1.72-1.51,5.6,5.6,0,0,0,.59-2.32,7.19,7.19,0,0,0-.39-2.86C192.07,212.41,191.6,212,191,212.15Z"/><path d="M197.65,207.45l3.18-1.25a96.87,96.87,0,0,0-.05,13.83l-2.89,1.43Z"/><path d="M203.39,206.32a18.36,18.36,0,0,1,4.75-1.84c1.73-.34,2.7.1,2.92,1.31.32,1.73-.44,3.67-2.26,5.82.27.45,1.31,1.84,3.1,4.16-.54.74-1.37,1.83-2.47,3.28l-3.06-4.91h-.05c0,1.74.09,3.33.21,4.78l-2.88,1.42c0-.28-.05-1.16-.06-2.63Zm3,2.57c0,.46,0,.91-.06,1.36l0,1.36a6.65,6.65,0,0,0,1.15-1.16,3.64,3.64,0,0,0,.76-1.43.73.73,0,0,0,0-.35c-.05-.28-.26-.39-.63-.31A4.1,4.1,0,0,0,206.39,208.89Z"/><path d="M216.36,206.81c0,.39-.05.78-.06,1.15v1.1l2.94-1.24.34,2.68c-1.41.53-2.5,1-3.3,1.33,0,.26,0,.53,0,.79v.77l3.47-1.2.43,3.62a43.61,43.61,0,0,0-6.74,2.66l-.36-14.19,6.21-2.16.43,3.61C218.5,206.08,217.37,206.44,216.36,206.81Z"/><path d="M231.16,204c0,.39,0,.77-.06,1.15v1.1L234,205l.33,2.69c-1.4.53-2.5,1-3.29,1.32,0,.27,0,.54,0,.8v.77l3.47-1.2L235,213a43.66,43.66,0,0,0-6.75,2.66l-.36-14.19,6.21-2.17.43,3.62C233.3,203.24,232.18,203.6,231.16,204Z"/><path d="M244.93,211l-2.68,2.48-.71-1.79c-.23-.61-.47-1.22-.71-1.83l-.6,1.84c-.19.62-.39,1.23-.58,1.82l-3.39.36,3-7.68q-1.35-3-2.63-5.29l2.32-2.55,1.84,3.92,1.74-4.39,2.67.4c-1,2.21-1.94,4.61-2.87,7.22Z"/><path d="M246.78,198a17.48,17.48,0,0,1,4.69-1.84c1.73-.33,2.7.11,2.9,1.31q.65,3.65-4.66,8.67c0,1.62.09,3.1.22,4.46L247,212c0-.28,0-1.17,0-2.65l0-4.71C246.93,200.33,246.87,198.11,246.78,198Zm3,2.6c0,.38,0,.75,0,1.12v1.1a5.13,5.13,0,0,0,1.94-2.3.55.55,0,0,0,0-.27c0-.22-.22-.29-.54-.23A5.45,5.45,0,0,0,249.78,200.6Z"/><path d="M259,198.63c0,.4,0,.78-.06,1.15v1.1l2.95-1.24.33,2.68c-1.4.54-2.5,1-3.3,1.33,0,.27,0,.53,0,.79v.78l3.47-1.21.43,3.62a43.81,43.81,0,0,0-6.74,2.67l-.36-14.19,6.21-2.17.43,3.61C261.1,197.91,260,198.27,259,198.63Z"/><path d="M264.82,194.53a18.73,18.73,0,0,1,4.76-1.85c1.72-.33,2.7.11,2.91,1.31q.48,2.59-2.26,5.83.4.68,3.11,4.15c-.55.75-1.38,1.84-2.48,3.28l-3.06-4.9h0c0,1.73.08,3.32.2,4.77l-2.87,1.43c0-.29,0-1.16-.07-2.63Zm3,2.57c0,.46-.05.91-.06,1.36l0,1.36a7.06,7.06,0,0,0,1.16-1.16,3.7,3.7,0,0,0,.75-1.44.59.59,0,0,0,0-.34c-.06-.28-.27-.39-.64-.32A4.75,4.75,0,0,0,267.82,197.1Z"/><path d="M275.11,192.58l3.18-1.25a98.37,98.37,0,0,0-.05,13.83l-2.88,1.43Z"/><path d="M280.35,205.73a79.37,79.37,0,0,0,1.39-14.11l4.44-1.63.69,7.17.55-6.85,4.26-1.61a92.3,92.3,0,0,0,1.38,11.43c.13.66.25,1.32.38,2l-3.78,1.45-.93-8.54L288,204.8l-2.06.69-1-12.06-.71,11Z"/><path d="M298.33,191.08q0,.58-.06,1.14v1.1l2.95-1.24.33,2.68c-1.4.54-2.5,1-3.29,1.33,0,.27,0,.53,0,.79v.78l3.47-1.2.43,3.61a44.87,44.87,0,0,0-6.74,2.67l-.36-14.19,6.21-2.17.43,3.61C300.47,190.35,299.35,190.71,298.33,191.08Z"/><path d="M304.51,187l3.19-1.31c.05.4.15,1,.29,1.7.33,1.74.68,3.26,1.05,4.55a10.49,10.49,0,0,0,.64,1.77l-.13-7.73,3.18-1.25a96.87,96.87,0,0,0-.05,13.83L309.81,200l-.38-.63-1.54-2.64c-.25-.43-.41-.71-.46-.83,0,1.56.09,3.06.21,4.51l-2.89,1.51Z"/><path d="M322.12,182.72l.57,3.59c-.89.22-1.73.45-2.52.68a75.1,75.1,0,0,0,.17,10.09l-3.08,1.47L317.07,188l-1,.37-1,.39-.91-3.54Z"/><path d="M323,197.68a126.23,126.23,0,0,0,1.9-14.74l5.65-2.1a77.49,77.49,0,0,0,1.74,13.93l-3.89,1.72-.17-2.45-1.24.49-.08,1.77Zm5-6.28-.51-7.41h0l-.38,7.77Z"/><path d="M334,181.27l3.18-1.25c-.24,3.72-.32,7.13-.25,10.21l3.28-1.16.39,3.62a40.34,40.34,0,0,0-6.36,2.59Z"/></g></g></svg>