<svg xmlns="http://www.w3.org/2000/svg" xmlns:xlink="http://www.w3.org/1999/xlink" viewBox="0 0 652 437"><defs><style>.cls-1{fill:none;}.cls-2,.cls-8{fill:#ff0;}.cls-3{fill:#fff;}.cls-4{clip-path:url(#clip-path);}.cls-5{fill-rule:evenodd;}.cls-6{fill:#fefefe;}.cls-7{fill:#3fc8f2;}.cls-7,.cls-8{stroke:#000;stroke-miterlimit:10;}.cls-8{stroke-width:3px;}</style><clipPath id="clip-path"><path class="cls-1" d="M177.14,266.59s25.5-10.55,29.36-34.66-26.59-58.82-26.59-58.82,48.63,27,85.65,8.08,39.15-52.74,39.15-52.74S309.57,151.74,337,162c34.89,13,73.2-15,73.2-15s-17.24,33.63,5,43.51,37.28,8.93,37.28,8.93-27.19,13.06-28.61,31,15.25,36.42,15.25,36.42-43.28-10.13-60.91,3c-14.93,11.09-18.7,39.17-18.7,39.17s-14-14.34-22.27-18.74c-17.74-9.46-39.6-10.3-63.22-2.43-10.12,3.37-26.52,13.32-26.52,13.32s2-16.88-12.42-26.68S177.14,266.59,177.14,266.59Z"/></clipPath></defs><title>logo sans fond</title><g id="Calque_2" data-name="Calque 2"><g id="Calque_1-2" data-name="Calque 1"><rect class="cls-1" width="652" height="437"/><path class="cls-2" d="M469,210.54s-42.24-.09-55.65-16.54c-7.07-8.67-4.11-25.65,6.57-41.88,0,0-40.08,19.21-68.23,10.56-18.95-5.83-38.77-24.89-36.17-57.56,0,0-10,51.36-53.51,65.54-21.52,7-52.73-1-87.05-22,0,0,36.18,45.62,28.49,71-4.56,15-19.05,25.84-42,34.54,0,0,39.47,2.54,62,15.17,16.56,9.3,10,34,10,34s85.39-43.6,118.68,27.81c0,0-1.55-39.15,27.52-49.46,13.38-4.74,33-4.67,61.68,5.64C441.28,287.38,389.36,235.24,469,210.54Z"/><path d="M304.1,104.82s-4.93,52.25-48.07,71.37c-21.34,9.47-54.17,5.09-91.53-11.88,0,0,41.82,41.23,36.57,67.4-3.11,15.49-16.84,27.92-39.52,39.21,0,0,40.73-2,65.11,8,18,7.35,13.82,32.68,13.82,32.68s83-53.21,124.57,14c0,0-5.65-38.78,23.08-52.38,13.23-6.25,33.33-8.44,63.83-1.49,0,0-58.64-45.9,20.43-79.65,0,0-43.32,4.77-58.77-10.06-8.14-7.81-6.87-25,2.39-42.43,0,0-39.1,23.73-68.86,18.36C327.12,154.31,304.82,137.62,304.1,104.82Z"/><path class="cls-3" d="M177.14,266.59s25.5-10.55,29.36-34.66-26.59-58.82-26.59-58.82,48.63,27,85.65,8.08,39.15-52.74,39.15-52.74S309.57,151.74,337,162c34.89,13,73.2-15,73.2-15s-17.24,33.63,5,43.51,37.28,8.93,37.28,8.93-27.19,13.06-28.61,31,15.25,36.42,15.25,36.42-43.28-10.13-60.91,3c-14.93,11.09-18.7,39.17-18.7,39.17s-14-14.34-22.27-18.74c-17.74-9.46-39.6-10.3-63.22-2.43-10.12,3.37-26.52,13.32-26.52,13.32s2-16.88-12.42-26.68S177.14,266.59,177.14,266.59Z"/><g class="cls-4"><path class="cls-5" d="M365,329.18a2.65,2.65,0,0,1,4.59-2.65,2.65,2.65,0,1,1-4.59,2.65Z"/><path class="cls-5" d="M358.19,327.83a2.6,2.6,0,1,1,.91-3.65A2.61,2.61,0,0,1,358.19,327.83Z"/><path class="cls-5" d="M365,323.77a2.6,2.6,0,0,1-2.86-4.34,2.6,2.6,0,0,1,2.86,4.34Z"/><path class="cls-5" d="M367.74,319.23a2.53,2.53,0,0,1,.85-3.63,2.59,2.59,0,0,1,2.6,4.49A2.5,2.5,0,0,1,367.74,319.23Z"/><path class="cls-5" d="M370.23,309.26a2.59,2.59,0,1,1,3.55.71A2.73,2.73,0,0,1,370.23,309.26Z"/><path class="cls-5" d="M414.51,282.82a2.58,2.58,0,0,1,4.42-2.68,2.59,2.59,0,0,1-4.42,2.68Z"/><path class="cls-5" d="M437.65,268.9a2.57,2.57,0,1,1-3.53-.71A2.68,2.68,0,0,1,437.65,268.9Z"/><path class="cls-5" d="M357.64,316.56a2.65,2.65,0,0,1,1-3.45,2.54,2.54,0,0,1,3.43,1,2.52,2.52,0,0,1-1,3.42A2.61,2.61,0,0,1,357.64,316.56Z"/><path class="cls-5" d="M354.4,321.51a2.53,2.53,0,0,1-2.45-4.42,2.53,2.53,0,1,1,2.45,4.42Z"/><path class="cls-5" d="M430.59,276.16a2.51,2.51,0,0,1-3.45-.82,2.55,2.55,0,0,1,.78-3.48,2.64,2.64,0,0,1,3.49.82A2.6,2.6,0,0,1,430.59,276.16Z"/><path class="cls-5" d="M421.73,275.55a2.55,2.55,0,0,1,3.42,1,2.52,2.52,0,0,1-1,3.41,2.53,2.53,0,0,1-2.45-4.42Z"/><path class="cls-5" d="M367.35,313.8a2.51,2.51,0,0,1-3.39-1.05,2.54,2.54,0,0,1,1-3.41,2.53,2.53,0,0,1,2.4,4.46Z"/><path class="cls-5" d="M395.83,285.36a2.59,2.59,0,0,1-.64,3.33,2.52,2.52,0,0,1-3.49-.69,2.45,2.45,0,0,1,4.13-2.64Z"/><path class="cls-5" d="M436,261.65a2.44,2.44,0,0,1,4.1-2.66,2.44,2.44,0,1,1-4.1,2.66Z"/><path class="cls-5" d="M421.38,270.35a2.51,2.51,0,0,1-1.06,3.39,2.62,2.62,0,0,1-3.23-1,2.48,2.48,0,0,1,.87-3.26A2.44,2.44,0,0,1,421.38,270.35Z"/><path class="cls-5" d="M360.41,306.66a2.41,2.41,0,0,1,.58-3.3,2.49,2.49,0,0,1,3.5.61,2.61,2.61,0,0,1-.8,3.48A2.49,2.49,0,0,1,360.41,306.66Z"/><path class="cls-5" d="M347.34,314.29a2.47,2.47,0,0,1,.78-3.29,2.5,2.5,0,0,1,3.46.8,2.58,2.58,0,0,1-1,3.44A2.55,2.55,0,0,1,347.34,314.29Z"/><path class="cls-5" d="M357.48,311.15a2.61,2.61,0,0,1-3.48-.84,2.49,2.49,0,0,1,.81-3.28,2.4,2.4,0,0,1,3.3.61A2.5,2.5,0,0,1,357.48,311.15Z"/><path class="cls-5" d="M426.75,269.92a2.48,2.48,0,0,1-3.39-1.07,2.42,2.42,0,0,1,1-3.21,2.47,2.47,0,0,1,3.4,1A2.58,2.58,0,0,1,426.75,269.92Z"/><path class="cls-5" d="M385.31,291.63a2.51,2.51,0,0,1,1.08-3.39,2.47,2.47,0,0,1,3.22,1,2.54,2.54,0,0,1-1.05,3.4A2.64,2.64,0,0,1,385.31,291.63Z"/><path class="cls-5" d="M407.93,281.12a2.53,2.53,0,0,1-3.39-1.08,2.44,2.44,0,1,1,4.39-2.15A2.58,2.58,0,0,1,407.93,281.12Z"/><path class="cls-5" d="M410.89,276.51a2.52,2.52,0,0,1,.74-3.3,2.59,2.59,0,0,1,3.51.71,2.67,2.67,0,0,1-1,3.47A2.6,2.6,0,0,1,410.89,276.51Z"/><path class="cls-5" d="M345.23,315.46a2.62,2.62,0,0,1-.62,3.33,2.55,2.55,0,0,1-3.5-.67,2.45,2.45,0,0,1,4.12-2.66Z"/><path class="cls-5" d="M433,266.18a2.64,2.64,0,0,1-3.45-1,2.55,2.55,0,0,1,1-3.25,2.49,2.49,0,0,1,3.41,1A2.57,2.57,0,0,1,433,266.18Z"/><path class="cls-5" d="M370.86,300.38a2.6,2.6,0,0,1-1.08,3.42,2.7,2.7,0,0,1-3.28-1,2.5,2.5,0,0,1,4.36-2.46Z"/><path class="cls-5" d="M429.14,259.85a2.38,2.38,0,0,1-3.19-1,2.37,2.37,0,1,1,4.18-2.22A2.38,2.38,0,0,1,429.14,259.85Z"/><path class="cls-5" d="M439,251.22a2.43,2.43,0,0,1,.86-3.22,2.35,2.35,0,0,1,3.21.89,2.31,2.31,0,0,1-.86,3.2A2.37,2.37,0,0,1,439,251.22Z"/><path class="cls-5" d="M423,263.55a2.36,2.36,0,0,1-3.2-.91,2.39,2.39,0,0,1,.9-3.21,2.42,2.42,0,0,1,3.21.92A2.39,2.39,0,0,1,423,263.55Z"/><path class="cls-5" d="M398,278.39a2.35,2.35,0,1,1,.7-3.23A2.29,2.29,0,0,1,398,278.39Z"/><path class="cls-5" d="M366.18,297.33a2.35,2.35,0,1,1-2.35-4.07,2.43,2.43,0,0,1,3.1.79A2.39,2.39,0,0,1,366.18,297.33Z"/><path class="cls-5" d="M354.43,301.59a2.33,2.33,0,0,1-.82,3.22,2.38,2.38,0,0,1-3.23-.81,2.43,2.43,0,0,1,.82-3.24A2.39,2.39,0,0,1,354.43,301.59Z"/><path class="cls-5" d="M410.47,271a2.38,2.38,0,0,1-3.26-.86,2.36,2.36,0,1,1,3.26.86Z"/><path class="cls-5" d="M343.7,308a2.44,2.44,0,0,1,.77-3.24,2.33,2.33,0,0,1,3.23.78,2.29,2.29,0,0,1-.76,3.22A2.36,2.36,0,0,1,343.7,308Z"/><path class="cls-5" d="M435.57,256a2.39,2.39,0,0,1-3.25-.74,2.45,2.45,0,0,1,.74-3.26,2.4,2.4,0,0,1,3.25.76A2.36,2.36,0,0,1,435.57,256Z"/><path class="cls-5" d="M378.61,289.93a2.33,2.33,0,0,1-3.18-.95,2.36,2.36,0,0,1,.94-3.19,2.35,2.35,0,0,1,2.24,4.14Z"/><path class="cls-5" d="M384.93,286.17a2.38,2.38,0,0,1-3.25-.88,2.35,2.35,0,1,1,3.25.88Z"/><path class="cls-5" d="M391.26,282.4a2.37,2.37,0,0,1-3.24-.74,2.43,2.43,0,0,1,.75-3.26,2.39,2.39,0,0,1,3.24.77A2.32,2.32,0,0,1,391.26,282.4Z"/><path class="cls-5" d="M360.69,297.79a2.36,2.36,0,1,1-4,2.52,2.36,2.36,0,1,1,4-2.52Z"/><path class="cls-5" d="M417.54,264.05a2.36,2.36,0,0,1-4.07,2.38,2.43,2.43,0,0,1,.85-3.23A2.39,2.39,0,0,1,417.54,264.05Z"/><path class="cls-5" d="M404.14,274.74a2.36,2.36,0,0,1-2.3-4.12,2.44,2.44,0,0,1,3.21.92A2.39,2.39,0,0,1,404.14,274.74Z"/><path class="cls-5" d="M372.46,293.59a2.39,2.39,0,0,1-3.24-.73,2.44,2.44,0,0,1,.73-3.26,2.41,2.41,0,0,1,3.25.75A2.37,2.37,0,0,1,372.46,293.59Z"/><path class="cls-5" d="M341.39,309.21a2.35,2.35,0,1,1-4,2.51,2.35,2.35,0,0,1,4-2.51Z"/><path class="cls-5" d="M391,271.25a2.26,2.26,0,1,1,3,.9A2.25,2.25,0,0,1,391,271.25Z"/><path class="cls-5" d="M363.1,287.83a2.25,2.25,0,0,1-3.69,2.56,2.25,2.25,0,1,1,3.69-2.56Z"/><path class="cls-5" d="M407.52,261.64a2.25,2.25,0,0,1-.88,3,2.28,2.28,0,0,1-3-.8,2.22,2.22,0,0,1,.95-3.16A2.19,2.19,0,0,1,407.52,261.64Z"/><path class="cls-5" d="M375.67,280.4a2.26,2.26,0,1,1-3-.73A2.22,2.22,0,0,1,375.67,280.4Z"/><path class="cls-5" d="M343.13,302.45a2.32,2.32,0,0,1-3.08-.73,2.26,2.26,0,0,1,.69-3.07,2.25,2.25,0,1,1,2.39,3.8Z"/><path class="cls-5" d="M438.5,245.68a2.3,2.3,0,0,1-3.09-.63A2.23,2.23,0,0,1,436,242a2.24,2.24,0,1,1,2.5,3.71Z"/><path class="cls-5" d="M331.36,306.75a2.27,2.27,0,0,1-.64,3.08,2.24,2.24,0,0,1-3.09-.54,2.2,2.2,0,0,1,.67-3.24A2.25,2.25,0,0,1,331.36,306.75Z"/><path class="cls-5" d="M381.86,276.64a2.21,2.21,0,0,1-.55,3.07,2.24,2.24,0,1,1,.55-3.07Z"/><path class="cls-5" d="M388.28,273.17a2.19,2.19,0,0,1-.95,3,2.3,2.3,0,0,1-3-.89,2.26,2.26,0,0,1,1.05-3.14A2.15,2.15,0,0,1,388.28,273.17Z"/><path class="cls-5" d="M349.75,298.5a2.24,2.24,0,1,1,.95-3A2.25,2.25,0,0,1,349.75,298.5Z"/><path class="cls-5" d="M400.36,268.39a2.25,2.25,0,1,1-2.08-4,2.25,2.25,0,0,1,2.08,4Z"/><path class="cls-5" d="M412.94,260.9a2.23,2.23,0,0,1-3-.73,2.24,2.24,0,1,1,3.85-2.3A2.26,2.26,0,0,1,412.94,260.9Z"/><path class="cls-5" d="M369.44,284.27a2.23,2.23,0,0,1-.83,3,2.26,2.26,0,0,1-3-.78,2.23,2.23,0,0,1,.9-3.18A2.19,2.19,0,0,1,369.44,284.27Z"/><path class="cls-5" d="M425.36,253.49a2.23,2.23,0,1,1,1-3A2.22,2.22,0,0,1,425.36,253.49Z"/><path class="cls-5" d="M416.83,253.36a2.21,2.21,0,0,1,3.07.59,2.23,2.23,0,0,1-.49,3.09,2.28,2.28,0,0,1-3.26-.61A2.24,2.24,0,0,1,416.83,253.36Z"/><path class="cls-5" d="M353,293.9a2.23,2.23,0,1,1,3.93-2.11A2.23,2.23,0,0,1,353,293.9Z"/><path class="cls-5" d="M432.59,246.85a2.16,2.16,0,0,1-1,2.94,2.25,2.25,0,1,1-1.89-4.08A2.17,2.17,0,0,1,432.59,246.85Z"/><path class="cls-5" d="M324.29,313.66a2.3,2.3,0,0,1-3-.79,2.27,2.27,0,0,1,.94-3.18,2.25,2.25,0,0,1,2.1,4Z"/><path class="cls-5" d="M336.86,306.18a2.21,2.21,0,0,1-3-.75,2.21,2.21,0,1,1,3,.75Z"/><path class="cls-5" d="M336.35,295.34a2.17,2.17,0,0,1,.91-3,2.06,2.06,0,0,1,2.94.93,2.1,2.1,0,0,1-.82,2.8A2.23,2.23,0,0,1,336.35,295.34Z"/><path class="cls-5" d="M435.49,236.49a2.13,2.13,0,0,1-.94,3,2.21,2.21,0,0,1-2.84-.77,2.16,2.16,0,0,1,.79-3A2.1,2.1,0,0,1,435.49,236.49Z"/><path class="cls-5" d="M416.16,247.8a2.16,2.16,0,0,1-3.56,2.45,2.16,2.16,0,1,1,3.56-2.45Z"/><path class="cls-5" d="M391.13,262.77a2.15,2.15,0,0,1-.8,3,2.17,2.17,0,0,1-2.86-.63,2.18,2.18,0,1,1,3.66-2.37Z"/><path class="cls-5" d="M368.2,276.52a2.18,2.18,0,1,1,3.05.6A2.17,2.17,0,0,1,368.2,276.52Z"/><path class="cls-5" d="M323.88,302.87a2.12,2.12,0,0,1,.76-3,2.15,2.15,0,1,1-.76,3Z"/><path class="cls-5" d="M380.65,268.93a2.16,2.16,0,0,1,1-2.95,2.15,2.15,0,0,1,2,3.77A2.21,2.21,0,0,1,380.65,268.93Z"/><path class="cls-5" d="M358.69,284.59a2.14,2.14,0,0,1-3-.63,2.11,2.11,0,0,1,.74-3,2.09,2.09,0,0,1,2.84.6A2.13,2.13,0,0,1,358.69,284.59Z"/><path class="cls-5" d="M403.65,255.3a2.16,2.16,0,0,1-3.61,2.37,2.16,2.16,0,1,1,3.61-2.37Z"/><path class="cls-5" d="M346.83,289.18a2.16,2.16,0,0,1-3.67,2.28,2.16,2.16,0,1,1,3.67-2.28Z"/><path class="cls-5" d="M352.4,288.34a2.09,2.09,0,0,1-3-.72,2.13,2.13,0,0,1,3.59-2.29A2.1,2.1,0,0,1,352.4,288.34Z"/><path class="cls-5" d="M428.68,240.41a2,2,0,0,1-.73,3,2.13,2.13,0,0,1-2.84-.64,2.1,2.1,0,0,1,.59-3A2,2,0,0,1,428.68,240.41Z"/><path class="cls-5" d="M418.78,246.4a2.14,2.14,0,1,1,3.69-2.17,2.14,2.14,0,0,1-3.69,2.17Z"/><path class="cls-5" d="M441.73,232.8a2.15,2.15,0,0,1-.94,2.94,2.09,2.09,0,0,1-2.89-1.05,2,2,0,0,1,.88-2.75A2.11,2.11,0,0,1,441.73,232.8Z"/><path class="cls-5" d="M317.62,306.53a2.11,2.11,0,0,1,.81-3,2.15,2.15,0,0,1,2.18,3.7A2.13,2.13,0,0,1,317.62,306.53Z"/><path class="cls-5" d="M330.2,299.12a2.11,2.11,0,1,1,3,.66A2.06,2.06,0,0,1,330.2,299.12Z"/><path class="cls-5" d="M409.12,254.58a2.1,2.1,0,0,1-2.95-.85,2.14,2.14,0,1,1,2.95.85Z"/><path class="cls-5" d="M314.37,311a2.12,2.12,0,0,1-3-.67,2.09,2.09,0,0,1,.76-3,2,2,0,0,1,2.82.62A2.13,2.13,0,0,1,314.37,311Z"/><path class="cls-5" d="M377.36,273.49a2.15,2.15,0,1,1-2.05-3.77,2,2,0,0,1,2.77.79A2.07,2.07,0,0,1,377.36,273.49Z"/><path class="cls-5" d="M364.82,281a2.12,2.12,0,0,1-2.95-.88,2.13,2.13,0,1,1,2.95.88Z"/><path class="cls-5" d="M320,296.17a2.11,2.11,0,0,1,.54-2.85,2.06,2.06,0,1,1-.54,2.85Z"/><path class="cls-5" d="M396.75,262a2.07,2.07,0,0,1-3-.65,2,2,0,0,1,.69-3,2.07,2.07,0,0,1,2.83.59A2.13,2.13,0,0,1,396.75,262Z"/><path class="cls-5" d="M430.56,232.6a2.17,2.17,0,0,1-2.81-.74,2.19,2.19,0,0,1,.73-2.81,2.06,2.06,0,1,1,2.08,3.55Z"/><path class="cls-5" d="M355.34,275.13a2.07,2.07,0,0,1-3.69,1.89,2.07,2.07,0,0,1,3.69-1.89Z"/><path class="cls-5" d="M386.4,258.88a2.2,2.2,0,0,1-2.86-.49,2.17,2.17,0,0,1,.48-2.86,2.06,2.06,0,1,1,2.38,3.35Z"/><path class="cls-5" d="M336.05,286.45a2.08,2.08,0,0,1-.68,2.8,2.19,2.19,0,0,1-2.85-.54,2.16,2.16,0,0,1,.74-3A2.07,2.07,0,0,1,336.05,286.45Z"/><path class="cls-5" d="M396,250.67a2,2,0,0,1,.85-2.78,2.06,2.06,0,1,1,1.94,3.63A2.06,2.06,0,0,1,396,250.67Z"/><path class="cls-5" d="M364.27,269.72a2.07,2.07,0,0,1,.63-2.82,2.14,2.14,0,0,1,3,.7,2.18,2.18,0,0,1-.81,2.79A2.1,2.1,0,0,1,364.27,269.72Z"/><path class="cls-5" d="M304.72,305.1a2.1,2.1,0,0,1-.72,2.82,2.05,2.05,0,1,1-2.11-3.52A2.09,2.09,0,0,1,304.72,305.1Z"/><path class="cls-5" d="M411.49,244a2.06,2.06,0,0,1-2.28-3.42,2.06,2.06,0,1,1,2.28,3.42Z"/><path class="cls-5" d="M414.82,239.59a2.07,2.07,0,0,1,.7-2.82,2.05,2.05,0,0,1,2.12,3.52A2.08,2.08,0,0,1,414.82,239.59Z"/><path class="cls-5" d="M310.22,304.22a2.09,2.09,0,0,1-2.82-.72,2.06,2.06,0,0,1,.73-2.81,2.05,2.05,0,0,1,2.09,3.53Z"/><path class="cls-5" d="M342.05,285.27a2,2,0,1,1-2.21-3.45,2,2,0,1,1,2.21,3.45Z"/><path class="cls-5" d="M443.89,222.27a2.07,2.07,0,0,1-.71,2.82,2.05,2.05,0,0,1-2.11-3.52A2.06,2.06,0,0,1,443.89,222.27Z"/><path class="cls-5" d="M346.26,278a2.06,2.06,0,0,1,2,3.61,2.06,2.06,0,0,1-2-3.61Z"/><path class="cls-5" d="M376.84,262.28a2.11,2.11,0,0,1,.61-2.85,2.05,2.05,0,1,1,2.24,3.44A2.09,2.09,0,0,1,376.84,262.28Z"/><path class="cls-5" d="M437.56,226a2.09,2.09,0,0,1-.62,2.84,2.06,2.06,0,1,1,.62-2.84Z"/><path class="cls-5" d="M408.31,234.88a2.18,2.18,0,0,1-.62,2.83,2.07,2.07,0,0,1-2.79-.73,2.19,2.19,0,0,1,.55-2.66A2.24,2.24,0,0,1,408.31,234.88Z"/><path class="cls-5" d="M405,247.82a2.06,2.06,0,1,1-1.88-3.66,2,2,0,0,1,2.76.9A2.06,2.06,0,0,1,405,247.82Z"/><path class="cls-5" d="M427.64,223.58a2.15,2.15,0,0,1-.88,2.77,2.18,2.18,0,0,1-2.75-.95,2.32,2.32,0,0,1,.82-2.62A2.2,2.2,0,0,1,427.64,223.58Z"/><path class="cls-5" d="M371.29,263.09a2,2,0,0,1,2.77.85,2,2,0,0,1-.81,2.76,2,2,0,0,1-2.77-.83A2,2,0,0,1,371.29,263.09Z"/><path class="cls-5" d="M375.86,256.65a2.12,2.12,0,0,1-2.77-.81,2,2,0,0,1,3.47-2A2.13,2.13,0,0,1,375.86,256.65Z"/><path class="cls-5" d="M298.39,308.85a2,2,0,0,1-.67,2.82,2.11,2.11,0,0,1-2.83-.69,2.06,2.06,0,0,1,.69-2.82A2,2,0,0,1,298.39,308.85Z"/><path class="cls-5" d="M331.54,283a2.17,2.17,0,0,1-2.78-.83,2,2,0,0,1,3.52-2A2.17,2.17,0,0,1,331.54,283Z"/><path class="cls-5" d="M439.42,218.82a2,2,0,0,1-2.75-.8,2.14,2.14,0,0,1,.59-2.64,2.21,2.21,0,0,1,2.84.63A2.13,2.13,0,0,1,439.42,218.82Z"/><path class="cls-5" d="M287.17,309.43a2.2,2.2,0,0,1-2.77-.89,2.35,2.35,0,0,1,.77-2.65,2.24,2.24,0,0,1,2.83.75A2.15,2.15,0,0,1,287.17,309.43Z"/><path class="cls-5" d="M319,290.5a2.13,2.13,0,0,1-2.78-.84,2.17,2.17,0,0,1,.92-2.76,2.36,2.36,0,0,1,2.64.78A2.24,2.24,0,0,1,319,290.5Z"/><path class="cls-5" d="M338.27,279a2.17,2.17,0,0,1-2.81-.73,2.27,2.27,0,0,1,.82-2.81,2.18,2.18,0,0,1,2.62.73A2.06,2.06,0,0,1,338.27,279Z"/><path class="cls-5" d="M326.26,292.34a2,2,0,1,1,2.81.66A2,2,0,0,1,326.26,292.34Z"/><path class="cls-5" d="M275.38,314a2,2,0,1,1-3.45,2.13,2.24,2.24,0,0,1,.59-2.67A2.21,2.21,0,0,1,275.38,314Z"/><path class="cls-5" d="M301,298.91a2.18,2.18,0,0,1-.81,2.79,2.05,2.05,0,0,1-2.73-.92,2.15,2.15,0,0,1,.72-2.61A2.25,2.25,0,0,1,301,298.91Z"/><path class="cls-5" d="M316.42,300.54a2.1,2.1,0,0,1-2.78-.89,2.07,2.07,0,0,1,.88-2.77,2,2,0,0,1,2.76.89A2.07,2.07,0,0,1,316.42,300.54Z"/><path class="cls-5" d="M414.51,231.2a2,2,0,0,1-.66,2.83,2.1,2.1,0,0,1-2.66-.67,2.14,2.14,0,0,1,.67-2.85A2.1,2.1,0,0,1,414.51,231.2Z"/><path class="cls-5" d="M369.5,260.43a2.1,2.1,0,0,1-2.76-1,2.18,2.18,0,0,1,.86-2.62,2.1,2.1,0,0,1,2.75,1A2,2,0,0,1,369.5,260.43Z"/><path class="cls-5" d="M388.8,249a2.06,2.06,0,0,1-2.74-.85,2.15,2.15,0,0,1,.85-2.76,2.32,2.32,0,0,1,2.62.81A2.14,2.14,0,0,1,388.8,249Z"/><path class="cls-5" d="M364.11,261.37a2.23,2.23,0,0,1-.87,2.79,2.07,2.07,0,0,1-2.73-1,2.18,2.18,0,0,1,.78-2.6A2.27,2.27,0,0,1,364.11,261.37Z"/><path class="cls-5" d="M360.79,274.13a2.06,2.06,0,0,1-2.07-3.56,2.06,2.06,0,0,1,2.07,3.56Z"/><path class="cls-5" d="M354.31,267.11a2,2,0,0,1,3.37-2.12,2.07,2.07,0,0,1-.57,2.82A2.12,2.12,0,0,1,354.31,267.11Z"/><path class="cls-5" d="M424.63,233.76a2,2,0,0,1-.72,2.8,2.06,2.06,0,0,1-2.08-3.55A2,2,0,0,1,424.63,233.76Z"/><path class="cls-5" d="M379.81,252a2.29,2.29,0,0,1,.69-2.85,2.22,2.22,0,0,1,2.67.58,2.09,2.09,0,0,1-.5,2.86A2.21,2.21,0,0,1,379.81,252Z"/><path class="cls-5" d="M294.05,305.35a2.16,2.16,0,0,1-2.83-.64,2.29,2.29,0,0,1,.48-2.69,2.14,2.14,0,0,1,2.84.49A2.07,2.07,0,0,1,294.05,305.35Z"/><path class="cls-5" d="M344.63,275.24a2.06,2.06,0,0,1-2.8-.66,2.16,2.16,0,0,1,.67-2.8,2.26,2.26,0,0,1,2.66.61A2.16,2.16,0,0,1,344.63,275.24Z"/><path class="cls-5" d="M281,313.13a2.05,2.05,0,0,1-2.74-.84,2,2,0,1,1,3.42-2A2.08,2.08,0,0,1,281,313.13Z"/><path class="cls-5" d="M307.18,295.25a2,2,0,0,1-.64,2.66,2,2,0,1,1-2-3.55A2.11,2.11,0,0,1,307.18,295.25Z"/><path class="cls-5" d="M284.78,319.37a2,2,0,0,1-2.81-.68,2,2,0,1,1,3.43-2.14A2,2,0,0,1,284.78,319.37Z"/><path class="cls-5" d="M402.05,238.73a2.07,2.07,0,0,1-.75,2.78,2.15,2.15,0,0,1-2.76-.87,2.25,2.25,0,0,1,.71-2.63A2.17,2.17,0,0,1,402.05,238.73Z"/><path class="cls-5" d="M325.92,284a2.06,2.06,0,0,1-.68,2.83,2.1,2.1,0,0,1-2.65-.71,2,2,0,1,1,3.33-2.12Z"/><path class="cls-5" d="M312.75,294.22a2.12,2.12,0,0,1-2.76-.83,2.21,2.21,0,0,1,.64-2.64,2.18,2.18,0,0,1,2.82.67A2.13,2.13,0,0,1,312.75,294.22Z"/><path class="cls-5" d="M348.11,270.94a2.17,2.17,0,0,1,.58-2.84,2.14,2.14,0,0,1,2.66.53,2.06,2.06,0,0,1-.41,2.84A2.08,2.08,0,0,1,348.11,270.94Z"/><path class="cls-5" d="M392.44,244.53a2.09,2.09,0,0,1,.59-2.81,2.16,2.16,0,0,1,2.66.54,2.09,2.09,0,0,1-.45,2.84A2,2,0,0,1,392.44,244.53Z"/><path class="cls-5" d="M417.43,229.55a2,2,0,0,1,3.37-2.13,2,2,0,1,1-3.37,2.13Z"/><path class="cls-5" d="M392.59,255.2a2.06,2.06,0,0,1-2.11-3.53,2.06,2.06,0,0,1,2.11,3.53Z"/><path class="cls-5" d="M433.1,222.58a2.1,2.1,0,0,1-2.76-.82,2.19,2.19,0,0,1,.86-2.77,2.25,2.25,0,0,1,2.61.79A2.11,2.11,0,0,1,433.1,222.58Z"/><path class="cls-5" d="M328.46,274.1a1.87,1.87,0,0,1-3.22,1.9,1.87,1.87,0,1,1,3.22-1.9Z"/><path class="cls-5" d="M369.48,249.51a1.92,1.92,0,0,1,.81-2.55,1.86,1.86,0,0,1,1.76,3.28A1.9,1.9,0,0,1,369.48,249.51Z"/><path class="cls-5" d="M357,257a1.87,1.87,0,0,1,.76-2.56,2,2,0,0,1,2.45.6,2,2,0,0,1-.62,2.63A1.87,1.87,0,0,1,357,257Z"/><path class="cls-5" d="M296.53,295.19a1.86,1.86,0,1,1-2-3.15,2,2,0,0,1,2.47.5A2,2,0,0,1,296.53,295.19Z"/><path class="cls-5" d="M404.53,228.82a2,2,0,0,1-.8,2.57,1.86,1.86,0,0,1-1.8-3.26A1.93,1.93,0,0,1,404.53,228.82Z"/><path class="cls-5" d="M365.79,254a1.88,1.88,0,0,1-2.58-.67,1.86,1.86,0,0,1,3.17-1.93A1.87,1.87,0,0,1,365.79,254Z"/><path class="cls-5" d="M448.76,202.33a1.88,1.88,0,1,1-2.65-.5A2,2,0,0,1,448.76,202.33Z"/><path class="cls-5" d="M341.41,266.35a2,2,0,0,1-.75,2.58,1.87,1.87,0,1,1,.75-2.58Z"/><path class="cls-5" d="M265.29,311.54a1.87,1.87,0,1,1-3.21,1.92,1.87,1.87,0,0,1,3.21-1.92Z"/><path class="cls-5" d="M258.48,317.84a1.86,1.86,0,0,1-2.2-3,1.86,1.86,0,1,1,2.2,3Z"/><path class="cls-5" d="M290.15,299a2,2,0,0,1-2.6-.71,2,2,0,0,1,.6-2.44,1.87,1.87,0,1,1,2,3.15Z"/><path class="cls-5" d="M430,213.62a1.94,1.94,0,0,1-.74,2.58,1.86,1.86,0,0,1-1.86-3.22A1.92,1.92,0,0,1,430,213.62Z"/><path class="cls-5" d="M397.45,235.13a1.86,1.86,0,0,1-1.79-3.27,1.87,1.87,0,1,1,1.79,3.27Z"/><path class="cls-5" d="M439.32,208.14a2,2,0,0,1,.62-2.63,1.86,1.86,0,0,1,2.05,3.11A2,2,0,0,1,439.32,208.14Z"/><path class="cls-5" d="M334.45,272.62a2,2,0,0,1-2.61-.69,2,2,0,0,1,.61-2.45,1.86,1.86,0,1,1,2,3.14Z"/><path class="cls-5" d="M435.71,212.35a1.86,1.86,0,1,1-2-3.14,1.86,1.86,0,0,1,2,3.14Z"/><path class="cls-5" d="M423,219.92a1.91,1.91,0,0,1-2.54-.85,2,2,0,0,1,.73-2.39,1.86,1.86,0,1,1,1.81,3.24Z"/><path class="cls-5" d="M416.29,223.92a1.87,1.87,0,0,1-1.85-3.24,1.87,1.87,0,1,1,1.85,3.24Z"/><path class="cls-5" d="M410.07,227.61a1.86,1.86,0,0,1-2.55-.74A1.84,1.84,0,0,1,410.7,225,1.85,1.85,0,0,1,410.07,227.61Z"/><path class="cls-5" d="M388.73,238.06a1.83,1.83,0,0,1,.8-2.53,1.86,1.86,0,0,1,2.5.88,1.91,1.91,0,0,1-.74,2.38A1.85,1.85,0,0,1,388.73,238.06Z"/><path class="cls-5" d="M353.19,261.47a1.87,1.87,0,0,1-1.88-3.22,1.87,1.87,0,1,1,1.88,3.22Z"/><path class="cls-5" d="M347.68,262.71a1.84,1.84,0,1,1-3.33,1.58,1.84,1.84,0,0,1,3.33-1.58Z"/><path class="cls-5" d="M319,279.73a1.85,1.85,0,1,1,2.61.55A1.91,1.91,0,0,1,319,279.73Z"/><path class="cls-5" d="M308.87,287.85a1.87,1.87,0,1,1,.78-2.57A2,2,0,0,1,308.87,287.85Z"/><path class="cls-5" d="M302.59,291.56a1.85,1.85,0,0,1-2.52-.84,1.88,1.88,0,0,1,.7-2.38,1.85,1.85,0,0,1,2.57.68A1.82,1.82,0,0,1,302.59,291.56Z"/><path class="cls-5" d="M283.35,303a1.92,1.92,0,0,1-2.54-.85,2,2,0,0,1,.74-2.4,1.86,1.86,0,1,1,1.8,3.25Z"/><path class="cls-5" d="M270.84,310.47a1.85,1.85,0,1,1,.72-2.57A1.87,1.87,0,0,1,270.84,310.47Z"/><path class="cls-5" d="M378.81,246.21a1.92,1.92,0,0,1-2.6-.62,1.86,1.86,0,1,1,2.6.62Z"/><path class="cls-5" d="M277.78,304.06a1.86,1.86,0,1,1-2.64-.47A1.92,1.92,0,0,1,277.78,304.06Z"/><path class="cls-5" d="M315.14,284.1a1.85,1.85,0,1,1-1.64-3.32,1.85,1.85,0,0,1,1.64,3.32Z"/><path class="cls-5" d="M385,242.55a2,2,0,0,1-2.58-.77,1.87,1.87,0,0,1,3.26-1.82A1.93,1.93,0,0,1,385,242.55Z"/><path class="cls-5" d="M406.26,221.25a1.75,1.75,0,0,1-1.72-3,1.75,1.75,0,1,1,1.72,3Z"/><path class="cls-5" d="M298.81,285.19a1.7,1.7,0,0,1-2.34-.74,1.69,1.69,0,0,1,.72-2.34,1.74,1.74,0,0,1,1.62,3.08Z"/><path class="cls-5" d="M432.36,203.59a1.7,1.7,0,0,1-.48,2.41,1.74,1.74,0,1,1-1.91-2.92A1.68,1.68,0,0,1,432.36,203.59Z"/><path class="cls-5" d="M343.16,258.8a1.75,1.75,0,0,1-2.37-.67,1.73,1.73,0,0,1,.67-2.37,1.74,1.74,0,0,1,1.7,3Z"/><path class="cls-5" d="M444.89,196.16a1.73,1.73,0,0,1-.49,2.4,1.75,1.75,0,1,1-1.9-2.94A1.7,1.7,0,0,1,444.89,196.16Z"/><path class="cls-5" d="M355.71,251.34a1.82,1.82,0,0,1-2.4-.63,1.76,1.76,0,0,1,3.05-1.77A1.82,1.82,0,0,1,355.71,251.34Z"/><path class="cls-5" d="M419.06,213.61a1.77,1.77,0,0,1-2.28-1,1.75,1.75,0,0,1,3.23-1.33A1.78,1.78,0,0,1,419.06,213.61Z"/><path class="cls-5" d="M362.64,245.3a1.73,1.73,0,0,1-.74,2.34,1.74,1.74,0,0,1-1.61-3.09A1.75,1.75,0,0,1,362.64,245.3Z"/><path class="cls-5" d="M438.06,202.33a1.78,1.78,0,0,1-2.39-.64,1.75,1.75,0,0,1,.64-2.38,1.75,1.75,0,1,1,1.75,3Z"/><path class="cls-5" d="M267.71,301.65a1.75,1.75,0,1,1-3,1.83,1.76,1.76,0,0,1,.58-2.4A1.78,1.78,0,0,1,267.71,301.65Z"/><path class="cls-5" d="M368.34,243.82a1.75,1.75,0,0,1-2.41-.51,1.79,1.79,0,0,1,.49-2.42,1.75,1.75,0,0,1,1.92,2.93Z"/><path class="cls-5" d="M375,239.88a1.8,1.8,0,0,1-2.4-.63,1.76,1.76,0,0,1,3-1.77A1.82,1.82,0,0,1,375,239.88Z"/><path class="cls-5" d="M388.1,230a1.73,1.73,0,0,1-.58,2.39,1.74,1.74,0,1,1-1.81-3A1.73,1.73,0,0,1,388.1,230Z"/><path class="cls-5" d="M393.64,228.76a1.72,1.72,0,0,1-2.3-.83,1.65,1.65,0,0,1,.78-2.31,1.76,1.76,0,0,1,2.33.8A1.8,1.8,0,0,1,393.64,228.76Z"/><path class="cls-5" d="M292.72,288.83a1.75,1.75,0,1,1-2-2.9,1.71,1.71,0,0,1,2.41.48A1.74,1.74,0,0,1,292.72,288.83Z"/><path class="cls-5" d="M286.31,292.64a1.72,1.72,0,0,1-2.34-.71,1.69,1.69,0,0,1,.66-2.36,1.75,1.75,0,1,1,1.68,3.07Z"/><path class="cls-5" d="M260.77,307.84a1.74,1.74,0,0,1-2.33-.79,1.72,1.72,0,1,1,3.08-1.54A1.73,1.73,0,0,1,260.77,307.84Z"/><path class="cls-5" d="M397.6,224.29a1.8,1.8,0,0,1,.72-2.37,1.72,1.72,0,0,1,2.35.71A1.76,1.76,0,0,1,400,225,1.81,1.81,0,0,1,397.6,224.29Z"/><path class="cls-5" d="M311.47,277.67a1.8,1.8,0,0,1-2.42-.53,1.75,1.75,0,0,1,2.95-1.89A1.79,1.79,0,0,1,311.47,277.67Z"/><path class="cls-5" d="M279.59,296.63a1.74,1.74,0,1,1-1.64-3.07,1.75,1.75,0,0,1,2.36.71A1.77,1.77,0,0,1,279.59,296.63Z"/><path class="cls-5" d="M255.16,309.08a1.78,1.78,0,0,1-.52,2.42,1.75,1.75,0,0,1-2.4-.55,1.68,1.68,0,0,1,.51-2.39A1.74,1.74,0,0,1,255.16,309.08Z"/><path class="cls-5" d="M321.6,269.67a1.81,1.81,0,0,1,.54-2.42A1.75,1.75,0,0,1,324,270.2,1.8,1.8,0,0,1,321.6,269.67Z"/><path class="cls-5" d="M248.42,315.18a1.74,1.74,0,1,1-2-2.87,1.74,1.74,0,1,1,2,2.87Z"/><path class="cls-5" d="M328.24,265.56a1.75,1.75,0,0,1,.72-2.36,1.74,1.74,0,1,1,1.64,3.08A1.77,1.77,0,0,1,328.24,265.56Z"/><path class="cls-5" d="M337.53,260.14a1.74,1.74,0,0,1-.6,2.38,1.75,1.75,0,1,1-1.77-3A1.71,1.71,0,0,1,337.53,260.14Z"/><path class="cls-5" d="M271.08,299.81a1.72,1.72,0,0,1,.42-2.42,1.68,1.68,0,0,1,2.41.46,1.72,1.72,0,1,1-2.83,2Z"/><path class="cls-5" d="M423.15,209.17a1.73,1.73,0,1,1,2.39.62A1.76,1.76,0,0,1,423.15,209.17Z"/><path class="cls-5" d="M239.71,318.41a1.74,1.74,0,1,1,2.92-1.88,1.78,1.78,0,0,1-.51,2.42A1.75,1.75,0,0,1,239.71,318.41Z"/><path class="cls-5" d="M305.81,279.09a1.77,1.77,0,0,1-.69,2.37,1.74,1.74,0,0,1-2.35-.74,1.68,1.68,0,0,1,.69-2.35A1.73,1.73,0,0,1,305.81,279.09Z"/><path class="cls-5" d="M350.12,252.74a1.8,1.8,0,0,1-.72,2.37,1.76,1.76,0,0,1-2.35-.76,1.7,1.7,0,0,1,.71-2.35A1.78,1.78,0,0,1,350.12,252.74Z"/><path class="cls-5" d="M317.76,273.93a1.75,1.75,0,1,1,.48-2.41A1.75,1.75,0,0,1,317.76,273.93Z"/><path class="cls-5" d="M412.58,217.5a1.74,1.74,0,0,1-2.38-.63,1.72,1.72,0,0,1,.6-2.39,1.75,1.75,0,0,1,1.78,3Z"/><path class="cls-5" d="M381.79,233.73a1.73,1.73,0,0,1-.51,2.4,1.78,1.78,0,0,1-2.41-.55,1.76,1.76,0,0,1,.53-2.41A1.69,1.69,0,0,1,381.79,233.73Z"/><path class="cls-5" d="M308.13,269a1.64,1.64,0,1,1-2.71,1.83,1.64,1.64,0,0,1,2.71-1.83Z"/><path class="cls-5" d="M416.11,205a1.64,1.64,0,0,1-.8,2.28,1.67,1.67,0,0,1-2.11-.79,1.58,1.58,0,0,1,.77-2.09A1.56,1.56,0,0,1,416.11,205Z"/><path class="cls-5" d="M276.39,287.88a1.67,1.67,0,0,1-.54,2.37,1.62,1.62,0,0,1-2.17-.55,1.55,1.55,0,0,1,.5-2.16A1.62,1.62,0,0,1,276.39,287.88Z"/><path class="cls-5" d="M337.14,251.79a1.64,1.64,0,0,1,2.84-1.61,1.63,1.63,0,1,1-2.84,1.61Z"/><path class="cls-5" d="M384.28,223.8a1.63,1.63,0,1,1-2.81,1.64,1.63,1.63,0,0,1,2.81-1.64Z"/><path class="cls-5" d="M245.09,306.63a1.6,1.6,0,0,1-.46,2.19,1.67,1.67,0,0,1-2.36-.54,1.63,1.63,0,0,1,.65-2.14A1.57,1.57,0,0,1,245.09,306.63Z"/><path class="cls-5" d="M351.9,245a1.68,1.68,0,0,1-2.18-.55,1.6,1.6,0,0,1,.75-2.28,1.53,1.53,0,0,1,2.1.7A1.6,1.6,0,0,1,351.9,245Z"/><path class="cls-5" d="M368.9,232.84a1.64,1.64,0,0,1,2.89-1.53,1.64,1.64,0,1,1-2.89,1.53Z"/><path class="cls-5" d="M288.85,282.52a1.64,1.64,0,0,1-2.18-.51,1.58,1.58,0,0,1,.67-2.3,1.52,1.52,0,0,1,2.1.66A1.59,1.59,0,0,1,288.85,282.52Z"/><path class="cls-5" d="M428.63,197.52a1.57,1.57,0,0,1-.58,2.15,1.62,1.62,0,0,1-2.31-.69,1.55,1.55,0,0,1,.77-2.09A1.5,1.5,0,0,1,428.63,197.52Z"/><path class="cls-5" d="M294.9,278.89a1.6,1.6,0,0,1-2.09-.79,1.58,1.58,0,0,1,1-2.19,1.52,1.52,0,0,1,2,.94A1.57,1.57,0,0,1,294.9,278.89Z"/><path class="cls-5" d="M396.21,218.62a1.67,1.67,0,0,1-2.17-.57,1.59,1.59,0,0,1,.75-2.28,1.52,1.52,0,0,1,2.08.72A1.58,1.58,0,0,1,396.21,218.62Z"/><path class="cls-5" d="M434.89,193.8a1.62,1.62,0,1,1-2.9,1.45,1.62,1.62,0,0,1,2.9-1.45Z"/><path class="cls-5" d="M402.6,214.8a1.58,1.58,0,0,1-2.21-.33,1.53,1.53,0,0,1,.29-2.19,1.55,1.55,0,0,1,2.36.33A1.58,1.58,0,0,1,402.6,214.8Z"/><path class="cls-5" d="M263.3,297.71A1.63,1.63,0,0,1,261,297a1.59,1.59,0,0,1,.82-2.07,1.5,1.5,0,0,1,2.09.67A1.56,1.56,0,0,1,263.3,297.71Z"/><path class="cls-5" d="M320.8,261.72a1.61,1.61,0,1,1-2.9,1.41,1.62,1.62,0,0,1,2.9-1.41Z"/><path class="cls-5" d="M324.69,259.33a1.51,1.51,0,0,1,.5-2.14,1.61,1.61,0,0,1,2.2.36,1.66,1.66,0,0,1-.55,2.35A1.57,1.57,0,0,1,324.69,259.33Z"/><path class="cls-5" d="M358.75,239.08a1.53,1.53,0,0,1-.53,2.14,1.57,1.57,0,0,1-2.29-.67,1.52,1.52,0,0,1,.72-2.08A1.49,1.49,0,0,1,358.75,239.08Z"/><path class="cls-5" d="M364.44,237.52a1.52,1.52,0,0,1-2.11-.61,1.48,1.48,0,0,1,.5-2.12,1.53,1.53,0,0,1,2.16.41A1.59,1.59,0,0,1,364.44,237.52Z"/><path class="cls-5" d="M257.12,301.39a1.59,1.59,0,0,1-1.79-2.63,1.59,1.59,0,0,1,2.2.27A1.61,1.61,0,0,1,257.12,301.39Z"/><path class="cls-5" d="M250.84,305.12a1.54,1.54,0,0,1-2.17-.41,1.51,1.51,0,0,1,.54-2.3,1.49,1.49,0,0,1,2.12.56A1.54,1.54,0,0,1,250.84,305.12Z"/><path class="cls-5" d="M265.7,287.63a1.43,1.43,0,0,1-1.94-.57,1.51,1.51,0,0,1,.61-2.13,1.53,1.53,0,0,1,2.07.81A1.47,1.47,0,0,1,265.7,287.63Z"/><path class="cls-5" d="M270.08,291.67a1.58,1.58,0,1,1-2.64,1.73,1.47,1.47,0,0,1,.48-2.13A1.5,1.5,0,0,1,270.08,291.67Z"/><path class="cls-5" d="M411.62,200.79a1.46,1.46,0,0,1-1.93-.5,1.54,1.54,0,0,1,.46-2.14,1.65,1.65,0,0,1,2.14.55A1.57,1.57,0,0,1,411.62,200.79Z"/><path class="cls-5" d="M419.51,202.77a1.51,1.51,0,0,1,.64-2.09,1.47,1.47,0,0,1,2.11.54,1.54,1.54,0,0,1-.66,2.28A1.59,1.59,0,0,1,419.51,202.77Z"/><path class="cls-5" d="M387.83,221.82a1.5,1.5,0,0,1,.41-2.15,1.58,1.58,0,0,1,2.19.3,1.61,1.61,0,0,1-.46,2.35A1.53,1.53,0,0,1,387.83,221.82Z"/><path class="cls-5" d="M380.51,217.63a1.52,1.52,0,0,1-.68,2.08,1.49,1.49,0,0,1-1.94-.5,1.56,1.56,0,0,1,.48-2.14A1.6,1.6,0,0,1,380.51,217.63Z"/><path class="cls-5" d="M374.16,221.36a1.45,1.45,0,0,1-.42,2,1.49,1.49,0,0,1-2.15-.48,1.54,1.54,0,0,1,.42-2A1.5,1.5,0,0,1,374.16,221.36Z"/><path class="cls-5" d="M375.19,229.1a1.55,1.55,0,0,1,.7-2.09,1.5,1.5,0,0,1,2.1.61,1.55,1.55,0,0,1-.72,2.26A1.61,1.61,0,0,1,375.19,229.1Z"/><path class="cls-5" d="M404.86,204.82a1.44,1.44,0,0,1-1.92-.63,1.51,1.51,0,0,1,.64-2.12,1.57,1.57,0,0,1,1.95.64A1.51,1.51,0,0,1,404.86,204.82Z"/><path class="cls-5" d="M408.72,211.17a1.53,1.53,0,0,1-2.11-.64,1.49,1.49,0,0,1,.53-2.12,1.53,1.53,0,0,1,2.27.66A1.57,1.57,0,0,1,408.72,211.17Z"/><path class="cls-5" d="M342,242.25a1.46,1.46,0,0,1-2-.29,1.53,1.53,0,0,1,.29-2.2,1.55,1.55,0,0,1,2.16.51A1.5,1.5,0,0,1,342,242.25Z"/><path class="cls-5" d="M345.72,248.66a1.53,1.53,0,0,1-2.15-.45,1.5,1.5,0,0,1,.33-2.16,1.59,1.59,0,1,1,1.82,2.61Z"/><path class="cls-5" d="M335.51,246.08a1.51,1.51,0,0,1-2.06-.7,1.61,1.61,0,0,1,.6-1.94,1.57,1.57,0,0,1,2.13.57A1.5,1.5,0,0,1,335.51,246.08Z"/><path class="cls-5" d="M238.35,312.57a1.55,1.55,0,0,1-2.17-.41,1.53,1.53,0,0,1,.29-2.18,1.57,1.57,0,0,1,2.34.42A1.6,1.6,0,0,1,238.35,312.57Z"/><path class="cls-5" d="M234.42,306.25a1.47,1.47,0,0,1-2-.49,1.53,1.53,0,0,1,.52-2.16,1.57,1.57,0,0,1,2.1.73A1.51,1.51,0,0,1,234.42,306.25Z"/><path class="cls-5" d="M329.39,249.73a1.53,1.53,0,0,1-2-.35,1.59,1.59,0,0,1,.39-2.2,1.54,1.54,0,0,1,2.14.59A1.48,1.48,0,0,1,329.39,249.73Z"/><path class="cls-5" d="M333.21,256.1a1.57,1.57,0,0,1-2.17-.41,1.55,1.55,0,0,1,.54-2.31,1.49,1.49,0,0,1,2.11.57A1.53,1.53,0,0,1,333.21,256.1Z"/><path class="cls-5" d="M310.06,261.23a1.47,1.47,0,0,1-2-.46,1.51,1.51,0,1,1,2.62-1.46A1.46,1.46,0,0,1,310.06,261.23Z"/><path class="cls-5" d="M314.47,265.48a1.52,1.52,0,0,1-.58,2.12,1.57,1.57,0,0,1-2.27-.72,1.53,1.53,0,0,1,.76-2.07A1.5,1.5,0,0,1,314.47,265.48Z"/><path class="cls-5" d="M301.77,264.5a1.66,1.66,0,0,1,.51-2.15,1.56,1.56,0,0,1,2.11.59,1.5,1.5,0,0,1-.46,1.94A1.57,1.57,0,0,1,301.77,264.5Z"/><path class="cls-5" d="M272.11,283.83a1.48,1.48,0,0,1-2-.33,1.53,1.53,0,0,1,.28-2.17,1.62,1.62,0,0,1,2.17.36A1.56,1.56,0,0,1,272.11,283.83Z"/><path class="cls-5" d="M282.64,286.2a1.59,1.59,0,0,1-1.87-2.58,1.59,1.59,0,1,1,1.87,2.58Z"/><path class="cls-5" d="M297.46,268.74a1.44,1.44,0,0,1-1.92-.63,1.51,1.51,0,0,1,.64-2.12,1.58,1.58,0,0,1,1.95.64A1.53,1.53,0,0,1,297.46,268.74Z"/><path class="cls-5" d="M301.9,272.8a1.58,1.58,0,0,1-.61,2.3,1.52,1.52,0,0,1-2.09-.67,1.48,1.48,0,0,1,.56-2.11A1.52,1.52,0,0,1,301.9,272.8Z"/><path class="cls-5" d="M418,197a1.5,1.5,0,0,1-2.13-.59,1.58,1.58,0,0,1,.54-2,1.51,1.51,0,0,1,2.13.61A1.46,1.46,0,0,1,418,197Z"/><path class="cls-5" d="M348.07,238.61a1.52,1.52,0,0,1-2.07-.68,1.52,1.52,0,0,1,2.7-1.4A1.5,1.5,0,0,1,348.07,238.61Z"/><path class="cls-5" d="M238.69,302a1.61,1.61,0,0,1,.52-2.14,1.57,1.57,0,0,1,2.11.6,1.5,1.5,0,0,1-.49,1.94A1.52,1.52,0,0,1,238.69,302Z"/><path class="cls-5" d="M367.18,227.22a1.5,1.5,0,0,1-1.89-.66,1.56,1.56,0,0,1,.66-2.09,1.62,1.62,0,0,1,2.08.73A1.58,1.58,0,0,1,367.18,227.22Z"/><path class="cls-5" d="M323.14,253.44a1.53,1.53,0,0,1-2-.28,1.57,1.57,0,0,1,.34-2.2,1.54,1.54,0,0,1,2.16.51A1.5,1.5,0,0,1,323.14,253.44Z"/><path class="cls-5" d="M316.36,257.48a1.43,1.43,0,0,1-2-.47,1.49,1.49,0,0,1,.5-2.15,1.63,1.63,0,0,1,2,.47A1.53,1.53,0,0,1,316.36,257.48Z"/><path class="cls-5" d="M244.88,298.18a1.5,1.5,0,1,1,2.67-1.38,1.5,1.5,0,0,1-2.67,1.38Z"/><path class="cls-5" d="M360.73,231.07a1.44,1.44,0,0,1-2-.35,1.52,1.52,0,0,1,.38-2.19,1.61,1.61,0,0,1,2,.37A1.52,1.52,0,0,1,360.73,231.07Z"/><path class="cls-5" d="M386.69,213.89a1.5,1.5,0,0,1-2.57,1.53,1.5,1.5,0,1,1,2.57-1.53Z"/><path class="cls-5" d="M392.48,212.18a1.54,1.54,0,0,1-2-.37,1.56,1.56,0,0,1,.43-2.19,1.54,1.54,0,0,1,2.14.61A1.5,1.5,0,0,1,392.48,212.18Z"/><path class="cls-5" d="M399.19,206.41a1.45,1.45,0,0,1-.36,2,1.53,1.53,0,0,1-2.19-.39,1.55,1.55,0,0,1,.59-2.15A1.48,1.48,0,0,1,399.19,206.41Z"/><path class="cls-5" d="M424.28,193.25a1.43,1.43,0,0,1-2.09-.5,1.53,1.53,0,0,1,.37-2,1.56,1.56,0,0,1,2.16.35A1.47,1.47,0,0,1,424.28,193.25Z"/><path class="cls-5" d="M279.37,277.93a1.52,1.52,0,0,1-.62,1.94,1.47,1.47,0,0,1-2.1-.65,1.53,1.53,0,0,1,.59-2A1.57,1.57,0,0,1,279.37,277.93Z"/><path class="cls-5" d="M253.18,295.09a1.43,1.43,0,0,1-1.92-.6,1.48,1.48,0,0,1,.6-2.12,1.6,1.6,0,0,1,2,.59A1.55,1.55,0,0,1,253.18,295.09Z"/><path class="cls-5" d="M355,232.92a1.43,1.43,0,0,1-.61,1.93,1.47,1.47,0,0,1-2.11-.63,1.55,1.55,0,0,1,.6-2A1.52,1.52,0,0,1,355,232.92Z"/><path class="cls-5" d="M289.25,272a1.55,1.55,0,0,1,.56-2.16,1.5,1.5,0,0,1,2,.52,1.46,1.46,0,0,1-.34,2A1.53,1.53,0,0,1,289.25,272Z"/><path class="cls-5" d="M257.46,290.86a1.59,1.59,0,0,1,.57-2.16,1.5,1.5,0,0,1,2,.53,1.45,1.45,0,0,1-.33,2A1.56,1.56,0,0,1,257.46,290.86Z"/><path class="cls-5" d="M285,276.15a1.5,1.5,0,0,1-2-.51,1.51,1.51,0,1,1,2.67-1.4A1.52,1.52,0,0,1,285,276.15Z"/><path class="cls-5" d="M230.76,299.84a1.43,1.43,0,0,1-1.94-.42,1.51,1.51,0,0,1,.29-1.8,1.55,1.55,0,0,1,2,.24A1.5,1.5,0,0,1,230.76,299.84Z"/><path class="cls-5" d="M262,281.22a1.41,1.41,0,0,1-1.93-.5,1.49,1.49,0,0,1,.62-1.92,1.53,1.53,0,0,1,1.77.48A1.42,1.42,0,0,1,262,281.22Z"/><path class="cls-5" d="M291.93,261.86a1.45,1.45,0,0,1,.5-1.93,1.51,1.51,0,0,1,1.93.58,1.55,1.55,0,0,1-.48,1.77A1.42,1.42,0,0,1,291.93,261.86Z"/><path class="cls-5" d="M304.4,254.37a1.4,1.4,0,1,1,1.93.49A1.44,1.44,0,0,1,304.4,254.37Z"/><path class="cls-5" d="M336.21,235.49a1.47,1.47,0,0,1,.52-1.93,1.38,1.38,0,0,1,1.42,2.37A1.44,1.44,0,0,1,336.21,235.49Z"/><path class="cls-5" d="M369.91,217a1.48,1.48,0,0,1-2-.47,1.39,1.39,0,0,1,2.35-1.49A1.44,1.44,0,0,1,369.91,217Z"/><path class="cls-5" d="M401.66,196.4a1.5,1.5,0,0,1-.41,2,1.47,1.47,0,0,1-1.8-.27,1.51,1.51,0,0,1,.2-2A1.59,1.59,0,0,1,401.66,196.4Z"/><path class="cls-5" d="M273.14,273.11a1.46,1.46,0,0,1,.42-1.95,1.47,1.47,0,0,1,1.93.51,1.51,1.51,0,0,1-.38,1.78A1.46,1.46,0,0,1,273.14,273.11Z"/><path class="cls-5" d="M281.29,269.76a1.45,1.45,0,0,1-1.92-.51,1.47,1.47,0,0,1,.61-1.9,1.52,1.52,0,0,1,1.76.47A1.44,1.44,0,0,1,281.29,269.76Z"/><path class="cls-5" d="M421,185.07a1.46,1.46,0,0,1-.62,1.91,1.37,1.37,0,0,1-1.33-2.39A1.47,1.47,0,0,1,421,185.07Z"/><path class="cls-5" d="M380.44,209a1.39,1.39,0,1,1,2.54-1.13,1.49,1.49,0,0,1-.63,1.71A1.45,1.45,0,0,1,380.44,209Z"/><path class="cls-5" d="M386.82,205.4a1.38,1.38,0,1,1,1.95.4A1.46,1.46,0,0,1,386.82,205.4Z"/><path class="cls-5" d="M325.53,243.44a1.46,1.46,0,0,1-1.9-.61,1.55,1.55,0,0,1,.7-1.89,1.58,1.58,0,0,1,1.74.58A1.45,1.45,0,0,1,325.53,243.44Z"/><path class="cls-5" d="M414.13,190.71a1.49,1.49,0,0,1-1.92-.58,1.56,1.56,0,0,1,.69-1.9,1.51,1.51,0,0,1,1.74.56A1.41,1.41,0,0,1,414.13,190.71Z"/><path class="cls-5" d="M357.43,222.88a1.51,1.51,0,0,1-.59,1.93,1.45,1.45,0,0,1-1.89-.66,1.51,1.51,0,0,1,.52-1.74A1.53,1.53,0,0,1,357.43,222.88Z"/><path class="cls-5" d="M250,286.81a1.51,1.51,0,0,1-.59,1.92,1.44,1.44,0,0,1-1.89-.66,1.48,1.48,0,0,1,.52-1.74A1.53,1.53,0,0,1,250,286.81Z"/><path class="cls-5" d="M287.48,266.06a1.43,1.43,0,0,1-1.92-.54,1.51,1.51,0,0,1,.69-1.9,1.47,1.47,0,0,1,1.74.53A1.38,1.38,0,0,1,287.48,266.06Z"/><path class="cls-5" d="M255.72,285a1.48,1.48,0,0,1-1.94-.52,1.62,1.62,0,0,1,.68-1.91,1.45,1.45,0,0,1,1.73.53A1.35,1.35,0,0,1,255.72,285Z"/><path class="cls-5" d="M243.74,290.62a1.41,1.41,0,0,1-.67,1.87,1.37,1.37,0,0,1-1.24-2.44A1.42,1.42,0,0,1,243.74,290.62Z"/><path class="cls-5" d="M313.09,249.13a1.53,1.53,0,0,1-.46,2,1.41,1.41,0,0,1-1.78-.27,1.46,1.46,0,0,1,.22-2A1.64,1.64,0,0,1,313.09,249.13Z"/><path class="cls-5" d="M319.37,247.09a1.43,1.43,0,0,1-1.94-.38,1.38,1.38,0,0,1,2.26-1.59A1.47,1.47,0,0,1,319.37,247.09Z"/><path class="cls-5" d="M351.16,226.72a1.42,1.42,0,0,1-.7,1.86,1.37,1.37,0,0,1-1.2-2.46A1.43,1.43,0,0,1,351.16,226.72Z"/><path class="cls-5" d="M394.88,202.14a1.43,1.43,0,0,1-1.92-.55,1.51,1.51,0,0,1,.7-1.89,1.47,1.47,0,0,1,1.74.53A1.38,1.38,0,0,1,394.88,202.14Z"/><path class="cls-5" d="M237.4,294.18a1.4,1.4,0,0,1-.41,1.93,1.45,1.45,0,0,1-1.78-.27,1.49,1.49,0,0,1,.22-2A1.47,1.47,0,0,1,237.4,294.18Z"/><path class="cls-5" d="M361.71,220.26a1.43,1.43,0,0,1,.57-1.89,1.48,1.48,0,0,1,1.88.66,1.47,1.47,0,0,1-.54,1.72A1.39,1.39,0,0,1,361.71,220.26Z"/><path class="cls-5" d="M332.31,237.79a1.38,1.38,0,0,1-2.29,1.54,1.4,1.4,0,0,1,.35-2A1.42,1.42,0,0,1,332.31,237.79Z"/><path class="cls-5" d="M298.1,258a1.55,1.55,0,0,1,.69-1.88,1.43,1.43,0,0,1,1.83.76,1.37,1.37,0,0,1-.6,1.68A1.45,1.45,0,0,1,298.1,258Z"/><path class="cls-5" d="M374.31,212.9a1.38,1.38,0,0,1,.42-1.93,1.43,1.43,0,0,1,1.93.49,1.38,1.38,0,0,1-.4,1.75A1.36,1.36,0,0,1,374.31,212.9Z"/><path class="cls-5" d="M407.83,194.45a1.37,1.37,0,0,1-1.32-2.39,1.48,1.48,0,0,1,1.93.48A1.5,1.5,0,0,1,407.83,194.45Z"/><path class="cls-5" d="M268.21,277.54a1.39,1.39,0,0,1-1.86-.67,1.43,1.43,0,0,1,.53-1.72,1.49,1.49,0,0,1,1.93.49A1.47,1.47,0,0,1,268.21,277.54Z"/><path class="cls-5" d="M344.31,232.25a1.48,1.48,0,0,1-1.9-.62,1.52,1.52,0,0,1,.74-1.87,1.5,1.5,0,0,1,1.71.59A1.4,1.4,0,0,1,344.31,232.25Z"/><path class="cls-5" d="M327.49,232.87a1.06,1.06,0,0,1-1.43-.58,1.14,1.14,0,0,1,.71-1.58,1.11,1.11,0,0,1,1.45.57A1.15,1.15,0,0,1,327.49,232.87Z"/><path class="cls-5" d="M403.77,187.52a1.15,1.15,0,0,1-1.52-.33,1.18,1.18,0,0,1,.39-1.69,1.19,1.19,0,0,1,1.53.33A1.15,1.15,0,0,1,403.77,187.52Z"/><path class="cls-5" d="M264.15,270.61a1.13,1.13,0,0,1-1.52-.32,1.17,1.17,0,0,1,1.91-1.36A1.14,1.14,0,0,1,264.15,270.61Z"/><path class="cls-5" d="M370.48,206.12a1.1,1.1,0,0,1,.2-1.54,1.13,1.13,0,0,1,1.73.14,1.07,1.07,0,0,1-.19,1.53A1.15,1.15,0,0,1,370.48,206.12Z"/><path class="cls-5" d="M295.94,251.69a1.17,1.17,0,0,1-1.53-.31,1.2,1.2,0,0,1,.39-1.7,1.15,1.15,0,0,1,1.64.55A1.11,1.11,0,0,1,295.94,251.69Z"/><path class="cls-5" d="M351.2,217.47a1.14,1.14,0,0,1,.52-1.65,1.13,1.13,0,0,1,1.48.46,1.16,1.16,0,0,1-2,1.19Z"/><path class="cls-5" d="M315,240.33a1.07,1.07,0,0,1-1.42-.57,1.1,1.1,0,0,1,.64-1.58,1.12,1.12,0,0,1,1.43.57A1.14,1.14,0,0,1,315,240.33Z"/><path class="cls-5" d="M232.94,289.17a1.13,1.13,0,0,1-1.68-.36,1.17,1.17,0,0,1,2-1.14A1.11,1.11,0,0,1,232.94,289.17Z"/><path class="cls-5" d="M308.46,244.24a1.15,1.15,0,0,1-1.52-.32,1.18,1.18,0,0,1,.39-1.69,1.15,1.15,0,0,1,1.52.33A1.12,1.12,0,0,1,308.46,244.24Z"/><path class="cls-5" d="M357.85,213.39a1.11,1.11,0,0,1,.43-1.48,1.18,1.18,0,0,1,1.67.46,1.15,1.15,0,0,1-.67,1.59A1.07,1.07,0,0,1,357.85,213.39Z"/><path class="cls-5" d="M251.62,278.06a1.13,1.13,0,0,1-1.51-.31,1.17,1.17,0,0,1,.37-1.69,1.15,1.15,0,0,1,1.64.54A1.11,1.11,0,0,1,251.62,278.06Z"/><path class="cls-5" d="M277.57,261.27a1.09,1.09,0,0,1-.28,1.51,1.13,1.13,0,0,1-1.7-.3,1.15,1.15,0,0,1,.5-1.65A1.1,1.1,0,0,1,277.57,261.27Z"/><path class="cls-5" d="M391.26,193.62a1.2,1.2,0,0,1-2.05,1.23,1.12,1.12,0,0,1,.33-1.52A1.17,1.17,0,0,1,391.26,193.62Z"/><path class="cls-5" d="M243.85,281.45a1.15,1.15,0,0,1,.39-1.68,1.11,1.11,0,0,1,1.5.36,1.12,1.12,0,0,1-.38,1.68A1.16,1.16,0,0,1,243.85,281.45Z"/><path class="cls-5" d="M384.66,198.89a1.16,1.16,0,1,1,.34-1.5A1.09,1.09,0,0,1,384.66,198.89Z"/><path class="cls-5" d="M340.73,223.84a1.1,1.1,0,0,1-.46,1.47,1.15,1.15,0,0,1-1.65-.5,1.2,1.2,0,0,1,.47-1.49A1.14,1.14,0,0,1,340.73,223.84Z"/><path class="cls-5" d="M283.41,259.14a1.11,1.11,0,0,1-1.53-.28,1.13,1.13,0,0,1,.35-1.69,1.18,1.18,0,0,1,1.55.28A1.14,1.14,0,0,1,283.41,259.14Z"/><path class="cls-5" d="M302.25,247.91a1.1,1.1,0,0,1-1.52-.19A1.14,1.14,0,0,1,301,246a1.12,1.12,0,0,1,1.66.4A1.11,1.11,0,0,1,302.25,247.91Z"/><path class="cls-5" d="M270.94,266.55a1.11,1.11,0,0,1-1.52-.17,1.15,1.15,0,0,1,.2-1.69,1.14,1.14,0,0,1,1.32,1.86Z"/><path class="cls-5" d="M346.28,221.67a1,1,0,0,1-1.41-.57,1.17,1.17,0,0,1,2.11-1A1.15,1.15,0,0,1,346.28,221.67Z"/><path class="cls-5" d="M289.67,255.44a1.16,1.16,0,0,1-1.15-2,1.16,1.16,0,0,1,1.15,2Z"/><path class="cls-5" d="M376.78,202.39a1.15,1.15,0,0,1,.31-1.68,1.15,1.15,0,0,1,1.18,2A1.1,1.1,0,0,1,376.78,202.39Z"/><path class="cls-5" d="M395.58,191.19a1.13,1.13,0,0,1,.33-1.69,1.11,1.11,0,0,1,1.51.32,1.13,1.13,0,0,1-.33,1.69A1.1,1.1,0,0,1,395.58,191.19Z"/><path class="cls-5" d="M237.58,285.23a1.12,1.12,0,0,1,.15-1.53,1.18,1.18,0,0,1,1.73.11,1.16,1.16,0,0,1-.36,1.69A1.13,1.13,0,0,1,237.58,285.23Z"/><path class="cls-5" d="M321.48,236.5a1.07,1.07,0,0,1-1.5-.3,1.12,1.12,0,0,1,.31-1.69,1.16,1.16,0,0,1,1.19,2Z"/><path class="cls-5" d="M408.53,183.41a1.11,1.11,0,0,1,.42-1.65,1.14,1.14,0,0,1,1.05,2A1.08,1.08,0,0,1,408.53,183.41Z"/><path class="cls-5" d="M258.27,272.68a1.05,1.05,0,0,1-.21,1.51,1.1,1.1,0,0,1-1.69-.21,1.07,1.07,0,0,1,.22-1.51A1.09,1.09,0,0,1,258.27,272.68Z"/><path class="cls-5" d="M354.36,207.31a1.13,1.13,0,0,1,.39-1.64,1,1,0,0,1,1.27.43.92.92,0,0,1-.49,1.39A3.27,3.27,0,0,1,354.36,207.31Z"/><path class="cls-5" d="M365.79,210.09a1.11,1.11,0,0,1-1.53-.29,1.15,1.15,0,0,1,.2-1.55,1.12,1.12,0,0,1,1.69.34A1.07,1.07,0,0,1,365.79,210.09Z"/><path class="cls-5" d="M267.3,260a1.07,1.07,0,0,1-1.51,0,1,1,0,0,1,.16-1.5,1,1,0,0,1,1.44.38A3,3,0,0,1,267.3,260Z"/><path class="cls-5" d="M292.32,245.48a5.18,5.18,0,0,1-1.44-.46,1,1,0,1,1,1.63-1.05A4.82,4.82,0,0,1,292.32,245.48Z"/><path class="cls-5" d="M398.33,180.78a4.67,4.67,0,0,1,.6-1.4c.39-.4,1.19-.12,1.45.4a.94.94,0,0,1-.6,1.36A4.52,4.52,0,0,1,398.33,180.78Z"/><path class="cls-5" d="M387.5,187.67a3,3,0,0,1-.47,1.09,1,1,0,0,1-1.48-.31,1.08,1.08,0,0,1,.35-1.32A1.1,1.1,0,0,1,387.5,187.67Z"/><path class="cls-5" d="M362.45,202.65a2.79,2.79,0,0,1-.5,1,.91.91,0,0,1-1.41-.4,1,1,0,0,1,.36-1.29C361.4,201.68,362.07,201.88,362.45,202.65Z"/><path class="cls-5" d="M393.66,183.77a1,1,0,0,1-.56,1.41,1,1,0,0,1-1.23-.53,1,1,0,0,1,.33-1.29A1,1,0,0,1,393.66,183.77Z"/><path class="cls-5" d="M260.05,264.33a2.91,2.91,0,0,1-1.06-.5,1,1,0,0,1,.43-1.43,1,1,0,1,1,.63,1.93Z"/><path class="cls-5" d="M322.52,226.11a1.1,1.1,0,0,1,.38-1.5,1.12,1.12,0,0,1,1.35.29,1,1,0,0,1-.19,1.34A1.07,1.07,0,0,1,322.52,226.11Z"/><path class="cls-5" d="M334,229a1.09,1.09,0,0,1-1.52-.29,1.15,1.15,0,0,1,.19-1.55,1.12,1.12,0,0,1,1.69.34A1.08,1.08,0,0,1,334,229Z"/><path class="cls-5" d="M374.73,196.08a1.09,1.09,0,0,1-1.51,0,1,1,0,0,1,.1-1.51,1,1,0,0,1,1.45.31A2.78,2.78,0,0,1,374.73,196.08Z"/><path class="cls-5" d="M330.49,221.23a1,1,0,1,1-1.68,1.09A1.07,1.07,0,0,1,329,221,1,1,0,0,1,330.49,221.23Z"/><path class="cls-5" d="M286.26,247.69a1,1,0,1,1-1.79.88,1,1,0,0,1,.33-1.29A1,1,0,0,1,286.26,247.69Z"/><path class="cls-5" d="M279.87,252.53c-.7.5-1.42.38-1.7-.11a1.07,1.07,0,0,1,.28-1.34,1,1,0,0,1,1.49.27A2.85,2.85,0,0,1,279.87,252.53Z"/><path class="cls-5" d="M254.35,267.73c-.63.44-1.19.37-1.52,0a1,1,0,0,1,.19-1.5,1,1,0,0,1,1.44.37A3,3,0,0,1,254.35,267.73Z"/><path class="cls-5" d="M317.4,230.23a3.16,3.16,0,0,1-1-.48.94.94,0,0,1,.34-1.44,1,1,0,0,1,1.4.57C318.27,229.34,318.06,229.88,317.4,230.23Z"/><path class="cls-5" d="M248.11,271.43c-.68.5-1.4.37-1.68-.13a1.1,1.1,0,0,1,.26-1.33,1,1,0,0,1,1.46.3A2.78,2.78,0,0,1,248.11,271.43Z"/><path class="cls-5" d="M368.38,200.18a4.67,4.67,0,0,1-1.45-.42c-.46-.34-.27-1.18.23-1.49s1.35-.14,1.47.4A4.84,4.84,0,0,1,368.38,200.18Z"/><path class="cls-5" d="M298.78,240.23a1,1,0,1,1-1.47-.39A1.05,1.05,0,0,1,298.78,240.23Z"/><path class="cls-5" d="M222.91,286.8a4.83,4.83,0,0,1-1.43-.51,1,1,0,1,1,1.64-1A4.42,4.42,0,0,1,222.91,286.8Z"/><path class="cls-5" d="M226.64,292.9a1.11,1.11,0,0,1-1.54-.22,1.17,1.17,0,0,1,.12-1.56,1.14,1.14,0,0,1,1.71.27A1.07,1.07,0,0,1,226.64,292.9Z"/><path class="cls-5" d="M348.72,211.58a3,3,0,0,1-1.05-.48.93.93,0,0,1,.34-1.43,1.06,1.06,0,0,1,1.3.34C349.64,210.49,349.46,211.17,348.72,211.58Z"/><path class="cls-5" d="M228.86,282.92a2.91,2.91,0,0,1-1.07-.39.91.91,0,0,1,.24-1.44,1,1,0,0,1,1.31.24C229.72,281.76,229.58,282.46,228.86,282.92Z"/><path class="cls-5" d="M311.88,232.28a4.46,4.46,0,0,1-.41,1.44,1,1,0,0,1-1.48-.19c-.31-.47-.14-1.3.4-1.43A4.65,4.65,0,0,1,311.88,232.28Z"/><path class="cls-5" d="M304.5,237.91a3,3,0,0,1-1.07-.36.92.92,0,0,1,.18-1.45,1.05,1.05,0,0,1,1.32.2C305.32,236.74,305.21,237.42,304.5,237.91Z"/><path class="cls-5" d="M234,278.93a1,1,0,1,1,1.7-1.17.94.94,0,0,1-.55,1.39A2.91,2.91,0,0,1,234,278.93Z"/><path class="cls-5" d="M242,274.06a1,1,0,0,1-.6,1.4,1,1,0,0,1-1.21-.54,1,1,0,0,1,.35-1.28A1.05,1.05,0,0,1,242,274.06Z"/><path class="cls-5" d="M335.3,218.8c-.5-.7-.36-1.37.16-1.65a1.06,1.06,0,0,1,1.31.28.92.92,0,0,1-.34,1.42A2.61,2.61,0,0,1,335.3,218.8Z"/><path class="cls-5" d="M381.17,191.22a1,1,0,0,1-.59,1.4,1,1,0,0,1-1.22-.55,1,1,0,0,1,.36-1.28A1,1,0,0,1,381.17,191.22Z"/><path class="cls-5" d="M271.83,256.3a5.19,5.19,0,0,1,.37-1.48,1,1,0,0,1,1.48.18.93.93,0,0,1-.37,1.43A4.35,4.35,0,0,1,271.83,256.3Z"/><path class="cls-5" d="M343.14,214a3,3,0,0,1-.34,1.12,1,1,0,0,1-1.49-.18,1.06,1.06,0,0,1,.2-1.33A1.09,1.09,0,0,1,343.14,214Z"/><path class="cls-5" d="M250.39,261.73a4.51,4.51,0,0,1-1.18-.5c-.33-.31-.06-1.13.38-1.16a1.21,1.21,0,0,1,1,.42C250.7,260.74,250.49,261.18,250.39,261.73Z"/><path class="cls-5" d="M295.07,233.94a4.49,4.49,0,0,1-.49,1.17c-.3.32-1.16,0-1.17-.39a1.35,1.35,0,0,1,.44-1C294.09,233.61,294.54,233.84,295.07,233.94Z"/><path class="cls-5" d="M312.52,223.5c.2-.51.23-.94.46-1.17s.78-.15,1.07.14.17,1.15-.26,1.23A4.34,4.34,0,0,1,312.52,223.5Z"/><path class="cls-5" d="M358.21,197.59A4.42,4.42,0,0,1,357,197c-.31-.35,0-1.14.45-1.13a1.25,1.25,0,0,1,.95.5C358.56,196.61,358.33,197.05,358.21,197.59Z"/><path class="cls-5" d="M263.37,254a4.76,4.76,0,0,1-1.19-.51.77.77,0,0,1,.35-1.18c.4-.09.88-.05,1,.42A4.1,4.1,0,0,1,263.37,254Z"/><path class="cls-5" d="M370.76,190.12a4.78,4.78,0,0,1-1.18-.53c-.33-.31-.08-1.14.36-1.16a1.21,1.21,0,0,1,1,.44C371.05,189.11,370.84,189.56,370.76,190.12Z"/><path class="cls-5" d="M232,271.49a3.91,3.91,0,0,1-.47,1.17c-.29.31-1.16,0-1.17-.36a1.24,1.24,0,0,1,.43-1C231,271.17,231.41,271.39,232,271.49Z"/><path class="cls-5" d="M219.12,280.36c-.53-.17-1-.19-1.18-.43a1.23,1.23,0,0,1,.06-1.07c.21-.38,1.07-.24,1.2.2A4.46,4.46,0,0,1,219.12,280.36Z"/><path class="cls-5" d="M326.39,216.52a4.16,4.16,0,0,1-1.15-.63.77.77,0,0,1,.48-1.13c.43-.07.87.07.95.52A3.82,3.82,0,0,1,326.39,216.52Z"/><path class="cls-5" d="M389.56,178.93a4.37,4.37,0,0,1-1.18-.55c-.33-.32-.05-1.14.39-1.15a1.23,1.23,0,0,1,1,.45C389.87,177.93,389.66,178.38,389.56,178.93Z"/><path class="cls-5" d="M401.11,170.77c.2-.51.24-.93.47-1.16s.77-.15,1.06.15.17,1.12-.26,1.2A4.27,4.27,0,0,1,401.11,170.77Z"/><path class="cls-5" d="M339.05,209a5,5,0,0,1-1.21-.37c-.35-.25-.17-1,.26-1.21a.72.72,0,0,1,1,.32A3.54,3.54,0,0,1,339.05,209Z"/><path class="cls-5" d="M282.25,242.8a4,4,0,0,1-1.21-.41c-.36-.3-.22-.75,0-1.08a.78.78,0,0,1,1.22.18A4.34,4.34,0,0,1,282.25,242.8Z"/><path class="cls-5" d="M345.27,205.28a4.2,4.2,0,0,1-1.17-.53c-.34-.33-.08-1.13.36-1.15a1.2,1.2,0,0,1,1,.43C345.56,204.28,345.36,204.73,345.27,205.28Z"/><path class="cls-5" d="M268.28,250c.13-.53.12-1,.33-1.21a.74.74,0,0,1,1.08,0c.36.31.3,1.09-.13,1.24A3.91,3.91,0,0,1,268.28,250Z"/><path class="cls-5" d="M237.83,269.23a4.22,4.22,0,0,1-1.16-.59.76.76,0,0,1,.42-1.15c.43-.09.87,0,1,.48A3.85,3.85,0,0,1,237.83,269.23Z"/><path class="cls-5" d="M377.07,186.36a4.38,4.38,0,0,1-1.17-.52.76.76,0,0,1,.35-1.17c.41-.11.86,0,1,.41A3.84,3.84,0,0,1,377.07,186.36Z"/><path class="cls-5" d="M307.66,227.66a4.05,4.05,0,0,1-1.17-.53.76.76,0,0,1,.36-1.16c.4-.09.87,0,1,.44A4,4,0,0,1,307.66,227.66Z"/><path class="cls-5" d="M276.16,245.5c-.12.21-.22.65-.49.82a.72.72,0,0,1-1-.37.86.86,0,0,1,.4-1A.94.94,0,0,1,276.16,245.5Z"/><path class="cls-5" d="M383.63,181.07c-.17.57-.17,1-.4,1.26a.76.76,0,0,1-1.1-.15.74.74,0,0,1,.17-1.07A4.51,4.51,0,0,1,383.63,181.07Z"/><path class="cls-5" d="M396.56,173.35c-.14.55-.14,1-.36,1.23s-.76.2-1-.14a.67.67,0,0,1,.13-1.05C395.56,173.24,396,173.35,396.56,173.35Z"/><path class="cls-5" d="M255.19,257.52c.26-.51.35-1,.61-1.12a.67.67,0,0,1,1,.36.69.69,0,0,1-.35,1C256.15,257.86,255.75,257.64,255.19,257.52Z"/><path class="cls-5" d="M287,238.66c.21-.52.26-1,.51-1.17a.7.7,0,0,1,1,.29.73.73,0,0,1-.25,1.05C288,239,287.6,238.75,287,238.66Z"/><path class="cls-5" d="M320.09,220.21c-.49-.29-.93-.4-1.09-.67a.67.67,0,0,1,.37-1,.68.68,0,0,1,1,.4A3.67,3.67,0,0,1,320.09,220.21Z"/><path class="cls-5" d="M352.25,199.71c-.14.55-.13,1-.35,1.23a.66.66,0,0,1-1-.12.67.67,0,0,1,.11-1C351.25,199.61,351.68,199.72,352.25,199.71Z"/><path class="cls-5" d="M332.8,212.69c-.55-.22-1-.27-1.2-.51a.67.67,0,0,1,.21-1,.66.66,0,0,1,1,.25A3.61,3.61,0,0,1,332.8,212.69Z"/><path class="cls-5" d="M363.09,193.39c.22-.52.28-1,.53-1.16a.7.7,0,0,1,1,.27.71.71,0,0,1-.27,1C364.09,193.67,363.67,193.47,363.09,193.39Z"/><path class="cls-5" d="M223.91,276.22c.23-.53.28-1,.53-1.17a.69.69,0,0,1,1,.28.71.71,0,0,1-.27,1.05C224.92,276.5,224.49,276.31,223.91,276.22Z"/><path class="cls-5" d="M301.25,230.07c-.15.56-.15,1-.36,1.24a.75.75,0,0,1-.92-1.19C300.25,230,300.67,230.08,301.25,230.07Z"/><path class="cls-5" d="M244.15,265.44c-.52-.23-1-.3-1.17-.55a.73.73,0,1,1,1.25-.74A4.1,4.1,0,0,1,244.15,265.44Z"/><path class="cls-5" d="M327.94,205.91a2.61,2.61,0,0,1,.33-.84c.07-.09.46,0,.6.09a.46.46,0,0,1-.11.77C328.6,206,328.34,205.92,327.94,205.91Z"/><path class="cls-5" d="M392.62,167.31c-.14.38-.19.74-.29.75a2,2,0,0,1-.79-.13c0-.21,0-.55.16-.6A2.7,2.7,0,0,1,392.62,167.31Z"/><path class="cls-5" d="M253,250.46c-.15.36-.22.72-.32.73a1.42,1.42,0,0,1-.76-.22s.06-.54.18-.57A2.45,2.45,0,0,1,253,250.46Z"/><path class="cls-5" d="M348.08,194.63a2.78,2.78,0,0,1-.83-.31c-.08-.07,0-.56.1-.58a1.48,1.48,0,0,1,.78.1C348.2,193.87,348.11,194.24,348.08,194.63Z"/><path class="cls-5" d="M240.46,257.87c-.14.38-.19.73-.3.75a2.39,2.39,0,0,1-.77-.13c.05-.21,0-.55.16-.6A2.62,2.62,0,0,1,240.46,257.87Z"/><path class="cls-5" d="M360.71,186.21a2.17,2.17,0,0,1-.1.7.43.43,0,0,1-.76-.09.68.68,0,0,1,.14-.62C360.12,186.1,360.41,186.2,360.71,186.21Z"/><path class="cls-5" d="M221.43,270c-.34-.18-.63-.25-.78-.44s.09-.4.15-.6a2.6,2.6,0,0,1,.76.24C221.63,269.29,221.5,269.64,221.43,270Z"/><path class="cls-5" d="M284.76,231.44c-.11.4-.14.75-.24.78a2.46,2.46,0,0,1-.8-.07c0-.22,0-.56.13-.62A2.86,2.86,0,0,1,284.76,231.44Z"/><path class="cls-5" d="M297,225c-.36-.15-.73-.22-.73-.31a1.45,1.45,0,0,1,.24-.75c0-.05.53.06.57.17A2.47,2.47,0,0,1,297,225Z"/><path class="cls-5" d="M309.88,217.29c-.26-.17-.5-.25-.61-.42a.43.43,0,0,1,.39-.66.73.73,0,0,1,.49.41C310.19,216.79,310,217,309.88,217.29Z"/><path class="cls-5" d="M384.9,172.13a2.28,2.28,0,0,1,0-.76.48.48,0,0,1,.8.07.74.74,0,0,1-.12.63C385.48,172.18,385.19,172.11,384.9,172.13Z"/><path class="cls-5" d="M372.24,179.28c.15-.24.23-.53.38-.58a.74.74,0,0,1,.61.18c.2.2,0,.77-.32.74S372.52,179.43,372.24,179.28Z"/><path class="cls-5" d="M264.84,243.2c.15-.24.22-.53.37-.58a.76.76,0,0,1,.61.18c.21.2,0,.77-.31.75A2.17,2.17,0,0,1,264.84,243.2Z"/><path class="cls-5" d="M277.49,236.05c0-.32-.06-.57,0-.75a.47.47,0,0,1,.79.06.73.73,0,0,1-.12.63C278.08,236.1,277.79,236,277.49,236.05Z"/><path class="cls-5" d="M303.75,220.91c-.29,0-.58,0-.69-.13a.68.68,0,0,1-.06-.62.45.45,0,0,1,.77,0A1.78,1.78,0,0,1,303.75,220.91Z"/><path class="cls-5" d="M404.75,160.79c-.24-.16-.47-.23-.58-.39a.4.4,0,0,1,.37-.63.68.68,0,0,1,.47.38C405.05,160.31,404.86,160.53,404.75,160.79Z"/><path class="cls-5" d="M234,262.48c-.29-.08-.58-.07-.68-.2a.79.79,0,0,1-.06-.64c.12-.26.72-.2.81.08A2.21,2.21,0,0,1,234,262.48Z"/><path class="cls-5" d="M340.45,198.2c.15-.24.22-.53.38-.58a.78.78,0,0,1,.61.18c.2.2,0,.76-.32.75A2.41,2.41,0,0,1,340.45,198.2Z"/><path class="cls-5" d="M316.34,213.43a2,2,0,0,1-.72-.1c-.26-.15-.22-.71.07-.78a.69.69,0,0,1,.62.17C316.41,212.85,316.33,213.13,316.34,213.43Z"/><path class="cls-5" d="M398.65,164.45c-.33-.09-.63-.09-.7-.22s0-.41.05-.62c.2,0,.48,0,.59.12S398.63,164.12,398.65,164.45Z"/><path class="cls-5" d="M272,239.86c-.35-.16-.67-.22-.69-.34s.12-.41.24-.58a.57.57,0,0,1,.39.15A2.6,2.6,0,0,1,272,239.86Z"/><path class="cls-5" d="M366.88,183.71c-.38-.28-.64-.37-.73-.55s0-.42.05-.63c.21,0,.49,0,.6.12S366.85,183,366.88,183.71Z"/><path class="cls-5" d="M321.74,209.64c.07-.33.05-.63.17-.72a.6.6,0,0,1,.59.08.58.58,0,0,1,0,.58C322.35,209.69,322.06,209.62,321.74,209.64Z"/><path class="cls-5" d="M290.79,228.64c-.32-.1-.61-.1-.69-.23s0-.4,0-.61c.2,0,.47,0,.59.12S290.78,228.3,290.79,228.64Z"/><path class="cls-5" d="M259.48,247.63c-.39-.28-.64-.37-.73-.55s0-.41.05-.63c.2,0,.48,0,.59.12S259.44,247,259.48,247.63Z"/><path class="cls-5" d="M335.25,201.61c-.16.25-.24.52-.38.55s-.48-.09-.51-.21a.58.58,0,0,1,.21-.54C334.69,201.34,334.94,201.51,335.25,201.61Z"/><path class="cls-5" d="M214.34,273.56c.07-.33,0-.63.17-.72a.6.6,0,0,1,.59.08.56.56,0,0,1,0,.58C214.94,273.61,214.66,273.54,214.34,273.56Z"/><path class="cls-5" d="M379.25,176c-.31-.22-.62-.34-.62-.46s.2-.38.36-.54.34.14.36.25A2.17,2.17,0,0,1,379.25,176Z"/><path class="cls-5" d="M354.21,190.91c-.29-.19-.57-.28-.61-.42s.13-.39.21-.59c.2.09.48.14.56.29S354.29,190.58,354.21,190.91Z"/><path class="cls-5" d="M227.57,266.26c-.3-.18-.58-.25-.62-.38s.12-.38.19-.57c.19.08.45.12.54.26S227.63,265.94,227.57,266.26Z"/><path class="cls-5" d="M246.34,255.09c-.27-.19-.53-.27-.58-.42s.13-.38.2-.57c.19.09.47.13.55.28S246.43,254.75,246.34,255.09Z"/></g><polygon class="cls-3" points="378.78 179.57 450.98 108.59 440.28 90.93 425.76 88.39 376.51 179.97 378.78 179.57"/><polygon points="441.79 99.01 381.97 174.58 445.76 101.48 441.79 99.01"/><polygon points="379.97 174.38 427.7 92.01 420.71 89.62 379.97 174.38"/><polygon points="388.25 170.39 445.31 115.62 443.84 113.8 388.25 170.39"/><path d="M480.75,101a19.8,19.8,0,0,0-14.56-30,16.56,16.56,0,1,0-30.58,5.15A17.52,17.52,0,0,1,431,55.4,19.81,19.81,0,1,0,414.5,91.18a19.8,19.8,0,0,0,28.92,20.39,13.66,13.66,0,0,0,27-2.24A19.74,19.74,0,0,0,480.75,101Z"/><path class="cls-6" d="M486.46,104.08a19.82,19.82,0,0,0-6.57-27.24,19.61,19.61,0,0,0-8-2.75,16.56,16.56,0,1,0-30.58,5.14,17.47,17.47,0,0,1-4.6-20.74,19.81,19.81,0,1,0-16.51,35.78,19.8,19.8,0,0,0,28.92,20.4,13.66,13.66,0,0,0,27-2.24A19.73,19.73,0,0,0,486.46,104.08Z"/><polygon class="cls-3" points="240.43 191.76 164.67 117.46 146.37 129.01 143.99 144.26 240.9 194.12 240.43 191.76"/><polygon points="154.81 127.27 235.14 188.5 157.32 123.06 154.81 127.27"/><polygon points="234.98 190.61 147.74 142.16 145.37 149.53 234.98 190.61"/><polygon points="230.63 182.01 172.14 123.25 170.26 124.83 230.63 182.01"/><path d="M156.13,86.41A20.73,20.73,0,0,0,125,102.23a18.45,18.45,0,0,0-18.24,9,18.26,18.26,0,0,0-2.51,10.08A18.4,18.4,0,0,0,131,134.18a18.31,18.31,0,0,1-21.64,5.21A20.76,20.76,0,1,0,147.12,156a20.75,20.75,0,0,0,20.82-30.69A14.3,14.3,0,0,0,172,99a14.14,14.14,0,0,0-6.9-2A20.62,20.62,0,0,0,156.13,86.41Z"/><path class="cls-6" d="M159.26,80.35a20.74,20.74,0,0,0-31.14,15.83,18.43,18.43,0,0,0-20.76,19,18.24,18.24,0,0,0,3,7.16,18.43,18.43,0,0,0,23.73,5.74,18.31,18.31,0,0,1-21.64,5.21,20.76,20.76,0,0,0,36,20.75,19.92,19.92,0,0,0,1.84-4.13,20.76,20.76,0,0,0,20.83-30.69A14.31,14.31,0,0,0,168.21,91,20.68,20.68,0,0,0,159.26,80.35Z"/><polygon class="cls-3" points="408.39 201.8 480.44 192.62 484.03 174.78 476.44 165.55 406.74 200.91 408.39 201.8"/><polygon points="413.29 199.95 481.32 184.97 480.28 181.2 413.29 199.95"/><polygon points="412.15 198.78 475.55 169.07 472.57 163.81 412.15 198.78"/><polygon points="419.65 200.25 472.81 194.62 472.95 192.59 419.65 200.25"/><path d="M488,200.56a10.54,10.54,0,0,0,4.27-1.19,10.38,10.38,0,0,0,4.26-14,10,10,0,0,0-1.84-2.44,15.23,15.23,0,0,1-10.39-2.69,14.72,14.72,0,0,0,10.73,0,15.39,15.39,0,0,0-20.54-22.93,10.37,10.37,0,0,0-16.83,11.84,10.66,10.66,0,0,0,1.91,2.52,15.19,15.19,0,0,1,9.9-.73,14.64,14.64,0,0,0-9.09,2.93,13.18,13.18,0,0,0,9.08,21.53A9.91,9.91,0,0,0,488,200.56Z"/><path class="cls-6" d="M490.44,202a10.23,10.23,0,0,0,4.27-1.19,10.38,10.38,0,0,0,4.27-14,10.48,10.48,0,0,0-1.84-2.45,15.21,15.21,0,0,1-10.39-2.69,14.64,14.64,0,0,0,10.72,0,15.4,15.4,0,0,0-17.58-25,15.71,15.71,0,0,0-3,2.08,10.36,10.36,0,0,0-16.82,11.84A10.12,10.12,0,0,0,462,173a15.19,15.19,0,0,1,9.9-.73,14.64,14.64,0,0,0-9.09,2.93,13.17,13.17,0,0,0,9.08,21.53,9.92,9.92,0,0,0,14.59,9A9.73,9.73,0,0,0,490.44,202Z"/><polygon class="cls-3" points="197.28 286.45 154.99 316.7 147 309.73 147 302.16 197.68 285.33 197.28 286.45"/><polygon points="150.95 311.21 194.47 287.62 151.85 313.43 150.95 311.21"/><polygon points="194.55 286.59 148.65 303.46 148.06 299.71 194.55 286.59"/><polygon points="191.8 290.43 159.04 314.46 158.25 313.55 191.8 290.43"/><path d="M148.51,331.09a10.18,10.18,0,0,1-13.2-5.74,10,10,0,0,1-.69-4.28,8.5,8.5,0,1,1,5.31-15,8.93,8.93,0,0,0-1.54-2,9,9,0,0,0-8.55-2.2,10.17,10.17,0,0,1,19-7.33,9.71,9.71,0,0,1,.58,2.14,10.16,10.16,0,0,1,7.76,16.43,7,7,0,0,1-3.52,13.47A10.1,10.1,0,0,1,148.51,331.09Z"/><path class="cls-6" d="M149.57,334.26a10.18,10.18,0,0,1-13.2-5.74,10,10,0,0,1-.69-4.28,9,9,0,0,1-8.61-10.79,9,9,0,0,1,2-3.24,9,9,0,0,1,11.93-1,9.18,9.18,0,0,0-1.54-2,9,9,0,0,0-8.55-2.21,10.17,10.17,0,0,1,19-7.33,10,10,0,0,1,.58,2.14,10.17,10.17,0,0,1,7.76,16.44,7,7,0,0,1-3.52,13.46A10.12,10.12,0,0,1,149.57,334.26Z"/><polygon class="cls-3" points="265.67 318.58 237.13 395.09 216.69 394.44 208.53 383.76 265.13 316.55 265.67 318.58"/><polygon points="262.39 323.47 228.53 394.09 224.68 391.98 262.39 323.47"/><polygon points="261.41 321.92 212.61 383.69 207.63 379.08 261.41 321.92"/><polygon points="261.09 330.51 241.28 387.25 239.03 386.89 261.09 330.51"/><path d="M243.88,405.42A11.63,11.63,0,0,1,225,410.86a11.5,11.5,0,0,1-2.21-2.65,17.06,17.06,0,0,0-.28-12.06,16.5,16.5,0,0,1-2.73,11.75A17.31,17.31,0,0,1,197,382.23a17.5,17.5,0,0,1,3-2.7,11.65,11.65,0,0,1,17.28-15.38,11.5,11.5,0,0,1,2.26,2.74,17.05,17.05,0,0,0-3.34,10.64,16.54,16.54,0,0,1,5.55-9.2A14.81,14.81,0,0,1,243,383.8a11.15,11.15,0,0,1,6.15,18.29A11.06,11.06,0,0,1,243.88,405.42Z"/><path class="cls-6" d="M244.78,408.43a11.49,11.49,0,0,1-2.4,4.37,11.59,11.59,0,0,1-18.66-1.58,17.06,17.06,0,0,0-.28-12.06,16.46,16.46,0,0,1-2.73,11.75,17.3,17.3,0,0,1-19.82-28.37,11.65,11.65,0,1,1,19.54-12.65,17.14,17.14,0,0,0-3.34,10.65,16.54,16.54,0,0,1,5.55-9.2,14.81,14.81,0,0,1,21.23,15.47A11.15,11.15,0,0,1,250,405.1,11,11,0,0,1,244.78,408.43Z"/><polygon class="cls-3" points="397.66 286.61 480.02 328.81 476.59 351.73 463.5 359.5 395.3 286.96 397.66 286.61"/><polygon points="402.74 290.95 477.76 338.35 474.88 342.41 402.74 290.95"/><polygon points="400.86 291.85 463.95 354.9 458.11 359.9 400.86 291.85"/><polygon points="410.49 293.34 471.74 323.11 471.03 325.6 410.49 293.34"/><path d="M492.53,322.57a13.19,13.19,0,0,1,3.63,21.94,12.89,12.89,0,0,1-3.26,2.13,19.35,19.35,0,0,0-13.61-1.27A18.67,18.67,0,0,1,492.15,350a19.62,19.62,0,0,1-31.9,22.33,19.81,19.81,0,0,1-2.64-3.76A13.2,13.2,0,1,1,446,344.9a19.37,19.37,0,0,0,11.55,5.16,18.7,18.7,0,0,1-9.63-7.45,16.79,16.79,0,0,1,20.21-21.86,12.62,12.62,0,0,1,24.45,1.82Z"/><path class="cls-6" d="M496,322a13,13,0,0,1,4.59,3.28A13.12,13.12,0,0,1,496.4,346a19.33,19.33,0,0,0-13.61-1.27,18.67,18.67,0,0,1,12.86,4.62,19.61,19.61,0,0,1-31.89,22.33,19.37,19.37,0,0,1-2.64-3.76,13.2,13.2,0,1,1-11.66-23.66A19.34,19.34,0,0,0,461,349.44a18.68,18.68,0,0,1-9.62-7.45,16.78,16.78,0,0,1,20.2-21.86A12.63,12.63,0,0,1,496,322Z"/><path d="M513,256.5c-25.33-.94-27.92,1.29-35.53,30.57,2.28-30.17.56-33.12-23.71-40.44,25.33.94,27.92-1.29,35.53-30.57C487,246.23,488.76,249.18,513,256.5Z"/><path class="cls-2" d="M479.55,274.73c1.53-18.5-.54-22-15.47-26.39,15.53.73,18.64-1.94,23.19-20-1.53,18.51.54,22.05,15.47,26.39C487.21,254.06,484.1,256.73,479.55,274.73Z"/><path d="M179.06,223.31c-29.25-1.09-32.24,1.48-41,35.29,2.64-34.83.65-38.23-27.37-46.69,29.25,1.08,32.24-1.49,41-35.3C149.05,211.45,151,214.85,179.06,223.31Z"/><path class="cls-2" d="M140.4,244.36c1.77-21.36-.62-25.45-17.86-30.47,17.93.84,21.52-2.25,26.78-23-1.77,21.36.62,25.45,17.86,30.47C149.25,220.49,145.66,223.58,140.4,244.36Z"/><path d="M556.47,240c-15.9-.59-17.53.81-22.31,19.19,1.44-18.93.36-20.79-14.87-25.38,15.89.59,17.52-.81,22.3-19.19C540.15,233.57,541.24,235.42,556.47,240Z"/><path class="cls-2" d="M535.73,249.79c.85-10.28-.3-12.25-8.59-14.66,8.63.4,10.36-1.09,12.88-11.08-.85,10.27.3,12.24,8.59,14.65C540,238.3,538.26,239.79,535.73,249.79Z"/><path d="M364.23,358.17c-13.82-.51-15.23.71-19.39,16.69,1.25-16.47.31-18.08-12.94-22.07,13.83.51,15.24-.71,19.4-16.69C350.05,352.57,351,354.18,364.23,358.17Z"/><path class="cls-2" d="M346.2,366.73c.74-9-.27-10.7-7.51-12.81,7.53.35,9-.95,11.25-9.69-.74,9,.27,10.7,7.51,12.81C349.91,356.69,348.4,358,346.2,366.73Z"/><path d="M233.33,318.47c-13.83-.51-15.24.7-19.39,16.68,1.24-16.46.3-18.07-12.94-22.07,13.82.52,15.23-.7,19.39-16.68C219.14,312.86,220.08,314.47,233.33,318.47Z"/><path class="cls-2" d="M215.29,327c.74-9-.27-10.7-7.51-12.81,7.54.35,9.05-.94,11.26-9.68-.75,9,.26,10.7,7.51,12.81C219,317,217.5,318.28,215.29,327Z"/><path d="M298.05,87.2c-19.13-.71-21.08,1-26.83,23.08,1.73-22.78.42-25-17.9-30.54,19.13.71,21.08-1,26.83-23.08C278.42,79.44,279.73,81.67,298.05,87.2Z"/><path class="cls-2" d="M273,99.48c1.05-12.79-.38-15.23-10.69-18.23,10.73.5,12.88-1.35,16-13.78-1.06,12.78.38,15.22,10.69,18.23C278.31,85.19,276.16,87,273,99.48Z"/><path d="M165.3,265.38q-4.85-20.26-13.66-52.78,28.68-20.64,37.92-4.11,2.9,6.54-3,15.31,7.9-.59,13.43,7Q210.21,250,165.3,265.38ZM168.79,218l2.88,10.58q4.82-3.49,4.25-8.82Q175.23,213.77,168.79,218Zm5.65,21c.85,3.23,1.56,5.94,2.13,8.15q10.73-4.47,7.89-10.33Q183.25,233.73,174.44,238.94Z"/><path d="M214.48,219.7q-1.51-11.47-3.12-21.47a60,60,0,0,1,14.54-7.95q4.84,35.58,7,54.62a98.85,98.85,0,0,0-14.7,7.71q-1.32-13.4-2.46-23.26l-3.49,1.75q1.2,8.58,1.91,15a123.87,123.87,0,0,0-14.71,7.47q-3.37-32.28-6.82-53.24a60.1,60.1,0,0,1,13.61-7.77q2.81,16.94,4.65,29Z"/><path d="M266.12,238.74q-7.71,3.15-14.76,5.94-4.2-25.92-10.33-53.94,30.45-19.14,41.21-1.82,7.06,16.56-19.82,32.08Q264.31,229.9,266.12,238.74ZM257.51,198q1.35,6.42,2.42,11.29,9-5,6.66-11.34Q265.21,194.29,257.51,198Z"/><path d="M300,203.22q-1.52-11.47-3.13-21.47a59.94,59.94,0,0,1,14.55-7.95q4.83,35.58,7,54.62a97.87,97.87,0,0,0-14.7,7.71q-1.34-13.38-2.47-23.26l-3.49,1.75q1.2,8.58,1.91,15a123.87,123.87,0,0,0-14.71,7.47q-3.37-32.28-6.82-53.24a60.1,60.1,0,0,1,13.61-7.77q2.82,16.94,4.65,29Z"/><path d="M333.12,223.18q-.33,4.75-.58,10.52-7.19-1-14.74-2.45a505.52,505.52,0,0,0,2.56-55q14.29-6.17,16-6.57,11.7,29.14,23,52-5.46,4-12.95,9.53-2.64-6.07-4.82-11.46Zm5.16-11.51q-3.66-9.28-4.42-11.4.12,1.92-.26,13.28Z"/><path d="M367.89,220.41a111.06,111.06,0,0,0-13.08,5.09q-2.76-20.94-7.94-52.87,28.29-23.2,37.93-6.38,6.19,14.24-7.34,33.24a104.57,104.57,0,0,0,14,11q-5.07,6.72-9.26,12.44-8.31-7.69-15.89-14.34Q366.89,212.7,367.89,220.41Zm-3.76-26.15q8.78-6.84,5.31-16.17-1.31-3.33-7.73.87Q362.73,185.34,364.13,194.26Z"/><path d="M403,218.71a76,76,0,0,1-15.13-2.09q1-18.36-.58-51.93,7.62-3.48,14.08-6.61,3.56,7.77,5.1,11.09.13-1.28,2.18-10.55a69.49,69.49,0,0,0,12.9.68q7.31,24.88,15.52,49.61-5.89,3-14.31,6.69-4.83-14.25-9.05-27.81a109.69,109.69,0,0,1-4,15.46q-4.42-8.66-6.77-13.8Q403.44,202,403,218.71Z"/><path d="M447.77,201.07c-.22,3.18-.42,6.69-.58,10.52q-7.2-1-14.75-2.44a503.08,503.08,0,0,0,2.56-55q14.31-6.16,16-6.56,11.72,29.14,23,52-5.46,4-13,9.53-2.62-6.07-4.82-11.46Zm5.16-11.5q-3.68-9.28-4.43-11.4.13,1.92-.25,13.27Z"/><path d="M492.22,136.6q2.77,23.07,6.39,41.27a66.24,66.24,0,0,1-13.7,6.4q-5.61-26.91-7.6-41.42A110.26,110.26,0,0,0,492.22,136.6ZM485.68,194a5,5,0,0,1,.87-4.5,10.23,10.23,0,0,1,5.32-3.83,11.1,11.1,0,0,1,6.59-.55q3.09.74,3.86,3,.74,2-.78,4.68a9.22,9.22,0,0,1-5.09,4,10.67,10.67,0,0,1-6.89.38C487.49,196.55,486.19,195.5,485.68,194Z"/><path class="cls-7" d="M159.3,264.38q-4.85-20.26-13.66-52.78,28.68-20.64,37.92-4.11,2.9,6.54-3,15.31,7.9-.59,13.43,7Q204.21,249,159.3,264.38ZM162.79,217l2.88,10.58q4.82-3.49,4.25-8.82Q169.23,212.77,162.79,217Zm5.65,21c.85,3.23,1.56,5.94,2.13,8.15q10.73-4.47,7.89-10.33Q177.25,232.73,168.44,237.94Z"/><path class="cls-7" d="M208.48,218.7q-1.51-11.47-3.12-21.47a60,60,0,0,1,14.54-7.95q4.84,35.58,7,54.62a98.85,98.85,0,0,0-14.7,7.71q-1.32-13.4-2.46-23.26l-3.49,1.75q1.2,8.58,1.91,15a123.87,123.87,0,0,0-14.71,7.47q-3.37-32.28-6.82-53.24a60.1,60.1,0,0,1,13.61-7.77q2.81,16.94,4.65,29Z"/><path class="cls-7" d="M260.12,237.74q-7.71,3.15-14.76,5.94-4.2-25.92-10.33-53.94,30.45-19.14,41.21-1.82,7.06,16.56-19.82,32.08Q258.31,228.9,260.12,237.74ZM251.51,197q1.35,6.42,2.42,11.29,9-5,6.66-11.34Q259.21,193.29,251.51,197Z"/><path class="cls-7" d="M294,202.22q-1.52-11.47-3.13-21.47a59.94,59.94,0,0,1,14.55-7.95q4.83,35.58,7,54.62a97.87,97.87,0,0,0-14.7,7.71q-1.34-13.38-2.47-23.26l-3.49,1.75q1.2,8.58,1.91,15a123.87,123.87,0,0,0-14.71,7.47q-3.37-32.28-6.82-53.24a60.1,60.1,0,0,1,13.61-7.77q2.82,16.94,4.65,29Z"/><path class="cls-7" d="M327.12,222.18q-.33,4.75-.58,10.52-7.19-1-14.74-2.45a505.52,505.52,0,0,0,2.56-55q14.29-6.17,16-6.57,11.7,29.14,23,52-5.46,4-12.95,9.53-2.64-6.07-4.82-11.46Zm5.16-11.51q-3.66-9.28-4.42-11.4.12,1.92-.26,13.28Z"/><path class="cls-7" d="M361.89,219.41a111.06,111.06,0,0,0-13.08,5.09q-2.76-20.94-7.94-52.87,28.29-23.2,37.93-6.38,6.19,14.24-7.34,33.24a104.57,104.57,0,0,0,14,11q-5.07,6.72-9.26,12.44-8.31-7.69-15.89-14.34Q360.89,211.7,361.89,219.41Zm-3.76-26.15q8.78-6.84,5.31-16.17-1.31-3.33-7.73.87Q356.73,184.34,358.13,193.26Z"/><path class="cls-7" d="M397,217.71a76,76,0,0,1-15.13-2.09q1-18.36-.58-51.93,7.62-3.48,14.08-6.61,3.56,7.77,5.1,11.09.13-1.28,2.18-10.55a69.49,69.49,0,0,0,12.9.68q7.31,24.88,15.52,49.61-5.89,3-14.31,6.69-4.83-14.25-9.05-27.81a109.69,109.69,0,0,1-4,15.46q-4.42-8.66-6.77-13.8Q397.44,201,397,217.71Z"/><path class="cls-7" d="M441.77,200.07c-.22,3.18-.42,6.69-.58,10.52q-7.2-1-14.75-2.44a503.08,503.08,0,0,0,2.56-55q14.31-6.16,16-6.56,11.72,29.14,23,52-5.46,4-13,9.53-2.62-6.07-4.82-11.46Zm5.16-11.5q-3.68-9.28-4.43-11.4.13,1.92-.25,13.27Z"/><path class="cls-7" d="M486.22,135.6q2.77,23.07,6.39,41.27a66.24,66.24,0,0,1-13.7,6.4q-5.61-26.91-7.6-41.42A110.26,110.26,0,0,0,486.22,135.6ZM479.68,193a5,5,0,0,1,.87-4.5,10.23,10.23,0,0,1,5.32-3.83,11.1,11.1,0,0,1,6.59-.55q3.09.74,3.86,3,.74,2-.78,4.68a9.22,9.22,0,0,1-5.09,4,10.67,10.67,0,0,1-6.89.38C481.49,195.55,480.19,194.5,479.68,193Z"/><path class="cls-8" d="M464.93,247.66,176.64,305.39q9.69-17.33,19.37-34.66l285.35-57.12Q473.14,230.64,464.93,247.66Z"/><path d="M221.28,273.77l3.18-1.25c-.24,3.72-.33,7.13-.25,10.21l3.28-1.16.39,3.62a40.34,40.34,0,0,0-6.36,2.59Z"/><path d="M228.42,286.7a126.39,126.39,0,0,0,1.9-14.75l5.65-2.09a76.6,76.6,0,0,0,1.74,13.92l-3.89,1.72-.17-2.45-1.24.5-.08,1.76Zm5-6.29L233,273h0l-.38,7.77Z"/><path d="M239.22,270.39c.4-.15,1.13-.47,2.2-1a18.55,18.55,0,0,1,2.26-.89l.66-.15c1.69-.33,2.64.11,2.86,1.32q.5,2.55-2.16,5.7c1.3-.34,2.13-.11,2.49.68a2.43,2.43,0,0,1,.17.54,4.44,4.44,0,0,1-.82,3.18,10.59,10.59,0,0,1-2.23,2.5,8.82,8.82,0,0,1-4.08,1.86c-.26.05-.51.09-.77.12,0-2.71-.13-6.34-.38-10.88C239.36,272.12,239.29,271.12,239.22,270.39Zm3.56,7.59c0,.5,0,1.18.06,2q2.53-1.33,2.34-2.4c-.05-.25-.3-.34-.74-.25A7.57,7.57,0,0,0,242.78,278Zm.07-5.35c0,.44,0,.88,0,1.32l0,1.32a5.4,5.4,0,0,0,1.61-2.38.9.9,0,0,0,.06-.43c0-.21-.23-.29-.56-.23A4.79,4.79,0,0,0,242.85,272.63Z"/><path d="M255,265.79a3,3,0,0,1,3.31,1.71,7.28,7.28,0,0,1,.94,2.49,12,12,0,0,1,.15,3,14.14,14.14,0,0,1-1.5,5.42c-1.07,2.11-2.39,3.32-4,3.63a3.08,3.08,0,0,1-3.35-1.71,7.19,7.19,0,0,1-.9-2.41,12.31,12.31,0,0,1-.15-3,14.3,14.3,0,0,1,1.49-5.44Q252.57,266.26,255,265.79Zm.22,4.89c-.7.14-1.31.85-1.81,2.14a9.26,9.26,0,0,0-.72,2.9,5.18,5.18,0,0,0,.07,1.28,2,2,0,0,0,.63,1.21,1.48,1.48,0,0,0,1.33.32,2.47,2.47,0,0,0,1.72-1.5,5.8,5.8,0,0,0,.59-2.32,7.24,7.24,0,0,0-.39-2.87C256.28,271,255.81,270.56,255.19,270.68Z"/><path d="M261.35,266.06a18.49,18.49,0,0,1,4.76-1.85c1.73-.33,2.7.11,2.92,1.31q.48,2.6-2.27,5.82c.28.45,1.31,1.84,3.11,4.16-.55.74-1.37,1.83-2.48,3.28l-3.06-4.9h0q0,2.6.21,4.77l-2.88,1.43c0-.29-.05-1.17-.07-2.64Zm3,2.56c0,.46-.05.92-.06,1.37v1.35a7.35,7.35,0,0,0,1.15-1.15,3.74,3.74,0,0,0,.76-1.44.69.69,0,0,0,0-.34c-.05-.29-.27-.39-.64-.32A4.64,4.64,0,0,0,264.35,268.62Z"/><path d="M270.07,278.7A126.33,126.33,0,0,0,272,264l5.64-2.1a78.63,78.63,0,0,0,1.74,13.93l-3.89,1.72-.17-2.46-1.24.5-.08,1.77Zm5-6.28L274.6,265h0l-.37,7.77Z"/><path d="M288,260.14l.57,3.59c-.89.22-1.73.45-2.52.68a75.13,75.13,0,0,0,.17,10.09L283.1,276l-.2-10.54-1,.37-1,.39-.92-3.54Z"/><path d="M295,258.11a3,3,0,0,1,3.32,1.71,7.56,7.56,0,0,1,.93,2.49,11.93,11.93,0,0,1,.16,3,14,14,0,0,1-1.51,5.42q-1.59,3.16-4,3.63a3.09,3.09,0,0,1-3.35-1.7,7.33,7.33,0,0,1-.9-2.42,11.84,11.84,0,0,1-.14-3,14.28,14.28,0,0,1,1.48-5.44C292,259.64,293.38,258.42,295,258.11Zm.23,4.89c-.71.14-1.31.85-1.82,2.14a9.84,9.84,0,0,0-.72,2.9,5.71,5.71,0,0,0,.07,1.28,2,2,0,0,0,.63,1.21,1.47,1.47,0,0,0,1.34.32,2.48,2.48,0,0,0,1.72-1.5A5.79,5.79,0,0,0,297,267a7.24,7.24,0,0,0-.39-2.87C296.28,263.27,295.81,262.88,295.2,263Z"/><path d="M301.86,258.3l3.18-1.25a98.51,98.51,0,0,0-.05,13.84l-2.89,1.43Z"/><path d="M307.6,257.18a18.36,18.36,0,0,1,4.76-1.85c1.72-.33,2.69.11,2.91,1.31q.48,2.6-2.26,5.83c.27.45,1.31,1.83,3.1,4.15-.54.74-1.37,1.84-2.47,3.28l-3.06-4.9h-.05q0,2.6.21,4.77l-2.87,1.43c0-.29-.06-1.16-.07-2.63Zm3,2.57c0,.45-.05.91-.06,1.36l0,1.36a7,7,0,0,0,1.15-1.16,3.61,3.61,0,0,0,.76-1.44.68.68,0,0,0,0-.34c0-.28-.26-.39-.63-.32A4.48,4.48,0,0,0,310.6,259.75Z"/><path d="M320.57,257.67c0,.39-.05.77-.06,1.15v1.09l2.95-1.24.33,2.68c-1.4.54-2.5,1-3.3,1.33,0,.27,0,.53,0,.8v.77l3.47-1.2.43,3.61a44.87,44.87,0,0,0-6.74,2.67l-.36-14.19,6.21-2.17.43,3.61C322.71,256.94,321.58,257.3,320.57,257.67Z"/><path d="M335.37,254.83q0,.58-.06,1.14v1.1l2.94-1.24.34,2.68c-1.41.54-2.51,1-3.3,1.33,0,.27,0,.53,0,.79v.78l3.47-1.2.44,3.61a44.92,44.92,0,0,0-6.75,2.67l-.36-14.19,6.21-2.17.43,3.61C337.51,254.1,336.39,254.46,335.37,254.83Z"/><path d="M349.14,261.87l-2.68,2.49-.7-1.8q-.36-.9-.72-1.83l-.59,1.85-.59,1.82-3.39.35,3-7.68q-1.35-3-2.63-5.28l2.32-2.55,1.84,3.92,1.75-4.39,2.66.4c-1,2.2-1.94,4.61-2.87,7.21Z"/><path d="M351,248.85a18.1,18.1,0,0,1,4.7-1.84c1.72-.33,2.69.11,2.89,1.32q.65,3.63-4.66,8.67c0,1.61.09,3.1.22,4.45l-2.89,1.43c0-.29,0-1.17,0-2.66l0-4.71C351.14,251.19,351.08,249,351,248.85Zm3,2.61c0,.37,0,.75,0,1.12v1.09a5,5,0,0,0,1.94-2.3.42.42,0,0,0,0-.26q-.06-.33-.54-.24A5.74,5.74,0,0,0,354,251.46Z"/><path d="M363.17,249.49c0,.39-.05.77-.06,1.15v1.1l2.95-1.24.33,2.68c-1.4.53-2.5,1-3.29,1.32,0,.27,0,.54,0,.8v.77l3.47-1.2.43,3.62a43.61,43.61,0,0,0-6.74,2.66L359.9,247l6.21-2.17.43,3.62C365.31,248.76,364.19,249.12,363.17,249.49Z"/><path d="M369,245.39a18.36,18.36,0,0,1,4.76-1.85c1.73-.33,2.7.11,2.92,1.31.31,1.73-.44,3.67-2.27,5.82.27.46,1.31,1.84,3.11,4.16-.55.74-1.37,1.84-2.48,3.28l-3.06-4.9h0c0,1.73.08,3.32.2,4.77l-2.87,1.43c0-.29-.05-1.17-.07-2.64Zm3,2.56c0,.46,0,.92-.06,1.37v1.35a7.35,7.35,0,0,0,1.15-1.15,3.74,3.74,0,0,0,.76-1.44.69.69,0,0,0,0-.34c-.06-.29-.27-.39-.64-.32A4.64,4.64,0,0,0,372,248Z"/><path d="M379.32,243.43l3.19-1.25a95.55,95.55,0,0,0-.05,13.84l-2.89,1.43Z"/><path d="M384.56,256.59A79.46,79.46,0,0,0,386,242.48l4.44-1.63.69,7.16.55-6.84,4.26-1.61A94.51,94.51,0,0,0,397.27,251c.13.66.25,1.32.38,2l-3.78,1.44-.92-8.53-.73,9.78-2.06.7-1-12.06-.71,11Z"/><path d="M402.54,241.93c0,.39-.05.78-.06,1.15v1.1l2.95-1.24.33,2.68c-1.4.53-2.5,1-3.29,1.33,0,.26,0,.53,0,.79v.78l3.47-1.21.44,3.62a43.28,43.28,0,0,0-6.75,2.66l-.36-14.19,6.21-2.16.43,3.61C404.68,241.2,403.56,241.57,402.54,241.93Z"/><path d="M408.72,237.85l3.19-1.31c0,.4.15,1,.29,1.69q.49,2.61,1.05,4.56a10,10,0,0,0,.64,1.76l-.13-7.73,3.18-1.25a97,97,0,0,0-.05,13.84L414,250.83s-.14-.23-.38-.62l-1.54-2.65a9.36,9.36,0,0,1-.46-.83c0,1.56.09,3.07.21,4.52L409,252.76Z"/><path d="M426.33,233.57l.57,3.59c-.89.23-1.73.45-2.52.68a77,77,0,0,0,.17,10.1l-3.08,1.46-.19-10.54-1,.37-1,.39-.91-3.55Z"/><path d="M427.2,248.54a126.5,126.5,0,0,0,1.9-14.74l5.65-2.1a77.71,77.71,0,0,0,1.74,13.93l-3.89,1.71-.17-2.45-1.24.5-.08,1.76Zm5-6.29-.51-7.41h0l-.38,7.77Z"/><path d="M438.22,232.13l3.18-1.25q-.36,5.58-.25,10.21l3.28-1.17.39,3.63a39.76,39.76,0,0,0-6.36,2.59Z"/></g></g></svg>