<svg xmlns="http://www.w3.org/2000/svg" viewBox="0 0 271.86 263.74"><defs><style>.cls-1{fill:#d81a50;}.cls-1,.cls-2,.cls-3,.cls-4,.cls-5,.cls-6,.cls-7,.cls-8{stroke:#000;stroke-miterlimit:10;}.cls-2{fill:#3f3047;}.cls-3,.cls-6{fill:#65536b;}.cls-4{fill:#4d3c54;}.cls-5{fill:#4b3c4f;}.cls-5,.cls-6,.cls-7,.cls-8{stroke-width:0.5px;}.cls-7{fill:#c1afce;}.cls-8{fill:#ff3e5f;}</style></defs><title>manteau</title><g id="Calque_2" data-name="Calque 2"><g id="Layer_1" data-name="Layer 1"><path class="cls-1" d="M70.17,207.78c10.55-.52,21.17-.46,32-.59,23.47-.31,47-.7,70.51.53,3.91.2,7.83.43,11.71,1,23.29,3.2,6.85,12.79,16.44,14.61s25.8,3.42,27.29,13.59-38.71,18.38-64.28,18.84-99.11,2.29-109.16.46c-5.42-1-3.13-3.57,1.85-5.66a2.6,2.6,0,0,0-.78-5c-24.08-2.08-50.72-1.79-54-8.07C-5.95,223.11,26.34,215,34.5,212.83A169.45,169.45,0,0,1,70.17,207.78Z"/><path class="cls-2" d="M118.52,118.64c2.06-10.38,5.9-24.42,10.36-38.73a59.4,59.4,0,0,1,2-8.54c4.78-22.19,17.55-51.77,22.68-59-.6-3.24-5.94-4.24-9.16-3-.77,9.23-12.7,51.41-23.18,69-7.46,20.12-21.28,57.73-33.15,86.51-4.35,10.55-8.45,19.91-11.87,26.78,5.5,3.92,14.14,8.11,27.07,9.82.06-8.44,1.46-18.61,3.43-29.19C110.3,153.1,115.77,132.54,118.52,118.64Z"/><path class="cls-3" d="M121.24,78.4l-.29.48a1.22,1.22,0,0,1-.52-.21c-.54-.15-1.93-.13-3.34,3.16C115.37,75.92,118,70,118,70s-1.25.36-3.23,3.71a17.67,17.67,0,0,1,3.1-8.61v-.17c-.44.19-1.71,1-3.49,4a22.32,22.32,0,0,1,2.48-8.68l-2.39,2.41c.3-1.82,2.48-5.75,2.48-5.75s.59-.85-2,1.24a18.85,18.85,0,0,1,3.06-4.85l0-.49-2.75,2.52c.44-3.49,2.93-8.09,2.93-8.09s-1.27.27-3.47,3.48a17.74,17.74,0,0,1,3.86-8.59s-1.44.16-3.92,3.79a22.31,22.31,0,0,1,3.07-8.49l-2.55,2.24c.43-1.79,2.88-5.57,2.88-5.57s.64-.8-2.06,1.11a19.77,19.77,0,0,1,4-5.2l0-.16-1.8,1.2a20.67,20.67,0,0,1,2.29-4.79c.1-.68.19-1.34.3-2a15.35,15.35,0,0,0-2.41,2.13,15.33,15.33,0,0,1,3-5.58c.09-.5.17-1,.26-1.44a16.11,16.11,0,0,0-2.55,2.28,18.63,18.63,0,0,1,1.88-4.4c-8.38,7.34-20.21,30-26.17,39.25C90.45,63.3,80.46,70.94,73.05,76c-7.85,5.41-7.5,19,1.06,21.48,2,.58,8.35,1.25,12.29-1.63,4.67-3.41,13.39-12.12,22-21.88-3.5,8.23-8.1,18.31-13,28.62A119.23,119.23,0,0,0,103.68,93c1.62-2.08,3.28,0,2.3,3a13.41,13.41,0,0,1-.9,2.09c-3.73,7.09-11.41,13-14.49,15.18a1.56,1.56,0,0,1-.38.2c-8.42,17.34-16.85,33.7-21.35,41.28a43.71,43.71,0,0,1-3.63,5.2c-10.49,13-26.13,18.57-27.46,29.14C36.28,201,58.88,208.87,68.64,203.44c1.69-.95,4.34-5.23,7.58-11.75,3.42-6.87,7.52-16.23,11.87-26.78C100,136.13,113.78,98.52,121.24,78.4Z"/><path class="cls-3" d="M208,99.71c-6-7.66-13.91-18.74-16-27-3.21-12.71-7.75-45.27-15.53-51.25a22.07,22.07,0,0,1-.31,5.15l-1.1-3.22a22.32,22.32,0,0,1-1.57,8.89,11.62,11.62,0,0,0-1.1-4.71l-.27.48a17,17,0,0,1-1.07,8.36c-.24-2.95-.85-4.16-1.14-4.57-.05.09-.1.18-.16.27a27.34,27.34,0,0,1-1.47,8l-.83-2.64a20.82,20.82,0,0,1-.07,7.25c-.91-3.18-.91-2.15-.91-2.15s-.46,4.48-1.25,6.15l-.58-3.35a22.3,22.3,0,0,1-2.93,8.54c.35-4.38-.68-5.41-.68-5.41a17.75,17.75,0,0,1-2.37,9.11c.29-3.88-.53-4.89-.53-4.89s-.94,5.15-2.79,8.15c-.44-3-.76-5-.9-6l-.12.16a21.85,21.85,0,0,1-.48,8.2c-.68-3.23-.76-2.21-.76-2.21s-.76,4.44-1.66,6l-.35-3.39a22.39,22.39,0,0,1-3.52,8.32c.65-4.35-.3-5.45-.3-5.45a17.78,17.78,0,0,1-3,8.93c.56-3.85-.19-4.91-.19-4.91s-1.29,5.07-3.34,7.93c-.25-3-.42-5.16-.5-6l-.27.29c-.77,2.92-2.17,7.34-4,9.61-.21-2.69-.37-4.29-.47-5.21-.28.25-.56.48-.83.69-.83,2.07-2.29,5.34-3.7,6.77.07-2.66.1-4,.12-4.59l-.35.09-2.79,5.48s.4-2.64,1-5.74c-4.46,14.31-8.3,28.35-10.36,38.73-2.75,13.9-8.22,34.46-11.8,53.68-2,10.58-3.37,20.75-3.43,29.19-.08,11.19,2.18,19.34,8.58,21.35,20,6.29,59.29,5.39,62.68-11.38,1.35-6.65.28-18.57-1.58-32.87-2.84-21.79-7.53-49.09-8.38-71.68a179,179,0,0,1,1-25.24c4,11.24,9.65,22.57,17.45,31.51,3.94,4.5,12.53,5.85,14.94,6A12,12,0,0,0,208,99.71Zm-71.34,5.42a3.66,3.66,0,0,1,6.94-1.1c2.53,5.34,9.59,19.46,14.95,22.84a4.1,4.1,0,0,1,1.56,5.22,6.36,6.36,0,0,1-1.81,2.22,3.6,3.6,0,0,1-4.85-.32c-4.37-4.54-14.89-16.31-16.65-26.12A9.47,9.47,0,0,1,136.67,105.13Z"/><path class="cls-4" d="M121.68,19.39c-.09.47-.17.94-.26,1.44a15.33,15.33,0,0,0-3,5.58,15.35,15.35,0,0,1,2.41-2.13c-.11.65-.2,1.31-.3,2a20.67,20.67,0,0,0-2.29,4.79l1.8-1.2,0,.16a19.77,19.77,0,0,0-4,5.2c2.7-1.91,2.06-1.11,2.06-1.11s-2.45,3.78-2.88,5.57l2.55-2.24a22.31,22.31,0,0,0-3.07,8.49c2.48-3.63,3.92-3.79,3.92-3.79a17.74,17.74,0,0,0-3.86,8.59c2.2-3.21,3.47-3.48,3.47-3.48s-2.49,4.6-2.93,8.09l2.75-2.52,0,.49A18.85,18.85,0,0,0,115,58.16c2.56-2.09,2-1.24,2-1.24s-2.18,3.93-2.48,5.75l2.39-2.41a22.32,22.32,0,0,0-2.48,8.68c1.78-3,3-3.81,3.49-4v.17a17.67,17.67,0,0,0-3.1,8.61C116.76,70.37,118,70,118,70s-2.64,5.91-.92,11.82c1.41-3.29,2.8-3.31,3.34-3.16a1.22,1.22,0,0,0,.52.21l.29-.48c10.48-17.63,22.41-59.81,23.18-69,3.22-1.23,8.56-.23,9.16,3-5.13,7.23-17.9,36.81-22.68,59a59.4,59.4,0,0,0-2,8.54c-.57,3.1-1,5.74-1,5.74l2.79-5.48.35-.09c0,.64-.05,1.93-.12,4.59,1.41-1.43,2.87-4.7,3.7-6.77.27-.21.55-.44.83-.69.1.92.26,2.52.47,5.21,1.87-2.27,3.27-6.69,4-9.61l.27-.29c.08.89.25,3,.5,6,2-2.86,3.34-7.93,3.34-7.93s.75,1.06.19,4.91a17.78,17.78,0,0,0,3-8.93s.95,1.1.3,5.45a22.39,22.39,0,0,0,3.52-8.32l.35,3.39c.9-1.61,1.66-6,1.66-6s.08-1,.76,2.21a21.85,21.85,0,0,0,.48-8.2l.12-.16c.14.92.46,3,.9,6,1.85-3,2.79-8.15,2.79-8.15s.82,1,.53,4.89a17.75,17.75,0,0,0,2.37-9.11s1,1,.68,5.41a22.3,22.3,0,0,0,2.93-8.54l.58,3.35c.79-1.67,1.25-6.15,1.25-6.15s0-1,.91,2.15a20.82,20.82,0,0,0,.07-7.25l.83,2.64a27.34,27.34,0,0,0,1.47-8c.06-.09.11-.18.16-.27.29.41.9,1.62,1.14,4.57A17,17,0,0,0,172.14,28l.27-.48a11.62,11.62,0,0,1,1.1,4.71,22.32,22.32,0,0,0,1.57-8.89l1.1,3.22a22.07,22.07,0,0,0,.31-5.15c0-.67,0-1.12,0-1.12s-.16-1,1.23,2a18.72,18.72,0,0,0-.69-5.9,6.79,6.79,0,0,0-.83-2.62c0-.13-.07-.2-.07-.2l0,0c-2.33-4.4-9.35-11-23.94-12.73C137.8-.81,129.8,3.41,126.38,7.11a18.86,18.86,0,0,0-4.26,4.18,9.11,9.11,0,0,1,2.23-.93,4,4,0,0,0-.27.43,25.4,25.4,0,0,0-3.47,4.79l2.26-1.44-.15.55A26.12,26.12,0,0,0,121,17.27a18.63,18.63,0,0,0-1.88,4.4A16.11,16.11,0,0,1,121.68,19.39Z"/><path class="cls-4" d="M153.46,134a3.6,3.6,0,0,0,4.85.32,6.36,6.36,0,0,0,1.81-2.22,4.1,4.1,0,0,0-1.56-5.22c-5.36-3.38-12.42-17.5-14.95-22.84a3.66,3.66,0,0,0-6.94,1.1,9.47,9.47,0,0,0,.14,2.74C138.57,117.68,149.09,129.45,153.46,134Z"/><path class="cls-4" d="M105.08,98.08A13.41,13.41,0,0,0,106,96c1-2.95-.68-5.07-2.3-3a119.23,119.23,0,0,1-8.27,9.63c-1.77,1.78-3.43,3.17-4.55,3.53s-2,1.84-2.22,3.57a8.32,8.32,0,0,0,0,2.29c.16,1.16.81,1.72,1.57,1.44a1.56,1.56,0,0,0,.38-.2C93.67,111.08,101.35,105.17,105.08,98.08Z"/><path class="cls-5" d="M71.21,221.53a7.19,7.19,0,0,1-2.28-.93,20.56,20.56,0,0,1-5.38.22,8.94,8.94,0,0,0,1.91,1.42A11.25,11.25,0,0,0,71.8,224C73.64,224,73.92,222.09,71.21,221.53Z"/><path class="cls-6" d="M68.51,215.45c-.22-.31-.44-.66-.67-1,0,.2,0,.41-.09.61A4.6,4.6,0,0,1,68.51,215.45Z"/><path class="cls-6" d="M68.93,220.6c1.55-.3,2.72-.85,2.83-1.7a1,1,0,0,0-.2-.73,5.41,5.41,0,0,0-2-1.65,2.86,2.86,0,0,1-1-.93,4,4,0,0,1-.93-.25,4.41,4.41,0,0,1-.38,1,4.33,4.33,0,0,1,.1-1.14,4.48,4.48,0,0,1-1-.56,4.13,4.13,0,0,1,1.06.27,4.52,4.52,0,0,1,.23-.71,4.34,4.34,0,0,0-2.81-2.09c.26-1,.46-2.43-.54-2.6-1.43-.25-2.6.81-1.86,2.57a7.12,7.12,0,0,0-3.23,1.08l-.22.08c-.36-.93-1-2.1-1.89-1.68a1.63,1.63,0,0,0-.86,2.39,12.55,12.55,0,0,1-2.22.18c-3.66,0-16.29-5.88-24.72-5.78-6.79.08-9.46,2.24-10.64,3.58-8,1.89-10.5,15-2.55,17.59,8.12,2.64,8.12,8.9,8.12,8.9,5.57-7-.79-13.69-5.58-15.06-3.73-1.07-1.58-4.93-.45-6.58a8.43,8.43,0,0,0,3.35,2.3,11.46,11.46,0,0,0,3.56,3.77,14.31,14.31,0,0,0,7.87,2.9c2.33.08,2.87-2.27-.51-3.24a9.17,9.17,0,0,1-2.78-1.39c1,.14,2,.26,3.06.37a115.47,115.47,0,0,0,21.67.42,9.23,9.23,0,0,0,2.11,1.62,11.25,11.25,0,0,0,6.34,1.8c1.84-.08,2.12-2-.6-2.51a8,8,0,0,1-3.23-1.6,14.66,14.66,0,0,0,2.61-.8,7.14,7.14,0,0,0,1.5.34l.35,0A20.56,20.56,0,0,0,68.93,220.6Zm-5.42-2.93a4.29,4.29,0,0,1,.09-1.14,4.24,4.24,0,0,1-1-.57,4.71,4.71,0,0,1,1.06.27,4.11,4.11,0,0,1,.37-1,4.75,4.75,0,0,1-.1,1.14,5,5,0,0,1,1,.57,4.58,4.58,0,0,1-1.06-.27A5.09,5.09,0,0,1,63.51,217.67Zm-.58,2.74c-.54-.47.13-1.16.13-1.16l1.7.18C64.61,219.92,63.48,220.89,62.93,220.41Z"/><path class="cls-7" d="M63.94,216.34a4.75,4.75,0,0,0,.1-1.14,4.11,4.11,0,0,0-.37,1,4.71,4.71,0,0,0-1.06-.27,4.24,4.24,0,0,0,1,.57,4.29,4.29,0,0,0-.09,1.14,5.09,5.09,0,0,0,.37-1,4.58,4.58,0,0,0,1.06.27A5,5,0,0,0,63.94,216.34Z"/><path class="cls-7" d="M66.41,214.67a4.48,4.48,0,0,0,1,.56,4.33,4.33,0,0,0-.1,1.14,4.41,4.41,0,0,0,.38-1,4,4,0,0,0,.93.25l.12,0-.23-.16a4.6,4.6,0,0,0-.76-.4c0-.2.07-.41.09-.61a3.13,3.13,0,0,0,0-.53c0,.11-.1.21-.14.32a4.52,4.52,0,0,0-.23.71A4.13,4.13,0,0,0,66.41,214.67Z"/><path class="cls-8" d="M63.06,219.25s-.67.69-.13,1.16,1.68-.49,1.83-1Z"/><path class="cls-5" d="M133.5,249.27a9.32,9.32,0,0,0-2-1.32,11.32,11.32,0,0,0-6.44-1.44c-1.83.18-2,2.07.74,2.48a7.23,7.23,0,0,1,2.32.8A20.38,20.38,0,0,1,133.5,249.27Z"/><path class="cls-6" d="M128.84,254.91c.24.3.48.63.74,1a4.32,4.32,0,0,1,0-.62A6.13,6.13,0,0,1,128.84,254.91Z"/><path class="cls-6" d="M194.54,252.69c-1.08-7.37-11.79-8-16.39-2.67a10.56,10.56,0,0,0-2.67-1.38,11.47,11.47,0,0,0-3.76-3.57,14.38,14.38,0,0,0-8-2.46c-2.34,0-2.75,2.43.69,3.22a9.06,9.06,0,0,1,2.85,1.22c-1-.08-2-.15-3.08-.19a115.25,115.25,0,0,0-21.65.79,9.25,9.25,0,0,0-2.2-1.51,11.31,11.31,0,0,0-6.44-1.44c-1.83.18-2,2.07.74,2.48a7.84,7.84,0,0,1,3.32,1.41,15,15,0,0,0-2.56.94,7.42,7.42,0,0,0-1.52-.25h-.35a20.38,20.38,0,0,0-5.36.52c-1.53.39-2.66,1-2.73,1.86a1,1,0,0,0,.24.71,5.24,5.24,0,0,0,2,1.53,3,3,0,0,1,1,.88,4.34,4.34,0,0,1,1,.2,4,4,0,0,1,.31-1.05,4.33,4.33,0,0,1,0,1.14,4.63,4.63,0,0,1,1,.51,4.32,4.32,0,0,1-1.07-.21,4.74,4.74,0,0,1-.18.72,4.33,4.33,0,0,0,2.92,1.93c-.21,1-.33,2.45.68,2.57,1.44.16,2.54-1,1.71-2.67a7,7,0,0,0,3.17-1.27l.21-.08c.42.9,1.13,2,2,1.57a1.63,1.63,0,0,0,.73-2.44,12.26,12.26,0,0,1,2.21-.3c3.65-.16,16.59,5,25,4.4s10.3-4,11-5a2.32,2.32,0,0,0,.32-.62c.66-.63,1.14-1.15,1.14-1.15s6.7-3.82,7.24,1.13,6,12.34,13.91,8C202,262.19,195.78,261.14,194.54,252.69Zm-60.4-3.05c.57.45-.07,1.17-.07,1.17l-1.7-.08C132.49,250.22,133.57,249.2,134.14,249.64Zm-.42,2.78a4.34,4.34,0,0,1,0,1.14,4.23,4.23,0,0,1,1,.51,4.24,4.24,0,0,1-1.07-.22,4.39,4.39,0,0,1-.32,1.05,4.8,4.8,0,0,1,0-1.14,4.12,4.12,0,0,1-1-.51,4.61,4.61,0,0,1,1.07.21A4.45,4.45,0,0,1,133.72,252.42Z"/><path class="cls-7" d="M133.36,253.76a4.8,4.8,0,0,0,0,1.14,4.39,4.39,0,0,0,.32-1.05,4.24,4.24,0,0,0,1.07.22,4.23,4.23,0,0,0-1-.51,4.34,4.34,0,0,0,0-1.14,4.45,4.45,0,0,0-.32,1,4.61,4.61,0,0,0-1.07-.21A4.12,4.12,0,0,0,133.36,253.76Z"/><path class="cls-7" d="M131,255.57a4.63,4.63,0,0,0-1-.51,4.33,4.33,0,0,0,0-1.14,4,4,0,0,0-.31,1.05,4.34,4.34,0,0,0-1-.2l-.13,0,.24.16a6.13,6.13,0,0,0,.79.35,4.32,4.32,0,0,0,0,.62,2.37,2.37,0,0,0,0,.53c.05-.11.09-.22.13-.33a4.74,4.74,0,0,0,.18-.72A4.32,4.32,0,0,0,131,255.57Z"/><path class="cls-8" d="M134.07,250.81s.64-.72.07-1.17-1.65.58-1.77,1.09Z"/><path class="cls-5" d="M189,229.82a7.19,7.19,0,0,1-2.28.93c-2.71.55-2.43,2.43-.6,2.51a11.26,11.26,0,0,0,6.35-1.8,8.94,8.94,0,0,0,1.91-1.42A20.56,20.56,0,0,1,189,229.82Z"/><path class="cls-6" d="M190.06,223.66c-.23.35-.45.69-.67,1a4.6,4.6,0,0,1,.76-.4C190.11,224.07,190.08,223.86,190.06,223.66Z"/><path class="cls-7" d="M194.39,226.89a4.29,4.29,0,0,0-.09-1.14,4.63,4.63,0,0,0,1-.57,4.71,4.71,0,0,0-1.06.27,4.11,4.11,0,0,0-.37-1,4.29,4.29,0,0,0,.1,1.14,4.52,4.52,0,0,0-1,.57,4.71,4.71,0,0,0,1.06-.27A5.09,5.09,0,0,0,194.39,226.89Z"/><path class="cls-7" d="M190.59,225.59a4.79,4.79,0,0,0-.1-1.14,4.48,4.48,0,0,0,1-.56,4.13,4.13,0,0,0-1.06.27,4.52,4.52,0,0,0-.23-.71c0-.11-.09-.21-.14-.32a3.13,3.13,0,0,0,0,.53c0,.2.05.41.09.61a4.6,4.6,0,0,0-.76.4l-.24.16.13,0a4,4,0,0,0,.93-.25A4.41,4.41,0,0,0,190.59,225.59Z"/><path class="cls-8" d="M194.84,228.47l-1.7.17c.15.5,1.28,1.47,1.83,1S194.84,228.47,194.84,228.47Z"/><path class="cls-6" d="M261.31,226.31c-4.46-.4-15.59-2.14-21-3.3a3.39,3.39,0,0,0-.51-1c-.77-1-2.85-4.26-11.27-4.36s-21.06,5.73-24.72,5.78a12.47,12.47,0,0,1-2.22-.18,1.63,1.63,0,0,0-.86-2.39c-.88-.42-1.53.75-1.89,1.68l-.22-.08a7.12,7.12,0,0,0-3.23-1.08c.73-1.76-.43-2.82-1.86-2.57-1,.17-.8,1.63-.54,2.6a4.34,4.34,0,0,0-2.81,2.09,4.52,4.52,0,0,1,.23.71,4.13,4.13,0,0,1,1.06-.27,4.48,4.48,0,0,1-1,.56,4.79,4.79,0,0,1,.1,1.14,4.41,4.41,0,0,1-.38-1,4,4,0,0,1-.93.25,2.86,2.86,0,0,1-1,.93,5.41,5.41,0,0,0-2,1.65,1,1,0,0,0-.2.73c.11.85,1.28,1.39,2.83,1.7a20.56,20.56,0,0,0,5.38.22l.35,0a7.14,7.14,0,0,0,1.5-.34,14.66,14.66,0,0,0,2.61.8,8,8,0,0,1-3.23,1.6c-2.72.55-2.44,2.43-.6,2.51a11.25,11.25,0,0,0,6.34-1.8,9.52,9.52,0,0,0,2.11-1.62,115.47,115.47,0,0,0,21.67-.42c1.09-.11,2.11-.23,3.06-.37a9.17,9.17,0,0,1-2.78,1.39c-3.38,1-2.84,3.32-.51,3.24a14.31,14.31,0,0,0,7.87-2.9,11.46,11.46,0,0,0,3.56-3.77,9.2,9.2,0,0,0,3-1.94,19.89,19.89,0,0,0,11.94,5.76c8.39.66,15.64-1.64,20.25,1.24C270.69,228.7,266.91,226.8,261.31,226.31ZM194,225.56a4.29,4.29,0,0,1-.1-1.14,4.11,4.11,0,0,1,.37,1,4.71,4.71,0,0,1,1.06-.27,4.63,4.63,0,0,1-1,.57,4.29,4.29,0,0,1,.09,1.14,5.09,5.09,0,0,1-.37-1,4.71,4.71,0,0,1-1.06.27A4.52,4.52,0,0,1,194,225.56Zm1,4.07c-.55.48-1.68-.49-1.83-1l1.7-.17S195.51,229.16,195,229.63Z"/><path class="cls-1" d="M119.62,179.08a42.55,42.55,0,0,1,3.73-19c2.32-4.79,7.54-7.4,12.3-4.26,3.92,2.59,5.67,7.42,9.26,10.38s8,4.82,11.47,7.88c4.12,3.63,5.63,8.68,5.93,14s-2.88,9.1-8.26,9.21c-3.65.08-6.72-1.5-9.51-3.72C139.8,189.83,136.15,188,130,188c-3.08,0-6.64-.72-8.63-3.3A9.68,9.68,0,0,1,119.62,179.08Z"/><path class="cls-1" d="M147.84,162.09c0-2.14,2.74-4,5.52-3.45,5,1,4.81,5.39,2.89,6.93s-4.79.45-6.51-.67A3.55,3.55,0,0,1,147.84,162.09Z"/><path class="cls-1" d="M118.37,206.05c0-2.14,2.74-4,5.52-3.45,5,1,4.81,5.39,2.89,6.93s-4.79.45-6.51-.67A3.53,3.53,0,0,1,118.37,206.05Z"/><path class="cls-1" d="M157.89,168c0-.89,1.15-1.67,2.32-1.45,2.1.41,2,2.27,1.21,2.92s-2,.19-2.73-.28A1.46,1.46,0,0,1,157.89,168Z"/><path class="cls-1" d="M59.49,174.4c-.42-.92.42-2.24,1.71-2.54,2.33-.54,3.1,1.4,2.56,2.43s-2,1.11-2.92,1A1.65,1.65,0,0,1,59.49,174.4Z"/><path class="cls-1" d="M52.67,188.67s1.17-8.74,7.17-8.87,8.47-6,10-6.91,4.17-2.48,5.21.26.39,11.08-4.56,13.17S66.75,194,65.05,196,52.28,196.62,52.67,188.67Z"/></g></g></svg>