<svg width="46" height="46" viewBox="0 0 46 46" fill="none" xmlns="http://www.w3.org/2000/svg">
<path d="M8.53971 22.1169C9.03769 18.88 9.28668 17.2616 10.4105 16.2975C11.5343 15.3333 13.1718 15.3333 16.4467 15.3333H29.5533C32.8282 15.3333 34.4657 15.3333 35.5895 16.2975C36.7133 17.2616 36.9623 18.88 37.4603 22.1169L39.8955 37.9459C40.0603 39.0168 40.1427 39.5523 39.8434 39.9011C39.5441 40.25 39.0023 40.25 37.9188 40.25H8.08122C6.99771 40.25 6.45595 40.25 6.15665 39.9011C5.85734 39.5523 5.93972 39.0168 6.10448 37.9459L8.53971 22.1169Z" fill="#7E869E" fill-opacity="0.36"/>
<path d="M16.2917 21.0833L16.2917 14.375C16.2917 10.6701 19.2952 7.66667 23.0001 7.66667V7.66667C26.705 7.66667 29.7084 10.6701 29.7084 14.375L29.7084 21.0833" stroke="white" stroke-linecap="round"/>
</svg>
