<svg width="50" height="55" viewBox="0 0 50 55" fill="none" xmlns="http://www.w3.org/2000/svg">
<path d="M21.2995 39.9428C20.0635 39.9428 19.2394 39.8712 19.1158 39.8609L18.2815 39.7893L17.8901 39.0577C17.648 38.6074 12.024 27.9758 16.2523 21.6163C17.854 19.2065 20.7176 17.5693 24.7605 16.7507C27.9691 16.1009 32.9339 15.973 33.7631 16.5205C34.5922 17.0679 36.2043 21.4884 36.6832 23.2177C37.9914 27.9758 37.7133 31.7772 35.9055 34.5144C32.7176 39.3135 25.0798 39.9428 21.2995 39.9428ZM20.2334 36.873C23.6995 37.0112 30.8789 36.52 33.3253 32.8414C36.0291 28.7739 32.9802 21.5293 31.9193 19.2781C28.9425 19.1502 21.3665 19.5135 18.8326 23.3251C16.3862 26.9884 18.745 33.7674 20.2334 36.8372V36.873Z" fill="#2E94AE"/>
<path d="M34.9579 19.406C33.7219 19.406 32.8978 19.3395 32.7742 19.3293L31.9399 19.2577L31.5433 18.5209C31.3013 18.0758 25.6772 7.44418 29.9262 1.08465L29.9519 1.02325L32.527 2.74232L32.491 2.79349C30.0498 6.46697 32.4137 13.2102 33.9021 16.3209C37.3734 16.4642 44.5528 15.9679 46.9991 12.2893L49.6155 13.9265L49.5742 13.9879C46.3708 18.7767 38.7382 19.406 34.9579 19.406Z" fill="#2E94AE"/>
<path d="M22.2832 55L19.7081 53.327C22.2008 49.5 19.5588 42.4651 18.2764 39.7995C15.3253 39.6665 7.78022 40.0247 5.20511 43.8107L2.63 42.1019C4.46348 39.3851 7.87807 37.6712 12.7811 36.9856C14.2334 36.786 19.1931 36.4279 20.1098 37.0367C21.0266 37.6456 22.6334 42.3014 23.0197 43.6879C24.3227 48.4665 24.0755 52.2577 22.2832 55Z" fill="#2E94AE"/>
<path d="M30.354 4.7491L29.7863 5.60287L45.2002 15.7187L45.768 14.8649L30.354 4.7491Z" fill="#2E94AE"/>
<path d="M30.5003 10.078L29.9325 10.9318L40.5766 17.9173L41.1443 17.0635L30.5003 10.078Z" fill="#2E94AE"/>
<path d="M17.7426 22.1288L17.1748 22.9826L34.4237 34.3026L34.9914 33.4488L17.7426 22.1288Z" fill="#2E94AE"/>
<path d="M21.7586 20.0518L21.1908 20.9056L35.1394 30.0598L35.7072 29.206L21.7586 20.0518Z" fill="#2E94AE"/>
<path d="M26.5092 18.4592L25.9414 19.313L34.0158 24.612L34.5836 23.7582L26.5092 18.4592Z" fill="#2E94AE"/>
<path d="M6.22829 40.2394L5.66052 41.0932L21.0745 51.209L21.6422 50.3553L6.22829 40.2394Z" fill="#2E94AE"/>
<path d="M11.2194 38.2796L10.6516 39.1334L21.2957 46.1189L21.8635 45.2651L11.2194 38.2796Z" fill="#2E94AE"/>
<path d="M17.0241 26.3759L16.4563 27.2297L30.4049 36.3838L30.9727 35.5301L17.0241 26.3759Z" fill="#2E94AE"/>
<path d="M17.4127 31.3462L16.845 32.2L24.9194 37.499L25.4871 36.6452L17.4127 31.3462Z" fill="#2E94AE"/>
<path d="M18.6695 38.9195C17.4335 38.9195 16.6094 38.8479 16.4858 38.8377L15.6515 38.766L15.2601 38.0344C15.018 37.5842 9.394 26.9525 13.6223 20.593C15.224 18.1832 18.0876 16.546 22.1305 15.7274C25.3391 15.0777 30.3039 14.9498 31.133 15.4972C31.9622 16.0446 33.5743 20.4651 34.0532 22.1944C35.3614 26.9525 35.0833 30.7539 33.2755 33.4911C30.0876 38.2902 22.4498 38.9195 18.6695 38.9195ZM17.6034 35.8498C21.0695 35.9879 28.2489 35.4967 30.6953 31.8181C33.3991 27.7507 30.3502 20.506 29.2893 18.2549C26.3124 18.127 18.7365 18.4902 16.2026 22.3018C13.7562 25.9651 16.115 32.7442 17.6034 35.8139V35.8498Z" fill="white"/>
<path d="M32.3279 18.3828C31.0918 18.3828 30.2678 18.3163 30.1442 18.306L29.3098 18.2344L28.9133 17.4977C28.6712 17.0526 23.0472 6.42093 27.2961 0.0613954L27.3219 0L29.897 1.71907L29.8609 1.77023C27.4197 5.44372 29.7837 12.187 31.2721 15.2977C34.7433 15.4409 41.9227 14.9447 44.3691 11.266L46.9854 12.9033L46.9442 12.9647C43.7407 17.7535 36.1081 18.3828 32.3279 18.3828Z" fill="white"/>
<path d="M19.6532 53.9767L17.0781 52.3037C19.5708 48.4767 16.9288 41.4419 15.6464 38.7763C12.6953 38.6433 5.15022 39.0014 2.57511 42.7874L0 41.0786C1.83348 38.3619 5.24807 36.6479 10.1511 35.9623C11.6034 35.7628 16.5631 35.4047 17.4798 36.0135C18.3966 36.6223 20.0034 41.2781 20.3897 42.6647C21.6927 47.4433 21.4455 51.2344 19.6532 53.9767Z" fill="white"/>
<path d="M27.7285 3.72396L27.1608 4.57773L42.5747 14.6936L43.1425 13.8398L27.7285 3.72396Z" fill="white"/>
<path d="M27.8696 9.058L27.3019 9.91177L37.946 16.8973L38.5137 16.0435L27.8696 9.058Z" fill="white"/>
<path d="M15.112 21.1088L14.5443 21.9626L31.7931 33.2826L32.3609 32.4288L15.112 21.1088Z" fill="white"/>
<path d="M19.1279 19.0318L18.5602 19.8856L32.5088 29.0397L33.0766 28.186L19.1279 19.0318Z" fill="white"/>
<path d="M23.8786 17.434L23.3108 18.2878L31.3852 23.5868L31.9529 22.7331L23.8786 17.434Z" fill="white"/>
<path d="M3.59768 39.2143L3.02991 40.0681L18.4439 50.1839L19.0116 49.3301L3.59768 39.2143Z" fill="white"/>
<path d="M8.59395 37.2596L8.02618 38.1134L18.6703 45.0989L19.238 44.2451L8.59395 37.2596Z" fill="white"/>
<path d="M14.3986 25.3559L13.8308 26.2097L27.7794 35.3638L28.3472 34.5101L14.3986 25.3559Z" fill="white"/>
<path d="M14.7873 30.321L14.2195 31.1748L22.2939 36.4738L22.8617 35.6201L14.7873 30.321Z" fill="white"/>
</svg>
