<svg xmlns="http://www.w3.org/2000/svg" viewBox="0 0 739.78 842.48"><defs><style>.cls-1,.cls-3,.cls-8{fill:#eee;}.cls-1,.cls-10,.cls-2,.cls-3,.cls-4,.cls-5,.cls-6,.cls-7,.cls-8,.cls-9{stroke:#000;stroke-miterlimit:10;}.cls-1,.cls-2{stroke-width:3px;}.cls-2,.cls-5{fill:#ba1616;}.cls-6{fill:#c6e1e0;}.cls-7{fill:#c5b9b9;}.cls-10,.cls-7,.cls-8,.cls-9{stroke-width:2px;}.cls-9{fill:#c0b7b7;}.cls-10{fill:#d06969;}</style></defs><title>poche</title><g id="Calque_2" data-name="Calque 2"><g id="Banner"><g id="Graphic_Elements" data-name="Graphic Elements"><path class="cls-1" d="M383.43,743.05c-8.35-31.38-12.69-76.48-17.71-128.69-5.32-55.26,1.61-150.72,13-179.19,14.26-35.65-5-63.92-14.24-77.51L362.69,355c-2.94-4.42-9.56-11.08-36.3-26.95a202.83,202.83,0,0,0-103.53-28.31H167.77A202.89,202.89,0,0,0,64.23,328.07C37.5,343.94,30.88,350.6,27.93,355c-.55.83-1.15,1.71-1.78,2.64-9.25,13.59-28.5,41.86-14.24,77.51,11.39,28.47,18.31,123.93,13,179.19-5,52.21-9.36,97.31-17.71,128.69-4.59,17.21-12.26,46,5.16,68.69,15.13,19.68,45,29.24,91.4,29.24H286.87c46.38,0,76.27-9.56,91.39-29.24C395.69,789.06,388,760.26,383.43,743.05Z"/><path class="cls-2" d="M652,269.52c-34.51-5.56-62.2-27.49-82.28-65.2-48.62-91.26-90-145-134.11-174.42A163.77,163.77,0,0,0,364.88,3.09C341.67,0,315.61,1.39,285.21,7.26c-28.4,5.49-51,26.59-67.34,62.72-12.45,27.6-21.28,64.23-26.25,108.86C185,238.29,187,296.68,188.22,319H167.77a184.69,184.69,0,0,0-44.85,5.54l0-.24s-8.59.41-9.2-7.15V251.81a8.38,8.38,0,0,0-16.75,0V319h-.06s-.49,13-11.74,19.09a5.81,5.81,0,0,0-1.88,1.44c-3.11,1.61-6.19,3.29-9.21,5.08-24.67,14.65-29.3,19.85-30.13,21.09-.58.88-1.21,1.81-1.88,2.8C33,381.77,19.28,401.88,29.74,428,43.55,462.57,49.24,562,44,616.2c-5.1,53.06-9.51,98.88-18.28,131.79-5,18.66-8.92,38,1.84,52,11.09,14.42,36.71,21.74,76.17,21.74H286.87c39.45,0,65.08-7.32,76.17-21.74,10.76-14,6.8-33.39,1.84-52-8.77-32.91-13.18-78.73-18.28-131.79-5.21-54.17.47-153.63,14.29-188.16,10.46-26.16-3.23-46.27-12.29-59.58l-1.89-2.79c-.83-1.24-5.45-6.44-30.12-21.09-4.19-2.48-8.48-4.77-12.84-6.91-9.54-6.41-10-18-10-18h-.06V252.48a8.38,8.38,0,0,0-16.75,0V317.8c-.46,5.62-5.32,6.83-7.78,7.08A184.91,184.91,0,0,0,222.86,319H205c-1.15-21-3.33-79.24,3.29-138.49,7.37-65.88,27.24-146.56,80.11-156.78,58.49-11.3,99.75-5.28,138,20.14C468,71.59,507.71,123.51,555,212.19c22.69,42.59,54.46,67.44,94.42,73.86,26.65,4.29,56.39.42,88.91-11.5V256.47C710.24,267.46,680.05,274,652,269.52Z"/><rect class="cls-3" x="78.02" y="441.65" width="238.59" height="255.21"/><path class="cls-4" d="M307.48,687.94H87.15a.85.85,0,0,1-.84-.84V451.42a.85.85,0,0,1,.84-.84H307.48a.85.85,0,0,1,.84.84V687.1A.85.85,0,0,1,307.48,687.94ZM88,686.27H306.65v-234H88Z"/><path class="cls-4" d="M173,687.94H87.15a.85.85,0,0,1-.84-.84V481a.85.85,0,0,1,.84-.84H173a.84.84,0,0,1,.83.84V687.1A.84.84,0,0,1,173,687.94Zm-85-1.67H172.2V481.86H88Z"/><path class="cls-4" d="M307.48,481.86H87.15a.85.85,0,0,1-.84-.84v-29.6a.85.85,0,0,1,.84-.84H307.48a.85.85,0,0,1,.84.84V481A.85.85,0,0,1,307.48,481.86ZM88,480.18H306.65V452.25H88Z"/><path class="cls-5" d="M149.48,648.15c0-12-11.53-26.55-17-34.1a3,3,0,0,0-2.4-1.16h0a2.91,2.91,0,0,0-2.39,1.16c-5.46,7.55-17,22.09-17,34.1s7.93,18.07,19.39,18.07h0C141.55,666.22,149.48,660.16,149.48,648.15Z"/><rect class="cls-6" x="189.54" y="409.52" width="144.19" height="113.39" rx="10.52"/><rect class="cls-4" x="203.39" y="470.93" width="3.23" height="38.89"/><rect class="cls-4" x="208.39" y="470.93" width="1.44" height="38.89"/><rect class="cls-4" x="212.28" y="470.93" width="3.2" height="38.89"/><rect class="cls-4" x="217.36" y="470.93" width="3.2" height="38.89"/><rect class="cls-4" x="222.44" y="470.93" width="1.28" height="38.89"/><rect class="cls-4" x="226.88" y="470.93" width="1.28" height="38.89"/><rect class="cls-4" x="230.05" y="470.93" width="2.55" height="38.89"/><rect class="cls-4" x="234.5" y="470.93" width="3.67" height="38.89"/><rect class="cls-4" x="239.58" y="470.93" width="1.26" height="38.89"/><rect class="cls-4" x="244.11" y="470.93" width="1.09" height="38.89"/><rect class="cls-4" x="247.83" y="470.93" width="0.71" height="38.89"/><rect class="cls-4" x="250.33" y="470.93" width="4.49" height="38.89"/><rect class="cls-4" x="257.3" y="470.93" width="1.39" height="38.89"/><rect class="cls-4" x="261.16" y="470.93" width="2.55" height="38.89"/><rect class="cls-4" x="265.61" y="470.93" width="2.55" height="38.89"/><rect class="cls-4" x="271.33" y="470.93" width="1.28" height="38.89"/><path class="cls-4" d="M318.7,429.27H203.39a.84.84,0,1,1,0-1.67H318.7a.84.84,0,0,1,0,1.67Z"/><path class="cls-4" d="M318.7,440.76H203.39a.84.84,0,1,1,0-1.67H318.7a.84.84,0,0,1,0,1.67Z"/><path class="cls-4" d="M318.7,452.25H203.39a.84.84,0,0,1-.84-.83.85.85,0,0,1,.84-.84H318.7a.84.84,0,0,1,.83.84A.83.83,0,0,1,318.7,452.25Z"/><path class="cls-4" d="M307.48,594.35H173a.84.84,0,0,1-.84-.83.85.85,0,0,1,.84-.84H307.48a.85.85,0,0,1,.84.84A.84.84,0,0,1,307.48,594.35Z"/><path class="cls-4" d="M307.48,610.28H173a.85.85,0,0,1-.84-.84.84.84,0,0,1,.84-.83H307.48a.84.84,0,0,1,.84.83A.85.85,0,0,1,307.48,610.28Z"/><path class="cls-4" d="M160.93,510.52h-64a.84.84,0,0,1-.84-.83.85.85,0,0,1,.84-.84h64a.85.85,0,0,1,.84.84A.84.84,0,0,1,160.93,510.52Z"/><path class="cls-4" d="M160.93,519.54h-64a.84.84,0,0,1-.84-.83.85.85,0,0,1,.84-.84h64a.85.85,0,0,1,.84.84A.84.84,0,0,1,160.93,519.54Z"/><path class="cls-4" d="M160.93,528.56h-64a.84.84,0,0,1-.84-.83.85.85,0,0,1,.84-.84h64a.85.85,0,0,1,.84.84A.84.84,0,0,1,160.93,528.56Z"/><path class="cls-4" d="M160.93,537.58h-64a.84.84,0,0,1-.84-.83.85.85,0,0,1,.84-.84h64a.85.85,0,0,1,.84.84A.84.84,0,0,1,160.93,537.58Z"/><path class="cls-4" d="M160.93,546.6h-64a.84.84,0,0,1-.84-.83.85.85,0,0,1,.84-.84h64a.85.85,0,0,1,.84.84A.84.84,0,0,1,160.93,546.6Z"/><path class="cls-4" d="M254.44,626.89h-64a.84.84,0,1,1,0-1.68h64a.84.84,0,0,1,0,1.68Z"/><path class="cls-4" d="M254.44,635.91h-64a.84.84,0,0,1,0-1.68h64a.84.84,0,0,1,0,1.68Z"/><path class="cls-4" d="M254.44,644.93h-64a.84.84,0,0,1,0-1.68h64a.84.84,0,0,1,0,1.68Z"/><path class="cls-4" d="M254.44,654h-64a.84.84,0,1,1,0-1.68h64a.84.84,0,0,1,0,1.68Z"/><path class="cls-4" d="M254.44,663h-64a.84.84,0,1,1,0-1.68h64a.84.84,0,0,1,0,1.68Z"/><path class="cls-5" d="M281.39,655.26H277a1.8,1.8,0,0,1-1.79-1.8V648.1h-5.37a1.8,1.8,0,0,1-1.79-1.8v-4.42a1.8,1.8,0,0,1,1.79-1.8h5.37v-5.36a1.8,1.8,0,0,1,1.79-1.8h4.42a1.81,1.81,0,0,1,1.8,1.8v5.36h5.36a1.81,1.81,0,0,1,1.8,1.8v4.42a1.81,1.81,0,0,1-1.8,1.8h-5.36v5.36A1.81,1.81,0,0,1,281.39,655.26Zm-11.58-13.5a.12.12,0,0,0-.12.12v4.42a.12.12,0,0,0,.12.12h7v7a.12.12,0,0,0,.12.12h4.42a.12.12,0,0,0,.12-.12v-7h7a.12.12,0,0,0,.13-.12v-4.42a.12.12,0,0,0-.13-.12h-7v-7a.12.12,0,0,0-.12-.12H277a.12.12,0,0,0-.12.12v7Z"/><rect class="cls-7" x="176.13" y="272.54" width="38.37" height="27.22" rx="8.17"/><rect class="cls-8" x="88.92" y="229.91" width="32.78" height="69.85" rx="7.1"/><path class="cls-9" d="M117.17,245.5H92.81a.77.77,0,0,1-.77-.78.76.76,0,0,1,.77-.77h24.36a.77.77,0,0,1,.77.77A.78.78,0,0,1,117.17,245.5Z"/><path class="cls-9" d="M117.17,252.58H92.81a.77.77,0,1,1,0-1.54h24.36a.77.77,0,0,1,0,1.54Z"/><path class="cls-10" d="M100.77,279.35h9a3.91,3.91,0,0,1,3.91,3.91v16.5a0,0,0,0,1,0,0H96.87a0,0,0,0,1,0,0v-16.5A3.91,3.91,0,0,1,100.77,279.35Z"/><rect class="cls-8" x="268.94" y="230.58" width="32.78" height="69.85" rx="7.1" transform="translate(570.65 531.01) rotate(180)"/><path class="cls-9" d="M273.46,246.17h24.36a.78.78,0,0,0,0-1.55H273.46a.78.78,0,0,0,0,1.55Z"/><path class="cls-9" d="M273.46,253.25h24.36a.77.77,0,0,0,0-1.54H273.46a.77.77,0,1,0,0,1.54Z"/><path class="cls-10" d="M277,280h16.77a0,0,0,0,1,0,0v16.5a3.91,3.91,0,0,1-3.91,3.91h-9a3.91,3.91,0,0,1-3.91-3.91V280A0,0,0,0,1,277,280Z" transform="translate(570.75 580.45) rotate(180)"/></g></g></g></svg>