<svg xmlns="http://www.w3.org/2000/svg" xmlns:xlink="http://www.w3.org/1999/xlink" viewBox="0 0 140.47 144.2"><defs><style>.cls-1{mask:url(#mask);filter:url(#luminosity-noclip-7);}.cls-10,.cls-12,.cls-14,.cls-2,.cls-29,.cls-35,.cls-4,.cls-6,.cls-8{mix-blend-mode:multiply;}.cls-2{fill:url(#linear-gradient);}.cls-3{mask:url(#mask-2);filter:url(#luminosity-noclip-12);}.cls-4{fill:url(#radial-gradient);}.cls-5{mask:url(#mask-3);filter:url(#luminosity-noclip-8);}.cls-6{fill:url(#radial-gradient-2);}.cls-7{mask:url(#mask-4);filter:url(#luminosity-noclip-9);}.cls-8{fill:url(#radial-gradient-3);}.cls-9{mask:url(#mask-5);filter:url(#luminosity-noclip-10);}.cls-10{fill:url(#radial-gradient-4);}.cls-11{mask:url(#mask-6);filter:url(#luminosity-noclip-11);}.cls-12{fill:url(#radial-gradient-5);}.cls-13{isolation:isolate;}.cls-14{fill:#ccc;}.cls-15,.cls-17{fill:#cad4d7;}.cls-15{opacity:0.7;}.cls-16{fill:none;stroke-width:3px;}.cls-16,.cls-30,.cls-34,.cls-39{stroke:#000;stroke-miterlimit:10;}.cls-17{opacity:0.8;}.cls-18{fill:#2ba5af;}.cls-19{mask:url(#mask-7);}.cls-20{mask:url(#mask-8);}.cls-21{mask:url(#mask-9);}.cls-22{mask:url(#mask-10);}.cls-23{mask:url(#mask-11);}.cls-24,.cls-45{opacity:0.6;}.cls-24{fill:url(#radial-gradient-6);}.cls-25{mask:url(#mask-12);}.cls-26,.cls-28,.cls-36{fill:#fff;}.cls-26,.cls-48{mix-blend-mode:screen;}.cls-27,.cls-30{fill:#ff0;}.cls-29{fill:#e5e5e5;}.cls-30{stroke-width:2px;}.cls-31{fill:#fffc9f;}.cls-32,.cls-44{fill:#616161;}.cls-32,.cls-33,.cls-34,.cls-35,.cls-36,.cls-39,.cls-52,.cls-53,.cls-54{fill-rule:evenodd;}.cls-33,.cls-50{fill:#bdc2c3;}.cls-34,.cls-46{fill:#ebecec;}.cls-34,.cls-39{stroke-width:0.5px;}.cls-35{fill:#a3a9a9;opacity:0.4;}.cls-37{fill:#3ea2af;}.cls-38{fill:#16bbd9;}.cls-39{fill:#8f9799;}.cls-40{fill:#22839f;}.cls-41{fill:#30a7bf;}.cls-42{fill:#00647e;}.cls-43{opacity:0.5;}.cls-47{fill:#a0a5a3;}.cls-49{fill:#80e1e4;}.cls-51,.cls-54{fill:#313738;}.cls-52{fill:#485151;}.cls-53,.cls-55{fill:#8a8e8f;}.cls-56{fill:#f15256;}.cls-57{filter:url(#luminosity-noclip-6);}.cls-58{filter:url(#luminosity-noclip-5);}.cls-59{filter:url(#luminosity-noclip-4);}.cls-60{filter:url(#luminosity-noclip-3);}.cls-61{filter:url(#luminosity-noclip-2);}.cls-62{filter:url(#luminosity-noclip);}</style><filter id="luminosity-noclip" x="13.56" y="-8219.99" width="51.07" height="32766" filterUnits="userSpaceOnUse" color-interpolation-filters="sRGB"><feFlood flood-color="#fff" result="bg"/><feBlend in="SourceGraphic" in2="bg"/></filter><mask id="mask" x="13.56" y="-8219.99" width="51.07" height="32766" maskUnits="userSpaceOnUse"><g class="cls-62"/></mask><linearGradient id="linear-gradient" x1="1744.23" y1="119.01" x2="1795.3" y2="119.01" gradientTransform="translate(-1731.1 14.95) rotate(-0.22)" gradientUnits="userSpaceOnUse"><stop offset="0" stop-color="#fff"/><stop offset="0.23" stop-color="#333"/><stop offset="0.5" stop-color="#fff"/><stop offset="0.76" stop-color="#333"/><stop offset="0.88" stop-color="#979797"/><stop offset="1" stop-color="#fff"/></linearGradient><filter id="luminosity-noclip-2" x="49.09" y="-8219.99" width="13.97" height="32766" filterUnits="userSpaceOnUse" color-interpolation-filters="sRGB"><feFlood flood-color="#fff" result="bg"/><feBlend in="SourceGraphic" in2="bg"/></filter><mask id="mask-2" x="49.09" y="-8219.99" width="13.97" height="32766" maskUnits="userSpaceOnUse"><g class="cls-61"/></mask><radialGradient id="radial-gradient" cx="1784.88" cy="37.7" r="59.41" gradientTransform="translate(-1731.1 14.95) rotate(-0.22)" gradientUnits="userSpaceOnUse"><stop offset="0" stop-color="#2f2f2f"/><stop offset="0.34" stop-color="#fff"/><stop offset="0.63" stop-color="#fff"/><stop offset="0.89"/></radialGradient><filter id="luminosity-noclip-3" x="18.79" y="-8219.99" width="40.06" height="32766" filterUnits="userSpaceOnUse" color-interpolation-filters="sRGB"><feFlood flood-color="#fff" result="bg"/><feBlend in="SourceGraphic" in2="bg"/></filter><mask id="mask-3" x="18.79" y="-8219.99" width="40.06" height="32766" maskUnits="userSpaceOnUse"><g class="cls-60"/></mask><radialGradient id="radial-gradient-2" cx="1768.43" cy="127.45" r="21.18" gradientTransform="translate(-1731.1 14.95) rotate(-0.22)" gradientUnits="userSpaceOnUse"><stop offset="0.23" stop-color="#fff"/><stop offset="0.44" stop-color="#fff"/><stop offset="0.97"/></radialGradient><filter id="luminosity-noclip-4" x="13.68" y="-8219.99" width="13.23" height="32766" filterUnits="userSpaceOnUse" color-interpolation-filters="sRGB"><feFlood flood-color="#fff" result="bg"/><feBlend in="SourceGraphic" in2="bg"/></filter><mask id="mask-4" x="13.68" y="-8219.99" width="13.23" height="32766" maskUnits="userSpaceOnUse"><g class="cls-59"/></mask><radialGradient id="radial-gradient-3" cx="1747.47" cy="49.81" r="16.98" gradientTransform="translate(-1731.1 14.95) rotate(-0.22)" gradientUnits="userSpaceOnUse"><stop offset="0.06"/><stop offset="0.23" stop-color="#666"/><stop offset="0.47" stop-color="#fff"/><stop offset="0.92" stop-color="#fff"/><stop offset="0.93" stop-color="#eaeaea"/><stop offset="0.94" stop-color="#b4b4b4"/><stop offset="0.96" stop-color="#5d5d5d"/><stop offset="0.98"/></radialGradient><filter id="luminosity-noclip-5" x="50.78" y="-8219.99" width="13.43" height="32766" filterUnits="userSpaceOnUse" color-interpolation-filters="sRGB"><feFlood flood-color="#fff" result="bg"/><feBlend in="SourceGraphic" in2="bg"/></filter><mask id="mask-5" x="50.78" y="-8219.99" width="13.43" height="32766" maskUnits="userSpaceOnUse"><g class="cls-58"/></mask><radialGradient id="radial-gradient-4" cx="-2275.3" cy="49.53" r="16.98" gradientTransform="matrix(-1, 0, 0, 1, -2214.28, 17.06)" xlink:href="#radial-gradient-3"/><filter id="luminosity-noclip-6" x="63.11" y="-8219.99" width="1.53" height="32766" filterUnits="userSpaceOnUse" color-interpolation-filters="sRGB"><feFlood flood-color="#fff" result="bg"/><feBlend in="SourceGraphic" in2="bg"/></filter><mask id="mask-6" x="63.11" y="-8219.99" width="1.53" height="32766" maskUnits="userSpaceOnUse"><g class="cls-57"/></mask><radialGradient id="radial-gradient-5" cx="1794.11" cy="85.44" r="26.51" gradientTransform="translate(-1731.1 14.95) rotate(-0.22)" gradientUnits="userSpaceOnUse"><stop offset="0" stop-color="#454545"/><stop offset="0.25" stop-color="#fff"/><stop offset="0.62" stop-color="#fff"/><stop offset="0.67" stop-color="#fcfcfc"/><stop offset="0.72" stop-color="#f1f1f1"/><stop offset="0.77" stop-color="#e0e0e0"/><stop offset="0.81" stop-color="#c7c7c7"/><stop offset="0.86" stop-color="#a7a7a7"/><stop offset="0.9" stop-color="gray"/><stop offset="0.94" stop-color="#515151"/><stop offset="0.98" stop-color="#1d1d1d"/><stop offset="1"/></radialGradient><filter id="luminosity-noclip-7" x="13.56" y="116.85" width="51.07" height="20.68" filterUnits="userSpaceOnUse" color-interpolation-filters="sRGB"><feFlood flood-color="#fff" result="bg"/><feBlend in="SourceGraphic" in2="bg"/></filter><mask id="mask-7" x="13.56" y="116.85" width="51.07" height="20.68" maskUnits="userSpaceOnUse"><g class="cls-1"><path class="cls-2" d="M13.77,117.15s-.59,9,3,12.35,6.46,5.9,20.39,5.84,22-1.43,24.81-6.84a22.05,22.05,0,0,0,2.45-11.65s1.17,8.31-1.51,12.89-6.52,7.72-25.64,7.79-20.91-6.05-21.74-7.3S13,124.22,13.77,117.15Z"/></g></mask><filter id="luminosity-noclip-8" x="18.79" y="132.82" width="40.06" height="3.67" filterUnits="userSpaceOnUse" color-interpolation-filters="sRGB"><feFlood flood-color="#fff" result="bg"/><feBlend in="SourceGraphic" in2="bg"/></filter><mask id="mask-8" x="18.79" y="132.82" width="40.06" height="3.67" maskUnits="userSpaceOnUse"><g class="cls-5"><path class="cls-6" d="M18.79,132.82s4.53,3.85,19,3.67c17.69-.23,20.25-3,21-3.67,0,0-5.44,3-20.9,2.91C26.93,135.68,20.17,133.72,18.79,132.82Z"/></g></mask><filter id="luminosity-noclip-9" x="13.68" y="44.86" width="13.23" height="31.45" filterUnits="userSpaceOnUse" color-interpolation-filters="sRGB"><feFlood flood-color="#fff" result="bg"/><feBlend in="SourceGraphic" in2="bg"/></filter><mask id="mask-9" x="13.68" y="44.86" width="13.23" height="31.45" maskUnits="userSpaceOnUse"><g class="cls-7"><path class="cls-8" d="M13.83,76.31s-.87-9.14,1.6-14a40.78,40.78,0,0,1,8.49-11,6.34,6.34,0,0,0,2.16-5.2c.1-1.46.82-2,.83.2s-.3,3.22-2.37,5.31-5.42,4.64-8.66,10.89C13.33,67.45,13.83,76.31,13.83,76.31Z"/></g></mask><filter id="luminosity-noclip-10" x="50.78" y="44.77" width="13.43" height="31.35" filterUnits="userSpaceOnUse" color-interpolation-filters="sRGB"><feFlood flood-color="#fff" result="bg"/><feBlend in="SourceGraphic" in2="bg"/></filter><mask id="mask-10" x="50.78" y="44.77" width="13.43" height="31.35" maskUnits="userSpaceOnUse"><g class="cls-9"><path class="cls-10" d="M64.09,76.12s.8-9.15-1.72-14a40.66,40.66,0,0,0-8.56-10.88A6.33,6.33,0,0,1,51.61,46c-.11-1.45-.84-2-.83.21s.32,3.22,2.41,5.29,5.45,4.6,8.74,10.83C64.52,67.26,64.09,76.12,64.09,76.12Z"/></g></mask><filter id="luminosity-noclip-11" x="63.11" y="69.83" width="1.53" height="56.43" filterUnits="userSpaceOnUse" color-interpolation-filters="sRGB"><feFlood flood-color="#fff" result="bg"/><feBlend in="SourceGraphic" in2="bg"/></filter><mask id="mask-11" x="63.11" y="69.83" width="1.53" height="56.43" maskUnits="userSpaceOnUse"><g class="cls-11"><path class="cls-12" d="M64.23,72.17s.32,42.63.41,44.58-.52,7.48-1.53,9.51c0,0,.93-2.81,1-10.6S63.93,74,63.92,72.17,64.22,68,64.23,72.17Z"/></g></mask><radialGradient id="radial-gradient-6" cx="1794.11" cy="85.44" r="26.51" gradientTransform="translate(-1731.1 14.95) rotate(-0.22)" gradientUnits="userSpaceOnUse"><stop offset="0" stop-color="#bec1c6"/><stop offset="0.25" stop-color="#dad6d7"/><stop offset="0.62" stop-color="#f6f5f6"/><stop offset="0.71" stop-color="#f3f2f3"/><stop offset="0.79" stop-color="#e8e9ec"/><stop offset="0.86" stop-color="#d7dade"/><stop offset="0.93" stop-color="#bec4cc"/><stop offset="1" stop-color="#9fa9b4"/></radialGradient><filter id="luminosity-noclip-12" x="49.09" y="43.85" width="13.97" height="70.56" filterUnits="userSpaceOnUse" color-interpolation-filters="sRGB"><feFlood flood-color="#fff" result="bg"/><feBlend in="SourceGraphic" in2="bg"/></filter><mask id="mask-12" x="49.09" y="43.85" width="13.97" height="70.56" maskUnits="userSpaceOnUse"><g class="cls-3"><path class="cls-4" d="M49.09,44.33s0,5.61,1.58,7.32,8.91,7,10.5,15.08,1.67,47.68,1.67,47.68.24-38.81.22-43.33-1.19-11-6.19-15.51-5.63-4.86-5.95-6.52a49.68,49.68,0,0,1-.43-5.2Z"/></g></mask></defs><title>serum_4</title><g class="cls-13"><g id="Calque_2" data-name="Calque 2"><g id="Layer_1" data-name="Layer 1"><path class="cls-14" d="M140.47,137.77c0,3.55-31.45,6.43-70.24,6.43S0,141.32,0,137.77s31.45-6.44,70.23-6.44S140.47,134.21,140.47,137.77Z"/><path class="cls-15" d="M52.36,43.85l0-6.62-27.12.11,0,6.61c0,5-.68,5.85-3.87,9s-8.53,8.77-8.49,19.83l.18,47.7c0,5,.67,11.68,6.44,14.62,4.2,2.14,11.24,3.06,19.65,3s15.46-1,19.63-3.17c5.76-3,6.36-9.69,6.34-14.68l-.18-47.69c0-11.07-5.44-16.59-8.65-19.77S52.38,48.84,52.36,43.85Z"/><path class="cls-16" d="M52.46,43.65l0-6.61-27.12.1,0,6.61c0,5-.68,5.85-3.87,9.06S12.94,61.57,13,72.63l.18,47.7c0,5,.66,11.69,6.44,14.63,4.2,2.13,11.24,3.06,19.65,3s15.45-1,19.63-3.17c5.76-3,6.36-9.69,6.34-14.68L65,72.44C65,61.37,59.6,55.86,56.39,52.68S52.48,48.64,52.46,43.65Z"/><path class="cls-17" d="M64.55,67.91H13.26a30.06,30.06,0,0,0-.38,4.92l.18,47.7c0,5,.67,11.68,6.44,14.62,4.2,2.14,11.24,3.06,19.65,3s15.46-1,19.63-3.17c5.76-3,6.36-9.69,6.34-14.68l-.18-47.69A31.31,31.31,0,0,0,64.55,67.91Z"/><path class="cls-18" d="M56.29,52.87c-3.21-3.18-3.91-4-3.93-9l0-6.62-27.12.11,0,6.61c0,5-.68,5.85-3.87,9s-8.53,8.77-8.49,19.83l.18,47.7c0,5,.67,11.68,6.44,14.62,4.2,2.14,11.24,3.06,19.65,3s15.46-1,19.63-3.17c5.76-3,6.36-9.69,6.34-14.68l-.18-47.69C64.9,61.57,59.5,56.05,56.29,52.87Zm7.4,65c0,4.67-.55,11-6,13.75-4,2-10.6,3-18.56,3s-14.61-.84-18.58-2.84c-5.46-2.75-6.07-9-6.09-13.71l-.17-44.7c0-10.37,5-15.58,8-18.59s5.74-3.82,5.72-8.49l0-6.2L49.46,40l0,6.2c0,4.67,2.83,5.47,5.86,8.45s8.14,8.15,8.18,18.52Z"/><g class="cls-19"><path class="cls-15" d="M13.77,117.15s-.59,9,3,12.35,6.46,5.9,20.39,5.84,22-1.43,24.81-6.84a22.05,22.05,0,0,0,2.45-11.65s1.17,8.31-1.51,12.89-6.52,7.72-25.64,7.79-20.91-6.05-21.74-7.3S13,124.22,13.77,117.15Z"/></g><g class="cls-20"><path class="cls-15" d="M18.79,132.82s4.53,3.85,19,3.67c17.69-.23,20.25-3,21-3.67,0,0-5.44,3-20.9,2.91C26.93,135.68,20.17,133.72,18.79,132.82Z"/></g><g class="cls-21"><path class="cls-15" d="M13.83,76.31s-.87-9.14,1.6-14a40.78,40.78,0,0,1,8.49-11,6.34,6.34,0,0,0,2.16-5.2c.1-1.46.82-2,.83.2s-.3,3.22-2.37,5.31-5.42,4.64-8.66,10.89C13.33,67.45,13.83,76.31,13.83,76.31Z"/></g><g class="cls-22"><path class="cls-15" d="M64.09,76.12s.8-9.15-1.72-14a40.66,40.66,0,0,0-8.56-10.88A6.33,6.33,0,0,1,51.61,46c-.11-1.45-.84-2-.83.21s.32,3.22,2.41,5.29,5.45,4.6,8.74,10.83C64.52,67.26,64.09,76.12,64.09,76.12Z"/></g><g class="cls-23"><path class="cls-24" d="M64.23,72.17s.32,42.63.41,44.58-.52,7.48-1.53,9.51c0,0,.93-2.81,1-10.6S63.93,74,63.92,72.17,64.22,68,64.23,72.17Z"/></g><g class="cls-25"><path class="cls-26" d="M49.09,44.33s0,5.61,1.58,7.32,8.91,7,10.5,15.08,1.67,47.68,1.67,47.68.24-38.81.22-43.33-1.19-11-6.19-15.51-5.63-4.86-5.95-6.52a49.68,49.68,0,0,1-.43-5.2Z"/></g><path class="cls-27" d="M15.4,80.23a1,1,0,0,0-1.1,1c0,6.66.19,39.15.19,39.15,0,.59,0,1.21,0,1.84a1,1,0,0,0,.83.94c8.3,1.2,39.59,1,48.29-.5a1,1,0,0,0,.81-1c0-.52,0-1,0-1.51l-.14-39.42a1,1,0,0,0-1.12-1C54.19,81.21,24,81.37,15.4,80.23Z"/><path class="cls-28" d="M14.31,80.16c-.06-.73.18,32.39.18,32.39,0,.67,0,1.39.08,2.13,7.08,1.1,42.27.94,49.93-.42,0-.65,0-1.27,0-1.87L64.4,79.77C56.77,81.13,21.39,81.27,14.31,80.16Z"/><path class="cls-29" d="M64.4,79.21c-2.69.58-5.54,1.06-8.51,1.47v43.49c3-.4,5.89-.9,8.61-1.49,0-.81,0-1.6,0-2.35Z"/><path class="cls-29" d="M18.59,80c-1.61-.24-3.2-.49-4.71-.78-.07-.93.18,40.83.18,40.83,0,.85,0,1.76.09,2.68,1.44.28,2.93.28,4.44.5Z"/><path class="cls-30" d="M60.18,36a7,7,0,0,1-7,7H24.79a7,7,0,0,1-7-7h0a7,7,0,0,1,7-7h28.4a7,7,0,0,1,7,7Z"/><path class="cls-27" d="M60.18,36a7,7,0,0,1-7,7H24.79a7,7,0,0,1-7-7h0a7,7,0,0,1,7-7h28.4a7,7,0,0,1,7,7Z"/><path class="cls-31" d="M47.3,35.06a4.56,4.56,0,0,1-4.56,4.55H24.25a4.56,4.56,0,0,1-4.56-4.55h0a4.56,4.56,0,0,1,4.56-4.56H42.74a4.56,4.56,0,0,1,4.56,4.56Z"/><path class="cls-32" d="M58.82,30.27l27.76,48.2a.66.66,0,0,0,.91.09l14.41-8.3c.36-.2.53-.57.38-.83L74.52,21.23Z"/><path class="cls-33" d="M60.61,30.55,87.25,76.8a.63.63,0,0,0,.87.09l11.73-6.76a.64.64,0,0,0,.36-.8L73.57,23.08Z"/><path class="cls-34" d="M52.31,7.06,57,4.35c2.1,3.66,5.07,6.32,7.21,10l5.27,9.16L79.63,41.13,72.56,45.2,62.44,27.62l-5.28-9.16C55,14.67,54.44,10.76,52.31,7.06Z"/><path class="cls-35" d="M79.63,41.13c-.56-1-.85-1.47-1.41-2.44-1.38,1.2-3.69,1.72-4.56.23-2.11-3.6-4.36-7.21-6.27-10.89-.78-1.49.8-3.23,2.48-3.85l-.8-1.39c-1.35,1.33-3.84,2-4.75.41-2.74-4.75-5.73-9.38-7.65-14.54-.91-1.58-.71-2.47,1.12-3L57,4.35,52.31,7.06c2.13,3.7,2.67,7.61,4.85,11.4l5.28,9.16L72.56,45.2Z"/><path class="cls-35" d="M75.18,37.67,71.6,39.73a3.83,3.83,0,0,1-1.88.53l2.84,4.94,7.07-4.07c-1.17-2-1.75-3-2.91-5.06A3.86,3.86,0,0,1,75.18,37.67Z"/><path class="cls-36" d="M66.76,28.25a.6.6,0,0,1,.34-.75h0a.61.61,0,0,1,.83.08l6.42,11.15a.6.6,0,0,1-.34.75h0a.59.59,0,0,1-.82-.08Z"/><path class="cls-36" d="M55.9,7.63A.31.31,0,0,1,56,7.21h0c.11-.06.26,0,.36.19L66,24.31c.1.17-.09.45-.41.63h0c-.32.19-.65.2-.75,0A168.51,168.51,0,0,1,55.9,7.63Z"/><path class="cls-37" d="M105.67,77.4a24.45,24.45,0,0,1-6.77,5.43c-4.65,2.67-7.52,2.8-7.52,2.8L71.13,50.47l14.29-8.23Z"/><path class="cls-38" d="M103.68,77.91a15.37,15.37,0,0,1-5.07,4.42c-3.58,2.06-5.94,1.91-5.94,1.91l-20-34.67,11-6.34Z"/><path class="cls-39" d="M131.2,138s-.51-2.8-4.65-9.81-21-36.49-21-36.49l-1.35.77,20.67,35.89C127.57,133.09,131.36,139.31,131.2,138Z"/><path d="M131,138.4c-.27,0-.94-.92-6.24-10.12L104,92.18l.94-.55.12.22c.17.3,17,29.53,21,36.49a98.13,98.13,0,0,1,5.14,9.58h0c0,.09.13.35-.1.46Zm-26.35-46L125.19,128c1.23,2.14,2.35,4.06,3.28,5.62-.73-1.33-1.66-3-2.86-5.06C121.75,122,106.28,95,104.72,92.32Z"/><path class="cls-40" d="M97.71,86.39l4.79,6.45a4.5,4.5,0,0,0,2.71-.63,3.05,3.05,0,0,0,1.63-1.87l-3.21-7.43Z"/><path d="M102.87,93.24a3.26,3.26,0,0,1-.43,0l-.15,0-5.12-6.91,6.64-3.91,3.42,7.92,0,.12a3.43,3.43,0,0,1-1.81,2.12A5.06,5.06,0,0,1,102.87,93.24Zm-.17-.76a4.16,4.16,0,0,0,2.32-.6,3,3,0,0,0,1.43-1.51l-3-6.92-5.2,3Z"/><path class="cls-41" d="M99.62,86.51c1,1.5,2.09,3,3.08,4.55.3.46.6.92.91,1.36a5,5,0,0,0,1.4-.55,3.92,3.92,0,0,0,1.35-1.21c-.46-1.09-1-2.16-1.42-3.26s-.86-2.17-1.38-3.22A13.46,13.46,0,0,1,99.62,86.51Z"/><path class="cls-42" d="M95.7,86.12l1.17,1a18.33,18.33,0,0,0,3.88-1.45,16.81,16.81,0,0,0,4-3.06l-.47-1.94Z"/><path d="M96.8,87.43l-1.51-1.34,9.1-5.78.58,2.41-.09.1a16.94,16.94,0,0,1-4,3.11,18.12,18.12,0,0,1-3.93,1.47Zm-.68-1.28.82.73a19.11,19.11,0,0,0,3.7-1.39,16.61,16.61,0,0,0,3.78-2.91l-.35-1.47Z"/><path class="cls-41" d="M102.65,81.71l-4.8,3.05c.39.58.81,1.14,1.24,1.69a17.5,17.5,0,0,0,1.66-.74,13.56,13.56,0,0,0,2.67-1.86C103.17,83.14,102.91,82.43,102.65,81.71Z"/><g class="cls-43"><path class="cls-40" d="M100.75,85.71a16.08,16.08,0,0,0,3.55-2.66c-.08-.27-.16-.55-.23-.83a20.12,20.12,0,0,1-3.47,2.48,26.38,26.38,0,0,1-3.51,1.59c.18.22.35.44.52.67"/></g><path class="cls-44" d="M93,85.89a7.52,7.52,0,0,1,.75.8,6.83,6.83,0,0,0,2.81-.57c1.54-.64,4.53-2.22,4.53-2.22,2.35-1.45,3.73-2.44,4.36-3.66l-.22-1.54Z"/><path d="M93.89,87h-.26l-.08-.09a5.57,5.57,0,0,0-.71-.77l-.26-.23.3-.18,12.55-7.37.28,2,0,.07c-.65,1.25-2,2.24-4.46,3.75,0,0-3,1.6-4.56,2.24A7.43,7.43,0,0,1,93.89,87Zm-.48-1a5,5,0,0,1,.46.51,7,7,0,0,0,2.6-.56c1.5-.63,4.47-2.2,4.5-2.21,2.31-1.43,3.62-2.37,4.23-3.48L105,79.11Z"/><g class="cls-45"><path class="cls-46" d="M104,79.46c.17.66.42,1.29.63,1.93a4.92,4.92,0,0,0,.53-.61,16.14,16.14,0,0,1-.38-1.78Z"/></g><g class="cls-45"><path class="cls-46" d="M103,80l-9.25,5.43c.29.4.59.8.89,1.19a7.42,7.42,0,0,0,1.94-.53c1.54-.64,4.53-2.22,4.53-2.22A29.47,29.47,0,0,0,103.85,82Z"/></g><path class="cls-44" d="M99.4,83.22a29.62,29.62,0,0,1-8,3.27l-.44.09L58.52,30.23l1.07-.62,32,55.56a32.17,32.17,0,0,0,13.54-7.81l-32-55.55,1.08-.62,32.46,56.37-.33.34A33,33,0,0,1,99.4,83.22Z"/><path d="M90.85,86.86l-.09-.16L58.18,30.14l1.5-.87,32,55.61a31.85,31.85,0,0,0,13.1-7.57l-32-55.59,1.51-.87.12.22L107,77.6l-.46.47a33.21,33.21,0,0,1-7,5.37h0a29.67,29.67,0,0,1-8.06,3.29Zm-32-56.54,32.24,56,.26-.06A28.87,28.87,0,0,0,99.27,83h0a32.48,32.48,0,0,0,6.89-5.28l.2-.2-32.25-56-.63.37,32,55.5-.14.14a32.3,32.3,0,0,1-13.65,7.87l-.18,0L59.5,30Z"/><path class="cls-47" d="M99.45,83a21.71,21.71,0,0,1-7.84,2.87l-.43.09L58.52,30.23l1.07-.62,32,55.56a32.17,32.17,0,0,0,13.54-7.81l-32-55.55,1.08-.62L106,77.39l-.33.34A29.84,29.84,0,0,1,99.45,83Z"/><path d="M91.11,86.06l0-.07L58.35,30.18l1.29-.74.06.11L91.65,85A31.84,31.84,0,0,0,105,77.34L73,21.77,74.25,21l.06.11,31.87,56.28-.4.4a29.85,29.85,0,0,1-6.26,5.26h0a23.19,23.19,0,0,1-7.79,2.87l-.09,0ZM58.69,30.27,91.24,85.78l.35-.07.11,0a22.7,22.7,0,0,0,7.69-2.84h0a29.62,29.62,0,0,0,6.21-5.21l.27-.27-31.71-56-.86.5,32,55.52-.07.07a32.2,32.2,0,0,1-13.59,7.84l-.09,0,0-.08L59.54,29.78Z"/><g class="cls-48"><path class="cls-49" d="M76.09,50.33a.7.7,0,0,1,.26-1h0a.71.71,0,0,1,1,.26L95.66,81.5a.7.7,0,0,1-.25,1h0a.7.7,0,0,1-1-.26"/></g><g class="cls-45"><path class="cls-46" d="M91.39,85.39s8.66-1.88,14.18-8.24A20.6,20.6,0,0,1,91.39,85.39Z"/></g><path class="cls-46" d="M60.22,32.15,91.21,86s.26-.43-1.76-4S64.32,38.28,62.9,35.82A17.45,17.45,0,0,0,60.22,32.15Z"/><path class="cls-46" d="M75.05,23.56l31,53.82s-.5,0-2.62-3.56S78.3,30.19,76.88,27.72A17.72,17.72,0,0,1,75.05,23.56Z"/><path class="cls-47" d="M55.83,30.88l.78,1.37A19.42,19.42,0,0,0,59.94,31c1.48-.77,4.83-2.77,6.7-3.86,2.09-1.2,6.56-3.61,7.84-4.35a23,23,0,0,0,3.11-2.42l-.89-1.55a64.34,64.34,0,0,0-11.58,5.56C57.67,28.64,55.83,30.88,55.83,30.88Z"/><path d="M56.49,32.54l-1-1.68.11-.13c.08-.1,2-2.34,9.37-6.6a64.79,64.79,0,0,1,11.62-5.58l.19-.06,1.09,1.89-.14.13A23.21,23.21,0,0,1,74.61,23c-.57.33-1.77,1-3.11,1.73-1.67.92-3.57,2-4.73,2.63l-2.08,1.21c-1.69,1-3.61,2.12-4.63,2.66a20.17,20.17,0,0,1-3.38,1.3Zm-.36-1.62.6,1a19.74,19.74,0,0,0,3.1-1.21c1-.53,2.92-1.65,4.6-2.64l2.09-1.21c1.16-.67,3.06-1.72,4.74-2.64,1.34-.74,2.53-1.39,3.1-1.72a21.79,21.79,0,0,0,2.91-2.25l-.69-1.19a68.29,68.29,0,0,0-11.33,5.47C58.92,28.21,56.64,30.39,56.13,30.92Z"/><path class="cls-50" d="M56.53,30.5l.59,1a23.3,23.3,0,0,0,3.11-1.32c1.41-.75,4.59-2.64,6.38-3.67,2-1.14,6.22-3.46,7.44-4.17a27.6,27.6,0,0,0,3-2.2L76.39,19a76.72,76.72,0,0,0-10.91,5.46C58.39,28.54,56.53,30.5,56.53,30.5Z"/><path class="cls-46" d="M76.61,19.08S70.25,21.87,66,24.33c-4,2.3-9,5.92-9.69,6.39.81-.4,4-2,10.21-5.58C73.74,21,76.61,19.08,76.61,19.08Z"/><path class="cls-47" d="M46.85,8.24l.74,1.28a9.29,9.29,0,0,0,2.26-.72c1-.49,3.17-1.82,4.4-2.53s4.32-2.34,5.16-2.83a10.72,10.72,0,0,0,2-1.72L60.54.28A30,30,0,0,0,52.81,3.7C47.92,6.52,46.85,8.24,46.85,8.24Z"/><path d="M47.46,9.79l-.9-1.55.08-.13c0-.07,1.16-1.81,6-4.63A30.05,30.05,0,0,1,60.49,0l.18,0,1,1.76-.12.13a11.17,11.17,0,0,1-2,1.77l-2,1.1c-1.12.6-2.38,1.29-3.15,1.73L53,7.29c-1.11.65-2.37,1.4-3,1.74a9.74,9.74,0,0,1-2.33.73Zm-.31-1.53.57,1a9,9,0,0,0,2-.66c.67-.33,1.91-1.07,3-1.72l1.36-.81c.78-.44,2-1.12,3.16-1.73.87-.46,1.64-.88,2-1.09a9.9,9.9,0,0,0,1.78-1.54L60.42.57a32.27,32.27,0,0,0-7.48,3.35C48.89,6.25,47.49,7.83,47.15,8.26Z"/><path class="cls-50" d="M54.15,5.77c1.31-.75,4.1-2.25,4.91-2.71A12.7,12.7,0,0,0,61,1.51L60.35.43a36,36,0,0,0-7.26,3.41C48.43,6.52,47.32,8,47.32,8l.55,1A11.26,11.26,0,0,0,50,8.18"/><rect class="cls-51" x="70.09" y="40.97" width="13.3" height="4.61" transform="translate(-11.36 44.07) rotate(-29.94)"/><rect class="cls-51" x="69.97" y="44.84" width="15.69" height="1.65" rx="0.31" transform="translate(-12.41 44.93) rotate(-29.94)"/><path class="cls-52" d="M78,46.12c1.49-.93,2.49-1.43,4-2.4.76-.5,2.26-1.18,2-2.52h0L70.88,48.71l0,0C72,49.84,76.61,47,78,46.12Z"/><path class="cls-53" d="M71.21,49a14,14,0,0,1,2.16-1.47l8.48-4.89a17.2,17.2,0,0,1,2.29-1.1A13,13,0,0,1,82.06,43l-8.61,5A21.51,21.51,0,0,1,71.21,49Z"/><path class="cls-54" d="M82.16,37.48a.32.32,0,0,1-.11.42L69,45.43a.32.32,0,0,1-.43-.12l-.52-.9a.31.31,0,0,1,.12-.42l13.06-7.52a.3.3,0,0,1,.42.11Z"/><path class="cls-52" d="M75.24,41.41c1.48-.93,2.48-1.44,3.94-2.4.76-.5,2.26-1.19,2-2.53h0L68.16,44l0,0C69.24,45.12,73.89,42.25,75.24,41.41Z"/><path class="cls-53" d="M68.5,44.29a14.4,14.4,0,0,1,2.15-1.47l8.49-4.88a17.43,17.43,0,0,1,2.29-1.11,13.85,13.85,0,0,1-2.09,1.42l-8.61,5A23.14,23.14,0,0,1,68.5,44.29Z"/><path class="cls-52" d="M81.87,41.06c.19.33-.49,1.09-1.53,1.69l-5.82,3.36c-1,.59-2,.8-2.23.47l-.8-1.38c-.19-.34.49-1.1,1.53-1.69l5.83-3.36c1-.6,2-.81,2.23-.47Z"/><g class="cls-43"><rect class="cls-55" x="73.69" y="41.9" width="5.04" height="3" transform="translate(-11.49 43.83) rotate(-29.94)"/></g><g class="cls-43"><path class="cls-53" d="M79.43,39.85c-.19.09-.39.19-.58.3l0,0,1.49,2.6,0,0a5.77,5.77,0,0,0,.55-.35Z"/></g><path class="cls-27" d="M42.1,87.07l-.82.32-.8.31c0-.34-.1-.51-.28-.51a1.11,1.11,0,0,0-.8.45.86.86,0,0,0-.23.65c0,.13.15.2.4.2a3.15,3.15,0,0,0,.54-.06,3.72,3.72,0,0,1,.82-.1c.6,0,1,.21,1,.62a1.84,1.84,0,0,1,0,.41,2.83,2.83,0,0,1-.51,1.49,5.64,5.64,0,0,1-1.87,1.75,2.43,2.43,0,0,1-1.25.37,2.13,2.13,0,0,1-1.09-.31c.18-.43.46-1.06.86-1.9a1.25,1.25,0,0,0,.73.24,1.12,1.12,0,0,0,.35-.06,3.14,3.14,0,0,0,.64-.25q.42-.22.42-.48c0-.18-.14-.27-.44-.27a4,4,0,0,0-.87.13,4.67,4.67,0,0,1-.88.12A1.06,1.06,0,0,1,37.5,90a.83.83,0,0,1-.34-.87,5.37,5.37,0,0,1,1.53-2.76,4.26,4.26,0,0,1,2.46-1.69c.67,0,1,.46,1,1.51C42.15,86.48,42.13,86.76,42.1,87.07Z"/><path d="M38.39,93.22a2.42,2.42,0,0,1-1.22-.34L37,92.77l.09-.21c.17-.42.46-1,.86-1.91l.1-.21a1.21,1.21,0,0,1-.67-.2,1.05,1.05,0,0,1-.45-1.1,5.64,5.64,0,0,1,1.6-2.9,4.41,4.41,0,0,1,2.63-1.77,1,1,0,0,1,.81.27,1.94,1.94,0,0,1,.45,1.49c0,.26,0,.55,0,.87l0,.16-.14,0-.82.31-1.14.44V87.7c0-.22,0-.27,0-.27a1,1,0,0,0-.59.38.6.6,0,0,0-.18.43h.16a2.67,2.67,0,0,0,.49-.06,4.84,4.84,0,0,1,.87-.1c.91,0,1.2.44,1.29.82a1.75,1.75,0,0,1,.05.46A3,3,0,0,1,41.72,91a5.83,5.83,0,0,1-1.95,1.83A2.74,2.74,0,0,1,38.39,93.22Zm-.77-.67a1.93,1.93,0,0,0,1.89-.17,5.16,5.16,0,0,0,1.79-1.67,2.58,2.58,0,0,0,.47-1.35,2,2,0,0,0,0-.35c0-.11-.11-.43-.81-.43a3.88,3.88,0,0,0-.77.09c-1,.21-1.21-.14-1.24-.34a1.08,1.08,0,0,1,.29-.85,1.35,1.35,0,0,1,1-.54.49.49,0,0,1,.48.41l.51-.2.68-.25c0-.25,0-.47,0-.67a1.62,1.62,0,0,0-.29-1.13.57.57,0,0,0-.44-.13,4.1,4.1,0,0,0-2.29,1.6,5.24,5.24,0,0,0-1.47,2.63.58.58,0,0,0,.23.63c.19.14.51.16,1.3,0a4.41,4.41,0,0,1,.92-.13c.65,0,.69.4.69.52,0,.4-.42.63-.55.7a2.82,2.82,0,0,1-.7.27,1.41,1.41,0,0,1-1-.07C38,91.71,37.77,92.19,37.62,92.55Zm.51-2.11.17.11a.94.94,0,0,0,.87.15,2.34,2.34,0,0,0,.59-.23c.23-.12.29-.22.29-.26a3.91,3.91,0,0,0-1,.1A4.25,4.25,0,0,1,38.13,90.44Z"/><path class="cls-27" d="M44.45,86.77c-.06.21-.11.41-.15.61l-.12.6,1.72-.37-.1,1.49c-.81.14-1.45.26-1.91.37,0,.14-.06.29-.08.43l-.08.42,2-.29-.14,2a23.61,23.61,0,0,0-3.92.74L43,85.07l3.58-.53-.15,2C45.68,86.6,45,86.68,44.45,86.77Z"/><path d="M41.36,93.11l1.37-8.26,4.07-.6-.18,2.51-.21,0c-.64.06-1.23.13-1.76.21,0,.15-.07.3-.1.45l0,.21,1.67-.35-.13,2-.19,0c-.71.13-1.3.24-1.75.34,0,.09,0,.17,0,.26L44,90l2-.28-.18,2.52-.21,0a24.14,24.14,0,0,0-3.88.73Zm1.8-7.82L42,92.43a23.78,23.78,0,0,1,3.38-.63l.1-1.48-2,.3.15-.77c0-.13,0-.28.07-.43l0-.16.16,0c.44-.1,1-.22,1.74-.35l.06-.95-1.77.37.2-1c0-.21.09-.42.15-.64l0-.15.16,0q.8-.12,1.74-.21l.1-1.48Z"/><path class="cls-27" d="M46.94,85.16a10.38,10.38,0,0,1,2.76-.5c1,0,1.45.33,1.44,1a4,4,0,0,1-1.82,2.91c.1.27.51,1.13,1.24,2.57l-1.68,1.51-1.14-3h0c-.17.93-.3,1.8-.39,2.59l-1.7.48c0-.16.1-.64.24-1.43Zm1.36,1.7a6.41,6.41,0,0,0-.17.73l-.16.73a4.25,4.25,0,0,0,.75-.5,2,2,0,0,0,.55-.7.38.38,0,0,0,.06-.18c0-.16-.11-.24-.31-.24A2.31,2.31,0,0,0,48.3,86.86Z"/><path d="M45.35,93.11l0-.37q0-.26.24-1.44L46.72,85l.15,0c2.14-.64,3.61-.7,4.21-.09a1.11,1.11,0,0,1,.31.84,4.07,4.07,0,0,1-1.77,3c.16.38.55,1.18,1.17,2.38l.08.17-.14.13-1.68,1.52-.27.24-1-2.5c-.1.61-.18,1.19-.24,1.73l0,.17Zm1.81-7.75-1,6-.19,1,1.17-.32c.09-.75.21-1.57.37-2.45l0-.24.22,0,.16,0,.08.2,1,2.62,1.27-1.14c-.69-1.36-1.08-2.15-1.18-2.42L49,88.5l.14-.12a3.77,3.77,0,0,0,1.73-2.71.65.65,0,0,0-.16-.49C50.31,84.76,49,84.83,47.16,85.36Zm.46,3.42.26-1.24c0-.25.11-.5.18-.74l0-.13.13,0c1.08-.37,1.36,0,1.36.32a.58.58,0,0,1-.09.3,2.07,2.07,0,0,1-.61.76,3.47,3.47,0,0,1-.79.54Zm.88-1.72c0,.19-.09.39-.13.58l0,.16.21-.17A1.67,1.67,0,0,0,49,87l0-.07A1.64,1.64,0,0,0,48.5,87.06Z"/><path class="cls-27" d="M51.46,85.17l1.83-.34a51.59,51.59,0,0,0-1.09,5l1-.43L54,85.17l1.84-.34a54.6,54.6,0,0,0-1.45,7.47l-1.72.47.21-1.19-2.73,1.19Z"/><path d="M49.8,93.18,51.24,85l2.39-.45-.1.38c-.44,1.68-.78,3.21-1,4.58l.47-.2L53.75,85l2.39-.45-.09.38a55.74,55.74,0,0,0-1.45,7.43v.17l-2.27.62.2-1.12-2.3,1Zm3.38-2L53,92.42l1.18-.32a56,56,0,0,1,1.34-6.95l-1.28.24-.75,4.24-1.56.65.07-.44c.22-1.39.56-3,1-4.69l-1.28.24-1.22,7,2.3-1Z"/><path class="cls-27" d="M54.25,92.82a43.7,43.7,0,0,0,2.21-7.47L59,84.93l-.37,3.94,1-3.64,2.47-.43a51.71,51.71,0,0,0-.44,6.31v1.11l-2.19.39.39-4.71-1.41,5.21-1.18.16L58,86.66l-1.53,5.86Z"/><path d="M57,93.56,57.4,90l-.72,2.76-2.82.38.16-.4a44.81,44.81,0,0,0,2.2-7.43l0-.17,3.06-.5-.14,1.44.3-1.06,3-.52,0,.34a51.12,51.12,0,0,0-.44,6.28v1.32l-2.71.48.18-2.3-.73,2.73Zm.75-7,.49.09L57.58,93l.7-.09,1.37-5,.49.08-.36,4.38L61.44,92v-.9a52,52,0,0,1,.4-6l-2,.35-1,3.48-.49-.09.34-3.61-2.08.33a43.23,43.23,0,0,1-2,7l1.65-.22Z"/><path class="cls-56" d="M20.48,95.62a1.34,1.34,0,0,1,1.27.94l-.94,1a.58.58,0,0,0-.43-.2c-.3,0-.6.25-.91.76A3.67,3.67,0,0,0,19,99.29a2,2,0,0,0-.05.46.79.79,0,0,0,.4.77.67.67,0,0,0,.28.06c.29,0,.59-.21.9-.64l.27,1a2.32,2.32,0,0,1-1.66.91,1.32,1.32,0,0,1-1.26-.91,2.83,2.83,0,0,1-.24-1.18,4.71,4.71,0,0,1,.12-1,5.17,5.17,0,0,1,1-2A2.32,2.32,0,0,1,20.48,95.62Z"/><path d="M19.1,102.09A1.57,1.57,0,0,1,17.61,101a3.11,3.11,0,0,1-.26-1.28,4.67,4.67,0,0,1,.13-1.08,5.27,5.27,0,0,1,1-2.1,2.57,2.57,0,0,1,2-1.2A1.58,1.58,0,0,1,22,96.46l.06.15L20.82,98l-.19-.19c-.23-.25-.57-.11-.95.51a3.41,3.41,0,0,0-.47,1.08,1.56,1.56,0,0,0-.05.4c0,.36.15.48.26.54s.53,0,.87-.49l.31-.42L21,101l-.09.11A2.55,2.55,0,0,1,19.1,102.09Zm1.38-6.22a2.08,2.08,0,0,0-1.61,1,4.86,4.86,0,0,0-.9,1.91,4.28,4.28,0,0,0-.12,1,2.47,2.47,0,0,0,.22,1.07,1.06,1.06,0,0,0,1,.77,2,2,0,0,0,1.38-.73l-.11-.4a1,1,0,0,1-1.17.28,1,1,0,0,1-.54-1,2.43,2.43,0,0,1,.06-.51A3.74,3.74,0,0,1,19.26,98c.36-.58.73-.87,1.12-.87a.87.87,0,0,1,.41.11l.66-.73A1,1,0,0,0,20.48,95.87Z"/><path class="cls-56" d="M20.16,102a53.93,53.93,0,0,0,2-6l2.51-.43a32.65,32.65,0,0,0-.39,5.93l-1.75.4.12-1-.55.11-.17.72Zm2.6-2.21.38-3.12h0l-.78,3.2Z"/><path d="M19.77,102.28l.16-.4a55,55,0,0,0,2-5.95l0-.15,3-.51-.06.35a32,32,0,0,0-.39,5.88v.2l-2.29.53.13-1h-.06l-.18.74Zm2.56-6.06a52.84,52.84,0,0,1-1.78,5.44l1.14-.18.17-.72,1.05-.2-.12,1L24,101.3a33.71,33.71,0,0,1,.34-5.42ZM22,100.16l.91-3.77h.48l0,.28L23,100Z"/><path class="cls-56" d="M25.14,96a7.62,7.62,0,0,1,2.1-.39c.75,0,1.11.26,1.1.78,0,1-.89,2.12-2.63,3.23-.12.67-.2,1.29-.26,1.87l-1.31.36c0-.12.08-.49.19-1.11l.37-2C25,97,25.17,96.07,25.14,96Zm1.05,1.32c0,.16-.08.31-.11.47l-.09.45a2.16,2.16,0,0,0,1-.8.3.3,0,0,0,0-.11c0-.09-.07-.14-.21-.14A2.21,2.21,0,0,0,26.19,97.34Z"/><path d="M23.84,102.21l.05-.37c0-.13.08-.5.2-1.12l.36-2c.36-2,.44-2.54.45-2.68l-.11-.21.28-.09c1.68-.51,2.79-.55,3.27,0a.88.88,0,0,1,.25.68c0,1.12-.88,2.23-2.65,3.38q-.17.93-.24,1.74l0,.17Zm1.54-6c0,.32-.14,1-.44,2.64l-.36,2c0,.29-.1.53-.13.71l.77-.21c.06-.53.14-1.11.25-1.72l0-.1.09-.06c1.65-1.06,2.5-2.08,2.51-3a.44.44,0,0,0-.1-.32C27.69,95.78,26.7,95.83,25.38,96.21Zm.26,2.5.19-.95c0-.16.07-.32.11-.48l0-.13.13-.05A2.93,2.93,0,0,1,26.8,97c.34,0,.46.21.46.39a.49.49,0,0,1-.06.22,2.37,2.37,0,0,1-1.1.91Zm.75-1.17a1.89,1.89,0,0,1-.05.23,2,2,0,0,0,.33-.29Z"/><path class="cls-56" d="M31.27,95.68l-.05,1.54-1.1.08a31.5,31.5,0,0,0-.74,4.21l-1.39.36.76-4.4-.45.08-.44.08-.1-1.54Z"/><path d="M27.67,102.21l.77-4.43h-.09l-.72.14-.13-2.06,4-.47-.07,2.06h-.23l-.91.06a31.16,31.16,0,0,0-.69,4l0,.17Zm1.38-5-.75,4.35.85-.22a32,32,0,0,1,.73-4.07l0-.17.18,0L31,97l0-1-3,.35.06,1,.16,0,.46-.07Z"/><path class="cls-56" d="M29.59,102a56.11,56.11,0,0,0,2-6l2.51-.43a32.65,32.65,0,0,0-.39,5.93l-1.75.4.12-1-.55.11-.18.72Zm2.59-2.21.38-3.12h0l-.78,3.2Z"/><path d="M29.2,102.28l.16-.4a52.73,52.73,0,0,0,1.95-5.95l.05-.15,3-.51-.06.35a33,33,0,0,0-.38,5.88v.2l-2.29.53.12-1H31.7l-.17.74Zm2.56-6.06A55.38,55.38,0,0,1,30,101.66l1.14-.18.17-.72,1.05-.2-.12,1,1.21-.28a33.81,33.81,0,0,1,.33-5.42Zm-.32,3.94.92-3.77h.48l0,.28-.4,3.3Z"/><path class="cls-56" d="M34.78,96l1.42-.27a40.65,40.65,0,0,0-1.12,5.75l-1.32.36Z"/><path d="M33.45,102.22l1.11-6.41,2-.36-.1.38a41.29,41.29,0,0,0-1.12,5.7v.17Zm1.54-6-.91,5.28.77-.21a40.73,40.73,0,0,1,1-5.23Z"/><path class="cls-56" d="M36.54,96.05,38,95.76c0,.18,0,.42,0,.73,0,.75,0,1.41.08,2a3.56,3.56,0,0,0,.12.78L38.71,96l1.42-.27A42.12,42.12,0,0,0,39,101.51l-1.31.36s0-.11-.1-.29l-.43-1.22A2.76,2.76,0,0,1,37,100q-.16,1-.27,1.89l-1.32.4Z"/><path d="M35.13,102.62l1.19-6.78,1.92-.39,0,.33c0,.17,0,.4,0,.71s0,.64,0,.93l.28-1.61,2-.36-.09.38a39.85,39.85,0,0,0-1.12,5.7l0,.17-1.67.47-.09-.19s0-.12-.12-.31l-.23-.66c0,.3-.08.6-.11.89l0,.16Zm1.63-6.36-1,5.65.78-.23c.06-.56.15-1.15.26-1.75L37,98.65l.26,1.28s.05.16.11.34l.43,1.23,0,.07.92-.26a40.73,40.73,0,0,1,1-5.23l-.86.16-.72,4.14-.3-1.06a5,5,0,0,1-.13-.83c-.05-.57-.08-1.24-.08-2,0-.16,0-.3,0-.42Z"/><path class="cls-56" d="M40.29,102a53.93,53.93,0,0,0,2-6l2.51-.43a32.65,32.65,0,0,0-.39,5.93l-1.75.4.12-1-.55.11-.17.72Zm2.59-2.21.38-3.12h0l-.78,3.2Z"/><path d="M39.9,102.28l.16-.4A52.73,52.73,0,0,0,42,95.93l.05-.15,3-.51-.06.35a33,33,0,0,0-.38,5.88v.2l-2.29.53.12-1H42.4l-.17.74Zm2.56-6.06a55.38,55.38,0,0,1-1.78,5.44l1.14-.18.17-.72,1-.2-.12,1,1.21-.28a32.6,32.6,0,0,1,.34-5.42Zm-.32,3.94.92-3.77h.48l0,.28-.4,3.3Z"/><path class="cls-56" d="M45.4,96.05l1.43-.29c0,.18,0,.42,0,.73,0,.75,0,1.41.07,2a4.19,4.19,0,0,0,.13.78L47.57,96,49,95.76a40.65,40.65,0,0,0-1.12,5.75l-1.31.36s0-.11-.11-.29L46,100.36c-.07-.2-.11-.33-.12-.38q-.18,1-.27,1.89l-1.32.4Z"/><path d="M44,102.62l1.19-6.78,1.92-.39,0,.33a6.88,6.88,0,0,0,0,.71c0,.33,0,.64,0,.93l.28-1.61,2-.36-.1.38a41.1,41.1,0,0,0-1.11,5.7l0,.17-1.67.47-.09-.19s-.05-.12-.12-.31L46,101c-.05.3-.08.6-.11.89l0,.16Zm1.62-6.36-1,5.65.78-.23c.06-.56.15-1.15.25-1.75l.23-1.28.27,1.28a2.28,2.28,0,0,0,.11.34l.43,1.23,0,.07.92-.26a40.73,40.73,0,0,1,1-5.23l-.86.16-.73,4.14-.29-1.06a4.9,4.9,0,0,1-.14-.83c0-.57-.07-1.24-.07-2v-.42Z"/><path class="cls-56" d="M49.33,96l1.42-.27a40.65,40.65,0,0,0-1.12,5.75l-1.32.36Z"/><path d="M48,102.22l1.11-6.41,2-.36-.1.38a41.1,41.1,0,0,0-1.11,5.7l0,.17Zm1.55-6-.92,5.28.77-.21a40.73,40.73,0,0,1,1-5.23Z"/><path class="cls-56" d="M49.61,101.91a33.78,33.78,0,0,0,1.7-5.75l2-.32-.29,3,.78-2.8,1.9-.33a38.38,38.38,0,0,0-.34,4.86v.85l-1.69.3.3-3.62-1.08,4-.91.13.54-5.09-1.17,4.51Z"/><path d="M51.67,102.55l.22-2-.36,1.41-2.31.31.16-.4a34.24,34.24,0,0,0,1.69-5.71l0-.17,2.47-.4,0,.53.06-.22L56,95.43l0,.34a39.85,39.85,0,0,0-.33,4.83v1.06l-2.21.39.09-1.21-.41,1.52Zm.59-5.44.49.08L52.24,102l.43-.06,1-3.85.49.09-.27,3.29,1.16-.2v-.64a38.77,38.77,0,0,1,.3-4.56L54,96.29l-.74,2.65-.49-.09L53,96.14l-1.49.24A33.87,33.87,0,0,1,50,101.61l1.13-.16Z"/><path class="cls-56" d="M54.67,102a53.8,53.8,0,0,0,2-6l2.52-.43a32.65,32.65,0,0,0-.39,5.93l-1.75.4.12-1-.55.11-.18.72Zm2.59-2.21.38-3.12h0l-.77,3.2Z"/><path d="M54.28,102.28l.15-.4a52.86,52.86,0,0,0,2-5.95l0-.15,3-.51-.06.35A33,33,0,0,0,59,101.5v.2l-2.29.53.12-1h-.06l-.17.74Zm2.55-6.06a55.23,55.23,0,0,1-1.77,5.44l1.14-.18.17-.72,1.05-.2-.12,1,1.21-.28a33.81,33.81,0,0,1,.33-5.42Zm-.31,3.94.92-3.77h.48l0,.28-.4,3.3Z"/><path class="cls-56" d="M59.71,96l1.42-.27c-.4,1.53-.7,2.94-.92,4.23l1.46-.23-.13,1.54a17.75,17.75,0,0,0-2.85.57Z"/><path d="M58.38,102.21l1.11-6.4,2-.36-.1.38c-.36,1.37-.64,2.67-.85,3.86l1.42-.22-.17,2.06-.21,0a16.3,16.3,0,0,0-2.8.56Zm1.54-6L59,101.53a17.3,17.3,0,0,1,2.31-.46l.08-1-1.48.23.06-.35c.19-1.18.47-2.48.82-3.86Z"/><path d="M39.7,106.13h.4v.14h-.4v.57a.28.28,0,0,0,0,.1.18.18,0,0,0,0,.07l.06,0h.29l0,.13,0,0-.08,0h-.29a.3.3,0,0,1-.18-.18.44.44,0,0,1,0-.17v-.57h-.28v-.14h.28v-.26h.18Z"/><path d="M40.73,107.17a.57.57,0,0,1-.16-.11.54.54,0,0,1-.1-.16.46.46,0,0,1,0-.21v0a.85.85,0,0,1,0-.23,1,1,0,0,1,.11-.17.54.54,0,0,1,.16-.1.33.33,0,0,1,.17,0,.4.4,0,0,1,.2,0,.42.42,0,0,1,.15.11.6.6,0,0,1,.08.16.71.71,0,0,1,0,.21v.08h-.76l0,.13a.36.36,0,0,0,.07.1.25.25,0,0,0,.1.08.32.32,0,0,0,.14,0,.47.47,0,0,0,.17,0,.32.32,0,0,0,.12-.11l.11.09a.41.41,0,0,1-.15.14.53.53,0,0,1-.26.06A.66.66,0,0,1,40.73,107.17Zm.08-.89a.24.24,0,0,0-.09.06.2.2,0,0,0-.06.09.5.5,0,0,0,0,.13h.57a.36.36,0,0,0,0-.1.26.26,0,0,0-.14-.17l-.12,0A.18.18,0,0,0,40.81,106.28Z"/><path d="M42.36,106.85a.1.1,0,0,0,0,0l-.08,0-.13,0-.16,0-.13-.06a.23.23,0,0,1-.08-.09.2.2,0,0,1,0-.11.27.27,0,0,1,0-.12.39.39,0,0,1,.08-.1l.13-.07.17,0,.18,0,.13.07a.44.44,0,0,1,.08.11.28.28,0,0,1,0,.13h-.18a.1.1,0,0,0,0-.07.21.21,0,0,0,0-.06l-.08,0H42l-.07,0-.05,0a.18.18,0,0,0,0,.12l0,0,.08,0,.12,0,.17,0a.32.32,0,0,1,.13.07.2.2,0,0,1,.09.09.36.36,0,0,1,0,.11.28.28,0,0,1,0,.13.28.28,0,0,1-.09.1.26.26,0,0,1-.13.06.52.52,0,0,1-.18,0l-.19,0-.14-.08a.31.31,0,0,1-.09-.11.31.31,0,0,1,0-.13h.18a.12.12,0,0,0,0,.09A.23.23,0,0,0,42,107l.08,0h.09l.13,0a.16.16,0,0,0,.08-.05s0,0,0,0a.13.13,0,0,0,0-.1Z"/><path d="M43.3,106.13h.4v.14h-.4v.57a.28.28,0,0,0,0,.1.18.18,0,0,0,0,.07l.06,0h.3l0,.13-.05,0-.07,0h-.3a.3.3,0,0,1-.18-.18.79.79,0,0,1,0-.17v-.57h-.28v-.14h.28v-.26h.18Z"/><path d="M44.76,106.85a.1.1,0,0,0,0,0,.2.2,0,0,0-.08,0l-.13,0-.16,0-.13-.06a.23.23,0,0,1-.08-.09.2.2,0,0,1,0-.11.27.27,0,0,1,0-.12.39.39,0,0,1,.08-.1l.13-.07.17,0,.18,0,.13.07a.44.44,0,0,1,.08.11.28.28,0,0,1,0,.13h-.18a.1.1,0,0,0,0-.07.21.21,0,0,0,0-.06l-.08,0h-.2l-.07,0-.05,0a.18.18,0,0,0,0,.12l0,0,.08,0,.12,0,.18,0a.35.35,0,0,1,.12.07.2.2,0,0,1,.09.09.36.36,0,0,1,0,.11.28.28,0,0,1,0,.13.28.28,0,0,1-.09.1.26.26,0,0,1-.13.06.52.52,0,0,1-.18,0l-.19,0-.14-.08a.31.31,0,0,1-.09-.11.31.31,0,0,1,0-.13h.18a.12.12,0,0,0,0,.09.23.23,0,0,0,.07.07l.08,0h.09l.13,0a.16.16,0,0,0,.08-.05s0,0,0,0a.13.13,0,0,0,0-.1Z"/><path d="M46.47,106.43a.42.42,0,0,1,.21-.28.37.37,0,0,1,.18,0H47l.09,0,0,0s0,0,0,0v-.11h.16v1a.58.58,0,0,1,0,.19l-.09.14a.53.53,0,0,1-.15.08.48.48,0,0,1-.18,0h-.09a.23.23,0,0,1-.11,0l-.1,0a.38.38,0,0,1-.09-.09l.09-.11.07.07.07,0,.08,0H47l.09-.06a.15.15,0,0,0,.06-.09.37.37,0,0,0,0-.12v-.09l0,0,0,0-.09,0h-.11a.37.37,0,0,1-.18,0,.33.33,0,0,1-.13-.11.53.53,0,0,1-.08-.17.76.76,0,0,1,0-.21v0A.78.78,0,0,1,46.47,106.43Zm.16.38a.52.52,0,0,0,.06.13.3.3,0,0,0,.08.08.28.28,0,0,0,.13,0H47l.06,0,.06-.05,0-.06v-.49l0-.06-.06,0-.06,0H46.9a.28.28,0,0,0-.13,0,.24.24,0,0,0-.08.09.34.34,0,0,0-.06.12.76.76,0,0,0,0,.15v0A.61.61,0,0,0,46.63,106.81Z"/><path d="M48.35,107.13a.13.13,0,0,1,0-.06l-.06.05-.08,0a.11.11,0,0,1-.08,0H48a.34.34,0,0,1-.15,0,.35.35,0,0,1-.12-.07.31.31,0,0,1-.07-.09.28.28,0,0,1,0-.13.33.33,0,0,1,0-.15.26.26,0,0,1,.1-.11.34.34,0,0,1,.15-.06.64.64,0,0,1,.2,0h.2v-.08a.19.19,0,0,0,0-.08.18.18,0,0,0,0-.07l-.08,0-.1,0-.1,0-.07,0-.05.06a.13.13,0,0,0,0,.06h-.19l0-.11a.28.28,0,0,1,.09-.1.27.27,0,0,1,.13-.07.48.48,0,0,1,.18,0l.16,0a.61.61,0,0,1,.14.07.31.31,0,0,1,.08.11.24.24,0,0,1,0,.15V107a.49.49,0,0,0,0,.12.3.3,0,0,0,0,.1v0h-.18A.14.14,0,0,1,48.35,107.13Zm-.21-.1.09,0s.05,0,.06,0l.05-.06v-.22h-.17l-.17,0-.11,0a.1.1,0,0,0,0,.05.19.19,0,0,0,0,.08.19.19,0,0,0,0,.07.21.21,0,0,0,0,.06l.06,0,.1,0Z"/><path d="M49.67,106.12h.08l0,.18-.1,0h-.21l-.1,0-.06.07a.73.73,0,0,0,0,.09v.68H49v-1.06h.17v.17a.52.52,0,0,1,.16-.14.46.46,0,0,1,.2,0Z"/><path d="M50.75,107.13a.13.13,0,0,1,0-.06l-.06.05-.08,0a.11.11,0,0,1-.08,0h-.1a.34.34,0,0,1-.15,0,.35.35,0,0,1-.12-.07.31.31,0,0,1-.07-.09.28.28,0,0,1,0-.13.33.33,0,0,1,0-.15.26.26,0,0,1,.1-.11.34.34,0,0,1,.15-.06.64.64,0,0,1,.2,0h.2v-.08a.19.19,0,0,0,0-.08.18.18,0,0,0,0-.07l-.08,0-.1,0-.1,0-.07,0,0,.06a.13.13,0,0,0,0,.06h-.18a.23.23,0,0,1,0-.11.19.19,0,0,1,.08-.1.27.27,0,0,1,.13-.07.48.48,0,0,1,.18,0l.16,0a.61.61,0,0,1,.14.07.31.31,0,0,1,.08.11.24.24,0,0,1,0,.15V107a.49.49,0,0,0,0,.12.3.3,0,0,0,0,.1v0h-.18A.14.14,0,0,1,50.75,107.13Zm-.2-.1.08,0s0,0,.06,0l.05-.06v-.22h-.17l-.17,0-.11,0a.1.1,0,0,0,0,.05.19.19,0,0,0,0,.08.19.19,0,0,0,0,.07.21.21,0,0,0,0,.06l.06,0,.1,0Z"/><path d="M51.27,106.13h.16l0,.15,0-.06.06,0a.19.19,0,0,1,.1-.05l.12,0,.15,0a.28.28,0,0,1,.11.08.36.36,0,0,1,.08.12.9.9,0,0,1,0,.18v.68H52v-.67a.41.41,0,0,0,0-.12.22.22,0,0,0-.05-.08.12.12,0,0,0-.08,0l-.1,0-.09,0-.08,0,0,0a.18.18,0,0,0,0,.07v.76h-.18Z"/><path d="M52.9,106.13h.4v.14h-.4v.57a.15.15,0,0,0,0,.1.16.16,0,0,0,0,.07l.06,0h.3l0,.13-.05,0-.07,0h-.3a.3.3,0,0,1-.18-.18.79.79,0,0,1,0-.17v-.57h-.28v-.14h.28v-.26h.18Z"/><path d="M54.24,106.13v.9h.35v.16H53.7V107h.36v-.74H53.7v-.16Zm-.2-.32,0,0,0,0h.09l0,0,0,0v0a.14.14,0,0,1,0,.07.12.12,0,0,1-.09,0,.11.11,0,0,1-.08,0,.14.14,0,0,1,0-.07Z"/><path d="M55.56,106.85a.1.1,0,0,0,0,0l-.08,0-.13,0-.16,0-.13-.06a.34.34,0,0,1-.08-.09.2.2,0,0,1,0-.11.27.27,0,0,1,0-.12.39.39,0,0,1,.08-.1l.13-.07.17,0,.18,0,.13.07a.28.28,0,0,1,.08.11.28.28,0,0,1,0,.13h-.18a.17.17,0,0,0,0-.07l0-.06-.08,0h-.2l-.07,0,0,0a.18.18,0,0,0,0,.12s0,0,0,0l.08,0,.12,0,.18,0,.13.07a.24.24,0,0,1,.08.09.2.2,0,0,1,0,.11.31.31,0,0,1-.13.23.26.26,0,0,1-.13.06.47.47,0,0,1-.17,0l-.2,0L55,107.1a.31.31,0,0,1-.09-.11.31.31,0,0,1,0-.13h.18l0,.09a.23.23,0,0,0,.07.07l.08,0h.1l.12,0a.19.19,0,0,0,.09-.05.05.05,0,0,0,0,0,.13.13,0,0,0,0-.1Z"/><path d="M58,106.85a.1.1,0,0,0,0,0l-.08,0-.12,0-.17,0-.13-.06a.34.34,0,0,1-.08-.09.2.2,0,0,1,0-.11.27.27,0,0,1,0-.12.39.39,0,0,1,.08-.1.61.61,0,0,1,.14-.07l.16,0,.18,0,.13.07a.28.28,0,0,1,.08.11.28.28,0,0,1,0,.13H58a.17.17,0,0,0,0-.07l-.05-.06-.08,0h-.2l-.07,0,0,0a.14.14,0,0,0,0,.06.13.13,0,0,0,0,.06l0,0,.08,0,.12,0,.18,0,.13.07a.24.24,0,0,1,.08.09.2.2,0,0,1,0,.11.28.28,0,0,1,0,.13.39.39,0,0,1-.08.1.35.35,0,0,1-.14.06.47.47,0,0,1-.17,0l-.19,0a.53.53,0,0,1-.15-.08.31.31,0,0,1-.09-.11.31.31,0,0,1,0-.13h.18a.46.46,0,0,0,0,.09.23.23,0,0,0,.07.07l.08,0h.1l.12,0a.19.19,0,0,0,.09-.05l0,0v0A.07.07,0,0,0,58,106.85Z"/><path d="M59.15,107.13s0,0,0-.06l-.06.05-.07,0a.16.16,0,0,1-.09,0h-.1a.39.39,0,0,1-.15,0l-.12-.07a.31.31,0,0,1-.07-.09.27.27,0,0,1,0-.13.33.33,0,0,1,0-.15.35.35,0,0,1,.1-.11.34.34,0,0,1,.15-.06.64.64,0,0,1,.2,0h.2v-.08a.19.19,0,0,0,0-.08.18.18,0,0,0,0-.07l-.08,0-.1,0-.1,0-.07,0,0,.06a.13.13,0,0,0,0,.06h-.18a.23.23,0,0,1,0-.11.25.25,0,0,1,.08-.1.33.33,0,0,1,.13-.07.48.48,0,0,1,.18,0l.16,0,.14.07a.31.31,0,0,1,.12.26V107a.49.49,0,0,0,0,.12.17.17,0,0,0,0,.1v0h-.19A.14.14,0,0,1,59.15,107.13ZM59,107l.08,0s0,0,.06,0l0-.06v-.22H59l-.16,0a.23.23,0,0,0-.11,0,.12.12,0,0,0-.05.05.19.19,0,0,0,0,.08.17.17,0,0,0,0,.07.21.21,0,0,0,0,.06l.07,0,.09,0Z"/><path d="M59.67,106.13h.17v.15l0-.06.06,0a.19.19,0,0,1,.1-.05l.12,0,.15,0a.28.28,0,0,1,.11.08.25.25,0,0,1,.08.12.9.9,0,0,1,0,.18v.68h-.18v-.67a.41.41,0,0,0,0-.12.22.22,0,0,0-.05-.08.1.1,0,0,0-.07,0l-.11,0-.09,0-.08,0-.05,0,0,.07v.76h-.18Z"/><path d="M61.56,106.85a.1.1,0,0,0,0,0l-.08,0-.12,0-.17,0-.13-.06a.34.34,0,0,1-.08-.09.2.2,0,0,1,0-.11.27.27,0,0,1,0-.12.28.28,0,0,1,.09-.1.4.4,0,0,1,.13-.07l.16,0,.18,0,.13.07a.31.31,0,0,1,.09.11.28.28,0,0,1,0,.13h-.19a.17.17,0,0,0,0-.07l0-.06-.08,0h-.2l-.07,0,0,0a.14.14,0,0,0,0,.06.13.13,0,0,0,0,.06s0,0,0,0l.08,0,.12,0,.18,0,.13.07a.24.24,0,0,1,.08.09.22.22,0,0,1,0,.24.39.39,0,0,1-.08.1.35.35,0,0,1-.14.06.47.47,0,0,1-.17,0l-.19,0a.53.53,0,0,1-.15-.08L60.9,107a.31.31,0,0,1,0-.13h.18l0,.09a.23.23,0,0,0,.07.07l.08,0h.1l.12,0a.19.19,0,0,0,.09-.05l0,0a.43.43,0,0,0,0,0A.08.08,0,0,0,61.56,106.85Z"/><path d="M29.15,109.53a.13.13,0,0,1,0-.06.18.18,0,0,1-.07,0l-.07,0a.16.16,0,0,1-.09,0h-.09a.33.33,0,0,1-.27-.09.2.2,0,0,1-.07-.09.28.28,0,0,1,0-.13.24.24,0,0,1,0-.15.31.31,0,0,1,.09-.11.44.44,0,0,1,.16-.06.6.6,0,0,1,.2,0h.19v-.08a.19.19,0,0,0,0-.08l-.05-.07-.08,0-.11,0-.09,0-.07,0,0,.06a.14.14,0,0,0,0,.06h-.18a.23.23,0,0,1,0-.11.28.28,0,0,1,.09-.1.32.32,0,0,1,.13-.07.47.47,0,0,1,.17,0l.17,0a.4.4,0,0,1,.13.07.24.24,0,0,1,.09.11.33.33,0,0,1,0,.15v.49s0,.08,0,.12l0,.1v0h-.19A.13.13,0,0,1,29.15,109.53Zm-.21-.1a.32.32,0,0,0,.09,0l.06-.05a.21.21,0,0,0,0-.06v-.22H29l-.17,0-.11,0a.1.1,0,0,0,0,0,.24.24,0,0,0,0,.08s0,0,0,.07l0,.06a.15.15,0,0,0,.07,0l.09,0Z"/><path d="M29.67,108.53h.16v.16l.05-.07.06,0,.11,0,.11,0,.15,0a.25.25,0,0,1,.12.08.24.24,0,0,1,.07.12.48.48,0,0,1,0,.18v.68h-.18v-.67a.37.37,0,0,0,0-.12.14.14,0,0,0-.12-.12l-.1,0-.09,0a.2.2,0,0,0-.08,0l-.06,0,0,.06v.76h-.18Z"/><path d="M31.13,109.57a.57.57,0,0,1-.16-.11.54.54,0,0,1-.1-.16.46.46,0,0,1,0-.21v0a.59.59,0,0,1,0-.23,1,1,0,0,1,.11-.17.65.65,0,0,1,.15-.1.39.39,0,0,1,.18,0,.42.42,0,0,1,.2,0,.31.31,0,0,1,.14.11.42.42,0,0,1,.09.16.71.71,0,0,1,0,.21v.08H31l0,.13a.36.36,0,0,0,.07.1.25.25,0,0,0,.1.08.31.31,0,0,0,.13,0,.48.48,0,0,0,.18,0,.32.32,0,0,0,.12-.11l.11.09a.45.45,0,0,1-.16.14.49.49,0,0,1-.25.06A.66.66,0,0,1,31.13,109.57Zm.08-.89a.24.24,0,0,0-.09.06.22.22,0,0,0-.07.09.5.5,0,0,0,0,.13h.57a.36.36,0,0,0,0-.1.33.33,0,0,0-.06-.1.19.19,0,0,0-.08-.07l-.12,0A.18.18,0,0,0,31.21,108.68Z"/><path d="M32.76,109.25a.1.1,0,0,0,0,0l-.09,0-.12,0-.16,0-.13-.06a.26.26,0,0,1-.09-.09.36.36,0,0,1,0-.11.27.27,0,0,1,0-.12.25.25,0,0,1,.08-.1l.13-.07.17,0,.17,0a.46.46,0,0,1,.14.07.76.76,0,0,1,.08.11.28.28,0,0,1,0,.13h-.18a.19.19,0,0,0,0-.07l-.05-.06-.07,0h-.2l-.08,0,0,0a.18.18,0,0,0,0,.12.08.08,0,0,0,0,0,.15.15,0,0,0,.08,0l.12,0,.17,0a.4.4,0,0,1,.13.07.18.18,0,0,1,.08.09.2.2,0,0,1,0,.11.28.28,0,0,1,0,.13.28.28,0,0,1-.09.1.31.31,0,0,1-.13.06.52.52,0,0,1-.18,0,.58.58,0,0,1-.19,0l-.14-.08a.31.31,0,0,1-.09-.11.28.28,0,0,1,0-.13h.18a.12.12,0,0,0,0,.09l.06.07.09,0h.09l.13,0,.08,0,0,0a.06.06,0,0,0,0,0S32.77,109.26,32.76,109.25Z"/><path d="M33.7,108.53h.4v.14h-.4v.57a.28.28,0,0,0,0,.1.18.18,0,0,0,0,.07.09.09,0,0,0,.06,0h.29l0,.13-.06,0-.07,0h-.29a.3.3,0,0,1-.18-.18.43.43,0,0,1,0-.17v-.57h-.27v-.14h.27v-.26h.19Z"/><path d="M34.7,108.63l0,0,.11,0,.12,0,.15,0a.28.28,0,0,1,.11.08.41.41,0,0,1,.08.13.9.9,0,0,1,0,.18v.67h-.18v-.67a.37.37,0,0,0,0-.11.22.22,0,0,0,0-.08.18.18,0,0,0-.07,0l-.11,0-.09,0-.08,0-.06,0,0,.06v.77h-.18v-1.5h.18v.6S34.68,108.65,34.7,108.63Z"/><path d="M35.93,109.57a.57.57,0,0,1-.16-.11.54.54,0,0,1-.1-.16.46.46,0,0,1,0-.21v0a.59.59,0,0,1,0-.23,1,1,0,0,1,.11-.17.54.54,0,0,1,.16-.1.33.33,0,0,1,.17,0,.4.4,0,0,1,.2,0,.31.31,0,0,1,.14.11.42.42,0,0,1,.09.16.71.71,0,0,1,0,.21v.08h-.76l0,.13a.36.36,0,0,0,.07.1.25.25,0,0,0,.1.08.32.32,0,0,0,.14,0,.47.47,0,0,0,.17,0,.32.32,0,0,0,.12-.11l.11.09a.41.41,0,0,1-.15.14.53.53,0,0,1-.26.06A.66.66,0,0,1,35.93,109.57Zm.08-.89a.24.24,0,0,0-.09.06.2.2,0,0,0-.06.09.28.28,0,0,0,0,.13h.57a.36.36,0,0,0,0-.1.26.26,0,0,0-.14-.17l-.12,0A.18.18,0,0,0,36,108.68Zm.41-.56-.26.26H36l.18-.26Z"/><path d="M37.56,109.25a.1.1,0,0,0,0,0l-.08,0-.13,0-.16,0L37,109a.23.23,0,0,1-.08-.09.2.2,0,0,1,0-.11.27.27,0,0,1,0-.12.39.39,0,0,1,.08-.1l.13-.07.17,0,.17,0a.46.46,0,0,1,.14.07.76.76,0,0,1,.08.11.28.28,0,0,1,0,.13h-.18a.19.19,0,0,0,0-.07.13.13,0,0,0,0-.06l-.07,0h-.2l-.07,0,0,0a.18.18,0,0,0,0,.12.08.08,0,0,0,0,0,.15.15,0,0,0,.08,0l.12,0,.17,0a.32.32,0,0,1,.13.07.14.14,0,0,1,.08.09.2.2,0,0,1,0,.11.28.28,0,0,1,0,.13.28.28,0,0,1-.09.1.31.31,0,0,1-.13.06.52.52,0,0,1-.18,0,.58.58,0,0,1-.19,0L37,109.5a.31.31,0,0,1-.09-.11.28.28,0,0,1,0-.13h.18a.12.12,0,0,0,0,.09.23.23,0,0,0,.07.07l.08,0h.09l.13,0a.16.16,0,0,0,.08,0s0,0,0,0a.06.06,0,0,0,0,0S37.57,109.26,37.56,109.25Z"/><path d="M38.64,108.53v.9H39v.16H38.1v-.16h.36v-.74H38.1v-.16Zm-.2-.32,0,0,0,0h.09l0,0a.05.05,0,0,1,0,0s0,0,0,0a.08.08,0,0,1,0,.07s0,0-.08,0a.11.11,0,0,1-.08,0,.08.08,0,0,1,0-.07S38.44,108.22,38.44,108.21Z"/><path d="M39.53,109.57a.57.57,0,0,1-.16-.11.54.54,0,0,1-.1-.16.46.46,0,0,1,0-.21v0a.85.85,0,0,1,0-.23,1,1,0,0,1,.11-.17.54.54,0,0,1,.16-.1.33.33,0,0,1,.17,0,.4.4,0,0,1,.2,0,.31.31,0,0,1,.14.11.42.42,0,0,1,.09.16.71.71,0,0,1,0,.21v.08h-.76l0,.13a.36.36,0,0,0,.07.1.25.25,0,0,0,.1.08.32.32,0,0,0,.14,0,.47.47,0,0,0,.17,0,.32.32,0,0,0,.12-.11l.11.09a.41.41,0,0,1-.15.14.53.53,0,0,1-.26.06A.66.66,0,0,1,39.53,109.57Zm.08-.89a.24.24,0,0,0-.09.06.2.2,0,0,0-.06.09.5.5,0,0,0,0,.13H40a.36.36,0,0,0,0-.1.26.26,0,0,0-.14-.17l-.12,0A.18.18,0,0,0,39.61,108.68Z"/><path d="M41.67,108.53h.16v.16l.06-.07a.09.09,0,0,1,.06,0l.1,0,.11,0,.15,0a.25.25,0,0,1,.12.08.24.24,0,0,1,.07.12.48.48,0,0,1,0,.18v.68h-.18v-.67a.37.37,0,0,0,0-.12.14.14,0,0,0-.12-.12l-.1,0-.09,0a.2.2,0,0,0-.08,0l-.06,0,0,.06v.76h-.18Z"/><path d="M43.44,108.53v.9h.34v.16H42.9v-.16h.36v-.74H42.9v-.16Zm-.2-.32,0,0,0,0h.09l0,0a.05.05,0,0,1,0,0s0,0,0,0a.08.08,0,0,1,0,.07s0,0-.08,0a.11.11,0,0,1-.08,0,.08.08,0,0,1,0-.07S43.24,108.22,43.24,108.21Z"/><path d="M45.53,109.57a.57.57,0,0,1-.16-.11.54.54,0,0,1-.1-.16.46.46,0,0,1,0-.21v0a.85.85,0,0,1,0-.23,1,1,0,0,1,.11-.17.54.54,0,0,1,.16-.1.33.33,0,0,1,.17,0,.4.4,0,0,1,.2,0,.42.42,0,0,1,.15.11.6.6,0,0,1,.08.16.71.71,0,0,1,0,.21v.08h-.76l0,.13a.36.36,0,0,0,.07.1.25.25,0,0,0,.1.08.32.32,0,0,0,.14,0,.47.47,0,0,0,.17,0,.32.32,0,0,0,.12-.11l.11.09a.41.41,0,0,1-.15.14.53.53,0,0,1-.26.06A.66.66,0,0,1,45.53,109.57Zm.08-.89a.24.24,0,0,0-.09.06.2.2,0,0,0-.06.09.5.5,0,0,0,0,.13H46a.36.36,0,0,0,0-.1.31.31,0,0,0,0-.1.22.22,0,0,0-.09-.07l-.12,0A.18.18,0,0,0,45.61,108.68Zm.41-.56-.26.26h-.14l.18-.26Z"/><path d="M46.9,108.53h.4v.14h-.4v.57a.28.28,0,0,0,0,.1.18.18,0,0,0,.05.07s0,0,.06,0h.3l0,.13-.05,0-.07,0h-.3a.3.3,0,0,1-.18-.18.79.79,0,0,1,0-.17v-.57h-.28v-.14h.28v-.26h.18Z"/><path d="M47.65,108.84a.77.77,0,0,1,.1-.18.58.58,0,0,1,.15-.11.52.52,0,0,1,.4,0,.58.58,0,0,1,.15.11.52.52,0,0,1,.1.18.66.66,0,0,1,0,.21v0a.66.66,0,0,1,0,.21.48.48,0,0,1-.1.17.33.33,0,0,1-.15.11.42.42,0,0,1-.2,0,.45.45,0,0,1-.2,0,.33.33,0,0,1-.15-.11.69.69,0,0,1-.1-.17.66.66,0,0,1,0-.21v0A.66.66,0,0,1,47.65,108.84Zm.17.38a.23.23,0,0,0,.06.12.2.2,0,0,0,.09.09.3.3,0,0,0,.26,0,.28.28,0,0,0,.1-.09.33.33,0,0,0,.05-.12.77.77,0,0,0,0-.15v0a.77.77,0,0,0,0-.15.5.5,0,0,0-.05-.13.39.39,0,0,0-.1-.08.3.3,0,0,0-.26,0,.24.24,0,0,0-.09.08.31.31,0,0,0-.06.13.77.77,0,0,0,0,.15v0A.77.77,0,0,0,47.82,109.22Z"/><path d="M49.56,109.44a.41.41,0,0,1-.14.12.34.34,0,0,1-.18,0,.39.39,0,0,1-.15,0L49,109.5a.32.32,0,0,1-.08-.14,1.12,1.12,0,0,1,0-.2v-.63h.18v.63a.57.57,0,0,0,0,.14.19.19,0,0,0,0,.09.18.18,0,0,0,.07,0h.2l.08,0a.12.12,0,0,0,0-.05.21.21,0,0,0,0-.06v-.76h.18v1.06h-.16Z"/><path d="M50.87,108.52H51l0,.18-.1,0h-.21l-.1,0-.06.07-.05.09v.68h-.18v-1.06h.17v.17a.52.52,0,0,1,.16-.14.46.46,0,0,1,.2,0Z"/><path d="M51.27,108.83a.89.89,0,0,1,.08-.17.38.38,0,0,1,.14-.11.33.33,0,0,1,.17,0,.35.35,0,0,1,.29.12v-.54h.18v1.5H52v-.12a.31.31,0,0,1-.13.1.47.47,0,0,1-.17,0,.31.31,0,0,1-.17,0,.3.3,0,0,1-.14-.11.67.67,0,0,1-.08-.17.76.76,0,0,1,0-.21v0A.78.78,0,0,1,51.27,108.83Zm.16.39a.67.67,0,0,0,.06.12.3.3,0,0,0,.08.08.28.28,0,0,0,.13,0,.24.24,0,0,0,.15,0,.36.36,0,0,0,.1-.11v-.49a.52.52,0,0,0-.1-.11.33.33,0,0,0-.14,0,.29.29,0,0,0-.14,0,.24.24,0,0,0-.08.09.34.34,0,0,0-.06.12.76.76,0,0,0,0,.15v0A.76.76,0,0,0,51.43,109.22Z"/><path d="M53,108.53v.9h.34v.16H52.5v-.16h.36v-.74H52.5v-.16Zm-.2-.32,0,0s0,0,0,0H53l0,0,0,0v0a.12.12,0,0,1,0,.07.12.12,0,0,1-.09,0,.11.11,0,0,1-.08,0s0,0,0-.07Z"/><path d="M54.36,109.25a.1.1,0,0,0,0,0l-.08,0-.13,0-.16,0-.13-.06a.34.34,0,0,1-.08-.09.2.2,0,0,1,0-.11.27.27,0,0,1,0-.12.39.39,0,0,1,.08-.1l.13-.07.17,0,.18,0,.13.07a.38.38,0,0,1,.08.11.28.28,0,0,1,0,.13h-.18a.17.17,0,0,0,0-.07l-.05-.06-.08,0H54l-.07,0-.05,0a.18.18,0,0,0,0,.12.08.08,0,0,0,0,0,.2.2,0,0,0,.08,0l.12,0,.18,0,.13.07a.24.24,0,0,1,.08.09.2.2,0,0,1,0,.11.28.28,0,0,1,0,.13.28.28,0,0,1-.09.1.26.26,0,0,1-.13.06.47.47,0,0,1-.17,0,.62.62,0,0,1-.2,0l-.14-.08a.31.31,0,0,1-.09-.11.28.28,0,0,1,0-.13h.18a.46.46,0,0,0,0,.09.23.23,0,0,0,.07.07l.08,0h.1l.12,0a.19.19,0,0,0,.09,0,.05.05,0,0,0,0,0,.06.06,0,0,0,0,0S54.37,109.26,54.36,109.25Z"/><path d="M55.56,109.25a.1.1,0,0,0,0,0l-.08,0-.13,0-.16,0L55,109a.34.34,0,0,1-.08-.09.2.2,0,0,1,0-.11.27.27,0,0,1,0-.12.39.39,0,0,1,.08-.1l.13-.07.17,0,.18,0,.13.07a.38.38,0,0,1,.08.11.28.28,0,0,1,0,.13h-.18a.17.17,0,0,0,0-.07l0-.06-.08,0h-.2l-.07,0,0,0a.18.18,0,0,0,0,.12.08.08,0,0,0,0,0,.2.2,0,0,0,.08,0l.12,0,.18,0,.13.07a.24.24,0,0,1,.08.09.2.2,0,0,1,0,.11.31.31,0,0,1-.13.23.26.26,0,0,1-.13.06.47.47,0,0,1-.17,0,.62.62,0,0,1-.2,0L55,109.5a.31.31,0,0,1-.09-.11.28.28,0,0,1,0-.13h.18l0,.09a.23.23,0,0,0,.07.07l.08,0h.1l.12,0a.19.19,0,0,0,.09,0,.05.05,0,0,0,0,0,.06.06,0,0,0,0,0S55.57,109.26,55.56,109.25Z"/><path d="M56.33,109.57a.57.57,0,0,1-.16-.11.86.86,0,0,1-.1-.16.65.65,0,0,1,0-.21v0a.59.59,0,0,1,0-.23.59.59,0,0,1,.1-.17.54.54,0,0,1,.16-.1.39.39,0,0,1,.18,0,.45.45,0,0,1,.2,0,.49.49,0,0,1,.14.11.4.4,0,0,1,.08.16.71.71,0,0,1,0,.21v.08h-.75a.28.28,0,0,0,0,.13.21.21,0,0,0,.06.1.23.23,0,0,0,.11.08.28.28,0,0,0,.13,0,.47.47,0,0,0,.17,0,.45.45,0,0,0,.13-.11l.11.09a.56.56,0,0,1-.16.14.53.53,0,0,1-.26.06A.76.76,0,0,1,56.33,109.57Zm.08-.89a.24.24,0,0,0-.09.06l-.06.09a.5.5,0,0,0,0,.13h.57a.36.36,0,0,0,0-.1.31.31,0,0,0-.05-.1.27.27,0,0,0-.08-.07l-.12,0A.2.2,0,0,0,56.41,108.68Z"/><path d="M57.36,108.63a.24.24,0,0,1,.08-.09.28.28,0,0,1,.13,0h.08a.09.09,0,0,1,.06,0s0,0,0,0l0,0,0,0,0,0,.06,0h.17l.08,0,.05.09a.61.61,0,0,1,0,.14v.79H58v-.8a.07.07,0,0,0,0-.05.08.08,0,0,0,0,0l0,0h-.11l0,0,0,0v0h0v.8h-.17v-.8s0,0,0-.06a.08.08,0,0,0,0,0l0,0h-.11l0,0,0,0s0,0,0,0v.85h-.18v-1.06h.17Z"/><path d="M58.74,109.57a.38.38,0,0,1-.16-.11.57.57,0,0,1-.11-.16.65.65,0,0,1,0-.21v0a.59.59,0,0,1,0-.23.45.45,0,0,1,.11-.17.5.5,0,0,1,.33-.14.45.45,0,0,1,.2,0,.49.49,0,0,1,.14.11.4.4,0,0,1,.08.16.71.71,0,0,1,0,.21v.08h-.75a.28.28,0,0,0,0,.13.21.21,0,0,0,.06.1.28.28,0,0,0,.11.08.28.28,0,0,0,.13,0,.47.47,0,0,0,.17,0,.45.45,0,0,0,.13-.11l.11.09a.56.56,0,0,1-.16.14.53.53,0,0,1-.26.06A.64.64,0,0,1,58.74,109.57Zm.07-.89a.24.24,0,0,0-.09.06l-.06.09a.5.5,0,0,0,0,.13h.57a.36.36,0,0,0,0-.1.31.31,0,0,0-.05-.1.27.27,0,0,0-.08-.07l-.12,0A.22.22,0,0,0,58.81,108.68Z"/><path d="M59.67,108.53h.17v.16a.18.18,0,0,1,0-.07l.06,0,.1,0,.12,0,.15,0a.28.28,0,0,1,.11.08.25.25,0,0,1,.08.12.9.9,0,0,1,0,.18v.68h-.18v-.67a.41.41,0,0,0,0-.12.22.22,0,0,0-.05-.08l-.07,0-.11,0-.09,0-.08,0a.12.12,0,0,0-.05,0s0,0,0,.06v.76h-.18Z"/><path d="M61.3,108.53h.4v.14h-.4v.57a.25.25,0,0,0,0,.1.16.16,0,0,0,0,.07s0,0,.06,0h.3l0,.13-.05,0-.07,0h-.3l-.1-.07a.26.26,0,0,1-.07-.11.43.43,0,0,1,0-.17v-.57h-.28v-.14h.28v-.26h.18Z"/><path d="M49.56,111.65a.1.1,0,0,0,0-.05l-.08,0-.13,0-.16,0-.13-.06a.34.34,0,0,1-.08-.09.2.2,0,0,1,0-.11.27.27,0,0,1,0-.12A.39.39,0,0,1,49,111l.13-.07.17,0,.18,0,.13.07a.28.28,0,0,1,.08.11.28.28,0,0,1,0,.13h-.18a.17.17,0,0,0,0-.07l0-.06-.08,0h-.2l-.07,0,0,.05a.18.18,0,0,0,0,.12s0,0,0,0l.08,0,.12,0,.18,0,.13.07a.24.24,0,0,1,.08.09.36.36,0,0,1,0,.11.28.28,0,0,1,0,.13.28.28,0,0,1-.09.1.26.26,0,0,1-.13.06.47.47,0,0,1-.17,0l-.2,0L49,111.9a.31.31,0,0,1-.09-.11.31.31,0,0,1,0-.13h.18a.46.46,0,0,0,0,.09.13.13,0,0,0,.07.06l.08,0h.1l.12,0a.19.19,0,0,0,.09,0,.05.05,0,0,0,0,0,.13.13,0,0,0,0-.1Z"/><path d="M50.76,111.84a.49.49,0,0,1-.13.12.41.41,0,0,1-.19,0,.39.39,0,0,1-.15,0l-.11-.08a.64.64,0,0,1-.08-.14,1.12,1.12,0,0,1,0-.2v-.63h.18v.63a.57.57,0,0,0,0,.14.19.19,0,0,0,0,.09.18.18,0,0,0,.07,0h.2l.08,0s0,0,.05,0a.21.21,0,0,0,0-.06v-.76h.18v1h-.16Z"/><path d="M52.07,110.92h.08l0,.18-.1,0h-.22l-.1.05-.06.07a.36.36,0,0,0,0,.09V112h-.18v-1h.17v.17a.52.52,0,0,1,.16-.14.46.46,0,0,1,.2,0Z"/><path d="M54.35,111.93a.13.13,0,0,1,0-.06l-.06,0-.07,0a.16.16,0,0,1-.09,0H54a.34.34,0,0,1-.15,0l-.12-.07a.26.26,0,0,1-.07-.1.21.21,0,0,1,0-.12.33.33,0,0,1,0-.15.26.26,0,0,1,.1-.11.34.34,0,0,1,.15-.06.64.64,0,0,1,.2,0h.2v-.08a.19.19,0,0,0,0-.08.18.18,0,0,0,0-.07l-.08,0-.1,0-.1,0-.07,0-.05.06a.13.13,0,0,0,0,.06h-.18a.23.23,0,0,1,0-.11.19.19,0,0,1,.08-.1.27.27,0,0,1,.13-.07.48.48,0,0,1,.18,0l.16,0a.46.46,0,0,1,.14.07.53.53,0,0,1,.09.11.33.33,0,0,1,0,.15v.49a.49.49,0,0,0,0,.12.3.3,0,0,0,0,.1h-.18A.08.08,0,0,1,54.35,111.93Zm-.2-.1.08,0s.05,0,.06,0l.05-.06v-.22h-.17l-.16,0a.33.33,0,0,0-.12.05l0,0a.19.19,0,0,0,0,.08.17.17,0,0,0,0,.07.21.21,0,0,0,0,.06l.06,0,.1,0Z"/><path d="M54.87,110.93H55l0,.15.05-.06.06,0a.19.19,0,0,1,.1,0l.12,0,.15,0a.28.28,0,0,1,.11.08.36.36,0,0,1,.08.12.9.9,0,0,1,0,.18V112h-.18v-.66a.41.41,0,0,0,0-.12.22.22,0,0,0,0-.08.12.12,0,0,0-.08,0l-.1,0-.09,0-.08,0,0,0-.05.07V112h-.18Z"/><path d="M56.64,110.93v.9H57V112H56.1v-.15h.36v-.74H56.1v-.16Zm-.2-.32,0,0,0,0h.09l0,0,0,0v0a.14.14,0,0,1,0,.07.11.11,0,0,1-.08,0,.12.12,0,0,1-.09,0,.14.14,0,0,1,0-.07Z"/><path d="M57.36,111a.24.24,0,0,1,.08-.09.28.28,0,0,1,.13,0h.08l.06,0,0,0,0,0,0,0,0,0,.06,0h.17l.08,0,.05.09a.61.61,0,0,1,0,.14V112H58v-.79a.07.07,0,0,0,0,0,.08.08,0,0,0,0,0,.05.05,0,0,0,0,0h-.11l0,0,0,0s0,0,0,0h0V112h-.17v-.79s0,0,0-.06a.08.08,0,0,0,0,0,.05.05,0,0,0,0,0h-.11l0,0s0,0,0,0a0,0,0,0,0,0,0V112h-.18v-1h.17Z"/><path d="M59.15,111.93s0,0,0-.06l-.06,0L59,112a.16.16,0,0,1-.09,0h-.1a.39.39,0,0,1-.15,0l-.12-.07a.26.26,0,0,1-.07-.1.22.22,0,0,1,0-.12.33.33,0,0,1,0-.15.35.35,0,0,1,.1-.11.34.34,0,0,1,.15-.06.64.64,0,0,1,.2,0h.2v-.08a.19.19,0,0,0,0-.08.18.18,0,0,0,0-.07l-.08,0-.1,0-.1,0-.07,0,0,.06a.13.13,0,0,0,0,.06h-.18a.23.23,0,0,1,0-.11.25.25,0,0,1,.08-.1.33.33,0,0,1,.13-.07.48.48,0,0,1,.18,0l.16,0a.46.46,0,0,1,.14.07.31.31,0,0,1,.12.26v.49a.49.49,0,0,0,0,.12.17.17,0,0,0,0,.1h-.19A.08.08,0,0,1,59.15,111.93Zm-.2-.1.08,0s0,0,.06,0l0-.06v-.22H59l-.16,0a.23.23,0,0,0-.11.05.12.12,0,0,0-.05,0,.19.19,0,0,0,0,.08.17.17,0,0,0,0,.07.21.21,0,0,0,0,.06l.07,0,.09,0Z"/><path d="M60.36,111.84a.49.49,0,0,1-.13.12.41.41,0,0,1-.19,0,.39.39,0,0,1-.15,0l-.11-.08a.64.64,0,0,1-.08-.14,1.12,1.12,0,0,1,0-.2v-.63h.18v.63a.57.57,0,0,0,0,.14.39.39,0,0,0,0,.09.18.18,0,0,0,.07,0h.2l.08,0,.06,0,0-.06v-.76h.18v1h-.16Z"/><path d="M61.59,110.93h.21l-.39.52.4.53h-.2l-.3-.4L61,112h-.21l.41-.53-.4-.52H61l.28.39Z"/><path d="M33.52,124.42c-9.8,0-18.29-.4-18.72-1.45l.46-.19c.3.42,4.24,1,14.33,1.12,16,.24,33.75-.62,34.55-1.66l.49.06c0,.36-.44.59-1.58.82C59.52,123.82,45.53,124.42,33.52,124.42Z"/><path d="M33.06,81.37c-9.88,0-18.42-.4-18.87-1.47l.46-.19c.31.41,4.28,1,14.46,1.11,16.22.24,34.25-.61,35.05-1.65l.49.06c0,.35-.43.58-1.53.8C59.53,80.76,45.27,81.37,33.06,81.37Z"/></g></g></g></svg>